<svg xmlns="http://www.w3.org/2000/svg">
<defs>
<font id="EutemiaI-Italic" horiz-adv-x="409" >
  <font-face 
    font-family="Eutemia I"
    font-weight="400"
    font-style="italic"
    font-stretch="normal"
    units-per-em="2048"
    panose-1="2 0 0 0 0 0 0 0 0 0"
    ascent="1638"
    descent="-410"
    x-height="600.001"
    cap-height="1605"
    bbox="-1092 -1749 2587 2098"
    underline-thickness="150"
    underline-position="-142"
    slope="-16.33"
    unicode-range="U+0020-U+00D6"
  />
<missing-glyph horiz-adv-x="2118" 
d="M909 1485c-39.333 -162.667 -5.66699 -290.333 101 -383h12l6 -4c22 -16.667 41 -27.667 57 -33h29c62.667 62.667 96.667 134.334 102 215.001l-12 4c-14.667 12.667 -29 21 -43 25c-9.33301 -82 -42.666 -125.667 -99.999 -131c-58.667 47.333 -82.667 107.333 -72 180
c5.33301 46 16.333 48.667 33 8h10c9.33301 39.333 7.33301 75 -6 107c50.667 94 91.667 92.333 123 -5c5.33301 -5.33301 9.33301 -11.333 12 -18h12l25 14l2 13l4 12v67l4 58l-10 4c-30 24.667 -62 41.667 -96 51c-14 -18 -30.333 -27.667 -49 -29
c-8.66699 24.667 -20.334 42.667 -35.001 54c-10 -74 -42 -127.333 -96 -160c-42.667 113.333 -21.667 213 63 299c-2.66699 13.333 -11 18.666 -25 15.999c-88.667 -116 -105.667 -237.333 -51 -364zM1485 1749l4.00293 -12.0039c203.333 -67.333 315.333 -185 336 -353
c-15.333 -143.333 -92.666 -244.333 -231.999 -303c-31.333 -22.667 -62 -36.334 -92 -41.001l16 -18c14 0 24.333 0.666992 31 2c40 12 75 16 105 12c-2.66699 -12 -9.66699 -22 -21 -30c-96.667 -58.667 -195 -88 -295 -88c5.33301 24 17 41 35 51l-2 20h27
c31.333 -14.667 60.666 -18.667 87.999 -12c34 36.667 21 60.667 -39 72c14.667 -16.667 19.334 -34 14.001 -52c-19.333 2.66699 -36.333 9.66699 -51 21c-28.667 52 -101.667 71.667 -219 59c-16.667 10 -31.667 14.333 -45 13c56 -48 44.333 -67.333 -35 -58v-14
c6.66699 -5.33301 12.667 -11 18 -17c-10.667 -9.33301 -20.667 -16 -30 -20c-92 1.33301 -118.667 15 -80 41v14c-79.333 -8 -91.666 10 -36.999 54l-12 8l-4 -8c-40 -10 -75.667 -11.667 -107 -5h-45c-16.667 -13.333 -33.667 -20 -51 -20

<glyph glyph-name=".notdef" horiz-adv-x="2118" 
d="M909 1485c-39.333 -162.667 -5.66699 -290.333 101 -383h12l6 -4c22 -16.667 41 -27.667 57 -33h29c62.667 62.667 96.667 134.334 102 215.001l-12 4c-14.667 12.667 -29 21 -43 25c-9.33301 -82 -42.666 -125.667 -99.999 -131c-58.667 47.333 -82.667 107.333 -72 180
c5.33301 46 16.333 48.667 33 8h10c9.33301 39.333 7.33301 75 -6 107c50.667 94 91.667 92.333 123 -5c5.33301 -5.33301 9.33301 -11.333 12 -18h12l25 14l2 13l4 12v67l4 58l-10 4c-30 24.667 -62 41.667 -96 51c-14 -18 -30.333 -27.667 -49 -29
c-8.66699 24.667 -20.334 42.667 -35.001 54c-10 -74 -42 -127.333 -96 -160c-42.667 113.333 -21.667 213 63 299c-2.66699 13.333 -11 18.666 -25 15.999c-88.667 -116 -105.667 -237.333 -51 -364zM1485 1749l4.00293 -12.0039c203.333 -67.333 315.333 -185 336 -353
c-15.333 -143.333 -92.666 -244.333 -231.999 -303c-31.333 -22.667 -62 -36.334 -92 -41.001l16 -18c14 0 24.333 0.666992 31 2c40 12 75 16 105 12c-2.66699 -12 -9.66699 -22 -21 -30c-96.667 -58.667 -195 -88 -295 -88c5.33301 24 17 41 35 51l-2 20h27
c31.333 -14.667 60.666 -18.667 87.999 -12c34 36.667 21 60.667 -39 72c14.667 -16.667 19.334 -34 14.001 -52c-19.333 2.66699 -36.333 9.66699 -51 21c-28.667 52 -101.667 71.667 -219 59c-16.667 10 -31.667 14.333 -45 13c56 -48 44.333 -67.333 -35 -58v-14
c6.66699 -5.33301 12.667 -11 18 -17c-10.667 -9.33301 -20.667 -16 -30 -20c-92 1.33301 -118.667 15 -80 41v14c-79.333 -8 -91.666 10 -36.999 54l-12 8l-4 -8c-40 -10 -75.667 -11.667 -107 -5h-45c-16.667 -13.333 -33.667 -20 -51 -20
c-12.667 -9.33301 -23.667 -14.666 -33 -15.999l-12 -27c34 10.667 57.667 5.33398 71 -15.999l-16 12c-15.333 -4 -29.666 -5.33301 -42.999 -4l-8 4c-22 -11.333 -40.333 -17 -55 -17c-6 18 -0.666992 35.333 16 52c-24.667 -7.33301 -43.667 -17.666 -57 -30.999v-25
c31.333 -30 70 -31.333 116 -4h17c1.33301 -31.333 30.666 -42 87.999 -32l35 4c1.33301 -42.667 -38.334 -45.667 -119.001 -9l-8 -18c38 -26 35 -37 -9 -33l-32 8c-34.667 1.33301 -62.667 7 -84 17c-19.333 5.33301 -35 10 -47 14l-9 4l-28 8l-29 17
c-24.667 9.33301 -44.334 20.333 -59.001 33l-9 26l17 4h20l29 -8c35.333 -10.667 66.666 -15.334 93.999 -14.001v14c-34 5.33301 -59.333 20.333 -76 45c31.333 1.33301 58 5.33301 80 12c19.333 18 37.333 31 54 39c25.333 71.333 71.666 115.666 138.999 132.999
c6.66699 14 13.334 24.333 20.001 31v12l8 46c-28.667 65.333 -34 128 -16 188c-40.667 19.333 -72.667 43.333 -96 72c-54.667 -24.667 -106.667 -27.667 -156 -9l-51 -4l-49 -53c-15.333 -99.333 16.667 -169.666 96 -210.999l12 -24v-27
c-20 -15.333 -35 -31.666 -45 -48.999c61.333 -12.667 95 -43.334 101 -92.001l-4 -9l-17 -18c-72 -5.33301 -123.667 22.667 -155 84l-27 14l6 -8l12 -26c22 -27.333 37 -55.333 45 -84h-20c-152.667 94 -214 210 -184 348c47.333 134.667 142 226 284 274l56 33
c-64.667 -6.66699 -119.334 -23.667 -164.001 -51c-83.333 -4 -152.333 -36.333 -207 -97c-27.333 -5.33301 -50.666 -13.333 -69.999 -24l-8 -12c-16.667 -18 -29.667 -34 -39 -48v-12l-20 -92c-19.333 4 -25 22.333 -17 55c-64 -47.333 -70 -107.333 -18 -180
c28.667 -58.667 11 -54.667 -53 12c-1.33301 -76 30.667 -130.333 96 -163c64 -41.333 57 -49 -21 -23c54.667 -94 127 -127.333 217 -100l25 -9v-12c-8 -16 -13.333 -31 -16 -45c64 -31.333 127.333 -41.666 190 -30.999c8 -8 12 -17.333 12 -28
c30 -1.33301 54 -5.66602 72 -12.999v-16l-68 -2c-20 2.66699 -38.333 2.66699 -55 0l-24 14h-21l-6 4h-12c-41.333 8.66699 -75 13 -101 13l4 -13l13 -12l14 -6l25 -16l4 -9c5.33301 -2.66699 8 -5.33398 8 -8.00098c24.667 -12 43 -24.333 55 -37h74
c42 -5.33301 74.667 -1 98 13h21c8 -11.333 9.33301 -21.666 4 -30.999h-17h-16h-14l-33 -4l-80 -12c56 -44 117.333 -52.333 184 -25c38.667 9.33301 75 8 109 -4c-15.333 -24.667 -47.333 -34.334 -96 -29.001c-4 -2.66699 -8.33301 -4 -13 -4
c-40.667 1.33301 -74 -0.666992 -100 -6l8 -12l13 -8c35.333 -15.333 63.333 -30.666 84 -45.999c66.667 42.667 129.334 47 188.001 13c-12.667 -30 -11.334 -56.667 3.99902 -80l-8 -4l-25 -8c-4 -3.33301 -8 -5 -12 -5l-4 -8l-8 -4l-13 -4l-59 -39v-12l8 -12
c24.667 -26 43 -48.667 55 -68l-8 -8c-30 -23.333 -52.333 -47.333 -67 -72c-30 15.333 -54 31 -72 47l-25 4l-4 -8l-22 -39l-12 -28l-5 -13l-4 -8c-13.333 -35.333 -21.333 -65.333 -24 -90h12l8 -4h17c26 -8 48.333 -12 67 -12v-13l-4 -28c-4 -26 -4 -48.667 0 -68l-12 -4
c-14 0 -25 -1.33301 -33 -4c-24.667 1.33301 -45.667 -1.33398 -63 -8.00098v-29l4 -6l12 -63c2.66699 -4 4 -8 4 -12c2.66699 -4.66699 4 -9 4 -13l8 -8l9 -31c9.33301 -9.33301 14.666 -18.666 15.999 -27.999h14l8 8l13 4c26 16.667 48.333 28.334 67 35.001
c6 -15.333 14.333 -28.333 25 -39l45 -57c-32.667 -26 -56 -54 -70 -84l9 -2l4 -9c17.333 -10.667 31 -20 41 -28c40.667 -30 80 -50 118 -60l13 27c6.66699 30 17.334 54 32.001 72c32 -12.667 63 -19 93 -19v-12c0 -14 -1.66699 -25 -5 -33
c-1.33301 -24.667 -1.33301 -45.667 0 -63c76.667 -6 144.334 3.33301 203.001 28l-10 39l-4 8c-10.667 19.333 -17.667 36.666 -21 51.999l17 4c12 8 23.667 13.333 35 16c17.333 14 35 23.667 53 29l4 -8c2.66699 -3.33301 3.33398 -6.33301 2.00098 -9
c22 -17.333 37 -37 45 -59l16 -4c60.667 43.333 103 93.666 127 150.999h-12l-6 9c-30 16 -54.667 30.333 -74 43c24.667 32.667 39.667 67.334 45 104.001h21l10 -4c16.667 -4 30.334 -6.66699 41.001 -8c13.333 -5.33301 25.666 -8 36.999 -8l10 28v10l4 70v12v47
c-4 10.667 -5.33301 20.334 -4 29.001l-10 4l-100 -17c-6 40 -17 75 -33 105h12l8 6l17 4l4 8c21.333 7.33301 39.666 15.666 54.999 24.999c-28.667 65.333 -67.667 117.333 -117 156l-4 8c-32.667 -28.667 -56.667 -55.334 -72 -80.001
c-4 2.66699 -6.66699 5.33398 -8 8.00098c-32.667 23.333 -60.667 40.333 -84 51c8.66699 41.333 29.334 66 62.001 74v10c-5.33301 32.667 -5.33301 60.667 0 84l-8 37c69.333 24.667 134 16.334 194 -24.999c27.333 26 53.333 45.333 78 58c-14 12 -29 18 -45 18h-12h-39
l-13 4c-13.333 0 -24 1.33301 -32 4c-24.667 1.33301 -46 4.33301 -64 9l-4 16l12 4c19.333 -1.33301 36.666 0 51.999 4l16 -4l12 -4h21l12 -4h18c37.333 -8 66.666 -12 87.999 -12l5 8l49 45l-4 6c-20.667 5.33301 -38.667 8 -54 8
c-52.667 12.667 -99 15.334 -139 8.00098c-5.33301 7.33301 -8 14.333 -8 21c19.333 4 35 8 47 12c16.667 -4 30.334 -5.33301 41.001 -4h16h17h14h70h30h29c31.333 18 54 39.333 68 64l-68 -5h-12l-8 -4h-13h-12h-10c-11.333 -4 -22.333 -5.33301 -33 -4h-12h-51l-29 4
c6.66699 15.333 32 23.666 76 24.999c-2.66699 9.33301 -4 20.333 -4 33c98 -23.333 180.333 -5 247 55c-18.667 2.66699 -30 12.334 -34 29.001h12c35.333 6.66699 66.666 8 93.999 4c2.66699 2.66699 5.33398 4 8.00098 4l13 4l4 6l12 4l8 8l51 41
c14 19.333 23.667 35 29 47c-24.667 -12 -47.334 -19.333 -68.001 -22v10l9 8l12 4l27 17c20 22 41 38.333 63 49c10.667 30 14.667 58 12 84c1.33301 39.333 -8.66699 34 -30 -16l-9 -5c-17.333 -20 -36.333 -35 -57 -45l-2 25c84.667 86 93.667 168.667 27 248
c9.33301 -44 2.33301 -73.333 -21 -88c14 113.333 -28.333 181.666 -127 204.999l-8 8l-21 22l-12 4l-10 9l-8 4l-8 8c-20.667 6.66699 -37.334 13.334 -50.001 20.001c-14.667 6 -27.334 13 -38.001 21h-5h5h-5l-8 4c-18.667 -6.66699 -35 -5.33398 -49 3.99902l-6 2l-8 4
l-8 4l-9 4l-12 4h-8l-8 5h-9l-8 4h4h-4h-8l-6 4h2h-6h4h-4l-8 4h4h-4h-17l-8 4h4h-8h4h-4l-8 4h4h-8h4h-4zM1270 1430c24.667 -59.333 64.001 -95.667 118.001 -109c0 -14 -1.33301 -25 -4 -33c-50 -12 -80.667 -41.333 -92 -88h29c19.333 23.333 40.333 30.333 63 21
c22 -16.667 34.333 -38 37 -64l21 -20c95.333 -46.667 162.666 -23 201.999 71l-12 66c28.667 74.667 35.667 147.667 21 219c-44 62.667 -100 94.667 -168 96c-40 15.333 -77.667 22.333 -113 21c-75.333 -42.667 -109.333 -102.667 -102 -180zM1393 1544
c6.66699 -64 -1 -122.668 -23 -176.001c-102.667 46.667 -104 109.334 -4 188.001zM573.003 1518v-62.001c1.33301 -35.333 0 -65.333 -4 -90c-16 4 -29.667 10 -41 18c-39.333 54.667 -45.333 109.334 -18 164.001c27.333 -2.66699 48.333 -12.667 63 -30zM1585 1367.99
c-8 -82 -51.667 -111.333 -131 -88v16v13v28l6 43l-4 13l-2 125l27 26c86 -35.333 120.667 -94 104 -176zM670.003 1512.99c81.333 -12 86.667 -38.333 16 -79l-29 4c10 27.333 13 52.333 9 75h4h-4h4zM762.004 1328.99c-35.333 -74.667 -67.333 -102.666 -96 -83.999
c-36 6.66699 -47 45.667 -33 117c17.333 -1.33301 32.333 -4 45 -8c13.333 13.333 29 20.666 47 21.999c16 -13.333 28.333 -29 37 -47zM1601 1190c-28.667 -42.667 -67.333 -57.668 -116 -45.001c-40 22 -34.667 38.333 16 49c38 5.33301 70 18.333 96 39
c26 -9.33301 27.333 -23.666 4 -42.999zM850.005 1013.99l-8 14c31.333 -1.33301 34 -6 8 -14zM1284 1027.99c-5.33301 -20.667 -14.333 -22 -27 -4l17 4h10zM1081 951.994c-20 -17.333 -28 -13 -24 13zM1325 955.994c-42.667 -27.333 -69.333 -25.666 -80 5.00098
c31.333 -4.66699 58 -6.33398 80 -5.00098zM893.006 929.994l12 8c2.66699 -13.333 -1.33301 -16 -12 -8zM1442.01 888.994c18.667 -31.333 2.33301 -38.333 -49 -21c0 10 4 17 12 21h37zM657.005 855.994v25c45.333 -14 45.333 -22.333 0 -25zM797.005 820.994l3.99902 21
c22.667 -14 21.334 -21 -3.99902 -21zM1274 833.994c-8.66699 -16.667 -13 -15.333 -13 4zM922.004 669.995c-19.333 -30 -27.667 -28.667 -25 4zM1241 636.995c0 -26 -9.66699 -26 -29 0h29zM864.003 615.995l3.99902 17c16.667 -10 15.334 -15.667 -3.99902 -17z
M973.002 577.995c-40 6.66699 -41.333 25 -4 55c8 -20.667 9.33301 -39 4 -55zM1165 611.995c4 -20 -2.66699 -30 -20 -30c-14 10.667 -16.667 25 -8 43zM1089 560.995c16.667 19.333 23.668 18 21.001 -4c14.667 19.333 20.667 19.333 18 0
c11.333 10.667 19.666 6.66699 24.999 -12c12 22 18.667 22 20 0l17 16c-1.33301 -6.66699 0 -13.334 4 -20.001c-26 -7.33301 -48 -4.66602 -66 8.00098c-32.667 -4 -53.667 7 -63 33c17.333 1.33301 25.333 -5.66699 24 -21zM1194 564.995v17c22 -10 22 -15.667 0 -17z
M917.003 556.995l5 16c12 -8 10.333 -13.333 -5 -16zM876.003 519.995c-40.667 -13.333 -74.001 -30.334 -100.001 -51.001h-39l17 20l12 5l6 8l12 4l8 6l9 4l24 8l4 8h13c14.667 12.667 30.334 21 47.001 25c4 -13.333 -0.333008 -25.666 -13 -36.999zM960.002 536.994
c-13.333 -89.333 -27.667 -93.667 -43 -13l27 17zM1048 460.993c11.333 16 22.333 14.667 33 -4l-12 -13h-12h-17l-123 -12c8.66699 14 19 23.667 31 29l17 4h12l63 8zM1358 392.993c-15.333 -27.333 -36.001 -42.333 -62.001 -45c-4 6.66699 -4 13.667 0 21h13
c10.667 17.333 21.334 31 32.001 41l29 34c12 -20 8 -37 -12 -51zM788 337.993l-17.999 -12c-14 -23.333 -26.333 -41.333 -37 -54h-29c7.33301 15.333 15.666 26.333 24.999 33c20.667 34 44.667 60.667 72 80c31.333 -1.33301 27 -17 -13 -47zM989.001 343.993l8 12
c22 -2.66699 19.333 -6.66699 -8 -12zM608.001 325.993l17 21.999c16 -35.333 10.333 -42.666 -17 -21.999zM1321 28.9922c-40 -165.333 -143.667 -242.334 -311 -231.001l-17 4c-16 4 -31 9.33301 -45 16c170.667 -34 288 20.667 352 164
c42.667 174.667 -13.333 293.334 -168 356.001l-4 10c148 -62.667 212.333 -169 193 -319zM1028 343.991h49c-22 -4 -41.667 -4 -59 0h10zM956.001 329.991l21 12c39.333 -1.33301 32.333 -5.33301 -21 -12zM1014 321.991c-146 -44 -215.666 -137.664 -208.999 -280.997
c26 -94 79.333 -156 160 -186c99.333 -28.667 183 -10.334 251 54.999c67.333 75.333 86.666 156.666 57.999 243.999c-32.667 81.333 -87.334 133 -164.001 155l-4 13c136.667 -52 198.667 -148.333 186 -289c-34 -116 -105.667 -182 -215 -198
c-121.333 -7.33301 -206.666 39 -255.999 139c-57.333 181.333 2.66699 298.666 180 351.999zM1098 304.994c-84.667 -5.33301 -160 -29.333 -226 -72c46.667 48 100 76 160 84c26 -1.33301 48 -5.33301 66 -12zM889.002 292.994c6.66699 9.33301 14.667 16.001 24 20.001
c2.66699 -10.667 -5.33301 -17.334 -24 -20.001zM629.002 300.995c-18 -28.667 -29.667 -56.668 -35 -84.001c-30 -1.33301 -27.333 29.334 8 92.001zM833.002 237.994c14 21.333 28.333 38.333 43 51c3.33301 -15.333 -11 -32.333 -43 -51zM1114 271.994l10.001 -12.001
l13 -6l8 -8l12 -8l8 -13l13 -8l8 -12c31.333 -20.667 55 -39 71 -55l-4 -21c-5.33301 -16.667 -8 -31 -8 -43l-4 -16l-4 -13l-4 -16l-4 -29l-4 -22c-4.66699 -20 -7.66699 -35.667 -9 -47l-8 -12l-18 -4c-24.667 -14 -49.334 -22.333 -74.001 -25
c-9.33301 -6.66699 -19.666 -10.667 -30.999 -12c-31.333 -15.333 -59.333 -24.333 -84 -27l-12 11l-8 8l-12 12l-13 8l-47 41l-20 23c-22 13.333 -39 26 -51 38l8 33l4 20l4 13v12l4 10v12l2 17l21 100l12 4l12 4l8 4l25 9l6 4h12c23.333 10.667 46.666 16.667 69.999 18
l18 -63h13c8 32.667 23 59.334 45 80.001zM864.003 216.993l-4 -8l-22 -72c-20.667 15.333 -12 46 26 92c2.66699 -4 2.66699 -8 0 -12zM590.003 208.993c-14 -15.333 -22.333 -14 -25 4zM1456 116.993c-31.333 -15.333 -40.333 -8.66699 -27 20l21 -8
c16 14 34.333 21 55 21c45.333 -11.333 29 -22.333 -49 -33zM582.003 3.99219c-52 15.333 -29.668 26.333 66.999 33c54.667 -12.667 32.334 -23.667 -66.999 -33zM1350 -2.00781c-74 -190.667 -209.331 -262.333 -405.998 -215c0 7.33301 1.33301 15 4 23l8 -23
c7.33301 4.66699 11.666 9.66699 12.999 15c169.333 -22 285.333 38 348 180h16c-6.66699 8 -9.33398 15.333 -8.00098 22zM1261 -61.0068l5.00098 8c9.33301 18 15.333 33.667 18 47c5.33301 -24.667 -2.33398 -43 -23.001 -55zM1208 -81.0068l-8 -5l-6 -4l-8 -4
c-56 -31.333 -109.333 -48.333 -160 -51c-14 1.33301 -12 5.33301 6 12h12l29 11l12 4c20.667 8 38 13.333 52 16c4 4 8 5.33301 12 4l49 21zM1200 -133.007c-4 2.66699 -4 6.33398 0 11.001c5.33301 -2.66699 5.33301 -6.33398 0 -11.001zM1157 -149.007
c9.33301 -9.33301 6.66699 -10.667 -8 -4zM1149.01 -161.008c-48 -18 -93 -23.668 -135 -17.001l-17 4c52 -5.33301 98.667 0.333984 140 17.001zM780.006 -245.009c-14.667 -19.333 -30.332 -32.999 -46.999 -40.999c-24.667 -2.66699 -24.667 8.33301 0 33l8 8l8 4
c10 13.333 19 23.666 27 30.999c27.333 -6 28.666 -17.667 3.99902 -35z" />
    <glyph glyph-name="space" unicode=" " horiz-adv-x="569" 
 />
    <glyph glyph-name="space" unicode="&#xa0;" horiz-adv-x="569" 
 />
    <glyph glyph-name="exclam" unicode="!" horiz-adv-x="874" 
d="M824 1598h27c18.667 0 28 -33.667 28 -101v-37h46l9 -9h9c-380 -695.333 -570 -1053.33 -570 -1074l-9 -10h-18l-28 28c0 20 89 246.667 267 680l174 505zM202 157h36c24 -14 36 -33 36 -57c-18 -66.667 -37 -100 -57 -100h-36c-15.333 0 -27.333 23.667 -36 71
c14 46 33 74.667 57 86z" />
    <glyph glyph-name="quotedbl" unicode="&#x22;" horiz-adv-x="851" 
d="M771 1900h35c24 -14 39.333 -33 46 -57c0 -45.333 -9.33301 -87 -28 -125c-26 -43.333 -69.333 -85 -130 -125l65 150c-22 0 -37.333 23.667 -46 71c14.667 46 34 74.667 58 86zM1053 1900h36c24 -14 39.333 -33 46 -57c0 -45.333 -9.66699 -87 -29 -125
c-25.333 -43.333 -68.333 -85 -129 -125l65 150c-22.667 0 -38 23.667 -46 71c14 46 33 74.667 57 86z" />
    <glyph glyph-name="numbersign" unicode="#" horiz-adv-x="1191" 
d="M875 1498h19.001c12.667 0 19 -9.66699 19 -29l-250 -433h164c89.333 256.667 143.666 385 162.999 385h58l10 -10h9l-77 -192v-9h10c82 162 139.667 258 173 288h29l19 -19l-250 -452h163l58 -19c0 -47.333 -9.66699 -73 -29 -77h-240
c-10.667 0 -55.667 -80.333 -135 -241h289l19 -19c-13.333 -38.667 -26 -58 -38 -58h-97c0 -44.667 -28.667 -67 -86 -67h-135l-144 -336c-64 0 -96 -22.667 -96 -68l-29 -19l-10 10v9l174 404h-231c-91.333 -168 -146 -280 -164 -336h-19c0 -26 -19.333 -55 -58 -87l-9 29
l29 58c-19.333 0 -29 6.33301 -29 19l125 327h-144l-20 19l29 38h-125l-19 20c15.333 38 28 57 38 57h298l87 241h-308l-19 19c15.333 38.667 28.333 58 39 58h192l29 19h96c10 2 64.333 133.333 163 394h68l19 -19l-144 -375h19l269 452zM519.001 931l-38 -96v-10h9l48 106
h-19zM606.001 931l-125 -241h211l87 241h-173z" />
    <glyph glyph-name="dollar" unicode="$" horiz-adv-x="799" 
d="M582 1592l30.998 0.00195312v-15l-54 -154h8c26 0 56.667 -10 92 -30c47.333 132.667 78 199 92 199l15 -15l-77 -207c20.667 -23.333 36 -66.666 46 -129.999c0 -100.667 -43.333 -164.667 -130 -192h-15l-38 8l-85 -199c15.333 -48 23 -91.667 23 -131v-45
c0 -132.667 -69 -237.334 -207 -314.001c-25.333 0 -55.666 -53.667 -90.999 -161l-8 -8h-8c-10 0 -15 7.66699 -15 23l53 138h-22l-69 15v-7l-100 -169l-23 15c51.333 115.333 77 181.666 77 198.999c-46 34 -69 87.667 -69 161v8c21.333 142.667 69.666 214 144.999 214
h31c16.667 0 34.334 -7.66699 53.001 -23l77 184c-15.333 41.333 -23 84.666 -23 129.999v46c0 129.333 61.333 224 184 284c36.667 0 72.334 58.667 107.001 176zM505.998 1286c86.667 36.667 130 62 130 76l-61 16h-31c-12 0 -27.333 -30.667 -46 -92h8zM382.998 1186
c28.667 0 62 58.667 100 176c-42.667 0 -76 -58.667 -100 -176zM642.998 1286l-37.999 -123c8 -20.667 15.667 -31 23 -31h23c17.333 0 32.666 36 45.999 108c0 30.667 -15.333 46 -46 46h-8zM397.999 1071l22.999 -76.002h16c50.667 91.333 76 155 76 191
c28.667 14.667 54.334 45.334 77.001 92.001h-8c-92 -37.333 -138 -75.666 -138 -114.999zM512.998 1094l-76 -145l7 -31h8l69 168v8h-8zM267.998 742v-16l15 -15l69 138l-15 46c-12 0 -35 -51 -69 -153zM359.998 811l-167.999 -330h22c51.333 0 84.666 38.333 99.999 115
l69 161l-15 54h-8zM45.999 581l0.000976562 -38l69 -46c11.333 0 31.666 46 60.999 138c-25.333 38.667 -38 66.667 -38 84h-31c-40.667 -26 -61 -72 -61 -138zM391 696l-62 -169c46 30 69 81.333 69 154v15h-7zM207 619l-46 -115v-7h8l61 122h-23zM276 412h7
c56.667 36 85 69.333 85 100c-57.333 -40.667 -88 -74 -92 -100zM146 420l-0.000976562 -8l68 -15h8c12 0 19.667 12.667 23 38h-8c-19.333 -10 -49.666 -15 -90.999 -15z" />
    <glyph glyph-name="percent" unicode="%" horiz-adv-x="1239" 
d="M1196 1594l8.00195 -8.00098v-31c-412.667 -410.667 -697.334 -734.334 -854.001 -971.001c-124 -169.333 -191.333 -296.333 -202 -381h-16l-8 31l24 101l-101 -109h-31c-10.667 0 -16 8 -16 24c0 11.333 178.667 234 536 668l326 404h-8
c-45.333 -31.333 -94.333 -47 -147 -47h-31c-30.667 0 -61.667 10.333 -93 31c0 -119.333 -80.333 -248.666 -241 -387.999l-101 -23c-78 0 -117 49 -117 147c0 96.667 52 218.334 156 365.001c11.333 57.333 26.666 86 45.999 86l101 47c18.667 0 42 -13 70 -39h163l358 -8
l163 101h15zM583.002 1369c16 -31.333 44.333 -47 85 -47h62c48.667 0 131.667 46.667 249 140v8h-8c-258.667 -3.33301 -388 -16.333 -388 -39v-62zM233.002 1042v-31c0 -28 10.333 -46 31 -54h54c134.667 108.667 202 238 202 388v16c0 40 -12.667 66 -38 78h-24
c-70 0 -142.333 -109 -217 -327zM987.002 932.999c66.667 0 100 -51.667 100 -155c0 -162 -82.667 -307 -248 -435l-101 -31c-82 0 -133.667 70 -155 210c0 162 77.667 291.333 233 388zM955.002 878.999v-8c16 -29.333 24 -60.333 24 -93c0 -140 -62.333 -272 -187 -396
l-31 -16v-8h16c78.667 0 159 85.667 241 257l23 140v31c0 62 -23.333 93 -70 93h-16zM684.002 482.999l0.000976562 -16l15 -70h16c83.333 0 155.666 114 216.999 342v70c0 28 -10.333 48.667 -31 62c-144.667 -92 -217 -221.333 -217 -388z" />
    <glyph glyph-name="ampersand" unicode="&#x26;" horiz-adv-x="1697" 
d="M1102 1592c122 -18.667 179.334 -98.6689 172.001 -240.002c-6 -122.667 -91.667 -239.334 -257 -350.001c24.667 -2.66699 36.334 -12 35.001 -28v-9l-29 -37l-111 10h-18c-30.667 -2 -46.334 -8.33301 -47.001 -19l53 -239h267c238 338.667 413 523 525 553h19
c54.667 0 80.334 -37 77.001 -111l-1 -28c-2 -33.333 -22 -61 -60 -83h-28c-26 0 -61.333 27.667 -106 83h-28c-102.667 -84.667 -213.667 -219.667 -333 -405l-1 -9h37c122.667 0 181.334 -55.333 176.001 -166l-1 -28c-2.66699 -45.333 -45.667 -106.666 -129 -183.999h-9
v9c66 92 100 159.667 102 203l4 64c-14.667 30.667 -38.667 46 -72 46h-157l-155 -350l15 -249l-3 -64c-17.333 -336.667 -171.333 -588.667 -462 -756c-72.667 -24.667 -128.667 -37 -168 -37h-83c-161.333 0 -270 98.333 -326 295l5 102
c6.66699 136.667 82.334 238 227.001 304h37l18 -18c-151.333 -68.667 -229.333 -155 -234 -259l-3 -55c-6.66699 -123.333 56.666 -206.333 189.999 -249h111c194 0 379.333 147.667 556 443c55.333 122 85.666 232.333 90.999 331l2 37l-5 92h-9
c-115.333 -300.667 -224.333 -451 -327 -451c-70 0 -111.667 89 -125 267h-28c-152.667 0 -242.334 107.333 -269.001 322l3 56c3.33301 72 25.333 148.667 66 230h-18l-67 -55h-9c-30 18 -44.333 39.333 -43 64c13.333 28 26.333 43.333 39 46h129
c225.333 212.667 378.333 323.334 459 332.001l-9 9l5 102l-20 156c7.33301 136.667 98.666 241.334 273.999 314.001zM855.001 1260l-0.99707 -18c-3.33301 -67.333 30 -135 100 -203c182 74 277.333 197 286 369c-12 0 -18.667 -9.33301 -20 -28l-9 -9h-10
c-16.667 0 -27.334 30.667 -32.001 92c-28.667 42.667 -58.334 64 -89.001 64h-46c-114.667 -86.667 -174.334 -175.667 -179.001 -267zM827.004 1076l-1 -28l8 -27h9l1 27l-8 28h-9zM512.004 679.998l341 0.000976562l-53 221
c-76.667 -22.667 -172.667 -96.334 -288 -221.001zM454.004 614.999c-54 -100 -82.999 -189 -86.999 -267l-2 -46c-8 -148 43.333 -222 154 -222l2 28c6 117.333 26.333 221.666 61 312.999h19c-24.667 -121.333 -39.334 -231.666 -44.001 -330.999h37
c104.667 0 225.667 86 363 258l-79 267h-424zM924.005 614.999l-0.999023 -9l55 -203h9c63.333 76 103.666 146.667 120.999 212h-184zM963.006 291.999c-139.333 -184 -273 -276 -401 -276c-6 -116 20.667 -195.667 80 -239h28c82 0 185.667 168.667 311 506l-9 9h-9z" />
    <glyph glyph-name="quotesingle" unicode="'" 
d="M215 1900h35c24 -14 39.333 -33 46 -57c0 -45.333 -9.33301 -87 -28 -125c-26 -43.333 -69.333 -85 -130 -125l65 150c-22 0 -37.333 23.667 -46 71c14.667 46 34 74.667 58 86z" />
    <glyph glyph-name="parenleft" unicode="(" horiz-adv-x="556" 
d="M913 1598l13.001 -13.0029l-67 -61l7 -20c-78.667 -29.333 -141.334 -71.666 -188.001 -126.999c-206 -207.333 -353.667 -413.333 -443 -618c-31.333 -100 -47 -200.667 -47 -302v-67c0 -116 15.667 -189.667 47 -221c-9.33301 -33.333 -25 -55.666 -47 -66.999h-20
c-31.333 0 -47 109.333 -47 328h-7c-22 -108 -33 -204 -33 -288c0 -100 29 -214 87 -342l-7 -7h-7c-102.667 122.667 -154 281.334 -154 476.001c-0 286 125.333 586 376 900c0 28.667 71.333 106.667 214 234c185.333 121.333 293 186.333 323 195z" />
    <glyph glyph-name="parenright" unicode=")" horiz-adv-x="899" 
d="M845 1585l5.99902 7h14c97.333 -129.333 146 -273.333 146 -432v-87c0 -221.333 -97.667 -469.666 -293 -744.999c-58.667 -122.667 -156 -242 -292 -358c-46.667 -48.667 -142 -99.667 -286 -153l-13 -14h-27v14l306 259c270.667 309.333 406 557.666 406 744.999v146
c0 114 -15.667 185 -47 213c8.66699 32.667 24.334 54.667 47.001 66h19c31.333 -10 47 -127.333 47 -352h7c30.667 124.667 46 226.667 46 306v73c0 94.667 -28.667 198.667 -86 312zM518.999 116c-115.333 -115.333 -184 -175 -206 -179v-7h13
c77.333 51.333 144 113.333 200 186h-7z" />
    <glyph glyph-name="asterisk" unicode="*" horiz-adv-x="804" 
d="M650 1786l12.999 -25.002c-50 -122 -75 -193 -75 -213c124.667 66.667 193.334 100 206.001 100l6 -6v-6l-62 -50l12 -38c0 -32.667 -50 -53.334 -150 -62.001v-7c70.667 -76 106 -126 106 -150v-18c-8 -19.333 -16.333 -30 -25 -32h-18c-16 8.66699 -57.667 61 -125 157
c0 -154.667 -14.667 -232 -44 -232l-31 -6l-13 13c0 33.333 18.667 112.333 56 237h-6c-80.667 -41.333 -139 -83 -175 -125h-6l-19 19v25l13 19l-7 31c0 24.667 54.333 45.334 163 62.001l19 19c-78 58.667 -124 100.334 -138 125.001v13c0 22 8.33301 36.667 25 44h19
l125 -113c4.66699 125.333 17 188 37 188h25c8.66699 0 13 -6.33301 13 -19h6c0 24.667 16.667 41.334 50 50.001z" />
    <glyph glyph-name="plus" unicode="+" horiz-adv-x="757" 
d="M652 444l4.00098 -0.000976562v-47c0 -29.333 -67 -45 -201 -47l-62 -170h-99l61 170c-22 0 -72.333 5 -151 15h-4v73c0 -1.33301 34.667 -2.66602 104 -3.99902h81l41 154h101l-42 -154c19.333 -2 54.666 0.666992 105.999 8c19.333 0 29 -7 29 -21z" />
    <glyph glyph-name="comma" unicode="," 
d="M203 157h35c24 -14 36 -33 36 -57c10.667 -32 8 -63.667 -8 -95c-19.333 -63.333 -66 -115 -140 -155l65 150c-22 0 -37.333 23.667 -46 71c14.667 46 34 74.667 58 86z" />
    <glyph glyph-name="hyphen" unicode="-" horiz-adv-x="757" 
d="M652 444l4.00098 -0.000976562v-47c0 -29.333 -92.667 -45 -278 -47h-13c-15.333 0 -69 5 -161 15h-4v73c0 -1.33301 34.667 -2.66602 104 -3.99902h70c7.33301 0 79.666 2.66699 216.999 8c19.333 0 29 -7 29 -21z" />
    <glyph glyph-name="hyphen" unicode="&#xad;" horiz-adv-x="757" 
d="M652 444l4.00098 -0.000976562v-47c0 -29.333 -92.667 -45 -278 -47h-13c-15.333 0 -69 5 -161 15h-4v73c0 -1.33301 34.667 -2.66602 104 -3.99902h70c7.33301 0 79.666 2.66699 216.999 8c19.333 0 29 -7 29 -21z" />
    <glyph glyph-name="period" unicode="." horiz-adv-x="425" 
d="M209 157h36c24 -14 36 -33 36 -57c-18 -66.667 -37 -100 -57 -100h-36c-15.333 0 -27.333 23.667 -36 71c14 46 33 74.667 57 86z" />
    <glyph glyph-name="slash" unicode="/" horiz-adv-x="1108" 
d="M1652 1798l-32 -108.001l-165 -208c-739.333 -914 -1139.33 -1422.67 -1200 -1526l-75 -153l-180 -43l3 9c8.66699 30.667 176.667 249.334 504 656.001c481.333 619.333 832.333 1060 1053 1322z" />
    <glyph glyph-name="zero" unicode="0" horiz-adv-x="752" 
d="M580 1000c98.667 0 156.333 -68.001 173 -204.001v-43c0 -220 -98.667 -432 -296 -636c-99.333 -78 -183.666 -117 -252.999 -117h-37c-94.667 0 -150.334 74 -167.001 222v25c0 198.667 98.667 406.334 296 623.001c132 86.667 226.667 130 284 130zM85.999 271.999v-25
c0 -112.667 41.333 -180.667 124 -204h55l44 6v7c-64 0 -105.333 53.333 -124 160v80c0 214.667 101 416.334 303 605.001l49 31v6h-19c-86 0 -188.667 -86.333 -308 -259c-82.667 -142.667 -124 -278.334 -124 -407.001zM264.999 203.999v-19
c4.66699 -61.333 17 -92 37 -92h25c90 0 197 181 321 543c16.667 68 25 127.667 25 179v37c-4 49.333 -24.667 74 -62 74c-95.333 0 -202.333 -179 -321 -537z" />
    <glyph glyph-name="one" unicode="1" horiz-adv-x="680" 
d="M620 997l6 -0.000976562l11 -12c0 -19.333 -15.333 -63.666 -46 -132.999h6c86.667 54 135 81 145 81c5.33301 0 11 -7.66699 17 -23c0 -8 -29 -37 -87 -87c0 -23.333 -29 -71.666 -87 -144.999c-136 -206.667 -211.333 -340 -226 -400
c-30.667 -77.333 -53.667 -116 -69 -116l-12 -52c0 -24.667 63.667 -42 191 -52h41l17 -17c-1.33301 -8 -11 -16 -29 -24c-320.667 -3.33301 -481 -9 -481 -17l-17 17c0 35.333 25 53 75 53c34.667 7.33301 81 11 139 11l35 81h-6l-34 -5l-6 5h-6l290 580h-6
c-46.667 -11.333 -97 -52 -151 -122l-127 -116h-6l-12 12l163 168h-12l-46 -17l-6 5v12c4.66699 9.33301 47 32.666 127 69.999zM533 851.999c0 -8 -13.668 -25.333 -41.001 -52v-6c20.667 4.66699 36.334 22 47.001 52v6h-6zM555.999 770.999l-23 -58v-6h6l23 58v6h-6z" />
    <glyph glyph-name="two" unicode="2" horiz-adv-x="685" 
d="M420 997c39.333 0 85.333 -23.001 138 -69.001c79.333 -26.667 119 -70.667 119 -132l6 -37v-13c0 -116 -71 -224.667 -213 -326c-33.333 -53.333 -81.333 -114 -144 -182c29.333 -20.667 50 -72.667 62 -156h32c45.333 33.333 97.333 98 156 194h7l6 -6v-13
c0 -25.333 -44 -90 -132 -194l13 -13v-12c0 -12.667 -8.33301 -19 -25 -19l-75 -6l-119 6l-245 -19l-6 6v25c0 30.667 25 53.667 75 69c29.333 88.667 159 226.667 389 414c41.333 52 62 114.667 62 188v32h-6c-44 -138 -104.667 -207 -182 -207h-25
c-50 0 -75 39.667 -75 119c0 108.667 62.667 196.334 188 263.001v13h-75c-25.333 0 -67 -23 -125 -69h-13c0 65.333 64.667 113.333 194 144h13zM269 639.999c0 -20 10.666 -41 31.999 -63h31c56.667 0 115.334 83.667 176.001 251c-20.667 42.667 -37.667 65.667 -51 69
c-125.333 -58 -188 -143.667 -188 -257zM575.999 858.999v-6c8.66699 -11.333 13 -45 13 -101h6v63l-12 44h-7zM168.999 193.999h6c0 16 42 37 126 63l94 119c-82 -35.333 -157.333 -96 -226 -182zM162.999 112.999v-5.99902c0 -12.667 35.333 -23.334 106 -32.001v7
c0 62.667 -6 94 -18 94z" />
    <glyph glyph-name="three" unicode="3" horiz-adv-x="677" 
d="M561 1000c65.333 0 101.999 -39 109.999 -117c0 -122 -59.667 -225 -179 -309l-109 -55v-7c91.333 0 137 -59.333 137 -178c9.33301 0 14 -16 14 -48v-69c0 -100 -78 -209.667 -234 -329c-156 -92 -291 -138 -405 -138h-41c-78 0 -117 23 -117 69v14
c0 35.333 16.333 56 49 62c13.333 -16 22.333 -43.667 27 -83c19.333 -18 42.333 -27 69 -27h27c161.333 0 321.333 91.333 480 274l14 34h-7c-72.667 -68 -139 -102 -199 -102h-48c-86 0 -136.333 61.667 -151 185c0 49.333 18.333 86 55 110h41
c22.667 -12 34 -30.333 34 -55v-28c0 -22.667 -25 -52.334 -75 -89.001c0 -36.667 25 -59.667 75 -69h49c76.667 0 156.667 96.333 240 289c-35.333 64 -72 96 -110 96l-21 14l-41 -14c-9.33301 0 -14 7 -14 21h-75l-14 13v7c0 20.667 50.333 39 151 55
c183.333 104 275 211.667 275 323c0 36 -13.667 61 -41 75h-55c-97.333 0 -163.666 -36.333 -198.999 -109l-14 -62v-14c0 -24.667 9 -40.667 27 -48h28c61.333 0 116.333 66.333 165 199h7l6 -7v-27c0 -111.333 -54.667 -184.666 -164 -219.999h-28c-40 0 -65 32 -75 96
l34 124l-14 14c0 58 80.333 101.333 241 130h75z" />
    <glyph glyph-name="four" unicode="4" horiz-adv-x="1037" 
d="M1006 996l19.999 -0.00195312l14 -14v-7c-238 -348.667 -375 -588 -411 -718h69l48 34l13 -14v-34c-60 -54.667 -110 -82 -150 -82h-21c-34.667 -118 -59.667 -177 -75 -177l-68 -7h-7c-41.333 -100 -66.333 -180 -75 -240l-7 -7h-7c-9.33301 0 -14 7 -14 21
c8.66699 120 54.334 259 137.001 417l-116 14h-41l-96 -35l-7 7v7l21 55c-132.667 0 -199 -20.667 -199 -62l-20 -13l-14 13v28c-0 26 27.333 55.667 82 89c49.333 71.333 186.333 224 411 458c53.333 132.667 85 203.334 95 212.001l130 14l7 -7l-7 -7v-13
c23.333 0 35 -4.66699 35 -14v-21c-81.333 -63.333 -134 -122.666 -158 -177.999c-58 -108 -147 -254 -267 -438h14l178 -13l417 711zM122.999 270.998l69.001 6h82l157 322c-194.667 -188.667 -297.334 -298 -308.001 -328z" />
    <glyph glyph-name="five" unicode="5" horiz-adv-x="693" 
d="M382 1010l68.002 -49h228l12 -13v-6c-65.333 -94 -133 -141 -203 -141h-50l-80 12l-98 -197c11.333 0 21.666 -6.33301 30.999 -19l43 7h24c77.333 0 122.666 -59.667 135.999 -179v-25l-6 -24l6 -25v-18c0 -135.333 -74 -242.333 -222 -321l-74 -12h-37
c-86 0 -139.333 30.667 -160 92v7c2.66699 24 8.66699 36 18 36l-6 62c0 60 18.667 101 56 123h37c24.667 -11.333 37 -36 37 -74c0 -33.333 -22.667 -58 -68 -74l-6 -24c8 -41.333 28.333 -62 61 -62h37c70.667 0 142.667 84.333 216 253l18 80
c-70 66 -121.333 103 -154 111l-86 -93l-18 13l43 110c-8.66699 2 -17 12.333 -25 31c0 35.333 63.667 175 191 419h31zM333.002 918c-72 -118 -113.332 -206.333 -123.999 -265l13 -13c31.333 46 80.666 138.667 147.999 278h-37zM487.003 918v-7h111v7h-111zM351.003 560
v-6l31 -18h6c-2 8 -12.333 16 -31 24h-6zM419.003 209c-62 -86 -107.333 -129 -136 -129v-6h7c37.333 0 80.333 37 129 111l6 18v6h-6z" />
    <glyph glyph-name="six" unicode="6" horiz-adv-x="696" 
d="M781 1226h7l13 -13c-160.667 -55.333 -279.667 -136.333 -357 -243h7l81 20h40c66 0 108.667 -44.667 128 -134c0 -56 -24.667 -90 -74 -102h-20l-34 34v34l41 94c-6.66699 22.667 -22.667 34 -48 34h-33c-78.667 0 -182 -108 -310 -324v-6h7c81.333 36 151 54 209 54h60
c90 -22 135 -80.667 135 -176l6 -20c0 -180 -98.667 -330.333 -296 -451c-46 -18 -81.667 -27 -107 -27c-121.333 0 -182 15.667 -182 47c-36 40.667 -54 97 -54 169v53c0 249.333 163.667 523.333 491 822c118 90 214.667 135 290 135zM404 613
c36 -40.667 54 -87.666 54 -140.999v-54c0 -144 -69.667 -267.667 -209 -371v-7h14c188 79.333 282 200.666 282 363.999v61c0 98.667 -40.333 148 -121 148h-20zM81 168.001c16.667 -80.667 43.667 -121 81 -121c51.333 8.66699 114 98.667 188 270
c18 70.667 27 129 27 175v27c-6.66699 49.333 -18 74 -34 74h-27c-82.667 0 -158.667 -128 -228 -384zM182 539.001l47 47h-14c-15.333 0 -26.333 -15.667 -33 -47z" />
    <glyph glyph-name="seven" unicode="7" horiz-adv-x="891" 
d="M854 1039l13.998 0.000976562c13.333 0 22.333 -20.333 27 -61c0 -14.667 -77 -118.334 -231 -311.001c-138.667 -250.667 -247 -469.667 -325 -657l-7 -7h-122l-7 7h-6c22.667 60 54.334 125.333 95.001 196v7h-7c-154 -211.333 -231 -367 -231 -467l-7 -7h-27
c-10 0 -16.667 11.333 -20 34c10 108 227 444.333 651 1009l-34 -7h-34c-12 0 -68.333 29.333 -169 88h-14c-18 -12 -52 -73 -102 -183l-6 -7h-28l-13 14v13l115 231h-34l-122 -41c-8.66699 0 -13 6.66699 -13 20c37.333 54.667 91.333 82 162 82h41l20 13h7l14 -13l284 6
h34c28.667 0 60.334 13.667 95.001 41zM419.998 937.001l-6 -20h6l28 14v6h-28zM569.998 931.001c42.667 -40.667 76.333 -61 101 -61h14c24 0 39.667 9 47 27v7c0 18 -45 27 -135 27h-27z" />
    <glyph glyph-name="eight" unicode="8" horiz-adv-x="612" 
d="M558 999c22 0 44.667 -14.335 68 -43.002v-31l-12 -13h-7c-33.333 33.333 -60 50 -80 50h-19c-41.333 -5.33301 -62 -13.666 -62 -24.999c78.667 -14 118 -53.333 118 -118h6c24.667 16.667 70.334 60 137.001 130l12 -12
c-0.666992 -14.667 -50.334 -66.334 -149.001 -155.001c0 -78.667 -39.333 -145 -118 -199c46 -130.667 69 -219.667 69 -267c0 -109.333 -84.667 -210.666 -254 -303.999l-62 -12h-50c-88 0 -139.667 66.333 -155 199c-0 113.333 76.333 233 229 359
c-20.667 42.667 -31 88.334 -31 137.001c0 122 87 215 261 279c28.667 16.667 61.667 25 99 25zM384 799.998l19 -105h6c69.333 46.667 104.333 73.667 105 81c0 86.667 -24.667 130 -74 130h-19c-24.667 -22.667 -37 -58 -37 -106zM316 837.998l-18 -75v-25l18 -105l37 25
c-20.667 40.667 -31 100.667 -31 180h-6zM415 663.998l18.999 -49.999c32.667 23.333 55.334 60.666 68.001 111.999zM334.999 595.999l18 -38l31 19l-18 43zM371.999 526.999c41.333 -80.667 61.999 -148.668 61.999 -204.001c0 -132.667 -74.333 -230 -223 -292h-75v-6
l62 -6c84.667 0 163.334 60 236.001 180c16.667 33.333 25 72.333 25 117c0 66.667 -18.667 143.334 -56 230.001zM191.998 471.998l62 31l-6 18c-10 0 -28.667 -16.333 -56 -49zM259.998 477.998c-132 -80 -198.001 -177.332 -198.001 -291.999
c13.333 -82.667 44.333 -124 93 -124h43c48.667 0 92.334 43.333 131.001 130l6 56v13c0 75.333 -25 147.666 -75 216.999z" />
    <glyph glyph-name="nine" unicode="9" horiz-adv-x="854" 
d="M657 994l40.999 0.000976562c40 0 81 -45.667 123 -137c10.667 -2 19.667 -33.667 27 -95c0 -66 -45.667 -207.333 -137 -424c-141.333 -228 -280.333 -342 -417 -342h-34c-46 5.33301 -69 14.333 -69 27c-63.333 -27.333 -115.666 -41 -156.999 -41h-20l-14 14l157 48
c-27.333 38 -41 79 -41 123c0 39.333 18.333 71 55 95h34c27.333 -14 41 -39 41 -75v-7l-41 -109v-7c170 81.333 313.667 213.666 431 396.999h-7c-62.667 -54.667 -106 -82 -130 -82h-20c-28.667 0 -54 11.333 -76 34h-54c-109.333 10 -164 55.667 -164 137v20
c0 160 123 287.667 369 383c38 27.333 72.333 41 103 41zM649.999 960.001v-7l61 -7l-13 14h-48zM437.999 509.001l0.000976562 -20.998l7 -34h27c81.333 0 129 18.333 143 55c78 131.333 117 249.666 117 354.999v14c-20.667 27.333 -50.334 41 -89.001 41h-48
c-104.667 -120.667 -157 -257.334 -157 -410.001zM274 584.003c14.667 -86.667 48.667 -130 102 -130c-13.333 48.667 -20 89.667 -20 123c0 94.667 34 190.334 102 287.001v7h-7c-118 -74.667 -177 -170.334 -177 -287.001zM233 44.0029v-7h54
c67.333 0 147.333 63.667 240 191v7c-135.333 -112 -233.333 -175.667 -294 -191z" />
    <glyph glyph-name="colon" unicode=":" horiz-adv-x="419" 
d="M204 157h36c24 -14 36 -33 36 -57c-18 -66.667 -37 -100 -57 -100h-36c-15.333 0 -27.333 23.667 -36 71c14 46 33 74.667 57 86zM354 500h36c23.333 -14.667 35 -34 35 -58c-17.333 -66.667 -36.333 -100 -57 -100h-36c-15.333 0 -27.333 24 -36 72
c14.667 46 34 74.667 58 86z" />
    <glyph glyph-name="semicolon" unicode=";" horiz-adv-x="453" 
d="M259 157h35c24 -14 36 -33 36 -57c10.667 -32 8 -63.667 -8 -95c-19.333 -63.333 -66 -115 -140 -155l65 150c-22 0 -37.333 23.667 -46 71c14.667 46 34 74.667 58 86zM408 500h36c24 -14.667 36 -34 36 -58c-18 -66.667 -37.333 -100 -58 -100h-35c-16 0 -28 24 -36 72
c14 46 33 74.667 57 86z" />
    <glyph glyph-name="semicolon" unicode="&#x37e;" horiz-adv-x="453" 
d="M259 157h35c24 -14 36 -33 36 -57c10.667 -32 8 -63.667 -8 -95c-19.333 -63.333 -66 -115 -140 -155l65 150c-22 0 -37.333 23.667 -46 71c14.667 46 34 74.667 58 86zM408 500h36c24 -14.667 36 -34 36 -58c-18 -66.667 -37.333 -100 -58 -100h-35c-16 0 -28 24 -36 72
c14 46 33 74.667 57 86z" />
    <glyph glyph-name="less" unicode="&#x3c;" horiz-adv-x="1196" 
 />
    <glyph glyph-name="equal" unicode="=" horiz-adv-x="768" 
d="M551 274l4.00098 -0.000976562v-47c0 -29.333 -92.667 -45 -278 -47h-13c-15.333 0 -69 5 -161 15h-4v73c0 -1.33301 34.667 -2.66602 104 -3.99902h70c7.33301 0 79.666 2.66699 216.999 8c19.333 0 29 -7 29 -21zM681.001 478.999h4.00098v-47
c0 -29.333 -92.667 -45.333 -278 -48h-13c-15.333 0 -69 5.33301 -161 16h-4v72c0 -0.666992 34.667 -2 104 -4h70c7.33301 0 79.666 3 216.999 9c19.333 0 29 -7 29 -21z" />
    <glyph glyph-name="greater" unicode="&#x3e;" horiz-adv-x="1196" 
 />
    <glyph glyph-name="question" unicode="?" horiz-adv-x="1049" 
d="M786 1592l74 0.00292969c134.667 -34 202 -129.667 202 -287v-42c0 -86.667 -42.333 -196.334 -127 -329.001c0 -94.667 -159.333 -232.667 -478 -414l-117 -191c-26 0 -50.667 42.333 -74 127v11c0 11.333 46 39.666 138 84.999c72.667 117.333 193 273 361 467l95 159
c0 116.667 -63.667 215.667 -191 297c-53.333 -22 -92 -71.333 -116 -148c63.333 -47.333 95 -90 95 -128v-21c0 -63.333 -28.333 -95 -85 -95h-32c-42 25.333 -63 67.666 -63 126.999v42c0 64.667 31.667 135.667 95 213v10c-49.333 -26.667 -74 -55 -74 -85h-32
c36.667 120.667 111 181 223 181zM786 1528c80.667 -87.333 123 -158 127 -212h11l11 117c-14.667 63.333 -46.667 95 -96 95h-53zM542 626.003l10.999 -0.000976562c89.333 42.667 167 110 233 202c-101.333 -61.333 -182.666 -128.666 -243.999 -201.999zM218.999 157.002
h36c24 -14 36 -33 36 -57c-18 -66.667 -37 -100 -57 -100h-36c-15.333 0 -27.333 23.667 -36 71c14 46 33 74.667 57 86z" />
    <glyph glyph-name="at" unicode="@" horiz-adv-x="1199" 
d="M615 1502l74.998 -0.000976562c164.667 0 302 -73.333 412 -220c62 -93.333 93 -196 93 -308v-64c0 -174.667 -71.667 -337 -215 -487c-141.333 -92.667 -236 -139 -284 -139h-35c-54.667 0 -95.334 31 -122.001 93h-58c-76 0 -128 67.667 -156 203h-6l-35 -17
c-26.667 6.66699 -40 24 -40 52c0 56 38.667 137 116 243c42.667 117.333 110.334 200.666 203.001 249.999l64 17h40c12 0 41 -13.667 87 -41l23 -5l64 34h64l12 -11c-85.333 -366.667 -128 -569.667 -128 -609c4 -54 29 -81 75 -81c32.667 3.33301 94.667 59.333 186 168
c62 110 93 214.333 93 313v64c0 181.333 -69.667 324.333 -209 429c-67.333 42.667 -140.666 64 -219.999 64h-58c-242 0 -426 -166.333 -552 -499c-19.333 -81.333 -29 -152.666 -29 -213.999v-87c0 -258 127.667 -441.667 383 -551c45.333 -16 92 -24 140 -24h75
c118.667 0 242.334 56.333 371.001 169h18l5 -29c-66 -58.667 -116 -93.667 -150 -105v-6h5l122 58c-120 -108 -247.667 -162 -383 -162h-63c-225.333 0 -403.333 127.667 -534 383c-42.667 104.667 -64 216.667 -64 336c-0 330.667 137.333 574.334 412 731.001
c79.333 34.667 147 52 203 52zM538.998 1026h6c42 34 75 53.333 99 58v6h-23c-28 0 -55.333 -21.333 -82 -64zM405.998 666.999c190.667 176 291.333 292 302 348c-10 19.333 -25.667 29 -47 29h-23c-49.333 0 -103.333 -42.667 -162 -128
c-46.667 -124.667 -70 -207.667 -70 -249zM788.997 985.999v-12c9.33301 0 15 15.667 17 47c-11.333 -4 -17 -15.667 -17 -35zM556.997 428.999h6c54.667 21.333 110.667 106.333 168 255c23.333 85.333 35 157 35 215v52c-124 -194 -193.667 -368 -209 -522z
M399.997 602.999c6.66699 -123.333 37.667 -185 93 -185h35c0 122 58 295.667 174 521c-97.333 -110.667 -198 -211 -302 -301v-35zM707.997 550.999c-34 -84 -84.333 -140 -151 -168c0 -36.667 31 -60 93 -70c56.667 0 116.667 19.333 180 58v6
c-77.333 14 -116 68 -116 162v12h-6zM1125 243.999v-6l-11 -12v6zM1108 219.999v-5l-12 -12h-5z" />
    <glyph glyph-name="A" unicode="A" horiz-adv-x="2101" 
d="M1965 1601c33.333 0 62.999 -23.001 88.999 -69.001c-146 -556.667 -219 -868 -219 -934c68 -18.667 118.333 -28 151 -28c22.667 8 34 19.667 34 35c-2 29.333 -25 70.333 -69 123v7l14 14c52.667 -46.667 84.667 -97 96 -151v-21c-24.667 -27.333 -52 -41 -82 -41
l-151 27v-6c-23.333 -163.333 -35 -289.333 -35 -378c0 -63.333 14 -104.666 42 -123.999v-14c-4.66699 -13.333 -18.667 -20 -42 -20c-22.667 52 -34 132 -34 240l14 309l7 7l-399 110c-132.667 -186 -316 -367 -550 -543c-143.333 -96 -262.333 -144 -357 -144h-27
c-108 0 -172.333 80 -193 240v55c0 202 71 364.667 213 488c67.333 41.333 136 62 206 62h117c142 0 339 -34.333 591 -103c216.667 298.667 402.334 585 557.001 859h27zM2123 1525l7 -6v-7c-7.33301 0 -16.333 -14 -27 -42h-7v28zM1422 734.999v-7l364 -110v7
c0 91.333 57.333 375.333 172 852v7l-7 7h-13l-255 -398zM1044 1120h62.001c104 0 202.667 -87 296 -261v-7l-7 -7h-21c-68.667 137.333 -144.334 206 -227.001 206h-55c-62.667 0 -126.667 -52.667 -192 -158h-55l-20 14c51.333 142 124.333 213 219 213zM1807 1113
l14 -0.000976562c-33.333 -204 -77 -343.667 -131 -419c-59.333 16.667 -89 30.334 -89 41.001zM419 927.998l61.998 0.000976562c70.667 -6.66699 109.667 -18.334 117 -35.001v-7l-179 -55c-124.667 0 -239 -87 -343 -261c-18.667 -64.667 -28 -121.667 -28 -171
c0 -129.333 64 -230.333 192 -303l7 -27h-7c-53.333 0 -119.666 59.333 -198.999 178c-27.333 60.667 -41 118 -41 172v69c0 170 94 307.333 282 412c52.667 18.667 98.334 28 137.001 28zM294.998 301.999c0 -148 52.668 -232.667 158.001 -254h35
c216 0 500 215.333 852 646v7c-220.667 59.333 -399.334 89 -536.001 89h-124c-180 0 -296.667 -89.333 -350 -268c-23.333 -94.667 -35 -168 -35 -220zM693.999 741.999h47.999c14 0 23.333 -32 28 -96v-34c0 -163.333 -80.333 -273.333 -241 -330
c-18 -9.33301 -43.333 -14 -76 -14h-89l-14 14v7l14 13h76c138.667 0 232.334 73.333 281.001 220l7 69v21c0 36.667 -11.333 80 -34 130zM830.998 741.999c32 0 48.001 -16 48.001 -48c0 -84 41.333 -180.333 124 -289v-6l-14 -14c-94.667 100 -149.334 203 -164.001 309
l-7 41l7 7h6zM1436 617.999l28.002 -20v-14l-7 -165v-7h7c34 114.667 61.333 172 82 172c64 -10.667 96 -22 96 -34c-82.667 -216.667 -124 -333.667 -124 -351h14c47.333 0 104.666 32 171.999 96h7v-34c-60.667 -68.667 -131.667 -103 -213 -103
c-14.667 -78 -42.334 -117 -83.001 -117l-89 -14c0 19.333 13.667 65.333 41 138c-131.333 28.667 -223 70 -275 124l21 20c82 -64 171.333 -96 268 -96c32 103.333 48 195 48 275v117l7 7v6z" />
    <glyph glyph-name="B" unicode="B" horiz-adv-x="1504" 
d="M484 1599l63 -0.00585938c69.333 0 132.333 -25.667 189 -77c96 18.667 168.667 28 218 28h63c84.667 0 182.667 -23.333 294 -70c49.333 32.667 82.333 49 99 49l14 -14l-70 -56c98 -81.333 147 -184.333 147 -309c0 -148 -86.667 -257.667 -260 -329v-7
c140.667 -51.333 211 -156.666 211 -315.999c0 -195.333 -98.333 -349.666 -295 -462.999c-43.333 -18.667 -83 -28 -119 -28h-49c-95.333 0 -151.333 67.667 -168 203v49c0 106.667 53.667 207.334 161 302.001h14v-21c-98 -93.333 -147 -191.666 -147 -294.999v-28
c12.667 -107.333 50 -161 112 -161h63c110.667 0 204 110 280 330c14 59.333 21 115.333 21 168c-18.667 154 -60.667 231 -126 231h-21l-98 -28h-28l-21 21v50c0 8.66699 14 18 42 28l112 -7c63.333 0 124.333 84 183 252l14 126c0 76.667 -26 137.667 -78 183
c-109.333 -102 -254 -375.667 -434 -821c-220.667 -392.667 -429 -589 -625 -589h-63c-98 0 -158.667 63 -182 189v7c9.33301 70.667 35 106 77 106h14c36 0 57 -23.667 63 -71v-35l-14 -77v-7c9.33301 -46.667 32.666 -70 69.999 -70h56c168 0 362.333 278.333 583 835
c62.667 152.667 186.334 328 371.001 526c32.667 19.333 49 33.333 49 42v7c-89.333 42 -173.333 63 -252 63h-77c-68 0 -124.333 -9.33301 -169 -28c47.333 -71.333 71 -155.666 71 -252.999v-7c0 -261.333 -114.667 -478.666 -344 -651.999
c-61.333 -23.333 -108 -35 -140 -35h-42c-122 21.333 -183 96 -183 224v7c0 300 187 548 561 744c-48 32.667 -97 49 -147 49h-49c-200.667 0 -362 -166 -484 -498h-7l-7 7v14c57.333 204 146 346.667 266 428c76 56 148.667 84 218 84zM736 1598.99h85v-14l-64 -7l-21 7v14
zM161 791.994c14 -126 56.332 -188.999 126.999 -188.999h56c100.667 0 217.334 117 350.001 351c46.667 112.667 70 210.667 70 294v77c0 60.667 -16.333 110 -49 148c-231.333 -84 -404.333 -245.333 -519 -484c-23.333 -74.667 -35 -140.334 -35 -197.001zM1494 1389
c84 -68.667 126 -141.331 126 -217.998c0 -100.667 -51.333 -189.334 -154 -266.001v7c60.667 83.333 91 167.333 91 252c-4 71.333 -25 141.666 -63 210.999v14zM188.999 1304h7l42 -91l-21 -14l-56 56v14zM995.999 721.998c28 -2.66699 42 -9.66699 42 -21v-7l-63 -14v21z
M953.999 623.998l7 -7v-7l-21 -14h-7v7zM1052 581.998c126 -69.333 189 -136.998 189 -202.998c0 -86.667 -67.667 -171 -203 -253c-24 -14 -47.333 -21 -70 -21c-28 11.333 -42 20.666 -42 27.999c158.667 51.333 238 100.666 238 147.999c9.33301 0 14 16.333 14 49v42
c0 48 -44.333 94.667 -133 140v7l7 42l-7 7v7zM756.999 126h14c14 -4.66699 21 -18.667 21 -42h-35l-21 21zM546.999 77h7c-9.33301 -46.667 -21 -70 -35 -70h-7c0 36 11.667 59.333 35 70z" />
    <glyph glyph-name="C" unicode="C" horiz-adv-x="1003" 
d="M373 1602l64.001 0.000976562c134.667 0 263.667 -77.333 387 -232c175.333 112 307 168.333 395 169h49c62 0 97.333 -49.333 106 -148c0 -172.667 -173.667 -351.334 -521 -536.001c-161.333 -74.667 -295.333 -112 -402 -112v-7
c-52 -153.333 -78 -289.666 -78 -408.999v-56c13.333 -146 60.333 -219 141 -219h14l-7 92c11.333 301.333 103 486.666 275 555.999l35 7h36c89.333 0 134 -68 134 -204c0 -162 -101 -312.333 -303 -451c-66.667 -28 -111.334 -42 -134.001 -42l28 -176h-7
c-22.667 0 -39 56.333 -49 169c-130 0 -221.667 68 -275 204l-21 141v64c0 92 23.333 204.667 70 338c-85.333 0 -172.333 68 -261 204c-32.667 66 -49 143.333 -49 232c0 190.667 101 327 303 409zM49.001 1193c0 -156.667 91.668 -264.666 275.001 -323.999l42 -7
c63.333 137.333 206.666 301.666 429.999 492.999c-118 141.333 -233 212 -345 212h-78c-152 0 -260 -94 -324 -282v-92zM860.002 1313c56 -108 83.998 -171.334 83.998 -190.001v-7l-14 -14l-106 197c-197.333 -205.333 -307.666 -355.666 -330.999 -450.999
c288.667 0 542.334 112.667 761.001 338c61.333 77.333 92 150.333 92 219c-8.66699 65.333 -34.667 98 -78 98h-42c-94 0 -216 -61 -366 -183v-7zM1268 1447l21 -21v-42c-14 -2 -46.667 -65.667 -98 -191l-28 -21v14l105 254v7zM1289 1102v-14
c-40.667 -98 -94.667 -175.667 -162 -233h-28l-14 14v50l28 28h14v-49h14c56.667 95.333 106 163.333 148 204zM564 81.001v-29h7c108.667 0 219 80 331 240c46.667 75.333 70 150.333 70 225c-8 89.333 -36 134 -84 134h-35c-56 0 -119.667 -63.333 -191 -190
c-65.333 -134 -98 -260.667 -98 -380zM1346 475.001h7v-7c-14 -68.667 -105.667 -176.667 -275 -324c-172.667 -126.667 -323 -190 -451 -190v21c19.333 0 87.333 28 204 84c182 68 353.667 206.667 515 416z" />
    <glyph glyph-name="D" unicode="D" horiz-adv-x="1396" 
d="M872 1598l28 -0.00195312c104.667 0 194.667 -39.333 270 -118h-7c-112 42 -229.667 63 -353 63l-62 -7c0 10.667 -11.667 17.334 -35 20.001v7c2.66699 18.667 55.667 30.334 159 35.001zM526 1543h41.998c60 0 126.667 -25.333 200 -76l118 13h35
c136 0 260.333 -53 373 -159c81.333 83.333 143.666 127.333 186.999 132l14 -14c-81.333 -60.667 -136.666 -113.667 -165.999 -159c74 -126 111 -253 111 -381v-41c0 -263.333 -101.667 -491.666 -305 -684.999c-132 -110.667 -279.667 -166 -443 -166h-34l-450 -7
c-69.333 11.333 -104 36.666 -104 75.999v7c12 23.333 30.333 35 55 35h49l256 -49c130.667 0 280.667 219 450 657c98 206 215.667 397.667 353 575c-97.333 87.333 -196.666 131 -297.999 131h-76l-83 -7v-14c50.667 -85.333 76 -182 76 -290
c0 -206 -78.333 -388.333 -235 -547c-69.333 -60 -136.333 -90 -201 -90h-28c-125.333 0 -201.333 85.333 -228 256v42c0 262 145.333 474 436 636c60 18.667 90 32.667 90 42c-60 32 -104 48 -132 48h-76c-169.333 0 -314.666 -143 -435.999 -429l-62 -290h-7l-7 7v27
c0 190 73.667 379 221 567c99.333 102 201 153 305 153zM539.998 1460h34v-7c0 -8 -25.333 -24.333 -76 -49v7c19.333 32.667 33.333 49 42 49zM290.998 725.998l-0.000976562 -41c9.33301 -106 48.333 -159 117 -159h49c156.667 0 281.334 138.333 374.001 415
c13.333 48 22.333 114.667 27 200c0 86 -27.667 176 -83 270c-158 -58 -282.667 -168.667 -374 -332c-73.333 -125.333 -110 -243 -110 -353zM1073 1314l14.001 -13c-78.667 -244.667 -152.667 -434 -222 -568h-14c101.333 341.333 170.666 535 207.999 581h14z
M539.998 54.998l-0.000976562 -6.99805h173c278.667 0 491 164 637 492c41.333 101.333 62 209.666 62 324.999c0 138 -32.333 264.667 -97 380h-7c-78 -104.667 -184 -321.334 -318 -650.001c-93.333 -188 -204 -342.667 -332 -464
c-65.333 -50.667 -104.666 -76 -117.999 -76zM421.997 1017l14 -0.000976562c0 -82.667 39.333 -218.667 118 -408l-7 -7h-21c-78.667 166.667 -118 293.334 -118 380.001zM1170 130.999v-7c-121.333 -128.667 -216 -193 -284 -193h-42c-24.667 0 -43 9.33301 -55 28
c150 28 277 85.333 381 172zM740.997 123.999l7 -6v-7l-14 -14h-28v7c0 10 11.667 16.667 35 20zM684.997 -48.001h7v-42h-21v28z" />
    <glyph glyph-name="E" unicode="E" horiz-adv-x="980" 
d="M848 1632c9.33301 0 16.333 -14.333 21 -43l-64 -21v7c0 19.333 14.333 38.333 43 57zM420 1589c78.667 0 171.333 -42.667 278 -128c108 57.333 191.333 86 250 86h50c56.667 -11.333 85 -40 85 -86v-35c0 -114.667 -137.667 -252.334 -413 -413.001l-107 -36
c6.66699 -47.333 28 -71 64 -71h78c26 0 42.667 -9.33301 50 -28v-22l-21 -21h-21l-114 14h-15c-76 0 -173.333 -80.667 -292 -242c-52 -109.333 -78 -211.333 -78 -306v-21c17.333 -156.667 67 -235 149 -235v14c0 342.667 95 551.334 285 626.001h65
c66 0 106.333 -59 121 -177c0 -204 -104.667 -363 -314 -477c-52 -19.333 -90 -29 -114 -29l29 -191l-7 -8h-8c-14 22 -30.333 88.333 -49 199c-128 0 -213.667 52.333 -257 157c-18.667 60.667 -28 112.667 -28 156c0 264.667 154.333 452.334 463 563.001v7l-57 71l-50 -7
h-100c-194.667 29.333 -292 121.666 -292 276.999v43c0 159.333 90.333 266 271 320h99zM99.999 1290c0 -120.667 78.333 -208.334 235 -263.001h121l-7 50v28c0 104.667 71.333 216.334 214 335.001c-88.667 76 -169.667 114 -243 114h-64c-120 0 -203 -66.667 -249 -200z
M761.999 1561v-14l-71 -22l-14 22zM747.999 1390c47.333 -54.667 71 -95.001 71 -121.001l-7 -7h-7l-85 107c-109.333 -98.667 -164 -208 -164 -328h7c106.667 6.66699 239.667 80.334 399 221.001c60.667 65.333 91.667 122.333 93 171v21c0 38 -19 57 -57 57h-36
c-54 0 -125.333 -40.333 -214 -121zM469.999 1497l79 -36v-7l-150 -64c-82 -40 -155.667 -97 -221 -171c-14 4.66699 -21 19 -21 43v7c0 57.333 95 133.333 285 228h28zM704.999 1276v-14c-34 -80 -62.333 -130 -85 -150v8c4.66699 44.667 33 96.667 85 156zM28.999 1063
l7 -0.000976562l35 -43c-23.333 -95.333 -35 -176 -35 -242c0 -73.333 11.667 -158.666 35 -255.999l-7 -36h-14c-33.333 112 -50 221.333 -50 328v35c0 80.667 9.66699 152 29 214zM826.999 891.998c137.333 0 206.001 -9.66699 206.001 -29v-14
c-2.66699 -14 -19.334 -21 -50.001 -21l-178 -7l-7 7l14 50l-7 7zM470 720.998v-7l-121 -335l-14 -71h-14c30 275.333 79.667 413 149 413zM406 87.998v-50c162 0 288 116.333 378 349c9.33301 21.333 14 52 14 92v57c0 44.667 -19 78 -57 100h-50
c-54 0 -120.333 -66.667 -199 -200c-57.333 -122 -86 -238 -86 -348zM969 257.998c9.33301 0 14 -7 14 -21c-148.667 -175.333 -293.334 -263 -434.001 -263h-7v15c22.667 0 91.334 42.333 206.001 127c52 14 125.667 61.333 221 142z" />
    <glyph glyph-name="F" unicode="F" horiz-adv-x="1501" 
d="M796 1599c99.333 0 209 -21 329 -63v-7l-126 -28l-210 21c-169.333 0 -276.333 -53.667 -321 -161c-46.667 -85.333 -70 -183 -70 -293v-77l-14 -14h-14l-14 14v98c0 214 77 370 231 468c65.333 28 135 42 209 42zM2047 1522l6.99902 -7v-21
c0 -32 -65.333 -71.667 -196 -119h-90l-489 42h-84c-215.333 0 -371.333 -79 -468 -237c-18.667 -33.333 -28 -75.333 -28 -126c18.667 -102.667 69.667 -154 153 -154h56c146 0 290.333 121.333 433 364h7l7 -7v-7c-49.333 -166.667 -130.666 -292.667 -243.999 -378
c-53.333 -37.333 -107 -56 -161 -56h-49c-153.333 20.667 -230 97.667 -230 231v14c0 170 123.333 300.333 370 391c99.333 32.667 218 49 356 49h364zM2068 1424l14 -70c0 -93.333 -60.667 -144.333 -182 -153h-42c-46.667 0 -111.667 14 -195 42v7l42 49
c70 -23.333 135 -35 195 -35h49c70 0 105 30 105 90l-7 56zM1397 1361l140 -14v-14l-28 -27l-112 41v14zM1649 1333l6.99902 -6v-7c-122.667 -150.667 -225.334 -344 -308.001 -580h7c68.667 10 171.334 56.333 308.001 139h7l7 -7v-7
c-78.667 -115.333 -148.667 -252.666 -210 -411.999c-50 -37.333 -87.333 -56 -112 -56l-7 7v21c18.667 74.667 81.667 184.334 189 329.001v7h-7c-59.333 -28 -127 -49 -203 -63c-213.333 -461.333 -488 -692 -824 -692h-77c-186.667 0 -317 81.333 -391 244
c-23.333 52.667 -35 113.334 -35 182.001c0 241.333 114 404.333 342 489l77 7h63c143.333 0 241.333 -79 294 -237l6 -56v-42c0 -140 -81.333 -249.667 -244 -329l-84 -14h-56c-74.667 0 -135 25.667 -181 77l14 14h7c55.333 -37.333 108.666 -56 159.999 -56h56
c134.667 0 230.334 84 287.001 252v70c-18.667 153.333 -93.334 230 -224.001 230h-63c-164 0 -294.333 -97.667 -391 -293c-14 -48.667 -21 -95.334 -21 -140.001c0 -172.667 93 -291.334 279 -356.001l84 -7h84c282 0 510.333 207.333 685 622h-7
c-59.333 -17.333 -152.666 -94.333 -279.999 -231l-7 7h-7c47.333 105.333 157 198.666 329 279.999c66.667 170 190 361 370 573c30.667 27.333 56.334 41 77.001 41zM390.998 782h21.001l70 -182c32 -63.333 78.667 -124 140 -182l-14 -14h-14
c-122.667 130.667 -190.334 252 -203.001 364v14zM1670 740l42 -0.000976562l14 -14c0 -9.33301 -25.667 -18.666 -77 -27.999l-7 7c8.66699 21.333 18 33 28 35zM844.999 396.999c0 -9.33301 9.33301 -14 28 -14v-7c0 -12.667 -41.667 -26.667 -125 -42l-7 7v7
c0 20 34.667 36.333 104 49zM1216 368.999c-23.333 -116.667 -35 -209.667 -35 -279l21 -35c-7.33301 -51.333 -19 -77 -35 -77h-7c-14 4.66699 -21 18.667 -21 42v14c0 172 21 283.667 63 335h14z" />
    <glyph glyph-name="G" unicode="G" horiz-adv-x="1121" 
d="M614 1598h66.001c109.333 0 209.666 -64.333 300.999 -193c145.333 92.667 259.666 139 342.999 139h30c64 -8 96 -40 96 -96v-25c0 -144.667 -150.333 -299 -451 -463c-124.667 -51.333 -217 -79.333 -277 -84l-6 -90v-12c0 -80.667 22 -121 66 -121h42
c62.667 0 181 108.333 355 325l48 42h6l12 -12c-46.667 -92.667 -118.667 -281 -216 -565c-114 -232.667 -256.333 -383 -427 -451c-66 -28 -124.333 -42 -175 -42h-78c-160.667 0 -273 88 -337 264l-12 84v24c0 175.333 86.333 305.666 259 390.999
c37.333 16 71.333 24 102 24h60c120.667 0 207 -72 259 -216l6 -60c0 -135.333 -70.333 -233.666 -211 -294.999c-15.333 -8 -37.333 -12 -66 -12h-54c-58.667 0 -106.667 18 -144 54l12 12c62 -24 108 -36 138 -36h48c113.333 0 191.666 74 234.999 222v61
c-18 124 -80.333 186 -187 186h-54c-129.333 0 -241.666 -82.333 -336.999 -247l-18 -108v-42c0 -120.667 74.333 -208.667 223 -264l54 -6h72c230 0 458.667 276.667 686 830c-115.333 -132.667 -215.666 -199 -300.999 -199h-30c-84.667 0 -134.667 74.333 -150 223l6 36
c-110 0 -202.333 58 -277 174c-28 60 -42 118.333 -42 175c0 178 90.333 300.333 271 367zM325.001 1267c0 -138 76.334 -232.333 229.001 -283c15.333 -8 37.333 -12 66 -12l96 175c43.333 65.333 123.666 147.333 240.999 246c-86 116.667 -180.333 175 -283 175h-60
c-110 0 -198.333 -64.333 -265 -193c-12 -28.667 -20 -64.667 -24 -108zM1017 1357c48 -82 71.999 -138 71.999 -168l-12 -12c-42.667 97.333 -70.667 149.333 -84 156c-133.333 -122.667 -215.666 -245 -246.999 -367h6c252 0 466.667 116.333 644 349
c20 41.333 30 77.333 30 108v19c-6.66699 44 -28.667 66 -66 66h-36c-72.667 0 -175 -50.333 -307 -151zM1041 1508h12c-22.667 -24 -44.667 -36 -66 -36l-12 18zM866.001 1436l24 -31v-6c-154 -126 -268 -242.333 -342 -349c0 -8 -6.33301 -12 -19 -12l-24 18
c44.667 90 143 202.333 295 337c34 28.667 56 43 66 43zM1233 1436c40.667 -86 61 -146.333 61 -181l-6 -6h-6c-18.667 69.333 -49 125.333 -91 168c14.667 12.667 28.667 19 42 19zM421.001 888c16 -6 24 -12 24 -18c-20 -54 -34 -82 -42 -84h-18
c0 24.667 12 58.667 36 102zM349.001 599h12l-12 -138c0 -120 40 -188.333 120 -205h6v-6c-2 -12 -18 -18 -48 -18h-12c-60 50.667 -90 133 -90 247c2.66699 80 10.667 120 24 120zM872.001 485v-12c-24 -55.333 -80 -115.666 -168 -180.999l-18 -6
c0 31.333 36 73.333 108 126c17.333 23.333 43.333 47.666 78 72.999zM1053 400h11.999l6 -42c0 -38 -26 -74 -78 -108c-73.333 -275.333 -143.666 -457.666 -210.999 -546.999c-64.667 -80.667 -116.667 -121 -156 -121c-92.667 17.333 -139 85.666 -139 204.999v36
c2.66699 64.667 12.667 97 30 97l6 -7v-6c-14.667 -34 -22.667 -74 -24 -120c0 -104 40.333 -156 121 -156l6 -6c116.667 0 229 206.333 337 619c30 40.667 54 64.667 72 72z" />
    <glyph glyph-name="H" unicode="H" horiz-adv-x="1806" 
d="M1157 1598h34.9971c124.667 0 209.334 -71.333 254.001 -214l14 -117l-48 -34h-14l7 41c0 145.333 -48.333 230.333 -145 255l-62 14c-213.333 0 -449.666 -167.667 -708.999 -503c-21.333 -105.333 -60.333 -158 -117 -158h-7l-14 41v41
c38.667 96.667 144.334 227.667 317.001 393c191.333 160.667 354.333 241 489 241zM1756 1440l21.002 -21.0029c0 -30 -57.333 -78.333 -172 -145c-67.333 -40.667 -168.333 -245 -303 -613l289 117c243.333 390.667 454.666 604.334 633.999 641.001h34
c43.333 0 68.666 -32.333 76 -97v-20c0 -187.333 -204.333 -362 -613 -524c-141.333 -299.333 -214.666 -517.333 -219.999 -654v-55c0 -24.667 9 -40.667 27 -48h21c52.667 8 133 90.667 241 248h7l14 -14c-118 -189.333 -214.667 -285.666 -290 -288.999h-27
c-60 36 -90 102.333 -90 199v21c0 133.333 50.667 312.333 152 537c-184 -65.333 -276 -104.333 -276 -117c-218.667 -445.333 -482.667 -668 -792 -668h-83c-188.667 0 -319.334 101 -392.001 303l-14 117c0 224 117 380 351 468l97 14h75c144 0 238.333 -78 283 -234
l7 -62v-7c0 -169.333 -101 -288.666 -303 -357.999h-111c-73.333 0 -135 25.333 -185 76c0 9.33301 6.66699 14 20 14c58.667 -37.333 113.667 -56 165 -56h69c134.667 0 235.667 82.667 303 248l7 62c0 130.667 -78 206.667 -234 228h-76
c-169.333 0 -300 -96.667 -392 -290c-14 -36.667 -21 -71 -21 -103v-69c0 -136 82.667 -234.667 248 -296l96 -13h97c242 0 446.333 188 613 564h-7l-227 -158h-7l-7 7c58.667 71.333 150.667 142.333 276 213c71.333 164 165.333 336.333 282 517v7h-7
c-94.667 -60 -159 -90 -193 -90h-27c-63.333 0 -100.333 48.333 -111 145l7 179l-7 7h-13c-88.667 0 -217.334 -151.667 -386.001 -455h-7l-7 7v7c133.333 277.333 271 445 413 503h42c44.667 0 72 -39 82 -117v-207l21 -21h21c67.333 0 221 110.333 461 331
c16.667 14 32.667 21 48 21zM1736 819.997h7.00098c372 159.333 558 313 558 461v28c0 35.333 -11.667 58.333 -35 69h-48c-108.667 -22.667 -246.334 -169.667 -413.001 -441zM1956 1068v-14c-30 -78 -59.667 -117 -89 -117c50 83.333 79.667 127 89 131zM1874 763.997
c22.667 -2.66699 34.001 -9.33301 34.001 -20v-7l-21 -21h-82c-82.667 -218 -126.334 -392.333 -131.001 -523l-21 -28l-7 -7h-14v90c0 166 43.667 329 131 489c38 18 75 27 111 27zM1123 757.998h20c-12 -52.667 -25.667 -82.667 -41 -90h-7c-12 0 -21 18.333 -27 55v14
c2.66699 14 21 21 55 21zM234.001 171.998l21 -7v-7c0 -24 -11.667 -47 -35 -69l-27 21zM138.001 -27.002c18.667 -6.66699 32.332 -18.333 40.999 -35v-34c0 -73.333 25.333 -110 76 -110h27c56 0 143.333 32 262 96l97 14c-131.333 -106 -248.666 -159 -351.999 -159
c-110 12.667 -165 68 -165 166v7z" />
    <glyph glyph-name="I" unicode="I" horiz-adv-x="1202" 
d="M1756 1605l37.9971 0.000976562l15 -15c-123.333 -30 -252.666 -184.667 -387.999 -464l-137 -334c48.667 0 124.667 58 228 174l8 -7v-8c-32 -80.667 -100.333 -146.334 -205 -197.001c-48 0 -78.667 -33 -92 -99c-207.333 -440.667 -471 -661 -791 -661h-83
c-206 0 -350.333 113.667 -433 341l-16 145c0 217.333 114 382 342 494c54 15.333 99.667 23 137 23h69c146 0 249.667 -86.333 311 -259c10.667 -22 16 -62.333 16 -121c0 -165.333 -89 -284.666 -267 -357.999l-91 -15h-53c-93.333 0 -164.333 28 -213 84l15 15h8
c63.333 -40.667 124 -61 182 -61h61c153.333 0 260 93.667 320 281v61c0 124 -53.333 207.667 -160 251c-20 10 -48 15 -84 15h-76c-185.333 0 -324.666 -103.667 -417.999 -311c-10 -16.667 -20 -67.334 -30 -152.001c0 -186.667 91 -313.667 273 -381l92 -15h91
c264.667 0 492.667 235.667 684 707c-109.333 0 -177.666 78.667 -204.999 236v30c0 278 240.667 475.667 722 593zM994.997 1004v-38c14 -116 54.667 -174 122 -174h7l168 311c56.667 126 175.667 273 357 441l38 15v8h-7c-184 -24 -346.333 -87.333 -487 -190
c-132 -116.667 -198 -241 -198 -373zM956.997 1324h8v-8c-56 -98 -117 -171.333 -183 -220c-55.333 -74 -83 -117.333 -83 -130c-30.667 0 -46 10.333 -46 31c50.667 110.667 152 219.667 304 327zM1581 1293v-15c-85.333 -218 -141 -327 -167 -327v15
c96 218 151.667 327 167 327zM1307 693.001l7.99902 -8l-31 -68h-15v7c16.667 46 29.334 69 38.001 69zM1056 259.001v-7c-162 -233.333 -314 -350 -456 -350h-46c-56 8 -84 18.333 -84 31c126.667 12 215.667 27.333 267 46c116.667 90.667 223 184 319 280z
M401.996 130.001c8.66699 0 16.333 -12.667 23 -38l-8 -8h-15l-15 16v15z" />
    <glyph glyph-name="J" unicode="J" horiz-adv-x="1011" 
d="M1271 1600h20l21 -28c-14.667 -54.667 -44.667 -82 -90 -82c-226 0 -426 -80.667 -600 -242c-188 -195.333 -282 -386 -282 -572c4 -50 15.333 -98.333 34 -145h-14c-21.333 0 -42 78.333 -62 235c0 320 211.667 561.333 635 724c197.333 41.333 310 78 338 110z
M1395 1469h26.999l14 -14c-148 -98.667 -269.667 -266.334 -365 -503.001l-138 -317h7c47.333 11.333 118.333 68.666 213 171.999l7 -7v-7c0 -46 -64.333 -110.333 -193 -193c-41.333 0 -69 -29.667 -83 -89l-227 -504h7c80.667 38.667 179.334 130.667 296.001 276h7v-14
c-32.667 -103.333 -147.667 -211 -345 -323c-248 -428 -491.333 -642 -730 -642h-55c-176.667 0 -301 110.333 -373 331l-14 118v20c0 226.667 99 385.334 297 476.001l97 13h55c106 0 181.667 -85 227 -255v-82c0 -46.667 -9.33301 -92.667 -28 -138h7
c79.333 57.333 203.333 110.333 372 159c29.333 0 50.333 27.333 63 82l234 558c-110 0 -174.333 76 -193 228v7c0 264.667 211.333 469.334 634 614.001c79.333 22.667 139.333 34 180 34zM670.999 807c0 -104 36.667 -163.666 110 -178.999h14
c100 263.333 247 500 441 710l117 97h-7c-196 -38 -359 -111.667 -489 -221c-124 -126.667 -186 -262.334 -186 -407.001zM1139 1324h7v-7l-34 -34v14zM683.999 518.001c0 -35.333 -50.333 -70 -151 -104c-148.667 -84 -282 -169 -400 -255l-28 34
c222.667 158.667 415.667 267 579 325zM-501.001 -267.999c0 -182.667 80.333 -309.002 241 -379.002l83 -14h69c167.333 0 339.666 140.333 516.999 421c45.333 70 68 118 68 144c-197.333 -45.333 -346.666 -118.666 -447.999 -219.999
c-45.333 -74 -86.333 -111 -123 -111h-21c-8 0 -15 11.667 -21 35c0 28.667 59.667 81.334 179 158.001c36.667 44.667 55 93 55 145v28c0 125.333 -61.667 201 -185 227h-63c-146 0 -258.333 -103.333 -337 -310zM-25.001 89.999l27 -28v-6
c-257.333 -248 -386 -425 -386 -531h-14l-20 62c0 101.333 128.667 269 386 503h7zM380.999 -185.001c-47.333 -92.667 -157.666 -198.333 -330.999 -317c-129.333 -69.333 -219 -104 -269 -104l-48 14v14c132 0 306.667 103.333 524 310c43.333 60 84.666 90 123.999 90v-7
z" />
    <glyph glyph-name="K" unicode="K" horiz-adv-x="1903" 
d="M1282 1591c74.667 0 128.333 -81.666 161 -244.999v-7c-2.66699 -16.667 -23.667 -35.334 -63 -56.001l-7 7l21 91v42c0 74.667 -51.333 112 -154 112c0 9.33301 -23.667 16.333 -71 21v14zM1162 1500h21.001c66 0 99 -88.667 99 -266l21 -21h35
c60.667 6.66699 200.667 102.334 420 287.001h21l14 -14v-21c-4 -10.667 -67 -57.334 -189 -140.001c-54.667 -50.667 -157.334 -267.667 -308.001 -651c-218 -448.667 -489 -673 -813 -673h-77c-188 0 -318.667 102.667 -392 308l-14 119c0 227.333 116.667 391 350 491
l105 14h70c133.333 0 229 -74.667 287 -224l14 -98c0 -186.667 -102.667 -310.667 -308 -372h-112c-82 0 -145 28 -189 84l7 7h7c82.667 -37.333 143.334 -56 182.001 -56h63c139.333 0 239.666 84.333 300.999 253l7 77c0 133.333 -79.333 210.333 -238 231h-70
c-170 0 -300.667 -98 -392 -294c-14 -38 -21 -73.333 -21 -106v-70c0 -172.667 91 -280 273 -322l56 -7h98c268 0 506.333 250 715 750c100 184 198 342.667 294 476c-102.667 -70 -172.667 -105 -210 -105h-21c-70 0 -110 53.667 -120 161l7 77
c-5.33301 23.333 -12.333 35 -21 35h-28c-80 0 -199 -156.333 -357 -469h-7l-7 7v7c86 230 195.667 391 329 483c31.333 28 64 42 98 42zM2241 1493l34.999 0.000976562c68.667 0 113 -46.667 133 -140v-14c0 -40.667 -16.333 -71 -49 -91h-42
c-14.667 0 -28.667 23.333 -42 70l21 98c-6.66699 23.333 -23 35 -49 35h-21c-90 -16 -223 -160.667 -399 -434c-120 -142 -229.667 -230.667 -329 -266c-28 -4.66699 -42 -11.667 -42 -21c107.333 -52.667 161 -151 161 -295l-28 -315v-7c0 -24.667 9.33301 -41 28 -49h21
c42.667 0 119.667 79.333 231 238l7 7h7l14 -14c-40 -78.667 -119.333 -169.667 -238 -273l-42 -7h-28c-74.667 51.333 -112 130.666 -112 237.999v14l28 316c-16 74.667 -44 112 -84 112h-56l-21 21v21c0 12 39.667 23.667 119 35c108.667 76 211.334 192.667 308.001 350
c172 247.333 328.333 371 469 371zM965.999 1458h7.00098c-114.667 -140 -217.334 -249.667 -308.001 -329l-105 -147c-28 4.66699 -42 11.667 -42 21c98 164 247.333 315.667 448 455zM2157 1241h56.001l21 -21l-14 -14h-49c-37.333 0 -93.333 -11.667 -168 -35v7
c25.333 42 76.666 63 153.999 63zM1317 1108h7.00098v-7c-12.667 -30 -24.334 -46.333 -35.001 -49v14c10.667 28 20 42 28 42zM504.002 786.002h14c79.333 -8 119 -19.667 119 -35c-17.333 -14 -50 -21 -98 -21l-35 42v14zM1345 646.002h7v-7l-21 -21v14zM1275 513.002h7
c108.667 -409.333 218.334 -696.333 329.001 -861c92.667 -135.333 176.667 -203 252 -203h35c84 0 172.667 56 266 168l14 -14c-88.667 -126.667 -184.334 -190 -287.001 -190h-28c-222 0 -434.333 340.667 -637 1022c24.667 51.333 41 77.333 49 78zM882.002 71.002
l14 0.000976562v-7c-12.667 -30.667 -26.667 -49.334 -42 -56.001h-14l-21 21z" />
    <glyph glyph-name="L" unicode="L" horiz-adv-x="1263" 
d="M603 1590l72.002 -0.00195312c147.333 0 296 -88.667 446 -266c127.333 144 223 216 287 216h21c45.333 0 71.666 -33.667 78.999 -101v-14c0 -178 -162.667 -372 -488 -582c-39.333 0 -75.333 -40.667 -108 -122c-66 -180.667 -181 -365 -345 -553
c132.667 -52.667 231 -79 295 -79h72c81.333 0 184.333 81.333 309 244h7l7 -21c-90 -154 -214.333 -259.333 -373 -316h-65c-52 0 -164.667 36 -338 108c-92.667 -72 -176.334 -108 -251.001 -108h-72c-105.333 20.667 -158 61.334 -158 122.001v29
c-0 66.667 45.333 107.334 136 122.001h72c44.667 0 145.334 -24 302.001 -72c78.667 97.333 169.667 281.666 273 552.999l-137 -14h-86c-162.667 0 -282.334 93.333 -359.001 280l-14 129c0 206.667 105.333 350.334 316 431.001zM230.002 1166
c0 -185.333 124.334 -295.334 373.001 -330.001h87c105.333 0 158 16.667 158 50c53.333 120.667 134.666 257.334 243.999 410.001c-132 172 -268.667 258 -410 258h-93c-168.667 0 -286 -100.333 -352 -301zM1157 1267l-0.000976562 -6.99805
c38 -62.667 57 -103.334 57 -122.001v-8l-14 -14l-65 108c-67.333 -118 -117.666 -225.667 -150.999 -323h7c326 168.667 489 348 489 538c0 25.333 -12 44.666 -36 57.999h-43c-56 0 -137.333 -76.667 -244 -230zM1566 1439l7 0.000976562
c86 -114.667 129 -217.667 129 -309h-14l-65 144c-42.667 61.333 -64 99.666 -64 114.999zM144.002 427l28 0.000976562c96.667 -6.66699 207 -52.334 331 -137.001v-7l-7 -21h-8l-366 86c-11.333 0 -30.333 -14.333 -57 -43l-36 -15l-7 8v7c0 49.333 40.667 90 122 122z
M43.002 140.001v-15c0 -48 40.667 -79 122 -93h58c72 0 143.667 33.333 215 100c-121.333 52.667 -205 79 -251 79h-65c-52.667 -9.33301 -79 -33 -79 -71zM682.002 211.001v-14l-14 -14v14zM129.002 161.001l43 -72l-7 -7c-48 11.333 -72 33 -72 65zM2291 53.001
l22 0.000976562v-43c0 -136.667 -40.667 -258.334 -122 -365.001c-86 -58 -186.667 -87 -302 -87h-21c-210 0 -526.333 127 -949 381v14l72 22c398.667 -258.667 707.667 -388 927 -388c206 0 328 136.333 366 409zM582.002 3.00195h7l7 -7h7
c-52 -86 -111.667 -129 -179 -129c-56.667 0 -111.667 24 -165 72v7l57 7c34 -33.333 72.333 -50 115 -50h14c47.333 0 93 33.333 137 100z" />
    <glyph glyph-name="M" unicode="M" horiz-adv-x="2153" 
d="M1147 1898l15.002 -0.000976562c54 0 94 -52.667 120 -158c0 -94.667 -30 -276 -90 -544c104 146 177 219 219 219h22c15.333 0 30.333 -27.667 45 -83v-8c0 -140.667 -17.333 -211 -52 -211h-8c20 108 30 186 30 234l-7 23h-23c-70 0 -165.667 -121 -287 -363
c-115.333 -397.333 -193 -596 -233 -596v8l181 513v7h-8c-115.333 -217.333 -173 -338 -173 -362h-15v45c71.333 163.333 149 317 233 461c86 293.333 129 517.333 129 672c-6.66699 60 -19.334 90 -38.001 90h-53c-125.333 -27.333 -286.333 -193.333 -483 -498
c-76.667 -131.333 -119.334 -239.666 -128.001 -324.999h-7l-16 16c0 182 143.333 428.333 430 739c99.333 80.667 165 121 197 121zM2006 1604l7.99902 -8v-7l-143 -212c-367.333 -679.333 -551 -1086.67 -551 -1222h8c86 92.667 244.333 319 475 679
c188 282 389 536 603 762l30 8l8 -8v-7c-417.333 -792 -626 -1290.33 -626 -1495c10 -22.667 20 -35.334 30 -38.001h23c52.667 0 143 88.333 271 265h15v-31c-138 -195.333 -241 -293 -309 -293h-53c-60 32 -90 92 -90 180c0 234.667 186 637.334 558 1208h-8
c-220.667 -270.667 -484.667 -645.667 -792 -1125c-89.333 -122 -162 -205 -218 -249h-31c-24.667 0 -39.667 37.667 -45 113c0 254 231.333 694.333 694 1321h-7c-270.667 -278.667 -484.667 -535.334 -642 -770.001c-149.333 -219.333 -307.666 -410.333 -474.999 -573
c-104.667 -70 -197.667 -105 -279 -105h-68c-182 0 -307.667 113 -377 339l-15 128c0 226 113 387 339 483l106 15h68c139.333 0 240 -83 302 -249l15 -98c0 -178 -88 -303.667 -264 -377c-20 -10.667 -47.667 -16 -83 -16h-61c-155.333 26.667 -233 69.667 -233 129l7 7h8
c80 -65.333 155.333 -98 226 -98h53c133.333 0 231.333 83 294 249l7 76c-26.667 180.667 -114.667 271 -264 271h-82c-180 0 -308.333 -100.333 -385 -301l-8 -83v-68c0 -188 105.667 -311.333 317 -370h98c180.667 0 382 166 604 498c212 312 473.333 631.333 784 958
c82 76 134.667 114 158 114zM2074 1566h8c40 -28 60 -86 60 -174c-26.667 -43.333 -51.667 -73.333 -75 -90v15c30 62 45 117.333 45 166c-4.66699 20 -19.667 30 -45 30h-23v8c12 30 22 45 30 45zM800.001 335.999v-15c0 -32 -20.333 -62.333 -61 -91h-7v8
c0 31.333 22.667 64 68 98zM1788 -56.001l53 -8v-15l-38 -8l-23 23z" />
    <glyph glyph-name="N" unicode="N" horiz-adv-x="1999" 
d="M1445 1847c88.667 0 143.333 -84.001 164 -252.001v-74c0 -39.333 -29.667 -103.666 -89 -192.999v7c34 106 51 182.667 51 230v89c-12 94 -54 141 -126 141h-14c-142 0 -344.667 -131 -608 -393c-128.667 -143.333 -212.667 -269.333 -252 -378h-45v7
c108 270 308.333 505 601 705c122 74 228 111 318 111zM1735 1580l13.999 -15c-39.333 -146.667 -59 -282.667 -59 -408l7 -267c0 -228 -17 -440.333 -51 -637v-8h7c374 890 653.333 1335 838 1335h22c38 0 62.667 -27 74 -81c-9.33301 -64.667 -34 -97 -74 -97h-22
c-24.667 13.333 -44.667 43 -60 89h-22c-82.667 0 -248.334 -247 -497 -741c-194.667 -430.667 -313 -682.667 -355 -756l-15 14c24.667 103.333 37 190 37 260l-30 482v52c0 126 20 289 60 489v7h-8c-221.333 -538.667 -414 -887 -578 -1045
c-180.667 -172.667 -348.667 -259 -504 -259h-82c-199.333 0 -337.666 103.667 -414.999 311l-22 133c0 244 113.667 412 341 504c52.667 15.333 97 23 133 23h89c208 -28 312 -132 312 -312v-52c0 -151.333 -91.667 -265 -275 -341l-89 -15h-66c-94 10 -141 25 -141 45v15
h7l126 -23h74c150 0 256.333 86.667 319 260v104c0 98 -64.333 169.667 -193 215l-59 7h-81c-192.667 0 -336 -116 -430 -348l-15 -126c0 -168.667 94 -285 282 -349l103 -15h89c348 0 679.333 385.667 994 1157c93.333 202 165 333 215 393zM2113 1491h6.99902
c44.667 -37.333 67 -64.333 67 -81l-30 -52h-15v59l-22 22h-7c-69.333 -1.33301 -185.666 -85.333 -348.999 -252v-7h-15v22c4 46.667 95.667 135.667 275 267zM1520 1321v-15l-15 -15v15zM1483 897.999h14v-15c0 -27.333 -17.333 -54.333 -52 -81v14zM540.997 815.999
c38 0 80.001 -7.33301 126.001 -22v-7l-15 -15h-52c-26.667 0 -46.334 12.333 -59.001 37v7zM1950 682.999l-0.000976562 -15.002c-287.333 -728 -435.666 -1192.33 -444.999 -1393v-45l7 -30l-7 -29v-30c2.66699 -29.333 10 -44 22 -44
c58.667 6.66699 152.667 90.667 282 252h15c-56 -135.333 -145 -232 -267 -290h-30c-44.667 32.667 -67 82.334 -67 149.001c0 94.667 86.667 425.667 260 993c120 272.667 196.667 433.334 230 482.001zM1119 274.997l0.000976562 -15
c-12.667 -25.333 -27.334 -40 -44.001 -44l-8 7v8z" />
    <glyph glyph-name="O" unicode="O" horiz-adv-x="1101" 
d="M728 1703h65.002c69.333 0 131.666 -21.667 186.999 -65c0 -9.33301 -14.333 -16.333 -43 -21c-48.667 24 -94.334 36 -137.001 36h-65c-124.667 0 -261.667 -69.667 -411 -209l-36 -22h-7v7c134.667 182.667 283.667 274 447 274zM1060 1588l57 -0.000976562
c83.333 0 146 -53 188 -159l14 -108c-2.66699 -48 -10 -72 -22 -72l-14 15v108c-20 115.333 -73 173 -159 173h-57c-80.667 0 -172 -45.667 -274 -137l86 -65c44.667 24 80.667 36 108 36h44c129.333 -28.667 194 -132 194 -310v-36c0 -252 -103.333 -508.667 -310 -770
c-151.333 -172.667 -288 -259 -410 -259h-37c-140 0 -228.667 108 -266 324l-7 108c0 322.667 168 649 504 979c-21.333 9.33301 -52.666 14 -93.999 14h-57c-179.333 0 -321 -136.667 -425 -410c-20.667 -129.333 -35.334 -194 -44.001 -194h-7v14h-7
c0 254.667 113 451.334 339 590.001c54 24 102 36 144 36h65l122 -21c140.667 96 249 144 325 144zM1088 1494h14.999c12.667 0 29.334 -33.667 50.001 -101h-7c-12.667 0 -32 33.667 -58 101zM310.001 356.999v-15.001c0 -162 52.667 -260.333 158 -295h65
c163.333 0 341.333 168 534 504c86 184 129 342.333 129 475v58c-17.333 172.667 -72.333 259 -165 259h-51c-52.667 -12 -79 -24 -79 -36c81.333 -104 122 -226.333 122 -367v-15c0 -218 -88.667 -378.667 -266 -482l-43 -7h-36c-87.333 0 -140.333 72 -159 216v72
c0 190.667 108 389.667 324 597c-9.33301 16.667 -35.666 38.334 -78.999 65.001c-158.667 -163.333 -269.334 -329 -332.001 -497c-81.333 -182.667 -122 -360 -122 -532zM505.001 1372v-14.999c-114 -71.333 -205.333 -160 -274 -266l-15 -29
c3.33301 -30.667 20.333 -69 51 -115v-14l-15 -15c-17.333 12.667 -39 51 -65 115c0 63.333 67.333 157 202 281c37.333 29.333 76 48.666 116 57.999zM548.001 694.999v-14.001c0 -109.333 38.333 -171.666 115 -186.999h29c102.667 0 186.667 122.333 252 367l15 151
c0 122 -31.333 215.667 -94 281c-211.333 -184 -317 -383.333 -317 -598zM36.001 766.998l22 -0.000976562l7 -7h7c-28.667 -90.667 -43 -186.667 -43 -288c0 -203.333 76.667 -342.666 230 -417.999c39.333 -47.333 68.333 -71 87 -71v-15c-108 0 -206.667 79.333 -296 238
c-33.333 80.667 -50 159.667 -50 237v65c0 58.667 12 145 36 259z" />
    <glyph glyph-name="P" unicode="P" horiz-adv-x="1296" 
d="M500 2098c288.667 0 589.666 -141.999 902.999 -425.999l8 -7v-8l-45 -37h-8c-301.333 288.667 -594.666 433 -879.999 433c-214 0 -321 -112 -321 -336l7 -186l-22 -15h-15l-23 209c0 217.333 132 341.666 396 372.999zM521.999 1657h59.999
c71.333 0 138.666 -29.667 201.999 -89c84 24.667 158.667 37 224 37h82c74.667 0 164 -19.667 268 -59c52 39.333 87 59 105 59l7 -7v-8l-74 -67c129.333 -108 194 -240 194 -396c0 -172 -87.333 -303.667 -262 -395c-19.333 -10 -46.666 -15 -81.999 -15h-52
c-94.667 17.333 -142 44.666 -142 81.999l23 7l74 -30h60c94 0 171 89.667 231 269c15.333 36 23 86 23 150v52c0 90.667 -37.333 167.667 -112 231c-46 -6 -197.667 -309.667 -455 -911c-222.667 -378 -434.334 -567 -635.001 -567h-52c-139.333 17.333 -209 82 -209 194
c0 54.667 22.333 97 67 127h45c34.667 -20 52 -50 52 -90v-14l-15 -83v-37c24.667 -34.667 52 -52 82 -52h45c183.333 0 382.333 268.667 597 806c112 257.333 259 474 441 650v7c-79.333 34.667 -149 52 -209 52h-105c-62 0 -121.667 -7.33301 -179 -22
c44.667 -80.667 67 -167.667 67 -261c0 -270 -117 -486.667 -351 -650c-59.333 -34.667 -114 -52 -164 -52h-45c-76.667 0 -133.667 49.667 -171 149l-15 105c0 226.667 141.667 445.667 425 657c87.333 44.667 142 67 164 67c-48 44.667 -95 67 -141 67h-75
c-147.333 0 -286.666 -109.333 -417.999 -328c-45.333 -109.333 -72.666 -166.666 -81.999 -171.999l-8 7v15c6.66699 96 79 220.667 217 374c104.667 94 204 141 298 141zM1508 1546l7 -0.00195312c139.333 -149.333 209 -318.666 209 -507.999
c0 -178 -99.667 -302.667 -299 -374c-76.667 -24.667 -153.667 -37 -231 -37h-45c-99.333 0 -149 12.333 -149 37l22 38c50 -30 122.333 -45 217 -45c120 0 234.333 54.667 343 164c40 54.667 60 134.334 60 239.001v105c0 124 -52.333 241 -157 351v7zM178.998 835.999
c0 -108 44.667 -172.668 134 -194.001h53c126 0 257.667 139.333 395 418c34.667 96.667 52 186.334 52 269.001v45c0 71.333 -19.667 121 -59 149c-132 -34 -254 -111 -366 -231c-139.333 -160.667 -209 -312.667 -209 -456zM1157 1501c14.667 -5.33301 22 -20.333 22 -45
c-16.667 -33.333 -36.667 -58.333 -60 -75v8c13.333 74.667 26 112 38 112zM208.998 1359h15l22 -60l-7 -7h-8l-37 52zM253.998 186.998l67 -75v-7l-37 -8c-30 22 -45 49.333 -45 82l7 8h8z" />
    <glyph glyph-name="Q" unicode="Q" horiz-adv-x="1511" 
d="M1046 1832c138 0 251 -57.667 339 -173v-15c-18.667 0 -81.334 30 -188.001 90c-35.333 15.333 -80.666 25.333 -135.999 30l-301 -60v8c96 80 191.333 120 286 120zM880 1666l60.999 -0.000976562c36.667 0 99.334 -25 188.001 -75l98 15h75
c117.333 0 205 -85.333 263 -256l23 -165c0 -357.333 -246 -701.333 -738 -1032c134.667 -55.333 225 -83 271 -83h53c84 0 202 90.333 354 271h7v-7c0 -53.333 -92.667 -151.333 -278 -294c-75.333 -34.667 -135.666 -52 -180.999 -52h-45c-56 0 -159 30 -309 90
c-98.667 -54.667 -186.334 -82 -263.001 -82h-53c-104.667 0 -164.667 42.333 -180 127v23c0 68.667 50 111.334 150 128.001h68c64 0 184.333 -30.333 361 -91c252.667 145.333 456 409 610 791c34.667 120 52 230.333 52 331v15c-23.333 166 -88.333 249 -195 249h-68
l-53 -8c55.333 -82.667 83 -175.667 83 -279c0 -286.667 -125.333 -515 -376 -685l-128 -37h-53c-106.667 0 -166.667 82.667 -180 248v15c0 276 173 519.333 519 730l53 16c-41.333 40 -84 60 -128 60h-76c-174 0 -327 -140.667 -459 -422
c-18.667 -75.333 -36 -113 -52 -113l-8 8v7c56 214 154 372.333 294 475c85.333 54.667 165.333 82 240 82zM827.999 1569l-0.000976562 -16.001c-52 -37.333 -142.333 -152.666 -271 -345.999c-145.333 -301.333 -218 -572.333 -218 -813l7 -60l-22 -15
c-15.333 0 -23 40 -23 120c0 371.333 143 730.333 429 1077c36.667 35.333 69.334 53 98.001 53zM533.998 852.998v-52c0 -98.667 40.333 -159 121 -181h52c132.667 0 265.667 150.667 399 452c30 88 45 168.333 45 241v45c0 66 -17.333 128.667 -52 188
c-211.333 -83.333 -377 -231.333 -497 -444c-45.333 -98.667 -68 -181.667 -68 -249zM518.998 1313h15l-7 -38h-15zM1445 611.998v-7c-38.667 -142 -149 -302.667 -331 -482c-55.333 8.66699 -83 18.667 -83 30v8c105.333 65.333 208.333 173 309 323zM112.998 295.998
c25.333 0 55.333 -14.999 90 -44.999l-37 -90c-26 14.667 -51.333 22 -76 22h-15c-14.667 0 -24.667 -20 -30 -60c8 -41.333 28 -96.333 60 -165l-7 -8h-15c-55.333 69.333 -83 134.666 -83 195.999c0 41.333 37.667 91.333 113 150zM262.998 145.999v-15
c18 -65.333 60.667 -98 128 -98h83c52 0 124.667 22.333 218 67v8c-144 70 -251.667 105 -323 105h-38c-45.333 -6 -68 -28.333 -68 -67zM338.998 160.999h45l52 -68v-8h-22c-39.333 0 -69.333 12.667 -90 38v23zM1558 39.999l21.999 -0.000976562
c25.333 -77.333 38 -155 38 -233v-37c0 -83.333 -70.333 -188.666 -211 -315.999l-60 -16h-53c-152 0 -412.667 165.667 -782 497v8c34 0 109.333 25 226 75c62.667 -30 102.667 -45 120 -45v-15l-120 -23h-106c341.333 -290.667 572.333 -436 693 -436
c142.667 0 225.334 105.333 248.001 316v60z" />
    <glyph glyph-name="R" unicode="R" horiz-adv-x="1491" 
d="M728 1590v7h162v-14h-7l-127 -14c-18.667 6.66699 -28 13.667 -28 21zM502 1583l42.0049 -0.000976562c82.667 0 148.667 -26 198 -78c68.667 18.667 129.667 28 183 28h85c82 0 174 -21 276 -63c49.333 37.333 80 56 92 56l7 -7v-7l-64 -63
c108.667 -89.333 163 -188.333 163 -297c0 -152.667 -85 -280 -255 -382l-99 -28c85.333 -72.667 128 -155 128 -247c0 -46 -19 -175.667 -57 -389c11.333 -32.667 20.666 -49 27.999 -49h14c51.333 6 131.666 93 240.999 261l14 -14
c-114.667 -198 -204.334 -297 -269.001 -297h-35c-66 42 -99 117.333 -99 226l49 375v14c0 56.667 -18.667 85 -56 85h-71c-32.667 0 -49 16.333 -49 49c6.66699 23.333 23 35 49 35h7l78 -14h28c74 0 144.667 96.667 212 290l14 134c0 74 -23.333 142.333 -70 205h-7
c-58 -39.333 -201.667 -326.666 -431 -861.999c-204 -362.667 -409 -544 -615 -544h-56c-118 23.333 -177 82.333 -177 177v7c6.66699 75.333 32.667 113 78 113h7c37.333 0 60.666 -26 69.999 -78v-21l-14 -78v-28c23.333 -33.333 49.333 -50 78 -50h42
c175.333 0 368.666 264 579.999 792c102 234 236 431.667 402 593c-57.333 47.333 -137.333 71 -240 71h-99c-56 0 -100.667 -9.33301 -134 -28c42.667 -73.333 64 -156 64 -248v-7c0 -258.667 -108.333 -463.334 -325 -614.001c-56.667 -33.333 -108.667 -50 -156 -50h-42
c-98.667 0 -157.667 70.667 -177 212v64c0 194.667 132 390 396 586l162 85c-56 33.333 -105.333 50 -148 50h-64c-140 0 -274 -108.667 -402 -326c-38 -107.333 -61.667 -163.666 -71 -168.999l-7 7v21c4.66699 94 73 216.667 205 368c100.667 89.333 199.667 134 297 134z
M1258 1548h7l14 -15h-21v15zM1441 1484c202.667 -102 304 -222 304 -360v-36c0 -174 -165 -305.667 -495 -395l-7 7v21c292 67.333 438 194.333 438 381c0 128.667 -89.333 246.667 -268 354zM170.005 840.999l-0.000976562 -71.001c12.667 -108 50.334 -162 113.001 -162
h56c116.667 0 239 127 367 381c42.667 100 64 196.667 64 290c0 62.667 -16.333 124 -49 184c-244.667 -94.667 -412 -240.667 -502 -438c-32.667 -75.333 -49 -136.666 -49 -183.999zM353.004 1449l0.000976562 -7c-14.667 -17.333 -26.334 -64.666 -35.001 -141.999h-7
l-14 14v29c0 53.333 14 88.666 42 105.999h14zM1229 1251h14c0 -26 -16.333 -54.333 -49 -85v14zM968.005 656.998h7c61.333 0 92 -21 92 -63l14 -64l-7 -85h-21zM1279 225.998c42 -4.66699 63 -11.667 63 -21l-21 -14h-49v21l7 7v7z" />
    <glyph glyph-name="S" unicode="S" horiz-adv-x="1307" 
d="M1287 1897h97.001c159.333 0 263.333 -59.667 312 -179l15 -74l-37 -15c-58 129.333 -120 194 -186 194c0 13.333 -67 23 -201 29c-268.667 0 -474.334 -99 -617.001 -297c-36.667 -124 -59 -186 -67 -186h-8v104c0 152.667 158.667 284 476 394
c81.333 20 153.333 30 216 30zM1004 1652h67c154 0 283 -82 387 -246c127.333 119.333 219 179 275 179h45c44.667 -26 67 -65.667 67 -119c0 -180 -146.333 -356.333 -439 -529c-69.333 -18 -104 -42.667 -104 -74c-192.667 -575.333 -453 -863 -781 -863h-90
c-189.333 0 -325.666 104 -408.999 312l-22 149c0 226.667 119 390.334 357 491.001l104 15h75c157.333 0 259 -96.667 305 -290v-52c0 -178.667 -89.333 -300.334 -268 -365.001l-75 -7h-52c-138.667 18 -208 42.667 -208 74l8 8h7c83.333 -30 147.666 -45 192.999 -45h60
c136 0 235 82 297 246l8 81c-18.667 174 -103 261 -253 261h-82c-145.333 0 -269.333 -89.333 -372 -268c-29.333 -59.333 -44 -128.666 -44 -207.999c0 -170 86.667 -286.667 260 -350l104 -15h82c279.333 0 500 277.667 662 833h-119c-155.333 0 -274.333 79.333 -357 238
c-24.667 51.333 -37 108.666 -37 171.999c0 171.333 89.333 290.333 268 357c19.333 10 46.333 15 81 15zM714.001 1287c0 -156 106.667 -270 320 -342l74 -8h90c24 100.667 105.667 249.667 245 447c-116 153.333 -235 230 -357 230h-82c-143.333 0 -240 -86.667 -290 -260
v-67zM1503 1339c39.333 -52.667 59 -94.667 59 -126l-7 -8h-8c-8 0 -27.667 34.667 -59 104h-8c-56.667 -107.333 -103.667 -221.333 -141 -342c180.667 59.333 317 163.666 409 312.999c40 56.667 60 113.667 60 171v37c0 26.667 -12.333 46.334 -37 59.001h-38
c-57.333 0 -134 -69.333 -230 -208zM1689 1466h7c0 -26 -7.33301 -41 -22 -45l-8 7v8zM863.001 856h7c52.667 0 110 -64.667 172 -194l-30 -59l-112 -15l-7 7v22c0 15.333 27.333 23 82 23h7v7zM744.001 603l7 -8v-30c0 -6 -76.667 -33 -230 -81l-209 -112l-44 15v7
c35.333 52 159.333 114 372 186zM1108 305v-15c0 -54 -47 -118.333 -141 -193c-58 -34.667 -97.667 -52 -119 -52c89.333 63.333 176 150 260 260zM208.001 268c20 -7.33301 30 -15 30 -23l-7 -29l15 -60h-8c-30 0 -45 34.667 -45 104l8 8h7z" />
    <glyph glyph-name="T" unicode="T" horiz-adv-x="1466" 
d="M2226 1703l7 0.000976562c44.667 -50.667 67 -105.334 67 -164.001c0 -60 -32.333 -109.667 -97 -149l-141 15v15c71.333 0 138.333 42.333 201 127l15 37c-4 22.667 -21.333 50 -52 82v37zM841 1658l454 -29v-15l-186 -37l-275 14h-15c-238.667 0 -358 -67 -358 -201
c0 -60.667 52.333 -182 157 -364v-15c-57.333 0 -124.333 109 -201 327v23c0 133.333 104 230 312 290zM2211 1599l7.00098 -8v-14c-61.333 -80 -143.333 -120 -246 -120h-52l-528 38h-97c-230.667 0 -397 -89.333 -499 -268l-22 -119c19.333 -124 66.666 -186 141.999 -186
h67c161.333 0 317.333 136.333 468 409h8l7 -7v-8c-46 -170 -135.333 -309 -268 -417c-68 -34.667 -125 -52 -171 -52h-67c-122.667 0 -194.667 87 -216 261v7c0 192 141.667 331 425 417c96.667 30 230.667 45 402 45h134c183.333 0 352 7.33301 506 22zM1794 1413
l22.001 -0.000976562l15 -15c-102.667 -89.333 -179.667 -196 -231 -320c-178 -436.667 -321.667 -704.667 -431 -804c-184.667 -188 -385.667 -282 -603 -282h-90c-242.667 0 -396.334 119 -461.001 357l-15 104c0 225.333 111.667 389 335 491
c52.667 14.667 97.334 22 134.001 22h74c147.333 0 246.666 -84.333 297.999 -253l8 -74v-15c0 -212 -111.667 -336 -335 -372h-75c-73.333 0 -137.666 24.667 -192.999 74v15h15c71.333 -29.333 140.666 -49 207.999 -59c174.667 0 288.667 89.333 342 268l8 96
c0 107.333 -62 182 -186 224l-75 7h-74c-144 0 -270.667 -89.333 -380 -268c-29.333 -57.333 -44 -116.666 -44 -177.999v-15c0 -192 96.667 -316 290 -372l126 -15h97c301.333 0 557 263 767 789c87.333 184.667 201.333 355.667 342 513zM1280 312v-15.001
c-84 -235.333 -126 -386.666 -126 -453.999v-7l15 -119l-45 -23l-22 30v30c0 102.667 39.667 268.667 119 498z" />
    <glyph glyph-name="U" unicode="U" horiz-adv-x="1467" 
d="M820 1732c55.333 -11.333 83 -26.333 83 -45v-8l-120 -7c-60.667 14.667 -91 27 -91 37c22 10 64.667 17.667 128 23zM587 1649l68 -0.00292969c59.333 -8 99.333 -23 120 -45c22.667 10 55.334 15 98.001 15h60c84.667 0 147.334 -52.667 188.001 -158l23 -143
c0 -146 -120.333 -434.333 -361 -865c-95.333 -168 -143 -286 -143 -354c3.33301 -24.667 10.666 -37 21.999 -37h45c112 27.333 270.333 205.333 475 534c81.333 139.333 256.666 473 525.999 1001h31l112 7l8 -7c-326 -632 -549.333 -1076 -670 -1332
c-30 -64.667 -45 -120 -45 -166c3.33301 -24.667 11 -37 23 -37h22c59.333 8.66699 147.333 99 264 271h7l15 -16c-134 -205.333 -234.333 -308 -301 -308h-38c-44.667 28.667 -67 81.334 -67 158.001c0 71.333 20 159 60 263v8h-8c-196.667 -286 -344.667 -429 -444 -429
h-15c-55.333 0 -88 57.667 -98 173c0 141.333 130.667 442.333 392 903c75.333 136.667 113 244.334 113 323.001v23c-15.333 100.667 -63 151 -143 151h-106v-16c45.333 -53.333 68 -128.333 68 -225c0 -234 -105.333 -424.667 -316 -572c-44 -25.333 -89 -38 -135 -38h-38
c-94.667 0 -150 70.333 -166 211v30c0 200.667 130.667 388.667 392 564l98 46c0 16 -32.667 26 -98 30h-38c-165.333 0 -318.333 -133 -459 -399c-65.333 -149.333 -100.333 -282.333 -105 -399h-8c-10 0 -15 7.66699 -15 23c-0 264.667 115.333 505.334 346 722.001
c98 60 178.333 90 241 90zM271 979.997v-15c0 -88.667 32.667 -141.334 98 -158.001h52c116.667 0 234.667 115.333 354 346c35.333 98.667 53 186.334 53 263.001c0 50 -20 100 -60 150c-225.333 -92 -383.333 -239.667 -474 -443zM467 1514
c-216 -222 -324 -427.668 -324 -617.001c0 -89.333 35 -169.666 105 -240.999v-7l-15 -16c-85.333 75.333 -128 175.666 -128 300.999c0 168.667 95.333 349.334 286 542.001zM963 1506l8 -0.00195312c25.333 -9.33301 38 -36.666 38 -81.999
c0 -97.333 -30.333 -190.333 -91 -279v8c30 144.667 45 242.334 45 293.001v60zM1648 1046.99v-15c-75.333 -172 -158 -400 -248 -684l-53 -61h-7c70 278.667 150.333 492 241 640c36.667 80 59 120 67 120zM1302 8.99414h8v-127l-15 -16l-23 23v90z" />
    <glyph glyph-name="V" unicode="V" horiz-adv-x="1099" 
d="M841 1784h7.99902c74 0 124.667 -55.667 152 -167l-44 -36h-7v65c0 58 -24 87 -72 87c-58 0 -130.667 -26.667 -218 -80l-58 15v22c98.667 62.667 178.334 94 239.001 94zM507.999 1624h50.9961c88.667 0 163.334 -101.333 224.001 -304l37 -36h7
c114.667 222 211.334 333 290.001 333h22c40.667 0 64.667 -31.333 72 -94c0 -116 -84.667 -210.333 -254 -283c-38.667 0 -58 -43.333 -58 -130c-61.333 -264 -133.666 -489 -216.999 -675l-145 -290c210 226 415.333 499.333 616 820c138 240 290.333 447.667 457 623
l51 15h29c29.333 -17.333 44 -39.333 44 -66v-21c0 -38 -14.667 -64.667 -44 -80h-29l-80 36c-107.333 -90.667 -216 -228.334 -326 -413.001c-206 -340.667 -445.333 -664.667 -718 -972l-102 -87h-7l-22 22c96 184 168.667 367.667 218 551
c72.667 302.667 133 522.667 181 660h-14c-84.667 0 -167 99 -247 297c-25.333 24 -47 36 -65 36h-37c-106 0 -219.333 -89.333 -340 -268c-48.667 -85.333 -73 -165 -73 -239v-36c12.667 -116.667 51.334 -175 116.001 -175h51c82 18 157 83.333 225 196
c42 77.333 80.667 181.333 116 312h7l15 -43c0 -231.333 -80 -405.666 -240 -522.999c-33.333 -19.333 -62.333 -29 -87 -29h-51c-102 0 -162.333 82.333 -181 247v36c0 240.667 133 427 399 559zM927.995 1269c71.333 0 151.332 60.333 239.999 181l7 51v29
c0 25.333 -7.33301 40 -22 44h-29c-67.333 0 -132.666 -101.667 -195.999 -305zM1943.99 1552c77.333 -10 116 -24.667 116 -44l-7 -7l-51 7h-44c-54 0 -112 -19.333 -174 -58l-7 8c0 48 50.667 79.333 152 94h15zM434.994 1516h35.999l15 -15
c-188.667 -227.333 -283 -425.333 -283 -594l-7 -8h-7c-11.333 0 -18.666 17 -21.999 51c0 168 89.333 356.667 268 566zM1617.99 1385l50 -6.99902v-15c-142.667 -116.667 -282.667 -266.334 -420 -449.001l-559 -820l-29 -21h-36l-15 14l22 22l22 -7l413 565
c168 284.667 322.667 500 464 646z" />
    <glyph glyph-name="W" unicode="W" horiz-adv-x="1472" 
d="M699 1792c97.333 -36.667 146 -109.667 146 -219v-109l-15 -65h-7l-7 7h-7l7 109v44c0 116.667 -34 175 -102 175l-153 -51h-66c78.667 72.667 146.667 109 204 109zM517 1624l44.002 0.000976562c92 0 167.333 -99.333 226 -298l43 -44c110.667 228 208 342 292 342h44
c34 -19.333 51 -48.333 51 -87v-22c0 -102 -80.333 -191.667 -241 -269c-43.333 0 -65 -36.667 -65 -110c-94.667 -382 -192 -663.667 -292 -845c-8 -1.33301 -25 -35.333 -51 -102c197.333 236.667 401.333 538 612 904c162 220 278.667 390 350 510l7 7h29l15 -15v-7
c0 -30.667 -36.333 -93.667 -109 -189c-34 -88.667 -95 -297.667 -183 -627c-80 -221.333 -174.667 -425.333 -284 -612v-7c182.667 185.333 377 442.666 583 771.999c155.333 254 301 463 437 627c46 38.667 80 58 102 58h29c29.333 -20 44 -44.333 44 -73v-29
c0 -40.667 -22 -65 -66 -73h-7l-80 36c-114.667 -94 -255.334 -280.667 -422.001 -560c-172.667 -268 -369.667 -530.333 -591 -787c-77.333 -82.667 -128.333 -124 -153 -124l-14 15l146 313c98.667 340.667 193.334 632 284.001 874
c-55.333 -74.667 -218 -329.667 -488 -765c-129.333 -184 -253.333 -329.667 -372 -437h-7l-15 15v7c146 310.667 219 505 219 583l175 626c-90 0 -177.667 99.667 -263 299c-24.667 24 -46.334 36 -65.001 36h-37c-110 0 -229 -97 -357 -291
c-38.667 -89.333 -58 -172 -58 -248c0 -103.333 39 -164 117 -182h43c110 0 212 119 306 357c25.333 106.667 42.333 160 51 160l15 -22v-14c0 -268.667 -92.333 -455.667 -277 -561l-51 -7h-51c-102.667 0 -163.334 87.333 -182.001 262v7c-0 252.667 138.333 447 415 583z
M947.002 1275c79.333 0 159.333 68 240 204v58c0 25.333 -7 40 -21 44h-44c-61.333 -34 -112.333 -104.667 -153 -212l-29 -94h7zM342.002 1464c-152.667 -190 -232.667 -328.332 -240 -414.999h-15v15c0 137.333 80.333 270.666 241 399.999h14zM1581 1450l7 0.000976562
l7 -124c0 -176.667 -34 -327.334 -102 -452.001h-14c53.333 172 80 325 80 459v95zM1034 1209h22.001l15 -73v-21c-22 -126 -61 -218.333 -117 -277h-7l58 247h-14c-34 -82 -56 -123 -66 -123v14c55.333 155.333 91.666 233 108.999 233zM925.003 524.003h15
c-16 -192 -30.667 -303.667 -44 -335h-15v168c0 72 14.667 127.667 44 167zM1253 291.003v-6.99902c-98 -170.667 -175.667 -260.334 -233 -269.001h-7v7z" />
    <glyph glyph-name="X" unicode="X" horiz-adv-x="1206" 
d="M560 1628h52.998c40 0 82.333 -17.667 127 -53l98 15h38c140 -27.333 210 -129.666 210 -306.999v-90c220 260 385 390 495 390h45c59.333 0 94.333 -50 105 -150c0 -229.333 -242.667 -432 -728 -608c-130 -284.667 -195 -510 -195 -676c0 -75.333 22.667 -113 68 -113
h22c49.333 0 144.333 95.333 285 286l15 -15c-123.333 -203.333 -228.333 -308.333 -315 -315h-30c-71.333 0 -111.333 85 -120 255l7 112c-211.333 -244.667 -388.666 -367 -531.999 -367h-45c-85.333 0 -135.333 57.333 -150 172v8c0 235.333 285 450.333 855 645
c95.333 203.333 143 371 143 503v38c-14.667 130 -59.667 195 -135 195h-61l-37 -8c45.333 -54.667 68 -122 68 -202c0 -234.667 -105.333 -417.334 -316 -548.001c-39.333 -20 -71.666 -30 -96.999 -30h-53c-66 0 -106 60 -120 180c0 204 122.667 396.667 368 578l75 30
c0 12.667 -25 25 -75 37h-68c-126.667 0 -251.667 -90 -375 -270c-94 -157.333 -151.333 -320 -172 -488h-22v23c0 142.667 67.333 322.667 202 540c126.667 155.333 249 233 367 233zM1026 877h15c434.667 163.333 652 341 652 533v45c0 39.333 -15 67 -45 83h-45
c-134 0 -319 -205.333 -555 -616zM297.998 975v-45c6 -65.333 31 -98 75 -98h45c76 0 176 90 300 270c54.667 95.333 82 183 82 263c0 65.333 -22.333 120.333 -67 165c-160 -73.333 -285 -188.333 -375 -345c-40 -76 -60 -146 -60 -210zM882.998 1478h8
c44.667 -24 67 -71.667 67 -143c0 -94 -25 -209 -75 -345h-15c0 70 10 175 30 315v75zM717.998 1448c14.667 -5.33301 21.999 -20.332 21.999 -44.999c-129.333 -88.667 -226.666 -201.334 -291.999 -338.001l-8 -8h-7l-8 8v7c47.333 144 145 269.333 293 376zM1633 1448h8
v-23c0 -150 -135 -282.667 -405 -398c224.667 190 337 305.333 337 346c0 20.667 20 45.667 60 75zM94.9971 164.001v-15c0 -64.667 30 -102.334 90 -113.001h45c159.333 0 362 238 608 714v15h-8c-490 -163.333 -735 -363.666 -735 -600.999zM702.997 630.001v-15
c0 -36.667 -117.667 -164.334 -353 -383.001l-127 -143h-30l-23 23c194 220.667 369 393.334 525 518.001h8zM905.997 427.001h15l15 -308l-45 -30c-15.333 36 -23 76 -23 120zM1431 51.001h7l15 -15c-142.667 -134.667 -252.667 -202 -330 -202
c-61.333 16 -116.333 53.667 -165 113v7l30 15c40.667 -40 85.667 -62.333 135 -67c74 0 176.667 49.667 308 149zM79.9971 -45.999l38 -6.99902v-8c-90 -206 -135 -331 -135 -375l-7 -8h-8l-8 8v8c0 123.333 40 250.666 120 381.999z" />
    <glyph glyph-name="Y" unicode="Y" horiz-adv-x="1197" 
d="M1709 1591l11.9971 0.000976562l19 -19c-1.33301 -10.667 -49 -43.667 -143 -99c-68 -38 -194.333 -290.667 -379 -758c-194 -476.667 -448.667 -715 -764 -715h-69c-188.667 0 -315 89 -379 267l-6 62v75c0 151.333 83 277.666 249 378.999c54.667 20.667 98 31 130 31
h68c122.667 0 205.667 -70.333 249 -211l6 -75c0 -154.667 -85 -260.334 -255 -317.001h-99c-35.333 0 -60.333 12.667 -75 38l7 6l105 -6h25c112 0 193 64 243 192c8 18.667 12 47.667 12 87c-17.333 136.667 -83.666 205 -198.999 205h-62c-132 0 -246 -89 -342 -267
c-12 -43.333 -18 -84.666 -18 -123.999c0 -156.667 89 -258.334 267 -305.001l56 -6h80c260 0 484 240.333 672 721c26.667 52.667 43 94 49 124c-155.333 -190.667 -267 -286 -335 -286h-38c-41.333 24 -62 65.667 -62 125v6c0 102 70.667 276 212 522
c28.667 60 43 109.667 43 149v31c0 64.667 -41.333 104 -124 118h-50c-146 0 -284.667 -95.333 -416 -286c-25.333 -68 -38 -113.333 -38 -136c0 -70 29 -111.667 87 -125h56c84.667 0 174 76.667 268 230c24.667 60 49.334 136.667 74.001 230h6l7 -6v-43
c0 -181.333 -72.667 -330.666 -218 -447.999c-45.333 -20.667 -84.666 -31 -117.999 -31h-43c-84 0 -134 58 -150 174c0 158 103.667 299 311 423c66.667 32.667 122.667 49 168 49h56c103.333 0 163.333 -78.667 180 -236v-18c0 -85.333 -74.667 -270 -224 -554l-25 -87
v-24l19 -19h37c95.333 0 269.333 209.333 522 628c170.667 219.333 282.667 329 336 329zM894.997 1479h12l25 -112c0 -47.333 -18.667 -95 -56 -143v7c20.667 79.333 31 143.333 31 192zM683.997 796.001h12v-7l-6 -43h-6l-13 12zM602.997 572.001h12v-106h-12l-6 56z
M776.997 547.001h25v-13l-44 -37h-12v25zM931.997 466.001c0 -25.333 -41.333 -52.333 -124 -81l-131 -87h-6c16 50 70 97.667 162 143l99 31v-6zM652.997 280.001v-6.99902c-37.333 -40 -56 -91.667 -56 -155v-6h-13l-6 31c0 61.333 22.667 104.666 68 129.999z
M950.997 180.002v-6.00098c-82 -112 -156.667 -168 -224 -168h-6v13c40 4.66699 116.667 58.334 230 161.001z" />
    <glyph glyph-name="Z" unicode="Z" horiz-adv-x="1408" 
d="M818 1672l81 0.000976562c120.667 0 321.667 -34.333 603 -103c36.667 24.667 63.667 37 81 37h15v-8c-74.667 -58.667 -118.667 -88 -132 -88c-216 44 -366 83.333 -450 118l-73 7c-236 -28 -354 -64.667 -354 -110c-24.667 -75.333 -49 -117.333 -73 -126h-8v37
c0 31.333 27 75.666 81 132.999c30.667 68.667 107 103 229 103zM935 1576l59 -0.00390625c94 0 182.333 -105.667 265 -317l30 -29c181.333 221.333 318.666 332 411.999 332h30c58.667 0 88 -39.333 88 -118c0 -151.333 -122.667 -254.666 -368 -309.999h-140
c-42.667 -47.333 -182.667 -241.333 -420 -582v-14c45.333 0 102 -56.667 170 -170c39.333 -211.333 71 -317 95 -317h15c53.333 0 141.666 88.667 264.999 266c10 0 15 -7.66699 15 -23c-126 -200.667 -234 -301 -324 -301h-30c-74 0 -130.333 127.667 -169 383
c-31.333 73.333 -60.666 110 -87.999 110c-246 -328.667 -430.333 -493 -553 -493h-51c-63.333 0 -100.333 51.333 -111 154c0 188 142.333 330.333 427 427l111 8h51l126 -8c112.667 177.333 245 371.333 397 582c-102.667 52.667 -154 109.334 -154 170.001
c-51.333 132.667 -103 199 -155 199h-52c-96.667 0 -212 -86 -346 -258c-48.667 -85.333 -73 -173.666 -73 -264.999c0 -107.333 41.667 -171.333 125 -192h51c96 0 196.667 122.667 302 368c14.667 93.333 29.667 140 45 140l7 -7v-7c0 -235.333 -81 -412.333 -243 -531
c-34 -19.333 -63.667 -29 -89 -29h-51c-105.333 0 -166.666 86 -183.999 258c0 238.667 140 425.334 420 560.001zM1348 1193l73 -7h67c123.333 0 221.333 68.667 294 206l8 52c0 32 -14.667 56.333 -44 73h-45c-85.333 0 -203 -108 -353 -324zM567 1201h7
c0 -26.667 15 -81 45 -163v-14c-22 0 -46.667 49 -74 147zM162 662.997h7c31.333 0 95.333 -29.667 192 -89v-7c-32.667 -34.667 -62 -52 -88 -52c0 15.333 -37 30.333 -111 45c-78.667 -39.333 -118 -130.333 -118 -273v-15c0 -29.333 10 -71 30 -125v-37h-8
c-44 41.333 -66 105.333 -66 192v22c24.667 162 54 243 88 243c8 64 32.667 96 74 96zM155 139.997c8 -74 37.332 -111 87.999 -111h44c122.667 0 289.667 159.667 501 479c-19.333 10 -46.333 15 -81 15h-88c-200.667 0 -348 -91 -442 -273
c-11.333 -18 -18.666 -54.667 -21.999 -110zM515.999 456.997l103 -89v-7l-45 -52h-7l-132 111c21.333 24.667 48.333 37 81 37zM743.999 257.997c132.667 -94 199 -155.333 199 -184l29 -67l-272 199v15c14 24.667 28.667 37 44 37zM2298 -14.0029
c14.667 0 22 -51.666 22 -154.999c0 -216.667 -93.333 -347 -280 -391c-192 13.333 -513.667 175.666 -965 486.999v14l37 -7l44 7c414.667 -294.667 694.667 -442 840 -442h29c172 0 258 159.667 258 479l8 8h7z" />
    <glyph glyph-name="bracketleft" unicode="[" horiz-adv-x="704" 
d="M1041 1798l50.999 -43.001l179 17c62.667 -6.66699 94 -18 94 -34v-8c-11.333 -51.333 -25.666 -77 -42.999 -77l-51 17h-42c-165.333 0 -262.333 -62.667 -291 -188c-465.333 -914 -712.666 -1422.67 -741.999 -1526l-17 -110c24 -34.667 81 -52 171 -52
c120.667 0 225.667 23 315 69l9 -9v-8c-68.667 -108.667 -222.334 -163 -461.001 -163h-8c-40 0 -60 20 -60 60h-128l-17 17v9c-0 30.667 102.333 249.334 307 656.001c296 619.333 515 1060 657 1322zM127.999 -129.001l-26 -77h35v77h-9z" />
    <glyph glyph-name="backslash" unicode="\" horiz-adv-x="412" 
d="M644 1798l22.001 -108.001l-61 -208c-282.667 -914 -428.334 -1422.67 -437.001 -1526l1 -153l-158 -43l-2 9c-6 30.667 52.667 249.334 176 656.001c172 619.333 303 1060 393 1322z" />
    <glyph glyph-name="bracketright" unicode="]" horiz-adv-x="899" 
d="M1191 1798l24 -0.000976562l25 -24l-16 -98c21.333 -2.66699 32 -10.667 32 -24c-10.667 -43.333 -172.667 -383.666 -486 -1021c-270 -554.667 -416 -841 -438 -859c-38.667 0 -76.334 -38 -113.001 -114h-25l-8 9l-8 24h-8l-105 -16c-40 0 -61.667 8 -65 24v16
c3.33301 32.667 11.333 49 24 49l-8 8v16l25 25h162c54.667 0 119.334 94.333 194.001 283l762 1524h-179c-28 0 -52 8 -72 24l-25 -24l-16 16c64 108 172 162 324 162zM1005 1685v-9h138v9l-57 8z" />
    <glyph glyph-name="asciicircum" unicode="^" horiz-adv-x="961" 
 />
    <glyph glyph-name="underscore" unicode="_" horiz-adv-x="2101" 
d="M-142 -440l97 47.999l231 -1c1026 -17.333 1592 -16.666 1698 2.00098l150 41l112 -132l-7 -3c-28 -14 -269.667 -18 -725 -12c-686.667 -6 -1178.67 -2.33301 -1476 11z" />
    <glyph glyph-name="grave" unicode="`" 
d="M277 1814c-8.66699 -47.333 -24 -71 -46 -71l65 -150c-60.667 40 -104 81.667 -130 125c-18.667 38 -28 79.667 -28 125c6.66699 24 22 43 46 57h36c23.333 -11.333 42.333 -40 57 -86z" />
    <glyph glyph-name="a" unicode="a" horiz-adv-x="647" 
d="M487 603l55.9971 -14l28 21h6c9.33301 0 14 -7 14 -21h35l7 -7h7c-162 -315.333 -243 -487 -243 -515v-20l14 -14c38 0 126 88 264 264l14 -14c-123.333 -190 -218.333 -285 -285 -285h-35c-37.333 -160.667 -56 -269.667 -56 -327v-41c0 -60.667 30.333 -91 91 -91
c108.667 0 245.334 141.667 410.001 425l7 -7v-7c-48 -124 -136 -251.667 -264 -383c-42 -42 -81.667 -63 -119 -63h-34c-54 0 -93.667 46.667 -119 140v27c0 68 18.667 186.333 56 355l-14 76l7 49v7h-7c-71.333 -111.333 -138.666 -167 -201.999 -167
c-4.66699 -13.333 -18.667 -20 -42 -20c-13.333 0 -31.666 78.667 -54.999 236l7 62v7l-21 -14l-14 14c126 218 272 327 438 327h49zM138.997 74l14.001 -14h14c180.667 193.333 271 337.333 271 432v28l-14 27h-7c-74.667 0 -167.334 -139 -278.001 -417v-56zM194.998 373
v-5.99902h7c20 41.333 66.333 99 139 173h-7c-62.667 -46.667 -109 -102.334 -139 -167.001zM312.998 200.001l-104 -133h7c69.333 78 104 122.333 104 133h-7z" />
    <glyph glyph-name="b" unicode="b" horiz-adv-x="653" 
d="M1085 1803h41.999c143.333 0 258.333 -103.333 345 -310l7 -84v-36c0 -271.333 -326.333 -531.666 -979 -780.999l14 -64v-14c0 -86 -35.333 -191.667 -106 -317h36c34.667 0 88.667 42.333 162 127l7 -21c-56 -94 -114.667 -141 -176 -141h-50
c-95.333 -108 -177.333 -162 -246 -162h-35c-52 0 -80.333 42.333 -85 127v14c0 41.333 16.333 104.666 49 189.999v7h-7c-22.667 -46.667 -39 -70 -49 -70l-14 14c172.667 261.333 292.334 484.333 359.001 669c243.333 568 485.333 852 726 852zM569.999 1289h8l56 7l7 -7
l-345 -733h7c255.333 80 476 171.667 662 275c319.333 195.333 479 388 479 578v14c0 164 -94 279 -282 345h-84c-158.667 0 -328 -159.667 -508 -479zM154.999 218c159.333 138 239 211 239 219l22 126h-8c-102.667 -16 -154 -51 -154 -105
c-59.333 -100.667 -92.333 -180.667 -99 -240zM126.999 77l21 0.000976562c59.333 0 120.333 35.333 183 106c28 54 49 124.333 63 211c-32.667 -12.667 -114.667 -87.667 -246 -225c-14 -32.667 -21 -63.334 -21 -92.001zM147.999 42.001v-7h28l49 21v7h-7z" />
    <glyph glyph-name="c" unicode="c" horiz-adv-x="499" 
d="M344 600l34.999 -0.000976562c52.667 0 87 -32.333 103 -97c0 -66.667 -34.333 -105.667 -103 -117c-18 -13.333 -36.333 -20 -55 -20h-7l55 48l-14 41c0 13.333 16 36.333 48 69v7c-103.333 -47.333 -190.333 -127.666 -261 -240.999c-14 -46 -23.333 -101.333 -28 -166
c10.667 -55.333 24.334 -83 41.001 -83c90 0 172.667 60 248 180l76 89c9.33301 0 14 -6.66699 14 -20l-145 -193c-9.33301 -22 -55 -52 -137 -90l-69 -7c-41.333 -0 -78.333 34.333 -111 103v187l-20 -14l-14 14c136 206.667 250.667 310 344 310zM295.999 523.999l83 35v7
h-28c-34 -17.333 -52.333 -31.333 -55 -42z" />
    <glyph glyph-name="d" unicode="d" horiz-adv-x="703" 
d="M1481 1802h54c136.667 0 239 -89 307 -267l13 -107c0 -284 -291.333 -504 -874 -660c-96 -22.667 -196 -34 -300 -34c-168 -347.333 -261.667 -563 -281 -647l7 -20h27c70.667 54.667 141.667 134.667 213 240l7 7h7l13 -14c-82 -138 -171 -231.333 -267 -280
c0 -13.333 -4.33301 -20 -13 -20h-7c-40 38.667 -60 81 -60 127l7 47v6h-7c-66.667 -102 -124.667 -153 -174 -153h-20c-14.667 0 -30 6.66699 -46 20c0 -9.33301 -15.667 -18.333 -47 -27c-26.667 8 -40 28 -40 60c31.333 108 47 179.333 47 214l-20 -14l-14 14
c133.333 204.667 249 307 347 307h34c20.667 0 42.667 -15.667 66 -47c53.333 96 80 158.333 80 187c-40 0 -62 26.667 -66 80c0 36.667 40 76.667 120 120c58 18 87 44.667 87 80c76 144 173.667 295.333 293 454c188.667 218 357.667 327 507 327zM867 1255
c31.333 0 47.002 -4.66699 47.002 -14l-220 -480h7c361.333 0 701.666 149 1021 447c66.667 94 100 180.667 100 260v7c0 150 -87 250 -261 300l-60 7h-20c-172.667 0 -377.334 -175.667 -614.001 -527zM494.002 808c4 -26.667 26.333 -40.001 67 -40.001l80 173
c-73.333 -29.333 -122.333 -73.666 -147 -132.999zM113.002 112.999l7 -0.000976562c182 174.667 282 299.334 300 374.001c0 22.667 -13.333 34 -40 34c-52.667 0 -121.667 -62.333 -207 -187c-38 -89.333 -58 -163 -60 -221zM133.002 72.998v-6h27
c62.667 0 145 104.333 247 313l13 47c-64 -101.333 -159.667 -219.333 -287 -354z" />
    <glyph glyph-name="e" unicode="e" horiz-adv-x="477" 
d="M384 603l13.999 -0.000976562c38.667 0 60.667 -28.667 66 -86v-7c0 -30.667 -31 -68 -93 -112l-13 -20h20c140.667 0 226.667 19.667 258 59l7 -6v-7c-39.333 -48.667 -110 -73 -212 -73h-93c-58.667 -49.333 -142.667 -95.666 -252 -138.999l-7 -40v-59
c0 -40 17.667 -60 53 -60h27c50 2.66699 138.333 88.667 265 258c8.66699 0 13 -6.33301 13 -19c-34 -62 -93.667 -135 -179 -219h14l66 33l7 -7v-6c-84.667 -62 -149 -93 -193 -93h-13c-82 0 -130.333 73 -145 219v73l-20 -14l-7 7h-7
c114.667 203.333 238.334 305 371.001 305zM390.999 556.999v-7.00098c8.66699 -9.33301 13 -33.666 13 -72.999c12 0 21 17.667 27 53v13l-13 14h-27zM178.999 377.998l6 0.000976562c106.667 0 160 44 160 132v20c-42 -20.667 -97.333 -71.334 -166 -152.001z
M151.999 350.999l-53 -86v-7c46 6.66699 97 37.667 153 93h-100z" />
    <glyph glyph-name="f" unicode="f" horiz-adv-x="535" 
d="M1092 1799c47.333 -4 71 -27.667 71 -71c0 -30 -8.66699 -47.667 -26 -53c-43.333 47.333 -78.666 71 -105.999 71h-18l-62 -18v-8c82.667 0 124 -41.333 124 -124c0 -185.333 -217.667 -476.666 -653 -873.999l-239 -617h9c71.333 0 180.333 105.667 327 317l26 18h9
v-35c-170.667 -247.333 -297 -371 -379 -371h-27c-189.333 -488 -289 -732 -299 -732l-133 -17l-9 8v9l71 168c-132.667 -153.333 -253.334 -230 -362.001 -230c-158.667 0 -250 120.667 -274 362c0 221.333 100.333 394.666 301 519.999h8v-8
c-170.667 -141.333 -256 -320.666 -256 -537.999c0 -138.667 50 -233 150 -283l53 -8h45c183.333 0 377.333 246.667 582 740l8 44c-17.333 4 -26 27.667 -26 71v18c0 32 14.667 55.333 44 70h35l9 -9h9l194 459l-229 -291h-9l-9 9v9c77.333 130 192 288.667 344 476l88 221
c0 15.333 -20.333 41.666 -61 78.999c5.33301 24 17 36 35 36l79 -9c180 394 365.333 591 556 591zM633 1217h203c124 184.667 186 317 186 397c-8 40.667 -20 61 -36 61h-35c-82 0 -188 -152.667 -318 -458zM475 837c186.667 168 295.333 282.667 326 344
c-146.667 0 -220 -23.333 -220 -70z" />
    <glyph glyph-name="g" unicode="g" horiz-adv-x="594" 
d="M338 589l34.002 0.00195312c50.667 0 76 -36.667 76 -110h7c22 64 47.333 96 76 96l69 7l7 -7c-120.667 -244.667 -203.667 -428.334 -249 -551.001c42.667 28 128 117.333 256 268l7 -20c-24 -55.333 -104.667 -147.333 -242 -276c87.333 22.667 172.333 34 255 34h28
c92 0 138 -52.667 138 -158c-5.33301 -38.667 -35.333 -89 -90 -151h-7v13c46 67.333 69 129.666 69 186.999v7c0 41.333 -25.333 62 -76 62h-69c-206.667 0 -310 -23 -310 -69c-84 -398.667 -180.667 -729.667 -290 -993c-161.333 -345.333 -324.333 -518 -489 -518h-42
c-120.667 0 -233.334 112.667 -338.001 338c-18.667 65.333 -28 123 -28 173v34c0 348.667 338 673 1014 973c74 0 120 50.333 138 151l28 69v7h-7c-72.667 -106 -132.334 -159 -179.001 -159h-21c-24 0 -37.667 7 -41 21l-42 -14c-22.667 0 -34 20.667 -34 62v14
c9.33301 59.333 18.333 89 27 89l-7 21l7 76v7l-20 -14l-14 14c137.333 211.333 257 317 359 317zM89.002 120.002v-33.999h7c184 177.333 276 303.666 276 378.999v34l-7 7v7c-79.333 0 -153 -66.667 -221 -200c-36.667 -84.667 -55 -149 -55 -193zM96.002 44.0029l7 -7h28
c54.667 0 128 85 220 255l7 49zM-144.998 -527.997v-41c2.66699 -27.333 9.66699 -41 21 -41h27c78.667 0 182 172.333 310 517c-238.667 -181.333 -358 -326.333 -358 -435zM-834.998 -1086c0 -202.667 92.001 -354.333 276.001 -455l69 -7h35
c248 0 482.333 441.333 703 1324v7h-7c-138.667 -285.333 -251.334 -428 -338.001 -428h-27c-50.667 0 -76 37 -76 111c0 100 103.333 235.333 310 406h-7c-237.333 -90.667 -469.333 -240 -696 -448c-161.333 -178.667 -242 -348.667 -242 -510z" />
    <glyph glyph-name="h" unicode="h" horiz-adv-x="729" 
d="M1295 1903l42.998 -0.00195312c166 0 273.333 -121.667 322 -365v-36c0 -317.333 -298 -560.333 -894 -729l-265 -29l-36 7l-193 -415v-7h7c120.667 180.667 211.334 276 272.001 286h7c43.333 0 65 -28.667 65 -86v-21c0 -60.667 -50.333 -177.667 -151 -351l-7 -50
c7.33301 -18.667 14.666 -28 21.999 -28h14c36 0 110 76.333 222 229c9.33301 0 14 -7.33301 14 -22c-124 -182 -214.667 -277.333 -272 -286h-29c-42.667 32.667 -64 80.334 -64 143.001c0 71.333 52.333 183.333 157 336v7l-7 8h-7
c-110.667 -94 -215.667 -225.333 -315 -394c-18 -37.333 -37 -61 -57 -71l-7 28c-14 -33.333 -59.333 -50 -136 -50v7l215 422v8h-7c-41.333 -71.333 -86.666 -128.666 -135.999 -171.999l-15 14c150.667 199.333 251 359 301 479c-13.333 0 -27.666 26.333 -42.999 79
c0 38.667 45.333 84 136 136c11.333 0.666992 66 108 164 322c32 0 63 38.333 93 115c221.333 324 417 486 587 486zM700.998 1324v-8.00098l22 -7l-244 -529h8c407.333 0 755.333 164.333 1044 493c62 88 93 174 93 258v29c0 150.667 -81 255.334 -243 314.001l-57 8h-22
c-172 0 -372.333 -186 -601 -558zM342.998 822.997c7.33301 -19.333 14.667 -29 22 -29h14l72 158h-7c-67.333 -54 -101 -97 -101 -129zM264.999 257.997l7 0.00195312c54 91.333 137.333 186.666 250 285.999c24 3.33301 36 10.333 36 21v7h-29
c-117.333 -106.667 -205.333 -211.334 -264 -314.001z" />
    <glyph glyph-name="i" unicode="i" horiz-adv-x="455" 
d="M429 1038h36c24 -14 36 -33 36 -57c-18 -66.667 -37 -100 -57 -100h-36c-15.333 0 -27.333 23.667 -36 71c14.667 46 33.667 74.667 57 86zM322 608h7l7 -7h8c-162.667 -296 -244 -475 -244 -537c0 -10.667 12 -17.667 36 -21c38.667 6.66699 124.667 99.667 258 279h14
v-28l-122 -165h7l158 143l7 -7v-14c-158.667 -167.333 -259 -251 -301 -251c-90.667 0 -136 47.667 -136 143c2 42.667 40.333 140.667 115 294l-122 -151l-14 15c40.667 69.333 114.667 169.333 222 300z" />
    <glyph glyph-name="j" unicode="j" horiz-adv-x="344" 
d="M371 1006l34 0.00195312c22.667 -11.333 34 -29.333 34 -54c0 -40.667 -18 -72.334 -54 -95.001h-34c-18 7.33301 -27 23 -27 47v14c0 37.333 15.667 66.666 47 87.999zM317 600.002h13v-7l-176 -461l-13 -61c48 42.667 122.333 126.334 223 251.001l14 -14
c-9.33301 -37.333 -77 -120.666 -203 -249.999h6c98 22 181.667 33 251 33c71.333 0 112 -42.667 122 -128v-20c0 -45.333 -27 -95 -81 -149h-7v7c45.333 76.667 68 139.667 68 189c0 40.667 -31.667 61 -95 61h-14c-198.667 -9.33301 -298 -27.333 -298 -54
c-200 -971.333 -443.667 -1457 -731 -1457c-119.333 0 -225.333 108.667 -318 326c-18.667 70.667 -28 133.667 -28 189v7c0 335.333 305 642.666 915 921.999c37.333 0 71 58.333 101 175c68 161.333 102 260.666 102 297.999l-136 -169l-13 13
c123.333 194.667 193.333 292 210 292zM73 -36.998c-161.333 -379.333 -296.667 -569 -406 -569h-20c-42 0 -67 34 -75 102c0 108.667 110.667 251 332 427h-7c-194 -79.333 -399.333 -224 -616 -434c-131.333 -172 -197 -316.667 -197 -434v-40
c0 -180.667 77 -318.667 231 -414l74 -20h41c200.667 0 394.667 361.333 582 1084l68 291v7h-7zM-374.001 -503.998l-0.000976562 -27c3.33301 -27.333 10.333 -41 21 -41h27c72.667 0 176.334 171.667 311.001 515h-6c-235.333 -179.333 -353 -328.333 -353 -447z" />
    <glyph glyph-name="k" unicode="k" horiz-adv-x="749" 
d="M1102 1658l42.9951 -0.00292969c116.667 0 197.334 -90.333 242.001 -271l7 -58v-29c0 -247.333 -214.333 -445 -643 -593c-102.667 -34 -215 -51 -337 -51l-88 -190c106 107.333 176.667 161 212 161h15c14.667 -3.33301 22 -20.666 22 -51.999
c29.333 20 51.333 30 66 30h22c44 0 66 -29.333 66 -88c-11.333 -44 -23.666 -66 -36.999 -66h-29c-16.667 0 -33.667 29.333 -51 88h-8c-66 -107.333 -107.333 -166 -124 -176l-51 -29c42 -46 64 -90 66 -132l-30 -139l37 -44
c71.333 56.667 151.666 149.334 240.999 278.001c10 0 15 -7.33301 15 -22c-41.333 -76 -119.333 -170.667 -234 -284c82.667 -107.333 148.334 -161 197.001 -161c48.667 12.667 73 37 73 73h15v-7c-18 -64 -37.333 -96 -58 -96c-76 0 -166.333 58.667 -271 176
c-45.333 0 -77 24.333 -95 73c-17.333 88 -41.666 153.667 -72.999 197c-13.333 32.667 -28 52.334 -44 59.001c-40.667 -152 -67.667 -235 -81 -249h-7v7l29 147v7h-7c-63.333 -150.667 -104.666 -226 -123.999 -226l-88 -8v8l212 431l-139 -168l-14 14
c118 159.333 208 298.333 270 417l-22 66c0 20 41.333 64 124 132c106 240.667 174.333 382 205 424c35.333 0 79.333 44 132 132c126.667 146 241.334 219 344.001 219zM720.995 1329l8.00098 -7h7l-300 -630h59c258 0 511.333 124.333 760 373
c73.333 92.667 110 183 110 271v37c0 143.333 -83 233.333 -249 270c-116.667 0 -248.334 -104.667 -395.001 -314zM325.996 728.997v-22c10 0 29.667 36.667 59 110c-39.333 -30.667 -59 -60 -59 -88zM303.996 399.997l7.99902 -29h51c64.667 0 113.334 48.667 146.001 146
v44l-14 14c-39.333 0 -103 -58.333 -191 -175zM347.995 282.997l22 -59h8l14 88h-7z" />
    <glyph glyph-name="l" unicode="l" horiz-adv-x="368" 
d="M1033 1701c90 0 155 -75.668 195 -227.001l6 -65v-52c0 -289.333 -277 -568.666 -831 -837.999c-108.667 -36.667 -163 -62.667 -163 -78c-86.667 -144.667 -130 -261.334 -130 -350.001l13 -33c51.333 27.333 129.333 112 234 254h13v-26l-130 -195
c-50 -60.667 -89 -91 -117 -91h-13c-60.667 38.667 -91 88.334 -91 149.001c13.333 68 46 154.667 98 260l-104 -130l-13 13l227 331c202 418 362.333 703.667 481 857c126.667 147.333 235 221 325 221zM572 1214l6 0.000976562l45 7l7 -7l-364 -721h7
c167.333 62 347 159.667 539 293c268.667 205.333 403 410.666 403 615.999c-22.667 173.333 -79 260 -169 260l-33 7c-115.333 0 -262.333 -151.667 -441 -455z" />
    <glyph glyph-name="m" unicode="m" horiz-adv-x="999" 
d="M943 662l22 -0.000976562l14 -14v-15l-36 -78l7 -58c0 -56 -62 -192 -186 -408v-15l7 -7c135.333 69.333 207 122 215 158l64 72h8v-8c0 -14 -14.333 -42.667 -43 -86h14c214.667 100.667 381.667 151 501 151c137.333 0 225.666 -62 264.999 -186l7 -43
c0 -64.667 -21.333 -107.667 -64 -129l-15 14c28.667 38 43 81 43 129v21c0 88.667 -64.333 141.334 -193 158.001h-22c-172.667 0 -380 -71.667 -622 -215c-64 -80.667 -123.667 -121 -179 -121l-100 -94h-22l-14 15c0 18.667 14.333 45 43 79l-7 7l50 128
c0 91.333 45.333 199 136 323c9.33301 18.667 14 45 14 79l-14 14h-15c-134.667 -149.333 -261 -326 -379 -530l-114 -7v7c128.667 240 193 404.667 193 494v29c-120 -130 -244 -302 -372 -516c-29.333 -9.33301 -72.333 -14 -129 -14v7l272 559h-36
c-81.333 -68 -165 -168.333 -251 -301h-6l-15 14c137.333 220 235 330 293 330h29l7 -7h7l51 50h21v-15l-50 -71l14 -65l-7 -64c118 114.667 192 172 222 172h14c36.667 0 58.334 -24 65.001 -72v-50l-22 -115c134 162.667 217.667 244 251 244zM328 360.999l-8 -7v-14h8
l7 21h-7z" />
    <glyph glyph-name="n" unicode="n" horiz-adv-x="704" 
d="M315 608l27 -0.000976562v-7l-34 -55l7 -49c0 -43.333 -16.333 -103.333 -49 -180v-7h7c120 185.333 210 280 270 284l34 -7c3.33301 14 22 21 56 21l20 -21c-27.333 -63.333 -52.666 -139.333 -75.999 -228c-96.667 -164 -145 -265.667 -145 -305l7 -20h35
c72 60.667 145.667 146 221 256l7 7h7l13 -14c-44.667 -86 -127.334 -180.333 -248.001 -283h-42l-35 27c-41.333 -129.333 -62 -230.666 -62 -303.999v-63c12.667 -82.667 52 -124 118 -124c100.667 0 234.334 115.333 401.001 346c18 28.667 31.667 68 41 118
c-7.33301 27.333 -23.333 41 -48 41v13c7.33301 18.667 23.333 28 48 28l21 -28v-20c0 -146 -113 -312 -339 -498c-74.667 -37.333 -134.667 -56 -180 -56h-13c-83.333 12 -125 70 -125 174v48c0 94 39.333 241.333 118 442c0 76 53 191.333 159 346v7l-7 7h-7
c-84.667 -32.667 -183.667 -138.667 -297 -318c-77.333 -115.333 -121.333 -173 -132 -173l-83 -13h-7l-6 6h-7c33.333 113.333 123 293.333 269 540l-7 7h-34c-42.667 -26 -125.667 -123 -249 -291l-14 14c135.333 212 227.666 318 276.999 318h34l21 -14z" />
    <glyph glyph-name="o" unicode="o" horiz-adv-x="504" 
d="M290 622l34.999 -21h55c16.667 0 37.334 -9 62.001 -27h48v-21l-27 -7l20 -97c-6 -75.333 -35.667 -156 -89 -242v-7h34c36 0 86.667 41.667 152 125l14 -14c-56.667 -96.667 -112 -145 -166 -145h-55c-87.333 -110.667 -179.333 -166 -276 -166
c-34 -0 -57 71.333 -69 214l13 76v7h-6c0 -18 -7 -27 -21 -27l-14 13c35.333 68 95.333 146.333 180 235l-21 21v7c0 17.333 27.667 29 83 35c11.333 20 27.333 33.667 48 41zM110.999 111c0 -42 11.332 -63 33.999 -63c116 90.667 199 224.334 249 401.001l7 49
c-6.66699 22.667 -23 34 -49 34h-48c-97.333 -102.667 -159.666 -222.334 -186.999 -359.001zM407.998 366c-28.667 -83.333 -98 -184.667 -208 -304h7c86 57.333 155 156.333 207 297v7h-6z" />
    <glyph glyph-name="p" unicode="p" horiz-adv-x="619" 
d="M525 1102l52.001 0.00195312v-9l-216 -511h8l67 17h89c44 0 66 -34.667 66 -104v-26c0 -34.667 -9.66699 -86.667 -29 -156l37 9h15v-18c-50.667 0 -88 -40.333 -112 -121c-68.667 -119.333 -103 -205.666 -103 -258.999l7 -26h37c56 45.333 140 154.666 252 327.999
c10 0 15 -8.66699 15 -26c-126.667 -214.667 -220.667 -330 -282 -346h-29c-44.667 39.333 -67 97 -67 173l15 95c-76.667 -57.333 -143.667 -86 -201 -86l-74 -173c15.333 0 23 -5.66699 23 -17v-18c-40 0 -60 -20 -60 -60c-273.333 -679.333 -466 -1098.33 -578 -1257
c-116.667 -173.333 -215.334 -260 -296.001 -260h-37c-116 0 -188 138.667 -216 416v35c0 445.333 227.667 800.666 683 1066c160.667 63.333 281.667 95 363 95h8l207 519v9h-8c-42 -86 -89 -155.333 -141 -208l-7 9h-7c167.333 265.333 323 565.666 467 900.999z
M228.001 261.002l-0.000976562 -8.99902h7c22.667 55.333 92 156.666 208 303.999h-22c-65.333 0 -119.666 -78 -162.999 -234zM198 131.003l8 0.000976562c133.333 69.333 200 115.666 200 138.999c49.333 79.333 74 154.333 74 225l-7 35
c-115.333 -130.667 -207 -263.667 -275 -399zM-1069 -1281v-77.999c0 -164.667 59.333 -277.334 178 -338.001h66c148.667 0 339 294.667 571 884h-7l-30 -9h-22l252 650h-7c-154.667 0 -350 -95.333 -586 -286c-276.667 -280 -415 -554.333 -415 -823z" />
    <glyph glyph-name="q" unicode="q" horiz-adv-x="633" 
d="M356 615l35.998 0.000976562c44 0 70.667 -36 80 -108h14c16.667 62.667 40.667 94 72 94l58 7l7 -7l-368 -823v-7h8c134.667 221.333 257.334 399.333 368.001 534l7 -8h7c-232.667 -343.333 -420.334 -644 -563.001 -902c-57.333 0 -86 -12 -86 -36
c-48 -136.667 -72 -249.667 -72 -339c0 -120.667 55 -181 165 -181c106 0 255.333 58 448 174c-159.333 -135.333 -318.333 -203 -477 -203c-120 0 -180 62.667 -180 188v29c0 193.333 139.667 556.666 419 1090v7h-8c-47.333 -91.333 -126.666 -137 -237.999 -137
c-14 10.667 -28.333 82.667 -43 216l7 80l-7 -7h-14l-14 14c146.667 216.667 271.334 325 374.001 325zM132.998 276.001l-0.000976562 -8h7c96.667 124.667 192.667 201.667 288 231h8v15c0 26 -12 45.333 -36 58h-29c-71.333 0 -150.666 -98.667 -237.999 -296z
M88.9971 102.001c6 -43.333 15.666 -65 28.999 -65c131.333 82 225.333 190.333 282 325c18.667 39.333 28 73 28 101h-7c-77.333 -20 -168.666 -99.333 -273.999 -238c-32 -50.667 -51.333 -91.667 -58 -123z" />
    <glyph glyph-name="r" unicode="r" horiz-adv-x="595" 
d="M281 602l19.9971 -0.000976562l47 -47c4 13.333 17.333 20 40 20l6 -20c-34 -46 -62.667 -112.667 -86 -200c82.667 76.667 129.334 143.334 140.001 200.001c30.667 31.333 55.334 47 74.001 47h13l47 -13l13 13h47l40 -13c-11.333 -28.667 -22.333 -44.334 -33 -47.001
h-54c-20 0 -58 -31.333 -114 -94c-58 -46 -87 -92.667 -87 -140v-54l21 -20h26c24.667 0 60.334 29 107.001 87c9.33301 0 14 -6.66699 14 -20c-46 -66.667 -86.333 -100 -121 -100h-20c-40 0 -60 24.333 -60 73l13 81c-66.667 -76 -142.334 -178.667 -227.001 -308
l-114 -47v40c147.333 262.667 221 405.334 221 428.001l-7 34c28.667 11.333 44.334 22.333 47.001 33v13l-13 14h-27c-70.667 -56.667 -148.667 -148 -234 -274h-7l-13 13c128 200.667 221.667 301 281 301z" />
    <glyph glyph-name="s" unicode="s" horiz-adv-x="460" 
d="M378 628l13 -18.999v-20c0 -24.667 -21.667 -48.334 -65 -71.001l-7 -45l33 -227h6l78 71h7l13 -13l-13 -19c12.667 0 19 -4.33301 19 -13v-7c-116.667 -176.667 -211.667 -265 -285 -265h-26c-42.667 0 -75 23.667 -97 71c-69.333 12.667 -104 43 -104 91
c0 28 19.333 45.333 58 52h26c9.33301 -2 18 -13 26 -33l-26 -71l7 -6h13c0 22.667 13 42 39 58h26l25 -20c74 87.333 111 189 111 305c-90 -122 -142 -187 -156 -195l-6 7v6l155 227v13l-233 -214h-13v13l259 266c0 34 39 53.333 117 58zM281 486.001l6 -59h6v72z
M339 149.001l84 110h-6c-52 -40 -78 -76.667 -78 -110zM125 71.001v-32h39c34.667 28 52 47.333 52 58h-7z" />
    <glyph glyph-name="t" unicode="t" horiz-adv-x="572" 
d="M1084 1794l9 0.000976562l19 -19c-64.667 -33.333 -131 -87 -199 -161c-131.333 -175.333 -232.333 -352 -303 -530v-10h436l19 -18c-10.667 -25.333 -33 -38 -67 -38l-445 -29c-277.333 -551.333 -416 -854.333 -416 -909v-9l9 -28h57
c81.333 53.333 191.666 176.333 330.999 369h19v-38c-178 -252 -301 -378 -369 -378h-28l-57 18c-94.667 -283.333 -142 -513.333 -142 -690v-76c0 -208.667 63 -313 189 -313c226.667 0 463.334 224.333 710.001 673c32 84 48 150 48 198v38c0 54 -19 92 -57 114h-38
c-21.333 0 -43.333 -9.66699 -66 -29h-19v29c30 37.333 61.333 56 94 56h29c42 0 83 -75.667 123 -227c0 -156 -129.333 -376.667 -388 -662c-162 -152 -288.333 -228 -379 -228h-66c-119.333 0 -201.333 95 -246 285l-10 123c0 177.333 60 439 180 785l-19 85
c19.333 99.333 66.666 225.666 141.999 378.999l-151 -190l-19 19c148 205.333 267.667 382.333 359 531l29 66c-28.667 10.667 -54 32.667 -76 66l28 28h105c76.667 190 133.334 285 170.001 285c31.333 0 66 34.667 104 104c130.667 220.667 247.667 331 351 331z" />
    <glyph glyph-name="u" unicode="u" horiz-adv-x="614" 
d="M239 692l20 -19.9971l-26 -73h80l-207 -426l-20 -73v-13l14 -14h13c66.667 67.333 157.667 211.666 273 432.999c32 60 54 93.333 66 100c13.333 -2.66699 20 -18.334 20 -47.001h7c0 26.667 20 40 60 40h59l-212 -439l-14 -54v-33h7c64.667 22 149 108.667 253 260h13
v-27c-46.667 -82 -133 -179.667 -259 -293h-14c-39.333 31.333 -59 98 -59 200h-7c-43.333 -76.667 -103.333 -136.667 -180 -180c-11.333 -22 -29 -33 -53 -33c-22 0 -39.667 53.333 -53 160c0 43.333 31 129.666 93 258.999v7h-7c-29.333 -52 -60.333 -94.333 -93 -127
l-13 14l173 253c27.333 84 49.333 126 66 126zM366 419.003c0 -12.667 -59.999 -112.334 -179.999 -299.001v-7c73.333 68.667 137.666 155.334 192.999 260.001v46h-13z" />
    <glyph glyph-name="v" unicode="v" horiz-adv-x="759" 
d="M693 738l6.99609 0.000976562l30 -30l-37 -125l22 -37v-7c-27.333 -12.667 -54.333 -62 -81 -148l-89 -147h37c42.667 0 96.667 44 162 132l15 -14v-15c-61.333 -93.333 -122.666 -140 -183.999 -140h-52c-130 -125.333 -228.333 -194.333 -295 -207
c-33.333 0 -57.666 61.667 -72.999 185c0 64 54 194.333 162 391v51h-15c-48.667 0 -142 -103.333 -280 -310h-7l-15 15c140 226.667 240.667 340 302 340h15c40.667 0 65.334 -29.667 74.001 -89l7 7h15l14 -14l-125 -325c-24.667 -86 -37 -145 -37 -177h22
c42.667 0 111.667 98.333 207 295c56.667 79.333 93.334 172.666 110.001 279.999zM390.996 133.001h7c92 96.667 143.667 177.667 155 243z" />
    <glyph glyph-name="w" unicode="w" horiz-adv-x="864" 
d="M476 623l27.001 -0.00195312l13 -13l-7 -7v-7h94l-161 -341v-141l7 -47c160.667 87.333 241 219 241 395c-22 11.333 -33 29.333 -33 54v13l26 27h14l7 -7h6c11.333 34.667 24.666 55 39.999 61h27c13.333 0 24.666 -22.333 33.999 -67c0 -52.667 -44.667 -160 -134 -322
h33c36.667 0 83.667 40.333 141 121h7l13 -14c-53.333 -93.333 -111.333 -140 -174 -140h-47c-72 -125.333 -145.667 -188 -221 -188c-57.333 38.667 -91 65.334 -101 80.001l-13 87v34c-98 -125.333 -160.667 -188 -188 -188c-71.333 22.667 -107 69.667 -107 141
c0 42.667 31.333 129.667 94 261l-101 -127l-13 13c122 196.667 202.333 295 241 295h81v-6l-7 -7v-7l7 -20c-112 -272.667 -168 -429 -168 -469h14c68.667 65.333 146.667 190.333 234 375c40.667 102.667 65.334 156.334 74.001 161.001zM141.001 240.998
c-36 -78 -54.001 -126.999 -54.001 -146.999v-20h7c8.66699 49.333 26.334 102.666 53.001 159.999v7h-6zM503 66.999v-7h13c0 9.33301 6.66699 14 20 14l7 6v7z" />
    <glyph glyph-name="x" unicode="x" horiz-adv-x="734" 
d="M357 608l35.002 0.000976562c43.333 -28.667 65 -85.667 65 -171l128 150l72 21h14c42.667 0 64 -26.333 64 -79c0 -25.333 -12 -44.333 -36 -57h-28l-50 72c-108.667 -97.333 -175.334 -188 -200.001 -272l57 -185h14l172 214c9.33301 0 14 -7.33301 14 -22
c-59.333 -104 -145 -199 -257 -285h-43c-52 38.667 -78 98 -78 178h-7l-129 -164c-33.333 -67.333 -50 -122 -50 -164v-14c0 -47.333 24 -85.333 72 -114l-8 -8h-7c-52 26.667 -78 76.667 -78 150c0 40 14.333 87.667 43 143l-50 -7h-15c-47.333 6 -71 29.667 -71 71
c0 37.333 12 61.333 36 72h35c13.333 0 27.666 -31 42.999 -93h14c28 8 83 74.667 165 200c23.333 15.333 47 72.333 71 171l-14 150h-7c-66 -50.667 -147 -148.334 -243 -293.001l-7 -7h-7l-8 7h-7c134 224 229.333 336 286 336zM378.002 72.001v-27.999l14 -15h8
c15.333 0 39 12 71 36c-23.333 41.333 -42.333 93.666 -57 156.999c-16.667 0 -28.667 -50 -36 -150z" />
    <glyph glyph-name="y" unicode="y" horiz-adv-x="712" 
d="M252 600l14.0029 0.000976562c47.333 0 71 -33.333 71 -100v-14c0 -53.333 -52 -181.666 -156 -384.999h14c127.333 101.333 217.666 198.666 270.999 291.999h21l7 -7h7c62 125.333 100 192 114 200h71l7 7h8l7 -7v-7
c-130.667 -265.333 -216.334 -455.333 -257.001 -570c62.667 50 150.667 147.333 264 292l7 -22c-14 -50 -104.333 -154 -271 -312h7c86.667 23.333 165 35 235 35h79c68 0 110.667 -47.333 128 -142c0 -44.667 -33.333 -99.334 -100 -164.001v14
c48 70.667 72 134.667 72 192c-7.33301 38 -29 57 -65 57h-78c-198.667 -6.66699 -303 -23 -313 -49c-225.333 -1002.67 -498.333 -1504 -819 -1504c-140 0 -261 114 -363 342c-19.333 62 -29 121.667 -29 179v14c0 356.667 363.333 684.334 1090 983.001
c30 15.333 65.333 79.333 106 192l15 57v21c-106 -128 -179.667 -192 -221 -192c-42 0 -73 7 -93 21c0 136.667 33.333 257.667 100 363c0 18 16.667 46.667 50 86l14 57v28h-35c-73.333 -54.667 -156.333 -154.334 -249 -299.001h-7l-15 14
c133.333 218.667 230.666 328 291.999 328zM423.003 301.001c0 -16.667 -78.333 -104.667 -235 -264h28c58.667 38.667 115.667 98 171 178c28.667 34 43 60.333 43 79v7h-7zM-67.9971 -560.999v-35c0 -26 9.33301 -42.667 28 -50h43c78.667 60.667 135.667 139 171 235
c52 102 94.667 201.667 128 299c-246.667 -186 -370 -335.667 -370 -449zM-758.997 -1095c0 -209.333 99.667 -358.999 299 -448.999l86 -7c249.333 0 486.333 434.667 711 1304v7h-7c-140 -294.667 -258.333 -442 -355 -442h-22c-43.333 0 -69.333 35.667 -78 107
c0 106 97 241.333 291 406h-14c-607.333 -284.667 -911 -593.334 -911 -926.001z" />
    <glyph glyph-name="z" unicode="z" horiz-adv-x="719" 
d="M236 700l49 -0.000976562l32 -32v-9c0 -54 -5.33301 -81 -16 -81c5.33301 -21.333 21.333 -32 48 -32h49c56 0 123.667 46 203 138h24l16 -33c0 -18.667 -83.667 -97 -251 -235l-154 -162h8c52 32.667 90 49 114 49h40c38 -28 57 -58 57 -90l-33 -113h73l211 251l17 -16
c0 -13.333 -57 -91.666 -171 -234.999h89c76 -11.333 114 -49 114 -113v-41c0 -38 -32.333 -89.333 -97 -154l-8 8c54 76.667 81 144.334 81 203.001c0 33.333 -21.667 52 -65 56h-154c-44 -42.667 -79.333 -64 -106 -64h-8c-24 0 -48.333 16 -73 48
c-64.667 0 -97 -27 -97 -81c-130 -510.667 -259.667 -875.334 -389 -1094c-158.667 -249.333 -304.667 -374 -438 -374h-73c-134.667 0 -259 119 -373 357l-25 179c0 343.333 359.667 662.333 1079 957l186 56v16c0 13.333 -21.667 24.333 -65 33v32l9 8v8h-9
c-47.333 -80 -85 -128.333 -113 -145h-8l-24 24v16c0 26 67.333 101.667 202 227c48.667 82 73 157.667 73 227v16l-24 25c-34 -28.667 -66.333 -83 -97 -163h-17v17h-8c0 -15.333 -19 -42.333 -57 -81c-10.667 0 -16 8 -16 24l162 259l-8 49c0 28 13.667 49.667 41 65z
M333 496.999h-16l-32 -130l146 146zM195 156.999c32.667 -37.333 49 -67.333 49 -90l81 17l-8 8v16l16 130h-16c-81.333 -10.667 -122 -37.667 -122 -81zM414 50.999v-16h17l24 24h-16zM-1029 -1011c0 -212 111.001 -363.333 333.001 -454h81
c293.333 0 560.666 489.333 801.999 1468v8h-8c-584.667 -201.333 -965.667 -455.333 -1143 -762c-43.333 -102 -65 -188.667 -65 -260z" />
    <glyph glyph-name="braceleft" unicode="{" horiz-adv-x="504" 
d="M725 1792l12.001 -0.00195312l12 -13l-3 -25c-1.33301 -12.667 -16.666 -19 -45.999 -19c-0.666992 -5.33301 -16 -9.66602 -46 -12.999c-58.667 -29.333 -103.334 -77.666 -134.001 -144.999c-31.333 -60 -53.666 -112.667 -66.999 -158v-7h6
c62.667 114 131.667 171 207 171c0.666992 7.33301 32.667 11.666 96 12.999h31l-1 -13c-2.66699 -25.333 -20.667 -38 -54 -38c-98 0 -169.667 -63 -215 -189c-96.667 -285.333 -178.667 -452 -246 -500c-55.333 -38 -91 -57 -107 -57l-1 -6
c47.333 -76 68.666 -137.333 63.999 -184c-5.33301 -56 -50 -210 -134 -462l-5 -50c-6 -59.333 41.333 -89 142 -89c-6.66699 -29.333 -14.334 -44 -23.001 -44h-51c-32 0 -66.667 8.66699 -104 26c-5.33301 -48.667 28.334 -112 101.001 -190l-1 -7
c-104.667 0 -157.334 84.333 -158.001 253l2 82l113 374c17.333 46.667 28.333 93 33 139l2 19c4.66699 46 -45 77.667 -149 95l1 6c2.66699 29.333 19 44 49 44h12c1.33301 8.66699 -4.33398 13 -17.001 13l-6 6l1 6c0.666992 8.66699 20.334 17.334 59.001 26.001
c64 28 117.667 80.667 161 158l182 550c78 152 172 228 282 228z" />
    <glyph glyph-name="bar" unicode="|" horiz-adv-x="704" 
d="M1041 1798l-0.000976562 -108.001l-103 -208c-465.333 -914 -712.666 -1422.67 -741.999 -1526l-29 -153l-167 -43v9c-0 30.667 102.333 249.334 307 656.001c296 619.333 515 1060 657 1322z" />
    <glyph glyph-name="braceright" unicode="}" horiz-adv-x="799" 
d="M624 1796l7.00195 5.99902h6c67.333 0 115 -53 143 -159c6.66699 -18 7.66699 -52 3 -102l-3 -31c14.667 -24 19.667 -58 15 -102c-20 -86.667 -70 -247.667 -150 -483l-3 -32c-6.66699 -66 44.333 -106.333 153 -121l-1 -6c-2.66699 -30 -19 -45 -49 -45
c-82 0 -151.667 -42.333 -209 -127c-43.333 -99.333 -106.666 -285.666 -189.999 -558.999c-56 -116.667 -127.333 -195 -214 -235l-45 -7h-45l-11 13c2.66699 30 19 45 49 45c66.667 0 127 52.667 181 158c-64 -50.667 -134.333 -76 -211 -76h-51l1 13
c5.33301 25.333 13 38 23 38h26c121.333 0 206.666 91 255.999 273c95.333 267.333 163.666 401 204.999 401c54 67.333 104 101 150 101l1 7c-43.333 0 -77.666 38 -102.999 114l4 38c4 41.333 50 206.666 138 495.999l3 32c5.33301 50.667 -32.334 76 -113.001 76h-25
l3 32l21 19h44c29.333 0 60.666 -6.33301 93.999 -19l1 6c8 82.667 -26.667 161.334 -104 236.001z" />
    <glyph glyph-name="asciitilde" unicode="~" horiz-adv-x="757" 
d="M652 444h4v-47c0 -29.333 -30.333 -69.666 -91 -120.999c-22 -10.667 -41 -16 -57 -16c-8 0 -51.333 30 -130 90h-13c-15.333 0 -42.666 -21 -81.999 -63h-5v5c0 15.333 10.333 39.666 31 72.999h-9c-19.333 -8 -51.333 -44.667 -96 -110h-4v53c0 32 34.667 74 104 126
h70c7.33301 0 47.666 -30 120.999 -90h22c25.333 0 50 19.333 74 58c6 0 9 -7 9 -21z" />
    <glyph glyph-name="Adieresis" unicode="&#xc4;" horiz-adv-x="1366" 
 />
    <glyph glyph-name="Aring" unicode="&#xc5;" horiz-adv-x="1366" 
 />
    <glyph glyph-name="Ccedilla" unicode="&#xc7;" horiz-adv-x="1479" 
 />
    <glyph glyph-name="Eacute" unicode="&#xc9;" horiz-adv-x="1366" 
 />
    <glyph glyph-name="Ntilde" unicode="&#xd1;" horiz-adv-x="1479" 
 />
    <glyph glyph-name="Odieresis" unicode="&#xd6;" horiz-adv-x="2118" 
d="M909 1485c-39.333 -162.667 -5.66699 -290.333 101 -383h12l6 -4c22 -16.667 41 -27.667 57 -33h29c62.667 62.667 96.667 134.334 102 215.001l-12 4c-14.667 12.667 -29 21 -43 25c-9.33301 -82 -42.666 -125.667 -99.999 -131c-58.667 47.333 -82.667 107.333 -72 180
c5.33301 46 16.333 48.667 33 8h10c9.33301 39.333 7.33301 75 -6 107c50.667 94 91.667 92.333 123 -5c5.33301 -5.33301 9.33301 -11.333 12 -18h12l25 14l2 13l4 12v67l4 58l-10 4c-30 24.667 -62 41.667 -96 51c-14 -18 -30.333 -27.667 -49 -29
c-8.66699 24.667 -20.334 42.667 -35.001 54c-10 -74 -42 -127.333 -96 -160c-42.667 113.333 -21.667 213 63 299c-2.66699 13.333 -11 18.666 -25 15.999c-88.667 -116 -105.667 -237.333 -51 -364zM1485 1749l4.00293 -12.0039c203.333 -67.333 315.333 -185 336 -353
c-15.333 -143.333 -92.666 -244.333 -231.999 -303c-31.333 -22.667 -62 -36.334 -92 -41.001l16 -18c14 0 24.333 0.666992 31 2c40 12 75 16 105 12c-2.66699 -12 -9.66699 -22 -21 -30c-96.667 -58.667 -195 -88 -295 -88c5.33301 24 17 41 35 51l-2 20h27
c31.333 -14.667 60.666 -18.667 87.999 -12c34 36.667 21 60.667 -39 72c14.667 -16.667 19.334 -34 14.001 -52c-19.333 2.66699 -36.333 9.66699 -51 21c-28.667 52 -101.667 71.667 -219 59c-16.667 10 -31.667 14.333 -45 13c56 -48 44.333 -67.333 -35 -58v-14
c6.66699 -5.33301 12.667 -11 18 -17c-10.667 -9.33301 -20.667 -16 -30 -20c-92 1.33301 -118.667 15 -80 41v14c-79.333 -8 -91.666 10 -36.999 54l-12 8l-4 -8c-40 -10 -75.667 -11.667 -107 -5h-45c-16.667 -13.333 -33.667 -20 -51 -20
c-12.667 -9.33301 -23.667 -14.666 -33 -15.999l-12 -27c34 10.667 57.667 5.33398 71 -15.999l-16 12c-15.333 -4 -29.666 -5.33301 -42.999 -4l-8 4c-22 -11.333 -40.333 -17 -55 -17c-6 18 -0.666992 35.333 16 52c-24.667 -7.33301 -43.667 -17.666 -57 -30.999v-25
c31.333 -30 70 -31.333 116 -4h17c1.33301 -31.333 30.666 -42 87.999 -32l35 4c1.33301 -42.667 -38.334 -45.667 -119.001 -9l-8 -18c38 -26 35 -37 -9 -33l-32 8c-34.667 1.33301 -62.667 7 -84 17c-19.333 5.33301 -35 10 -47 14l-9 4l-28 8l-29 17
c-24.667 9.33301 -44.334 20.333 -59.001 33l-9 26l17 4h20l29 -8c35.333 -10.667 66.666 -15.334 93.999 -14.001v14c-34 5.33301 -59.333 20.333 -76 45c31.333 1.33301 58 5.33301 80 12c19.333 18 37.333 31 54 39c25.333 71.333 71.666 115.666 138.999 132.999
c6.66699 14 13.334 24.333 20.001 31v12l8 46c-28.667 65.333 -34 128 -16 188c-40.667 19.333 -72.667 43.333 -96 72c-54.667 -24.667 -106.667 -27.667 -156 -9l-51 -4l-49 -53c-15.333 -99.333 16.667 -169.666 96 -210.999l12 -24v-27
c-20 -15.333 -35 -31.666 -45 -48.999c61.333 -12.667 95 -43.334 101 -92.001l-4 -9l-17 -18c-72 -5.33301 -123.667 22.667 -155 84l-27 14l6 -8l12 -26c22 -27.333 37 -55.333 45 -84h-20c-152.667 94 -214 210 -184 348c47.333 134.667 142 226 284 274l56 33
c-64.667 -6.66699 -119.334 -23.667 -164.001 -51c-83.333 -4 -152.333 -36.333 -207 -97c-27.333 -5.33301 -50.666 -13.333 -69.999 -24l-8 -12c-16.667 -18 -29.667 -34 -39 -48v-12l-20 -92c-19.333 4 -25 22.333 -17 55c-64 -47.333 -70 -107.333 -18 -180
c28.667 -58.667 11 -54.667 -53 12c-1.33301 -76 30.667 -130.333 96 -163c64 -41.333 57 -49 -21 -23c54.667 -94 127 -127.333 217 -100l25 -9v-12c-8 -16 -13.333 -31 -16 -45c64 -31.333 127.333 -41.666 190 -30.999c8 -8 12 -17.333 12 -28
c30 -1.33301 54 -5.66602 72 -12.999v-16l-68 -2c-20 2.66699 -38.333 2.66699 -55 0l-24 14h-21l-6 4h-12c-41.333 8.66699 -75 13 -101 13l4 -13l13 -12l14 -6l25 -16l4 -9c5.33301 -2.66699 8 -5.33398 8 -8.00098c24.667 -12 43 -24.333 55 -37h74
c42 -5.33301 74.667 -1 98 13h21c8 -11.333 9.33301 -21.666 4 -30.999h-17h-16h-14l-33 -4l-80 -12c56 -44 117.333 -52.333 184 -25c38.667 9.33301 75 8 109 -4c-15.333 -24.667 -47.333 -34.334 -96 -29.001c-4 -2.66699 -8.33301 -4 -13 -4
c-40.667 1.33301 -74 -0.666992 -100 -6l8 -12l13 -8c35.333 -15.333 63.333 -30.666 84 -45.999c66.667 42.667 129.334 47 188.001 13c-12.667 -30 -11.334 -56.667 3.99902 -80l-8 -4l-25 -8c-4 -3.33301 -8 -5 -12 -5l-4 -8l-8 -4l-13 -4l-59 -39v-12l8 -12
c24.667 -26 43 -48.667 55 -68l-8 -8c-30 -23.333 -52.333 -47.333 -67 -72c-30 15.333 -54 31 -72 47l-25 4l-4 -8l-22 -39l-12 -28l-5 -13l-4 -8c-13.333 -35.333 -21.333 -65.333 -24 -90h12l8 -4h17c26 -8 48.333 -12 67 -12v-13l-4 -28c-4 -26 -4 -48.667 0 -68l-12 -4
c-14 0 -25 -1.33301 -33 -4c-24.667 1.33301 -45.667 -1.33398 -63 -8.00098v-29l4 -6l12 -63c2.66699 -4 4 -8 4 -12c2.66699 -4.66699 4 -9 4 -13l8 -8l9 -31c9.33301 -9.33301 14.666 -18.666 15.999 -27.999h14l8 8l13 4c26 16.667 48.333 28.334 67 35.001
c6 -15.333 14.333 -28.333 25 -39l45 -57c-32.667 -26 -56 -54 -70 -84l9 -2l4 -9c17.333 -10.667 31 -20 41 -28c40.667 -30 80 -50 118 -60l13 27c6.66699 30 17.334 54 32.001 72c32 -12.667 63 -19 93 -19v-12c0 -14 -1.66699 -25 -5 -33
c-1.33301 -24.667 -1.33301 -45.667 0 -63c76.667 -6 144.334 3.33301 203.001 28l-10 39l-4 8c-10.667 19.333 -17.667 36.666 -21 51.999l17 4c12 8 23.667 13.333 35 16c17.333 14 35 23.667 53 29l4 -8c2.66699 -3.33301 3.33398 -6.33301 2.00098 -9
c22 -17.333 37 -37 45 -59l16 -4c60.667 43.333 103 93.666 127 150.999h-12l-6 9c-30 16 -54.667 30.333 -74 43c24.667 32.667 39.667 67.334 45 104.001h21l10 -4c16.667 -4 30.334 -6.66699 41.001 -8c13.333 -5.33301 25.666 -8 36.999 -8l10 28v10l4 70v12v47
c-4 10.667 -5.33301 20.334 -4 29.001l-10 4l-100 -17c-6 40 -17 75 -33 105h12l8 6l17 4l4 8c21.333 7.33301 39.666 15.666 54.999 24.999c-28.667 65.333 -67.667 117.333 -117 156l-4 8c-32.667 -28.667 -56.667 -55.334 -72 -80.001
c-4 2.66699 -6.66699 5.33398 -8 8.00098c-32.667 23.333 -60.667 40.333 -84 51c8.66699 41.333 29.334 66 62.001 74v10c-5.33301 32.667 -5.33301 60.667 0 84l-8 37c69.333 24.667 134 16.334 194 -24.999c27.333 26 53.333 45.333 78 58c-14 12 -29 18 -45 18h-12h-39
l-13 4c-13.333 0 -24 1.33301 -32 4c-24.667 1.33301 -46 4.33301 -64 9l-4 16l12 4c19.333 -1.33301 36.666 0 51.999 4l16 -4l12 -4h21l12 -4h18c37.333 -8 66.666 -12 87.999 -12l5 8l49 45l-4 6c-20.667 5.33301 -38.667 8 -54 8
c-52.667 12.667 -99 15.334 -139 8.00098c-5.33301 7.33301 -8 14.333 -8 21c19.333 4 35 8 47 12c16.667 -4 30.334 -5.33301 41.001 -4h16h17h14h70h30h29c31.333 18 54 39.333 68 64l-68 -5h-12l-8 -4h-13h-12h-10c-11.333 -4 -22.333 -5.33301 -33 -4h-12h-51l-29 4
c6.66699 15.333 32 23.666 76 24.999c-2.66699 9.33301 -4 20.333 -4 33c98 -23.333 180.333 -5 247 55c-18.667 2.66699 -30 12.334 -34 29.001h12c35.333 6.66699 66.666 8 93.999 4c2.66699 2.66699 5.33398 4 8.00098 4l13 4l4 6l12 4l8 8l51 41
c14 19.333 23.667 35 29 47c-24.667 -12 -47.334 -19.333 -68.001 -22v10l9 8l12 4l27 17c20 22 41 38.333 63 49c10.667 30 14.667 58 12 84c1.33301 39.333 -8.66699 34 -30 -16l-9 -5c-17.333 -20 -36.333 -35 -57 -45l-2 25c84.667 86 93.667 168.667 27 248
c9.33301 -44 2.33301 -73.333 -21 -88c14 113.333 -28.333 181.666 -127 204.999l-8 8l-21 22l-12 4l-10 9l-8 4l-8 8c-20.667 6.66699 -37.334 13.334 -50.001 20.001c-14.667 6 -27.334 13 -38.001 21h-5h5h-5l-8 4c-18.667 -6.66699 -35 -5.33398 -49 3.99902l-6 2l-8 4
l-8 4l-9 4l-12 4h-8l-8 5h-9l-8 4h4h-4h-8l-6 4h2h-6h4h-4l-8 4h4h-4h-17l-8 4h4h-8h4h-4l-8 4h4h-8h4h-4zM1270 1430c24.667 -59.333 64.001 -95.667 118.001 -109c0 -14 -1.33301 -25 -4 -33c-50 -12 -80.667 -41.333 -92 -88h29c19.333 23.333 40.333 30.333 63 21
c22 -16.667 34.333 -38 37 -64l21 -20c95.333 -46.667 162.666 -23 201.999 71l-12 66c28.667 74.667 35.667 147.667 21 219c-44 62.667 -100 94.667 -168 96c-40 15.333 -77.667 22.333 -113 21c-75.333 -42.667 -109.333 -102.667 -102 -180zM1393 1544
c6.66699 -64 -1 -122.668 -23 -176.001c-102.667 46.667 -104 109.334 -4 188.001zM573.003 1518v-62.001c1.33301 -35.333 0 -65.333 -4 -90c-16 4 -29.667 10 -41 18c-39.333 54.667 -45.333 109.334 -18 164.001c27.333 -2.66699 48.333 -12.667 63 -30zM1585 1367.99
c-8 -82 -51.667 -111.333 -131 -88v16v13v28l6 43l-4 13l-2 125l27 26c86 -35.333 120.667 -94 104 -176zM670.003 1512.99c81.333 -12 86.667 -38.333 16 -79l-29 4c10 27.333 13 52.333 9 75h4h-4h4zM762.004 1328.99c-35.333 -74.667 -67.333 -102.666 -96 -83.999
c-36 6.66699 -47 45.667 -33 117c17.333 -1.33301 32.333 -4 45 -8c13.333 13.333 29 20.666 47 21.999c16 -13.333 28.333 -29 37 -47zM1601 1190c-28.667 -42.667 -67.333 -57.668 -116 -45.001c-40 22 -34.667 38.333 16 49c38 5.33301 70 18.333 96 39
c26 -9.33301 27.333 -23.666 4 -42.999zM850.005 1013.99l-8 14c31.333 -1.33301 34 -6 8 -14zM1284 1027.99c-5.33301 -20.667 -14.333 -22 -27 -4l17 4h10zM1081 951.994c-20 -17.333 -28 -13 -24 13zM1325 955.994c-42.667 -27.333 -69.333 -25.666 -80 5.00098
c31.333 -4.66699 58 -6.33398 80 -5.00098zM893.006 929.994l12 8c2.66699 -13.333 -1.33301 -16 -12 -8zM1442.01 888.994c18.667 -31.333 2.33301 -38.333 -49 -21c0 10 4 17 12 21h37zM657.005 855.994v25c45.333 -14 45.333 -22.333 0 -25zM797.005 820.994l3.99902 21
c22.667 -14 21.334 -21 -3.99902 -21zM1274 833.994c-8.66699 -16.667 -13 -15.333 -13 4zM922.004 669.995c-19.333 -30 -27.667 -28.667 -25 4zM1241 636.995c0 -26 -9.66699 -26 -29 0h29zM864.003 615.995l3.99902 17c16.667 -10 15.334 -15.667 -3.99902 -17z
M973.002 577.995c-40 6.66699 -41.333 25 -4 55c8 -20.667 9.33301 -39 4 -55zM1165 611.995c4 -20 -2.66699 -30 -20 -30c-14 10.667 -16.667 25 -8 43zM1089 560.995c16.667 19.333 23.668 18 21.001 -4c14.667 19.333 20.667 19.333 18 0
c11.333 10.667 19.666 6.66699 24.999 -12c12 22 18.667 22 20 0l17 16c-1.33301 -6.66699 0 -13.334 4 -20.001c-26 -7.33301 -48 -4.66602 -66 8.00098c-32.667 -4 -53.667 7 -63 33c17.333 1.33301 25.333 -5.66699 24 -21zM1194 564.995v17c22 -10 22 -15.667 0 -17z
M917.003 556.995l5 16c12 -8 10.333 -13.333 -5 -16zM876.003 519.995c-40.667 -13.333 -74.001 -30.334 -100.001 -51.001h-39l17 20l12 5l6 8l12 4l8 6l9 4l24 8l4 8h13c14.667 12.667 30.334 21 47.001 25c4 -13.333 -0.333008 -25.666 -13 -36.999zM960.002 536.994
c-13.333 -89.333 -27.667 -93.667 -43 -13l27 17zM1048 460.993c11.333 16 22.333 14.667 33 -4l-12 -13h-12h-17l-123 -12c8.66699 14 19 23.667 31 29l17 4h12l63 8zM1358 392.993c-15.333 -27.333 -36.001 -42.333 -62.001 -45c-4 6.66699 -4 13.667 0 21h13
c10.667 17.333 21.334 31 32.001 41l29 34c12 -20 8 -37 -12 -51zM788 337.993l-17.999 -12c-14 -23.333 -26.333 -41.333 -37 -54h-29c7.33301 15.333 15.666 26.333 24.999 33c20.667 34 44.667 60.667 72 80c31.333 -1.33301 27 -17 -13 -47zM989.001 343.993l8 12
c22 -2.66699 19.333 -6.66699 -8 -12zM608.001 325.993l17 21.999c16 -35.333 10.333 -42.666 -17 -21.999zM1321 28.9922c-40 -165.333 -143.667 -242.334 -311 -231.001l-17 4c-16 4 -31 9.33301 -45 16c170.667 -34 288 20.667 352 164
c42.667 174.667 -13.333 293.334 -168 356.001l-4 10c148 -62.667 212.333 -169 193 -319zM1028 343.991h49c-22 -4 -41.667 -4 -59 0h10zM956.001 329.991l21 12c39.333 -1.33301 32.333 -5.33301 -21 -12zM1014 321.991c-146 -44 -215.666 -137.664 -208.999 -280.997
c26 -94 79.333 -156 160 -186c99.333 -28.667 183 -10.334 251 54.999c67.333 75.333 86.666 156.666 57.999 243.999c-32.667 81.333 -87.334 133 -164.001 155l-4 13c136.667 -52 198.667 -148.333 186 -289c-34 -116 -105.667 -182 -215 -198
c-121.333 -7.33301 -206.666 39 -255.999 139c-57.333 181.333 2.66699 298.666 180 351.999zM1098 304.994c-84.667 -5.33301 -160 -29.333 -226 -72c46.667 48 100 76 160 84c26 -1.33301 48 -5.33301 66 -12zM889.002 292.994c6.66699 9.33301 14.667 16.001 24 20.001
c2.66699 -10.667 -5.33301 -17.334 -24 -20.001zM629.002 300.995c-18 -28.667 -29.667 -56.668 -35 -84.001c-30 -1.33301 -27.333 29.334 8 92.001zM833.002 237.994c14 21.333 28.333 38.333 43 51c3.33301 -15.333 -11 -32.333 -43 -51zM1114 271.994l10.001 -12.001
l13 -6l8 -8l12 -8l8 -13l13 -8l8 -12c31.333 -20.667 55 -39 71 -55l-4 -21c-5.33301 -16.667 -8 -31 -8 -43l-4 -16l-4 -13l-4 -16l-4 -29l-4 -22c-4.66699 -20 -7.66699 -35.667 -9 -47l-8 -12l-18 -4c-24.667 -14 -49.334 -22.333 -74.001 -25
c-9.33301 -6.66699 -19.666 -10.667 -30.999 -12c-31.333 -15.333 -59.333 -24.333 -84 -27l-12 11l-8 8l-12 12l-13 8l-47 41l-20 23c-22 13.333 -39 26 -51 38l8 33l4 20l4 13v12l4 10v12l2 17l21 100l12 4l12 4l8 4l25 9l6 4h12c23.333 10.667 46.666 16.667 69.999 18
l18 -63h13c8 32.667 23 59.334 45 80.001zM864.003 216.993l-4 -8l-22 -72c-20.667 15.333 -12 46 26 92c2.66699 -4 2.66699 -8 0 -12zM590.003 208.993c-14 -15.333 -22.333 -14 -25 4zM1456 116.993c-31.333 -15.333 -40.333 -8.66699 -27 20l21 -8
c16 14 34.333 21 55 21c45.333 -11.333 29 -22.333 -49 -33zM582.003 3.99219c-52 15.333 -29.668 26.333 66.999 33c54.667 -12.667 32.334 -23.667 -66.999 -33zM1350 -2.00781c-74 -190.667 -209.331 -262.333 -405.998 -215c0 7.33301 1.33301 15 4 23l8 -23
c7.33301 4.66699 11.666 9.66699 12.999 15c169.333 -22 285.333 38 348 180h16c-6.66699 8 -9.33398 15.333 -8.00098 22zM1261 -61.0068l5.00098 8c9.33301 18 15.333 33.667 18 47c5.33301 -24.667 -2.33398 -43 -23.001 -55zM1208 -81.0068l-8 -5l-6 -4l-8 -4
c-56 -31.333 -109.333 -48.333 -160 -51c-14 1.33301 -12 5.33301 6 12h12l29 11l12 4c20.667 8 38 13.333 52 16c4 4 8 5.33301 12 4l49 21zM1200 -133.007c-4 2.66699 -4 6.33398 0 11.001c5.33301 -2.66699 5.33301 -6.33398 0 -11.001zM1157 -149.007
c9.33301 -9.33301 6.66699 -10.667 -8 -4zM1149.01 -161.008c-48 -18 -93 -23.668 -135 -17.001l-17 4c52 -5.33301 98.667 0.333984 140 17.001zM780.006 -245.009c-14.667 -19.333 -30.332 -32.999 -46.999 -40.999c-24.667 -2.66699 -24.667 8.33301 0 33l8 8l8 4
c10 13.333 19 23.666 27 30.999c27.333 -6 28.666 -17.667 3.99902 -35z" />
    <glyph glyph-name=".null" horiz-adv-x="0" 
 />
    <glyph glyph-name="nonmarkingreturn" horiz-adv-x="569" 
 />
  </font>
</defs>
</svg>
