<?xml version="1.0" standalone="no"?>
<!DOCTYPE svg PUBLIC "-//W3C//DTD SVG 1.1//EN" "http://www.w3.org/Graphics/SVG/1.1/DTD/svg11.dtd" >
<svg>
<metadata>
Created by FontForge 20090914 at Fri May  6 09:55:34 2011
 By www-data
Copyright (c) 1992-97 Hewlett-Packard. All rights reserved.
</metadata>
<defs>
<font id="Helvetica-Oblique" horiz-adv-x="1139" >
  <font-face 
    font-family="Helvetica"
    font-weight="400"
    font-style="oblique"
    font-stretch="normal"
    units-per-em="2048"
    panose-1="2 11 6 4 2 2 2 10 2 4"
    ascent="1638"
    descent="-410"
    x-height="1072"
    cap-height="1470"
    bbox="-675 -631.999 2288 1907"
    underline-thickness="102"
    underline-position="-154"
    slope="-12"
    unicode-range="U+0020-U+FB01"
  />
<missing-glyph horiz-adv-x="669" 
d="M0 1274h569v-1274h-569v1274zM100 1174v-1074h369v1074h-369z" />
    <glyph glyph-name=".notdef" horiz-adv-x="669" 
d="M0 1274h569v-1274h-569v1274zM100 1174v-1074h369v1074h-369z" />
    <glyph glyph-name="space" unicode=" " horiz-adv-x="569" 
 />
    <glyph glyph-name="exclam" unicode="!" horiz-adv-x="569" 
d="M302 350l88 657l96 466h101h102l-96 -466l-184 -657h-54v0h-53zM226 207h198l-42 -207h-198z" />
    <glyph glyph-name="quotedbl" unicode="&#x22;" horiz-adv-x="727" 
d="M344 947l109 523h149l-108 -523h-150zM636 947l109 523h149l-108 -523h-150z" />
    <glyph glyph-name="numbersign" unicode="#" 
d="M846 1411l-156 -433h262l156 433h136l-156 -433h208l-47 -129h-207l-104 -290h208l-47 -129h-208l-155 -432h-136l155 432h-262l-155 -432h-136l155 432h-207l47 129h207l104 290h-208l47 129h207l156 433h136zM643 849l-104 -290h263l104 290h-263z" />
    <glyph glyph-name="dollar" unicode="$" 
d="M951 1580l-23.998 -116.004c115.333 -8.66699 202.666 -42.334 261.999 -101.001c54.667 -54 82.334 -126.667 83.001 -218c0 -24 -2 -49 -6 -75v0h-179v0c12 78.667 -4 139.334 -48 182.001c-32.667 32.667 -80.667 52.334 -144 59.001l-103 -499l45 -12
c135.333 -36.667 227.333 -87.667 276 -153c34 -43.333 51 -99 51 -167c0 -30 -3.66699 -62.667 -11 -98c-27.333 -129.333 -92 -232 -194 -308c-93.333 -69.333 -207.666 -107.666 -342.999 -114.999l-41 -199h-98l41 201c-142.667 9.33301 -244.667 47 -306 113
c-46.667 52.667 -70.334 123.667 -71.001 213c0.666992 43.333 6 90.333 16 141v0h183v0c-22.667 -110 -12.334 -189.667 30.999 -239c36 -38.667 95.667 -62.667 179 -72l111 536l-27 7c-134 36.667 -226 86.334 -276 149.001c-34 42.667 -51 95.667 -51 159
c-0.666992 28.667 2.66602 59 9.99902 91c26 124.667 88.333 223.667 187 297c90.667 66.667 199 103.334 325 110.001l24 114h98zM798.002 1314c-76.667 -5.33301 -139.667 -26.332 -189 -62.999c-57.333 -42.667 -94.333 -105 -111 -187
c-12 -57.333 -1.66699 -104 31 -140c31.333 -36.667 88 -65.334 170 -86.001l98 475zM648.002 116.997c84 4 152.668 25.333 206.001 64c60 43.333 98.667 106.333 116 189c14 66 5 119.333 -27 160c-30.667 40 -87.334 71 -170.001 93l-19 5l-106 -512v1z" />
    <glyph glyph-name="percent" unicode="%" horiz-adv-x="1821" 
d="M582 724c-82.667 0 -150.165 26.502 -202.498 79.502s-78.5 121.167 -78.5 204.5c0.666992 111.333 43.667 208.666 129 291.999s184.666 125 297.999 125c83.333 0 151.166 -25.833 203.499 -77.5s78.5 -117.834 78.5 -198.501c0 -113.333 -42.833 -212.5 -128.5 -297.5
s-185.5 -127.5 -299.5 -127.5v0zM698.002 1281c-66.667 0 -125.167 -24.668 -175.5 -74.001s-75.5 -106.666 -75.5 -171.999c0 -48.667 15.333 -88.667 46 -120s70.334 -47 119.001 -47c67.333 0 126.166 25 176.499 75s75.5 108.333 75.5 175
c0 48 -15.5 87.167 -46.5 117.5s-70.833 45.5 -119.5 45.5v0zM447.002 -33.999l1110 1474h114l-1110 -1474h-114zM1390 -5.99902c-82.667 0 -150.333 26.502 -203 79.502s-79 121.167 -79 204.5c0.666992 111.333 43.5 208.666 128.5 291.999s184.167 125 297.5 125
c83.333 0 151.333 -25.833 204 -77.5s79 -117.834 79 -198.501c0 -113.333 -42.667 -212.5 -128 -297.5s-185 -127.5 -299 -127.5v0zM1505 551.003c-66.667 0 -125.167 -24.668 -175.5 -74.001s-75.5 -106.666 -75.5 -171.999c0 -48.667 15.333 -88.667 46 -120
s70.334 -47 119.001 -47c67.333 0 126.166 25 176.499 75s75.5 108.333 75.5 175c0 48 -15.5 87.167 -46.5 117.5s-70.833 45.5 -119.5 45.5v0z" />
    <glyph glyph-name="ampersand" unicode="&#x26;" horiz-adv-x="1366" 
d="M499 1112c22.667 110.667 71.6689 197.169 147.002 259.502s168 93.5 278 93.5c95.333 0 167.166 -29.333 215.499 -88s63.166 -134.334 44.499 -227.001c-14 -68 -62 -139.667 -144 -215c-62 -57.333 -133.333 -107.666 -214 -150.999l195 -318l13 -22l8 12
c46 76 80.333 152 103 228h163c-28 -95.333 -72 -191.333 -132 -288c-19.333 -30.667 -38.666 -59.334 -57.999 -86.001l196 -310h-233l-100 158c-74 -60.667 -150.333 -107.667 -229 -141s-159 -50 -241 -50c-126.667 0 -223 36.167 -289 108.5s-87.333 165.5 -64 279.5
c22.667 110.667 71 202.334 145 275.001c60 58.667 151.667 120.667 275 186h-1c-30.667 49.333 -53.334 101.666 -68.001 156.999s-18 101.666 -10 138.999zM557.002 125.002c48.667 0 104.833 14.001 168.5 42.001s120.5 64 170.5 108l8 6l-77 125l-177 289
c-72 -38 -133 -79.333 -183 -124c-71.333 -64 -114 -130 -128 -198c-15.333 -72.667 -2.33301 -132.334 39 -179.001c40 -46 99.667 -69 179 -69zM682.001 1143c-5.33301 -26.667 -3.16797 -59.332 6.49902 -97.999s24.834 -75 45.501 -109l23 -38
c53.333 29.333 100.666 61.666 141.999 96.999c61.333 53.333 96.666 103 105.999 149c10.667 50 4.33398 90.833 -18.999 122.5s-58.666 47.5 -105.999 47.5c-50.667 0 -93.667 -15.333 -129 -46c-34.667 -30 -57.667 -71.667 -69 -125z" />
    <glyph glyph-name="quotesingle" unicode="'" horiz-adv-x="391" 
d="M322 947l109 523h149l-108 -523h-150z" />
    <glyph glyph-name="parenleft" unicode="(" horiz-adv-x="682" 
d="M236 540c34.667 166.667 95.998 326.833 183.998 480.5s210 314.167 366 481.5h123c-134 -172 -239.667 -335 -317 -489s-132.666 -311.667 -165.999 -473c-33.333 -162 -43.166 -320 -29.499 -474s51.834 -317 114.501 -489h-123
c-86.667 167.333 -142.334 328 -167.001 482c-24 154 -19 314.333 15 481z" />
    <glyph glyph-name="parenright" unicode=")" horiz-adv-x="682" 
d="M654 539c-34.667 -166.667 -95.667 -326.833 -183 -480.5s-209 -314.167 -365 -481.5h-123c133.333 172 238.5 335 315.5 489s132.167 311.667 165.5 473c33.333 162 43.333 320 30 474s-51 317 -113 489h123c86.667 -167.333 142 -328 166 -482
s18.667 -314.333 -16 -481z" />
    <glyph glyph-name="asterisk" unicode="*" horiz-adv-x="797" 
d="M773 1472l-52 -230v0l236 75l15 -115l-239 -67v0l104 -181l-116 -72l-95 188v0l-172 -187l-86 72l180 182v0l-210 66l61 115l207 -75v0l42 229h125z" />
    <glyph glyph-name="plus" unicode="+" horiz-adv-x="1196" 
d="M617 443h-443l31 150h443l92 443h150l-92 -443h443l-31 -150h-443l-91 -443h-150z" />
    <glyph glyph-name="comma" unicode="," horiz-adv-x="569" 
d="M204 110l24 109.001h107h106l-45 -204c-20.667 -95.333 -52 -166.333 -94 -213c-40.667 -46.667 -103 -82 -187 -106v0l21 95v0c42 7.33301 75 30.666 99 69.999c18.667 30 36 76.333 52 139v0h-107z" />
    <glyph glyph-name="hyphen" unicode="-" horiz-adv-x="682" 
d="M228 659h502l-38 -183h-502z" />
    <glyph glyph-name="period" unicode="." horiz-adv-x="569" 
d="M223 218h214l-45 -218h-214z" />
    <glyph glyph-name="slash" unicode="/" horiz-adv-x="569" 
d="M926 1514l-833 -1552h-135l833 1552h135z" />
    <glyph glyph-name="zero" unicode="0" 
d="M564 -38c-122.667 0 -215.665 35.832 -278.998 107.499s-95 176.5 -95 314.5v4c0 42.667 3 89.667 9 141s15 105.666 27 162.999c49.333 239.333 129.666 423.833 240.999 553.5s245.333 194.5 402 194.5c119.333 0 211.5 -38 276.5 -114s97.5 -183.333 97.5 -322
c0 -37.333 -2.66699 -79.166 -8 -125.499s-13 -93.166 -23 -140.499c-54 -258.667 -134.833 -452.667 -242.5 -582s-242.834 -194 -405.501 -194v0zM596.002 124.999c99.333 0 184.168 49.9971 254.501 149.997s126.5 250.333 168.5 451c10 49.333 17.667 96.333 23 141
s8 85.334 8 122.001c0.666992 94.667 -17.333 166.334 -54 215.001s-90.334 73 -161.001 73c-99.333 0 -183.833 -48.167 -253.5 -144.5s-124.167 -241.166 -163.5 -434.499c-12 -59.333 -21.333 -113.333 -28 -162c-5.33301 -48 -8 -92.667 -8 -134
c0 -94 17.5 -163.667 52.5 -209s88.833 -68 161.5 -68v0z" />
    <glyph glyph-name="one" unicode="1" 
d="M550 0l211 1022v0l-337 1l30 143c83.333 -2 167 22.667 251 74c86 52.667 150.667 119.334 194 200.001h145v0l-298 -1440v0h-98h-98v0z" />
    <glyph glyph-name="two" unicode="2" 
d="M1259 1105c0 -130 -40.167 -238.333 -120.5 -325s-231.5 -184.667 -453.5 -294c-150.667 -74.667 -257.667 -146 -321 -214c-25.333 -28 -48.333 -60.333 -69 -97v0h781l-36 -175h-987v0c30.667 148.667 89 268.5 175 359.5s232.333 187.5 439 289.5
c156.667 77.333 263.167 145.833 319.5 205.5s84.5 133.5 84.5 221.5c0.666992 62 -20.833 111.167 -64.5 147.5s-102.167 54.5 -175.5 54.5c-91.333 0 -168 -30 -230 -90s-104.667 -145.667 -128 -257v0h-179v0c34 162.667 102.333 288.167 205 376.5s232 132.5 388 132.5
c112.667 0 203 -30.667 271 -92s101.667 -142.333 101 -243z" />
    <glyph glyph-name="three" unicode="3" 
d="M1052 1104c0 52 -20.499 93.6699 -61.499 125.003s-95.167 47 -162.5 47c-94 0 -169.167 -25.167 -225.5 -75.5s-96.166 -128.166 -119.499 -233.499v0h-179v0c34 154.667 97.833 272.167 191.5 352.5s213.5 120.5 359.5 120.5c116.667 0 210.5 -26.333 281.5 -79
s106.5 -122.334 106.5 -209.001c0 -135.333 -50 -244.333 -150 -327c-30 -25.333 -63.333 -46.666 -100 -63.999v0c17.333 -8.66699 33.666 -18.334 48.999 -29.001c78.667 -54.667 118 -127.334 118 -218.001c0 -154.667 -58.667 -285.334 -176 -392.001
c-116 -106.667 -259 -160 -429 -160c-156.667 0 -268.334 39.333 -335.001 118s-88.667 197 -66 355v0h185v0c-16 -107.333 -4.33301 -185.833 35 -235.5s109.333 -74.5 210 -74.5c106 0 195.5 33.5 268.5 100.5s109.5 148.833 109.5 245.5
c-0.666992 59.333 -25 107.333 -73 144c-37.333 28.667 -85.333 45.667 -144 51c-33.333 2.66699 -65 4 -95 4s-50 -1 -60 -3l32 156c12.667 -3.33301 34.5 -4.83301 65.5 -4.5s62.5 2.16602 94.5 5.49902c72 8.66699 132 33.667 180 75c60 52 90 120.333 90 205z" />
    <glyph glyph-name="four" unicode="4" 
d="M754 360h-629l18 85l17 85l854 909h74h74l-191 -927v0h203l-32 -152h-203v0l-74 -360h-185l74 360v0zM786 512l131 634v0v0l-576 -616l-17 -18v0h462z" />
    <glyph glyph-name="five" unicode="5" 
d="M1167 580c0 -173.333 -59.665 -319.666 -178.998 -438.999c-118 -119.333 -263.333 -179 -436 -179c-146.667 0 -256.334 35 -329.001 105c-71.333 70.667 -99.333 171 -84 301v0h196v0c-9.33301 -79.333 8.5 -140.5 53.5 -183.5s113.833 -64.5 206.5 -64.5
c104 0 191.833 39.167 263.5 117.5s107.5 174.5 107.5 288.5c0.666992 72 -22.833 129.833 -70.5 173.5s-110.834 65.5 -189.501 65.5c-50 0 -103.667 -12.833 -161 -38.5s-102.333 -56.834 -135 -93.501l-155 10l263 768v0h750l-38 -180h-611v0l-142 -392v0l7 4
c94.667 56.667 183.667 85 267 85c125.333 0 226 -32 302 -96c75.333 -63.333 113.333 -147.333 114 -252z" />
    <glyph glyph-name="six" unicode="6" 
d="M908 1440c124 0 217.501 -34.665 280.501 -103.998s85.833 -163.333 68.5 -282v0h-174v0c3.33301 71.333 -13 126.333 -49 165s-89.333 58 -160 58c-109.333 0 -206.333 -55.667 -291 -167c-72 -94 -127.333 -219 -166 -375v0l16 19c96.667 111.333 219 167 367 167
c112 0 201.833 -31.833 269.5 -95.5s101.5 -147.834 101.5 -252.501c0 -171.333 -57.333 -316 -172 -434c-112.667 -118 -251.334 -177 -416.001 -177c-160.667 0 -274 60.667 -340 182c-38.667 72 -57.667 160 -57 264c-0.666992 73.333 8.33301 153.666 27 240.999
c51.333 248 138.333 442 261 582c123.333 139.333 268 209 434 209zM373.001 363.002c-0.666992 -72 21.1699 -129.666 65.5029 -172.999s103.166 -65 176.499 -65c97.333 0 182.666 40.5 255.999 121.5s109.666 175.5 108.999 283.5c0 69.333 -21.667 124.666 -65 165.999
s-101.666 62 -174.999 62c-100.667 0 -187.334 -39 -260.001 -117c-72 -77.333 -107.667 -170 -107 -278z" />
    <glyph glyph-name="seven" unicode="7" 
d="M281 0c73.333 209.333 193.668 433.333 361.001 672c159.333 227.333 323.666 415.333 492.999 564v0h-787l37 175h992l-16 -76l-16 -77c-175.333 -152.667 -345 -348.667 -509 -588c-162.667 -238.667 -279 -462 -349 -670h-206z" />
    <glyph glyph-name="eight" unicode="8" 
d="M971 764c25.333 -10.667 48.333 -23.6689 69 -39.002c76 -55.333 114 -128.666 114 -219.999c0 -152 -57.667 -280.667 -173 -386c-114 -104.667 -254.333 -157 -421 -157c-122.667 0 -221.334 31.833 -296.001 95.5s-112 147.834 -112 252.501
c0 140 56.333 258.333 169 355c48 40.667 100 72.667 156 96v0l-37 25c-68.667 49.333 -103 115 -103 197c0 128 51 236.167 153 324.5s227 132.5 375 132.5c112.667 0 202.834 -26.833 270.501 -80.5s101.5 -124.5 101.5 -212.5c0 -122 -50.667 -225.333 -152 -310
c-34.667 -28.667 -72.667 -53 -114 -73zM740 837.998c84 0 155.334 26.3311 214.001 78.998s88 117.334 88 194.001c0 50 -19.333 90.167 -58 120.5s-89.667 45.5 -153 45.5c-84 0 -154.833 -25.833 -212.5 -77.5s-86.834 -115.167 -87.501 -190.5
c0.666992 -51.333 20 -92.666 58 -123.999s88.333 -47 151 -47zM708.001 681.996c-101.333 0 -187.169 -33 -257.502 -99s-105.5 -147 -105.5 -243c0 -64.667 22.5 -116.667 67.5 -156s104.833 -59 179.5 -59c102 0 188.333 33.667 259 101s106.334 150 107.001 248
c0 62.667 -23 113 -69 151c-45.333 38 -105.666 57 -180.999 57z" />
    <glyph glyph-name="nine" unicode="9" 
d="M525 -38c-126.667 0 -222.169 34.667 -286.502 104s-87.833 163.333 -70.5 282v0h180v0c-4 -76.667 11.833 -135.834 47.5 -177.501s88.5 -62.5 158.5 -62.5c104.667 0 200 59.333 286 178c67.333 92.667 120.333 211 159 355v0c-96.667 -106.667 -219 -160 -367 -160
c-110 0 -198 31.833 -264 95.5s-99.333 147.834 -100 252.501c0 171.333 56.333 316 169 434s250.334 177 413.001 177c168 0 282.333 -56 343 -168c34 -63.333 51.333 -144 52 -242c0 -77.333 -10.667 -165 -32 -263c-53.333 -257.333 -139.666 -456 -258.999 -596
c-118.667 -139.333 -261.667 -209 -429 -209zM1051 1047c0 71.333 -20.833 127.5 -62.5 168.5s-99.167 61.5 -172.5 61.5c-96 0 -180 -42.333 -252 -127s-108 -183.667 -108 -297c0 -68 20 -119.833 60 -155.5s98.333 -53.5 175 -53.5c108 0 195 37 261 111
s99 171.333 99 292z" />
    <glyph glyph-name="colon" unicode=":" horiz-adv-x="569" 
d="M223 218h214l-45 -218h-214zM397 1061h214l-45 -218h-214z" />
    <glyph glyph-name="semicolon" unicode=";" horiz-adv-x="569" 
d="M202 111l21.999 105.998h106h105l-37 -180c-20 -101.333 -51.833 -177.666 -95.5 -228.999s-106.167 -86.333 -187.5 -105v0l20 97v0c44.667 4.66699 79.334 26.334 104.001 65.001c18.667 30 35 76.333 49 139h-2h-106zM399.999 1061h214l-45 -218h-214z" />
    <glyph glyph-name="less" unicode="&#x3c;" horiz-adv-x="1196" 
d="M193 452l14 69l15 69l1094 429l-34 -161l-877 -338v0l737 -339l-33 -158z" />
    <glyph glyph-name="equal" unicode="=" horiz-adv-x="1196" 
d="M160 388h1036l-31 -151h-1036zM245 800h1036l-31 -151h-1036z" />
    <glyph glyph-name="greater" unicode="&#x3e;" horiz-adv-x="1196" 
d="M1196 452l-1094 -429l33 158l877 339v0l-737 338l34 161l916 -429l-15 -69z" />
    <glyph glyph-name="question" unicode="?" 
d="M863 1340c-93.333 0 -167.329 -25.166 -221.996 -75.499s-97.334 -132.166 -128.001 -245.499v0h-183v0c42 155.333 111 273.5 207 354.5s215.333 121.5 358 121.5c126.667 0 222.667 -37 288 -111s86 -169 62 -285c-14 -66.667 -45 -130.334 -93 -191.001
s-119.667 -126.667 -215 -198c-59.333 -44.667 -104.833 -92.5 -136.5 -143.5s-53.834 -112.167 -66.501 -183.5h-174c16.667 94.667 48 177.167 94 247.5s112.667 138.166 200 203.499c61.333 46 107.666 89.667 138.999 131s52 86 62 134
c15.333 74 5.66602 132.667 -29.001 176s-89 65 -163 65zM510.004 209.001h202l-43 -209h-202z" />
    <glyph glyph-name="at" unicode="@" horiz-adv-x="2079" 
d="M1439 419c88.667 0 178.162 59.999 268.495 179.999s135.5 239.333 135.5 358c0 125.333 -43.833 225.833 -131.5 301.5s-203.834 113.5 -348.501 113.5c-211.333 0 -393.166 -77.5 -545.499 -232.5s-228.5 -340.167 -228.5 -555.5
c0 -149.333 46.167 -269.333 138.5 -360s214.833 -136 367.5 -136c106.667 0 211 21.333 313 64s183.333 99 244 169h139c-82.667 -108.667 -189 -196.167 -319 -262.5s-261 -99.5 -393 -99.5c-192 0 -346.667 55 -464 165s-175.666 256 -174.999 438
c0 256.667 93 477.334 279 662.001s408 277 666 277c177.333 0 320 -47.167 428 -141.5s161.667 -219.166 161 -374.499c0 -168.667 -68.333 -328 -205 -478c-135.333 -149.333 -279.333 -224 -432 -224c-49.333 0 -79.666 22 -90.999 66
c-3.33301 15.333 -4.66602 31.666 -3.99902 48.999l-4 -3c-92 -74.667 -179.667 -112 -263 -112c-69.333 0 -126.666 21.833 -171.999 65.5s-69 99.834 -71 168.501c-4.66699 158 55.833 307.167 181.5 447.5s261.834 210.5 408.501 210.5c108 0 173.333 -46.333 196 -139
c3.33301 -10.667 5 -21.667 5 -33v0l70 140v0h144l-294 -592c-23.333 -46.667 -35.333 -80.334 -36 -101.001s10 -31 32 -31zM1286 1026c-94 0 -183.167 -52 -267.5 -156s-124.5 -212 -120.5 -324c0.666992 -36.667 14.5 -65 41.5 -85s64.167 -30 111.5 -30
c56.667 0 115.5 25 176.5 75s110.833 114.333 149.5 193c50 100 66.833 179.5 50.5 238.5s-63.5 88.5 -141.5 88.5z" />
    <glyph glyph-name="A" unicode="A" horiz-adv-x="1366" 
d="M29 0l873 1470h111h112l213 -1470v0h-106h-107v0l-57 426v0h-587v0l-243 -426v0h-104h-105v0zM957 1251l-374 -650v0h463v0l-89 650v0v0z" />
    <glyph glyph-name="B" unicode="B" horiz-adv-x="1366" 
d="M152 0l303.998 1470v0h99v0h552c109.333 0 194.833 -24.667 256.5 -74s92.5 -117.666 92.5 -204.999c0 -143.333 -50.667 -255.333 -152 -336c-31.333 -24 -65.666 -44.667 -102.999 -62v0c24 -10.667 47 -23.334 69 -38.001c80 -54 120 -128 120 -222
c-0.666992 -152.667 -57.667 -279.667 -171 -381s-255.666 -152 -426.999 -152h-541v0h-99v0zM618.998 1297l-92.999 -451.001v0h379c108 0 192.333 26.333 253 79s91 125.667 91 219c0 50.667 -22.333 88.834 -67 114.501s-110.334 38.5 -197.001 38.5h-366v0z
M491.999 681.999l-106 -509.001v0h441c106 0 192.667 31.5 260 94.5s101 144.167 101 243.5c0.666992 52.667 -24 94.334 -74 125.001s-118 46 -204 46h-418v0z" />
    <glyph glyph-name="C" unicode="C" horiz-adv-x="1479" 
d="M1516 544c-68 -186.667 -166.835 -330.665 -296.502 -431.998s-280.167 -152 -451.5 -152c-173.333 0 -307.833 47 -403.5 141s-143.5 226.333 -143.5 397c0 283.333 83.833 522.833 251.5 718.5s372.834 293.5 615.501 293.5c172.667 0 303.667 -41.667 393 -125
c82.667 -76.667 124 -184 124 -322l-1 -34v0h-195v0c4.66699 98.667 -23.833 174.667 -85.5 228s-152.167 80 -271.5 80c-171.333 0 -318.666 -80 -441.999 -240s-185 -351.333 -185 -574c-0.666992 -126.667 31.333 -223.334 96 -290.001s158.667 -100 282 -100
c118 0 221.833 35.667 311.5 107s158.5 172.666 206.5 303.999v0h195z" />
    <glyph glyph-name="D" unicode="D" horiz-adv-x="1479" 
d="M166 0l304 1470v0h99v0h473c167.333 0 296 -41.833 386 -125.5s135 -203.167 135 -358.5c0 -282.667 -77.667 -517.667 -233 -705s-350 -281 -584 -281h-481v0h-99v0zM400 173h381c160.667 0 296.834 74.333 408.501 223s167.5 330.667 167.5 546
c0 114 -30.333 201.667 -91 263s-147.334 92 -260.001 92h-373v0z" />
    <glyph glyph-name="E" unicode="E" horiz-adv-x="1366" 
d="M176 0l304 1470v0h1071v0l-17 -87l-16 -88v0h-875v0l-94 -451v0h807l-18 -87l-18 -88v0h-807v0l-102 -494v0h886v0l-19 -87l-20 -88v0h-1082z" />
    <glyph glyph-name="F" unicode="F" horiz-adv-x="1251" 
d="M176 0l304 1470v0h1019v0l-17 -87l-16 -88v0h-823v0l-94 -451v0h718l-18 -87l-18 -88v0h-718v0l-138 -669h-99h-100z" />
    <glyph glyph-name="G" unicode="G" horiz-adv-x="1593" 
d="M782 -40c-172 0 -307.501 49.833 -406.501 149.5s-148.5 234.5 -148.5 404.5v4c0 278 85.833 512.833 257.5 704.5s381.834 287.5 630.501 287.5c164 0 293.833 -44.167 389.5 -132.5s140.167 -204.5 133.5 -348.5v0h-195v0c4.66699 94.667 -26.333 169.667 -93 225
s-159.334 83 -278.001 83c-175.333 0 -326.166 -79 -452.499 -237s-189.5 -346.667 -189.5 -566c-0.666992 -130.667 34 -231.167 104 -301.5s169.667 -105.5 299 -105.5c174 0 324.333 75 451 225c21.333 25.333 42.333 61.5 63 108.5s35.667 91.833 45 134.5l3 16v0h-465
l35 168h648l-161 -778h-130l-10 186v0c-148 -151.333 -324.667 -227 -530 -227z" />
    <glyph glyph-name="H" unicode="H" horiz-adv-x="1479" 
d="M158 0l304 1470v0h99h100v0l-125 -604v0h769v0l125 604v0h99h100v0l-304 -1470v0h-99h-100v0l143 691v0h-769v0l-143 -691v0h-99h-100v0z" />
    <glyph glyph-name="I" unicode="I" horiz-adv-x="569" 
d="M186 0l304 1470v0h99h100v0l-304 -1470v0h-99h-100v0z" />
    <glyph glyph-name="J" unicode="J" horiz-adv-x="1024" 
d="M960 1470l99.001 -0.000976562h100v0l-222 -1072c-30 -145.333 -87.667 -254.666 -173 -327.999c-84 -73.333 -195.667 -110 -335 -110c-134 0 -229.833 35.833 -287.5 107.5s-72.834 173.5 -45.501 305.5l21 102h184l-21 -102c-16 -77.333 -9.33301 -136.833 20 -178.5
s79.333 -62.5 150 -62.5c79.333 0 142.5 21.667 189.5 65s79.833 110.333 98.5 201v0z" />
    <glyph glyph-name="K" unicode="K" horiz-adv-x="1366" 
d="M156 0l304 1470v0h99h100v0l-148 -713v0l859 713v0h139h140v0l-730 -587v0l438 -883v0h-128h-128v0l-361 740v0l-279 -225v0l-106 -515v0h-99h-100v0z" />
    <glyph glyph-name="L" unicode="L" 
d="M156 0l304 1470v0h99h100v0l-268 -1295v0h743v0l-19 -87l-20 -88v0h-939z" />
    <glyph glyph-name="M" unicode="M" horiz-adv-x="1706" 
d="M345 0h-97h-98v0l304 1470v0h142h142v0l169 -1243v0v0l670 1243v0h142h142v0l-304 -1470v0h-96h-97v0l258 1232v0l-669 -1232h-98h-98l-160 1221v0z" />
    <glyph glyph-name="N" unicode="N" horiz-adv-x="1479" 
d="M347 0h-95h-96v0l304 1470v0h116h117v0l495 -1195v0v0l248 1195v0h95h96v0l-304 -1470h-113h-113l-502 1199v0v0z" />
    <glyph glyph-name="O" unicode="O" horiz-adv-x="1593" 
d="M790 -40c-178 0 -318.333 50.3311 -421 150.998s-154 238 -154 412c0 276.667 86.5 510.334 259.5 701.001s384.833 286 635.5 286c179.333 0 320.833 -48.667 424.5 -146s155.5 -229.666 155.5 -396.999v-4c0 -280.667 -87.333 -518 -262 -712
c-173.333 -194 -386 -291 -638 -291v0zM825 132.998c180 0 334.669 77.5 464.002 232.5s194 340.167 194 555.5c0 128.667 -36.5 230.167 -109.5 304.5s-172.833 111.5 -299.5 111.5c-178.667 0 -332.167 -76.333 -460.5 -229s-192.5 -335 -192.5 -547
c-0.666992 -132.667 35.166 -237.167 107.499 -313.5s171.166 -114.5 296.499 -114.5v0z" />
    <glyph glyph-name="P" unicode="P" horiz-adv-x="1366" 
d="M176 0l303.999 1470v0h99v0h579c107.333 0 191.833 -28.667 253.5 -86s92.834 -135.333 93.501 -234c-0.666992 -149.333 -52.5 -275.666 -155.5 -378.999s-229.167 -155 -378.5 -155h-469v0l-127 -616v0h-99h-100v0zM537.999 788.999h394
c112.667 0 202.167 30.667 268.5 92s99.5 144.333 99.5 249c0 52.667 -20.5 93.667 -61.5 123s-98.833 44 -173.5 44h-422v0z" />
    <glyph glyph-name="Q" unicode="Q" horiz-adv-x="1593" 
d="M1372 -103l-180.001 161.998v0c-120.667 -66 -254.667 -99 -402 -99c-178 0 -318.333 50.333 -421 151s-154 238 -154 412c0 276.667 86.5 510.334 259.5 701.001s384.833 286 635.5 286c179.333 0 320.833 -48.667 424.5 -146s155.5 -229.666 155.5 -396.999v-4
c0 -280.667 -87.333 -518 -262 -712c-29.333 -32.667 -59.666 -62.667 -90.999 -90v0l160 -146zM917.999 304.998l124.003 124l165 -148v0c29.333 25.333 56.666 53.666 81.999 84.999c129.333 154.667 194 339.667 194 555c0 128.667 -36.5 230.167 -109.5 304.5
s-172.833 111.5 -299.5 111.5c-178.667 0 -332.167 -76.333 -460.5 -229s-192.5 -335 -192.5 -547c-0.666992 -132.667 35.166 -237.167 107.499 -313.5s171.166 -114.5 296.499 -114.5c82 0.666992 159 16.334 231 47.001v0z" />
    <glyph glyph-name="R" unicode="R" horiz-adv-x="1479" 
d="M180 0l303.999 1470v0h99v0h623c120 0 212.833 -24.667 278.5 -74s98.834 -118.666 99.501 -207.999c0 -152.667 -52 -277.667 -156 -375c-39.333 -36.667 -82.333 -66.334 -129 -89.001v0c27.333 -12 49.666 -26 66.999 -42c51.333 -48.667 67 -128.334 47 -239.001
l-47 -265c-7.33301 -42.667 -8.33301 -73.667 -3 -93s19.666 -36.666 42.999 -51.999l-6 -32h-241c-1.33301 26.667 0.666992 65.667 6 117s12.333 101 21 149l19 109c16.667 90.667 8.83398 156 -23.499 196s-92.166 60 -179.499 60h-493v0l-130 -632v0h-99h-100v0z
M543.999 801l492 -0.000976562c107.333 0 190 29.5 248 88.5s87 143.167 87 252.5c0 50.667 -18.833 89.834 -56.5 117.501s-90.5 41.5 -158.5 41.5h-508v0z" />
    <glyph glyph-name="S" unicode="S" horiz-adv-x="1366" 
d="M1263 1044c19.333 94 2.99805 166.334 -49.002 217.001s-135.667 76 -251 76c-109.333 0 -196.833 -22 -262.5 -66s-107.167 -108.333 -124.5 -193c-12.667 -60 -3.33398 -104.333 27.999 -133c31.333 -28 100 -54.333 206 -79l245 -57
c128.667 -30 216.334 -77.667 263.001 -143c30.667 -43.333 46 -97.333 46 -162c0 -34 -4 -70.667 -12 -110c-27.333 -133.333 -100 -239 -218 -317c-116 -78 -260.333 -117 -433 -117c-194.667 0 -335.667 44 -423 132c-63.333 63.333 -94.666 146.666 -93.999 249.999
c0 39.333 4.66699 82 14 128v0h189v0c-22.667 -108 -3.66699 -191.167 57 -249.5s158 -87.5 292 -87.5c120.667 0 216.834 21.5 288.501 64.5s115.834 105.5 132.501 187.5c15.333 74.667 6 129 -28 163c-33.333 34 -108.333 64.667 -225 92l-245 57
c-118.667 28 -200.334 70 -245.001 126c-30.667 38 -46 86.333 -46 145c0 26 3 54 9 84c29.333 140.667 100 252.167 212 334.5s248.667 123.5 410 123.5c176 0 303 -40.333 381 -121c56.667 -58.667 85 -134.334 85 -227.001c0 -37.333 -4.33301 -76.666 -13 -117.999v0
h-189z" />
    <glyph glyph-name="T" unicode="T" horiz-adv-x="1251" 
d="M532 0l268 1295v0h-497v0l19 87l20 88v0h1186v0l-17 -87l-16 -88v0h-496v0l-268 -1295v0h-99h-100v0z" />
    <glyph glyph-name="U" unicode="U" horiz-adv-x="1479" 
d="M1424 514c-35.333 -170 -117.169 -304.834 -245.502 -404.501s-284.833 -149.5 -469.5 -149.5c-173.333 0 -299 49 -377 147c-53.333 67.333 -80 152 -80 254c0 47.333 5.66699 98.333 17 153l198 956v0h99h100v0l-190 -919c-11.333 -53.333 -17 -101.666 -17 -144.999
c0 -70.667 15 -127 45 -169c46.667 -68 134.334 -102 263.001 -102c120.667 0 221.334 36 302.001 108s135 174.667 163 308l190 919v0h100h100v0z" />
    <glyph glyph-name="V" unicode="V" horiz-adv-x="1366" 
d="M354 1470h110h111v0l165 -1241v0v0l677 1241v0h110h111v0l-841 -1470h-105h-105z" />
    <glyph glyph-name="W" unicode="W" horiz-adv-x="1933" 
d="M420 0l-74 1470v0h107h108v0l19 -1205v0v0l591 1205h109h109l79 -1189v0v0l532 1189v0h107h108v0l-696 -1470h-105h-105l-80 1227v0v0l-599 -1227h-105h-105z" />
    <glyph glyph-name="X" unicode="X" horiz-adv-x="1366" 
d="M39 0l690 755v0l-343 715v0h126h126v0l255 -571v0v0l483 571v0h118h119v0l-639 -727v0l349 -743v0h-123h-124v0l-258 607v0v0l-534 -607v0h-122h-123v0z" />
    <glyph glyph-name="Y" unicode="Y" horiz-adv-x="1366" 
d="M703 598l-361 872v0h116h117v0l271 -701v0l574 701v0h115h116v0l-752 -888v0l-120 -582h-99h-100z" />
    <glyph glyph-name="Z" unicode="Z" horiz-adv-x="1251" 
d="M81 165l1140 1130v0h-829v0l19 87l20 88v0h1082l-17 -82l-17 -83l-1141 -1130v0h900v0l-19 -87l-20 -88v0h-1152l16 82z" />
    <glyph glyph-name="bracketleft" unicode="[" horiz-adv-x="569" 
d="M43 -402l389 1882v0h385l-30 -144h-224v0l-329 -1594v0h224l-30 -144h-385v0z" />
    <glyph glyph-name="backslash" unicode="\" horiz-adv-x="569" 
d="M463 -38l-176 1552h135l176 -1552h-135z" />
    <glyph glyph-name="bracketright" unicode="]" horiz-adv-x="569" 
d="M357 -402h-385l30 144h224v0l329 1594v0h-224l30 144h385v0z" />
    <glyph glyph-name="asciicircum" unicode="^" horiz-adv-x="961" 
d="M846 1409l258 -867h-160l-207 696v0l-491 -696h-160l616 867h72h72z" />
    <glyph glyph-name="underscore" unicode="_" 
d="M-54 -258l22 106h1139l-22 -106h-1139z" />
    <glyph glyph-name="grave" unicode="`" horiz-adv-x="682" 
d="M552 1215l-204 289h220l122 -289h-138z" />
    <glyph glyph-name="a" unicode="a" 
d="M410 -29c-88 0 -157.503 21.8291 -208.503 65.4961s-76.5 103.167 -76.5 178.5c0.666992 104.667 36.834 193.334 108.501 266.001s166.167 116.334 283.5 131.001l219 27l94 14c32 4.66699 58.333 17.834 79 39.501s34.667 51.167 42 88.5l1 3
c12 57.333 0.833008 99.666 -33.5 126.999s-93.166 41 -176.499 41c-74.667 0 -136.167 -16.5 -184.5 -49.5s-85.5 -83.833 -111.5 -152.5v0h-164v0c40.667 122.667 102.167 212.334 184.5 269.001s192.166 85 329.499 85c132.667 0 227 -26.667 283 -80
c40 -38.667 59.667 -90.334 59 -155.001c0.666992 -26.667 -2.33301 -55 -9 -85l-125 -601c-3.33301 -17.333 -0.5 -31.666 8.5 -42.999s22.5 -17 40.5 -17c5.33301 0 13.5 0.666992 24.5 2s22.5 3.33301 34.5 6l-27 -130c-17.333 -6 -36.666 -11.333 -57.999 -16
c-20 -4 -36.333 -6 -49 -6c-65.333 0 -110 19.333 -134 58c-14 24.667 -21.333 58.334 -22 101.001v0c-16.667 -16 -34.667 -31.333 -54 -46c-107.333 -80.667 -226.666 -121 -357.999 -121zM877.997 427.996l24 116.999v0c-55.333 -23.333 -114.333 -39.666 -177 -48.999
l-170 -24c-74.667 -10 -133 -35 -175 -75s-63 -90.667 -63 -152c0 -39.333 13.833 -69.833 41.5 -91.5s66.5 -32.5 116.5 -32.5c95.333 0 181 25.667 257 77c54 36 92.667 78.333 116 127c4.66699 10 9.66699 24.333 15 43c6 18.667 11 38.667 15 60z" />
    <glyph glyph-name="b" unicode="b" 
d="M423 1470h90h91v0l-115 -555v0l14 15c107.333 116 224.333 174 351 174c107.333 0 191.833 -34.5 253.5 -103.5s92.5 -163.5 92.5 -283.5c0 -208.667 -59.5 -385.167 -178.5 -529.5s-264.833 -216.5 -437.5 -216.5c-118 0 -205 49 -261 147l-6 10v0l-26 -128v0h-172v0z
M611 127c116 0 210.833 54.001 284.5 162.001s110.5 247 110.5 417c0 75.333 -19.667 133.666 -59 174.999s-95 62 -167 62c-87.333 0 -165 -40.333 -233 -121s-116.333 -190 -145 -328v0v0v0c-23.333 -112.667 -16.333 -202 21 -268c38 -66 100.667 -99 188 -99z" />
    <glyph glyph-name="c" unicode="c" horiz-adv-x="1024" 
d="M1057 375c-46 -126.667 -115.168 -225.666 -207.501 -296.999s-197.5 -107 -315.5 -107c-119.333 0 -212.833 33 -280.5 99s-101.5 156.333 -101.5 271v4c-0.666992 24 0.833008 50.667 4.5 80s8.16699 57.666 13.5 84.999c38.667 186 114 331.5 226 436.5
s248.667 157.5 410 157.5c117.333 0 203 -33.667 257 -101c44 -54.667 66.333 -129.667 67 -225l-4 -70v0h-174v0c4 77.333 -10.667 136 -44 176s-84 60 -152 60c-98.667 0 -181.167 -36.333 -247.5 -109s-114.166 -179 -143.499 -319
c-5.33301 -25.333 -9.33301 -50.333 -12 -75s-4 -47 -4 -67c0 -78.667 19.333 -139.5 58 -182.5s93 -64.5 163 -64.5c68 0 129.333 21.833 184 65.5s96 104.5 124 182.5v0h179z" />
    <glyph glyph-name="d" unicode="d" 
d="M537 -29c-112.667 0 -201.667 35.832 -267 107.499s-98 169.834 -98 294.501c0 209.333 54.5 383.5 163.5 522.5s245.5 208.5 409.5 208.5c128.667 0 222 -57 280 -171l10 -21v0l116 558v0h90h91v0l-304 -1470v0h-86h-86v0l29 144v0l-24 -24
c-98.667 -99.333 -206.667 -149 -324 -149zM747 940.999c-114.667 0 -208.336 -52.332 -281.003 -156.999s-109 -239.334 -109 -404.001c0 -80.667 19.333 -143.167 58 -187.5s93 -66.5 163 -66.5c84.667 0 160.834 34.167 228.501 102.5s112.834 156.5 135.501 264.5
c30.667 149.333 29.834 261.333 -2.49902 336s-96.5 112 -192.5 112z" />
    <glyph glyph-name="e" unicode="e" 
d="M563 -29c-122 0 -217.5 33.167 -286.5 99.5s-103.833 158.5 -104.5 276.5c0 22.667 1.66699 48.5 5 77.5s8 57.5 14 85.5c38.667 186 114 331.5 226 436.5s248.333 157.5 409 157.5c114.667 0 203.5 -32.833 266.5 -98.5s94.5 -158.167 94.5 -277.5
c0.666992 -89.333 -10 -174 -32 -254v0h-782v0l-5 -34c-3.33301 -26 -5 -50.333 -5 -73c0 -80 19.833 -140 59.5 -180s99.167 -60 178.5 -60c78 0 147.833 19.833 209.5 59.5s104.5 91.834 128.5 156.501v0h175v0c-42.667 -116.667 -112.5 -207.834 -209.5 -273.501
s-210.833 -98.5 -341.5 -98.5zM1004 618c2.66699 28.667 4.00098 57 4.00098 85c0 78 -20.333 137.333 -61 178s-100.334 61 -179.001 61c-90 0 -170.667 -38.333 -242 -115c-52 -56 -92.333 -125.667 -121 -209v0h599z" />
    <glyph glyph-name="f" unicode="f" horiz-adv-x="569" 
d="M548 923l-190.999 -923v0h-90h-91v0l191 923v0h-141l30 149h141v0l35 168c18 87.333 54.667 151.333 110 192s133.666 61 234.999 61c30 0 56.667 -2 80 -6l-40 -159c0 2.66699 -24 4 -72 4c-40 0 -71.167 -11.333 -93.5 -34s-38.833 -59.667 -49.5 -111l-24 -115v0h193
l-30 -149h-193z" />
    <glyph glyph-name="g" unicode="g" 
d="M477 -299c103.333 0 185.832 29.833 247.499 89.5s104.834 151.5 129.501 275.5l12 55l-3 -3c-97.333 -98 -204.333 -147 -321 -147c-114 0 -202.5 33.667 -265.5 101s-94.5 162.333 -94.5 285c0.666992 214 55 392 163 534s243.333 213 406 213
c127.333 0 219.333 -57.667 276 -173l11 -22v0l33 163v0h172l-208 -1006c-34.667 -172 -103 -301.333 -205 -388s-236.333 -130 -403 -130c-112 0 -198.167 29 -258.5 87s-87.833 138.667 -82.5 242v0h178v0c-2.66699 -55.333 14.833 -98.5 52.5 -129.5
s91.167 -46.5 160.5 -46.5zM751.999 943c-113.333 0 -206.168 -51.833 -278.501 -155.5s-108.166 -237.167 -107.499 -400.5c0 -82.667 19 -146.667 57 -192s91.333 -68 160 -68c83.333 0 158.333 33.5 225 100.5s111 153.167 133 258.5
c31.333 149.333 30.833 262.833 -1.5 340.5s-94.833 116.5 -187.5 116.5z" />
    <glyph glyph-name="h" unicode="h" 
d="M133 0l303.997 1470v0h90h91v0l-114 -552v0v0l37 39c99.333 98 206 147 320 147c124 0 210.667 -31.167 260 -93.5s61.333 -155.5 36 -279.5l-151 -731v0h-90h-91v0l145 703c16.667 80.667 12.334 140.334 -12.999 179.001s-72.666 58 -141.999 58
c-104.667 0 -189.167 -34.5 -253.5 -103.5s-111.166 -175.167 -140.499 -318.5v0l-107 -518v0h-90h-91v0z" />
    <glyph glyph-name="i" unicode="i" horiz-adv-x="455" 
d="M137 0l221 1072v0h90h91v0l-221 -1072v0h-90h-91v0zM444 1470h182l-42 -203h-182z" />
    <glyph glyph-name="j" unicode="j" horiz-adv-x="455" 
d="M355 1072h89.999h91v0l-251 -1217c-21.333 -104.667 -57.333 -178.667 -108 -222c-49.333 -42.667 -123.666 -64 -222.999 -64c-28 0 -53.333 1.66699 -76 5l33 157h36c54 0 91.167 8 111.5 24s35.5 49.333 45.5 100v0zM441.999 1470h182l-42 -203h-182z" />
    <glyph glyph-name="k" unicode="k" horiz-adv-x="1024" 
d="M137 0l304 1470v0h90h91v0l-175 -844v0l552 446v0h117h118v0l-502 -400v0l299 -672v0h-116h-117v0l-223 548v0l-173 -138v0l-84 -410v0h-90h-91v0z" />
    <glyph glyph-name="l" unicode="l" horiz-adv-x="455" 
d="M137 0l304 1470v0h90h91v0l-304 -1470v0h-90h-91v0z" />
    <glyph glyph-name="m" unicode="m" horiz-adv-x="1706" 
d="M133 0l220.997 1072v0h86h86v0l-34 -166v0v0l48 51c98.667 98 204.334 147 317.001 147c96.667 0 167.667 -28.333 213 -85c20.667 -26.667 34.667 -58.334 42 -95.001v0l48 45c100.667 90 199.334 135 296.001 135c110 0 188.667 -30 236 -90
c32.667 -40.667 49 -93 49 -157c0 -30 -3.66699 -62.667 -11 -98l-157 -759v0h-90h-91v0l151 732c14 68 9.5 119.667 -13.5 155s-63.833 53 -122.5 53c-80.667 0 -151.667 -29.167 -213 -87.5s-102 -135.166 -122 -230.499v0l-128 -622v0h-90h-91v0l155 751
c13.333 64 9.83301 111.5 -10.5 142.5s-58.166 46.5 -113.499 46.5c-97.333 0 -176.5 -34.5 -237.5 -103.5s-106.167 -175.167 -135.5 -318.5v0l-107 -518v0h-90h-91v0z" />
    <glyph glyph-name="n" unicode="n" 
d="M133 0l220.997 1072v0h86h86v0l-34 -167v0v0l49 52c99.333 98 206 147 320 147c124 0 210.667 -31.167 260 -93.5s61.333 -155.5 36 -279.5l-151 -731v0h-90h-91v0l145 703c16.667 80.667 12.334 140.334 -12.999 179.001s-72.666 58 -141.999 58
c-104.667 0 -189.167 -34.5 -253.5 -103.5s-111.166 -175.167 -140.499 -318.5v0l-107 -518v0h-90h-91v0z" />
    <glyph glyph-name="o" unicode="o" 
d="M564 -29c-121.333 0 -217.334 36.666 -288.001 109.999s-106 173.333 -106 300c0 202.667 60.833 373.834 182.5 513.501s270.167 209.5 445.5 209.5c123.333 0 220.333 -35.5 291 -106.5s106 -167.167 106 -288.5v-4c0.666992 -205.333 -60.166 -379 -182.499 -521
s-271.833 -213 -448.5 -213v0zM595.999 126.999c114 0 210.332 52.999 288.999 158.999s118 235.667 118 389c0 86.667 -20.667 153.834 -62 201.501s-99.666 71.5 -174.999 71.5c-113.333 0 -209.333 -52.667 -288 -158c-77.333 -104.667 -116.333 -233 -117 -385
c0 -88 20.5 -156.333 61.5 -205s98.833 -73 173.5 -73v0z" />
    <glyph glyph-name="p" unicode="p" 
d="M337 1072h85h85v0l-35 -172v0l28 30c107.333 116 224.333 174 351 174c107.333 0 191.833 -34.5 253.5 -103.5s92.5 -163.5 92.5 -283.5c0 -208.667 -59.5 -385.167 -178.5 -529.5s-264.833 -216.5 -437.5 -216.5c-116 0 -203 48 -261 144v0l-110 -538v0h-90h-91v0z
M608 127c116 0 210.832 54.001 284.499 162.001s110.5 247 110.5 417c0 75.333 -19.667 133.666 -59 174.999s-95 62 -167 62c-87.333 0 -165 -40.333 -233 -121s-116.333 -190 -145 -328v0v0v0c-23.333 -112.667 -16.166 -202 21.501 -268s100.167 -99 187.5 -99z" />
    <glyph glyph-name="q" unicode="q" 
d="M530 -29c-110.667 0 -197.832 35.667 -261.499 107s-95.834 169 -96.501 293c0.666992 210 54.834 384.667 162.501 524s242.5 209 404.5 209c127.333 0 219.666 -57 276.999 -171l10 -21v0l33 160v0h172v0l-308 -1495v0h-90h-91v0l112 545l-3 -2
c-97.333 -99.333 -204.333 -149 -321 -149zM742.002 941c-112.667 0 -205.001 -52.5 -277.001 -157.5s-108 -239.833 -108 -404.5c0 -80 19 -142.167 57 -186.5s91.333 -66.5 160 -66.5c82.667 0 157.167 34.167 223.5 102.5s110.833 156.5 133.5 264.5
c30.667 149.333 30.334 261.333 -0.999023 336s-94 112 -188 112z" />
    <glyph glyph-name="r" unicode="r" horiz-adv-x="682" 
d="M158 0l220.999 1072v0h86h86v0l-41 -198v0v0c30.667 42 61.334 78.333 92.001 109c82 80.667 170 121 264 121c18 0 35 -2.33301 51 -7l-42 -187h-65c-81.333 0 -154.5 -27.333 -219.5 -82s-106.167 -123.334 -123.5 -206.001v0l-128 -622v0h-90h-91v0z" />
    <glyph glyph-name="s" unicode="s" horiz-adv-x="1024" 
d="M906 772c6 57.333 -8.49707 100.996 -43.4971 130.996s-89.167 45 -162.5 45c-72.667 0 -130.834 -13.333 -174.501 -40s-70.834 -65.667 -81.501 -117c-7.33301 -35.333 0.666992 -62.333 24 -81c22 -18 71 -37.333 147 -58l176 -47
c97.333 -26 163.666 -62.667 198.999 -110c24 -31.333 36 -70.666 36 -117.999c0 -22 -2.66699 -46 -8 -72c-20.667 -98 -77 -178.167 -169 -240.5s-200.333 -93.5 -325 -93.5c-154 0 -263 31 -327 93c-45.333 44.667 -68 104.334 -68 179.001c0 30.667 3.66699 64 11 100v0
h174v0c-10 -76 4 -131 42 -165s104.667 -51 200 -51c80.667 0 145 14.333 193 43s77.667 70.334 89 125.001c8 40.667 -1.66699 71.667 -29 93c-28 21.333 -87.333 44.333 -178 69l-176 47c-83.333 22.667 -140 54.667 -170 96c-20 28 -30 62.667 -30 104
c0 20.667 2.33301 42.667 7 66c20 98 74 178.167 162 240.5s190.667 93.5 308 93.5c122.667 0 213.667 -28 273 -84c51.333 -49.333 77 -117.666 77 -204.999l-2 -43v0h-174z" />
    <glyph glyph-name="t" unicode="t" horiz-adv-x="569" 
d="M514 0c-60.667 -8.66699 -106.333 -12.999 -137 -12.999c-76.667 0 -128.167 19.167 -154.5 57.5s-30.833 100.5 -13.5 186.5l144 692v0h-141l30 149h141v0l63 300h181l-63 -300v0h171l-30 -149h-171v0l-144 -692c-6 -30.667 -1.5 -53.334 13.5 -68.001
s41.167 -22 78.5 -22h61z" />
    <glyph glyph-name="u" unicode="u" 
d="M538 1072l-146.001 -708.001c-16 -77.333 -10.833 -136.166 15.5 -176.499s72.833 -60.5 139.5 -60.5c104.667 0 189.167 35 253.5 105s111.5 177.667 141.5 323v0l107 517v0h90h91v0l-221 -1072v0h-86h-86v0l34 168v0v0c-17.333 -22 -35 -42 -53 -60
c-92 -91.333 -198 -137 -318 -137c-123.333 0 -209.666 31 -258.999 93c-32.667 40 -48.667 93.667 -48 161c0 35.333 4.33301 74 13 116l151 731v0h90h91v0z" />
    <glyph glyph-name="v" unicode="v" horiz-adv-x="1024" 
d="M244 1072h103h104v0l98 -878v0v0l490 878v0h98h99v0l-634 -1072h-96h-96z" />
    <glyph glyph-name="w" unicode="w" horiz-adv-x="1479" 
d="M335 0l-79 1072v0h97h97v0l28 -855v0v0l398 855h96h96l30 -854v0v0l397 854v0h89h90v0l-528 -1072h-94h-94l-40 840v0v0l-397 -840h-93h-93z" />
    <glyph glyph-name="x" unicode="x" horiz-adv-x="1024" 
d="M23 0l498 552v0l-252 520v0h117h118v0l166 -378v0v0l324 378v0h109h109v0l-469 -522v0l262 -550v0h-114h-114v0l-177 406v0v0l-349 -406v0h-114h-114v0z" />
    <glyph glyph-name="y" unicode="y" horiz-adv-x="1024" 
d="M1230 1072l-619 -1073c-112.667 -192.667 -196.167 -313.834 -250.5 -363.501s-130.166 -74.5 -227.499 -74.5c-40.667 0 -74.667 5.66699 -102 17l34 164c26 -12 62.333 -18 109 -18c42 0 75.667 13.833 101 41.5s72.666 99.834 141.999 216.501v0l-169 1090v0h103h103
v0l102 -883v0v0l475 883v0h99h100v0z" />
    <glyph glyph-name="z" unicode="z" horiz-adv-x="1024" 
d="M93 147l813 776v0h-589v0l15 74l15 75v0h818l-15 -73l-15 -74l-806 -776v0h663v0l-15 -74l-15 -75v0h-899l15 73z" />
    <glyph glyph-name="braceleft" unicode="{" horiz-adv-x="684" 
d="M526 -402c-130 0 -216.332 19.834 -258.999 59.501s-53.667 110.167 -33 211.5l73 354c14.667 72 10.5 132.667 -12.5 182s-58.5 74 -106.5 74l25 120c48 0 93.667 24.667 137 74s72.666 110 87.999 182l73 354c20.667 101.333 60.667 171.833 120 211.5
s154 59.5 284 59.5l-27 -132c-75.333 0 -128.833 -12.5 -160.5 -37.5s-54.834 -73.5 -69.501 -145.5l-74 -354c-19.333 -94 -62.666 -166.333 -129.999 -217c-31.333 -23.333 -66.666 -41.333 -105.999 -54v0c33.333 -14.667 61 -33.334 83 -56.001
c46.667 -50.667 60.334 -123 41.001 -217l-73 -354c-14.667 -72 -11.334 -120.5 9.99902 -145.5s69.666 -37.5 144.999 -37.5z" />
    <glyph glyph-name="bar" unicode="|" horiz-adv-x="532" 
d="M84 -512l424 2048h151l-424 -2048h-151z" />
    <glyph glyph-name="braceright" unicode="}" horiz-adv-x="684" 
d="M0 -402l28.002 131.999c75.333 0 128.666 12.5 159.999 37.5s54.333 73.5 69 145.5l73 354c19.333 94 63 166.333 131 217c31.333 22.667 66.333 41.334 105 56.001v0c-34 12.667 -61.333 30.667 -82 54c-47.333 50.667 -61.333 123 -42 217l74 354
c14.667 72 11.5 120.5 -9.5 145.5s-69.167 37.5 -144.5 37.5l27 132c130 0 216.333 -19.833 259 -59.5s53.667 -110.167 33 -211.5l-73 -354c-15.333 -72 -11.333 -132.667 12 -182s59 -74 107 -74l-25 -120c-48 0 -93.833 -24.667 -137.5 -74s-72.834 -110 -87.501 -182
l-73 -354c-20.667 -101.333 -61 -172 -121 -212c-58.667 -39.333 -153 -59 -283 -59z" />
    <glyph glyph-name="asciitilde" unicode="~" horiz-adv-x="1196" 
d="M227 480c41.333 61.333 85.667 106.669 133 136.002s99.333 44 156 44c37.333 0 72.333 -5 105 -15s70.334 -27.333 113.001 -52c41.333 -23.333 80 -41.833 116 -55.5s64 -20.5 84 -20.5c27.333 0 60.333 13.833 99 41.5s74.334 63.5 107.001 107.5l49 -108
c-44 -58.667 -91.167 -103.834 -141.5 -135.501s-99.5 -47.5 -147.5 -47.5c-33.333 0 -67.833 6.66699 -103.5 20s-80.5 36.666 -134.5 69.999c-26.667 16 -56.834 28.833 -90.501 38.5s-65.834 14.5 -96.501 14.5c-30 0 -65 -14.667 -105 -44s-71.333 -63.333 -94 -102z
" />
    <glyph glyph-name="uni00A0" unicode="&#xa0;" horiz-adv-x="569" 
 />
    <glyph glyph-name="exclamdown" unicode="&#xa1;" horiz-adv-x="682" 
d="M542 722l-91 -666l-94 -457h-99h-100l94 457l185 666h53v0h52zM619 865h-198l42 207h198z" />
    <glyph glyph-name="cent" unicode="&#xa2;" 
d="M1018 1291l86.001 -0.000976562l-103 -212c42.667 -18 79.334 -42.667 110.001 -74c62 -66 93 -161.333 93 -286v-12v0h-168v0c-2 80 -23.667 140.667 -65 182c-14 14 -29 25.333 -45 34l-382 -786c24 -6 50.667 -9.33301 80 -10c77.333 0 145.666 21.833 204.999 65.5
s103 104.5 131 182.5v0h175v0c-46 -126.667 -116.833 -225.667 -212.5 -297s-205.834 -107 -330.501 -107c-42.667 0 -82.667 5 -120 15l-110 -225h-86l121 253c-34 18.667 -65 42.334 -93 71.001c-72.667 76 -109 175.333 -109 298
c-0.666992 21.333 0.666016 46 3.99902 74s7.33301 53.667 12 77c34.667 168 109.5 305.5 224.5 412.5s245.5 160.5 391.5 160.5c34.667 0 67.334 -2.66699 98.001 -8zM475.001 172.999l376 774.001c-16.667 2.66699 -35.667 4 -57 4
c-86.667 0 -168.667 -41.833 -246 -125.5s-128.333 -185.834 -153 -306.501c-4 -20.667 -7.33301 -42.167 -10 -64.5s-4 -42.5 -4 -60.5c0 -82 22 -147 66 -195c8.66699 -10 18 -18.667 28 -26z" />
    <glyph glyph-name="sterling" unicode="&#xa3;" 
d="M1132 60c-36.667 -28 -82.833 -51.668 -138.5 -71.001s-106.167 -29 -151.5 -29c-12 0 -30.833 3.66699 -56.5 11s-68.5 21.333 -128.5 42c-40.667 14 -76.667 23.667 -108 29s-70 8 -116 8c-37.333 0 -81 -7.33301 -131 -22c-48.667 -14 -90 -31.667 -124 -53l-78 143
c83.333 50 155.833 110.667 217.5 182s98.834 138.333 111.501 201c6.66699 31.333 7 64.333 1 99c-2 16 -6.33301 33.333 -13 52h-216l26 129h145c-18 51.333 -29.333 94.666 -34 129.999c-5.33301 45.333 -2.66602 94 8.00098 146
c25.333 122 90.666 221.833 195.999 299.5s227.666 116.5 366.999 116.5c150 0 257.667 -40.667 323 -122s83.333 -197.333 54 -348v0h-183v0c19.333 98.667 9.33301 174.834 -30 228.501s-104.333 80.5 -195 80.5c-85.333 0 -159.666 -23 -222.999 -69
s-102.666 -105.333 -117.999 -178c-6.66699 -33.333 -8 -67.333 -4 -102s15 -81.667 33 -141l11 -41h350l-26 -129h-297l1 -6c4 -45.333 1 -92.666 -9 -141.999c-17.333 -82.667 -68 -164.334 -152 -245.001c-36.667 -34.667 -76 -66 -118 -94l6 1
c94 28.667 175.667 43 245 43c26.667 0 51.667 -2.33301 75 -7s53.666 -13.667 90.999 -27c46 -16 80.167 -26.833 102.5 -32.5s41.166 -8.5 56.499 -8.5c26 0 55.5 6.33301 88.5 19s60.167 28.334 81.5 47.001z" />
    <glyph glyph-name="currency" unicode="&#xa4;" 
d="M1080 717c20.667 101.333 3.83203 187 -50.501 257s-131.5 105 -231.5 105s-191.667 -35 -275 -105s-135.333 -155.667 -156 -257s-4 -186.833 50 -256.5s131 -104.5 231 -104.5s191.833 34.833 275.5 104.5s135.834 155.167 156.501 256.5zM617.998 210
c-117.333 1.33301 -212.999 34.999 -286.999 100.999v0l-133 -111l-75 95l134 113v0c-48.667 88 -60.667 191 -36 309c24.667 118.667 80 222 166 310v0l-89 114l114 95l89 -113v0c101.333 68 210.333 102 327 102c117.333 0.666992 212.333 -33.333 285 -102v0l135 113
l76 -95l-137 -114v0c50.667 -87.333 63.667 -190.666 39 -309.999c-24.667 -117.333 -79.334 -221 -164.001 -311v0l87 -111l-115 -95l-88 112v0c-102 -68 -211.333 -102 -328 -102z" />
    <glyph glyph-name="yen" unicode="&#xa5;" 
d="M226 663l23 114h327v0l-268 634v0h103h104v0l228 -607v0l479 607v0h103h103v0l-536 -634v0h331l-23 -114h-394v0l-37 -176v0h394l-23 -114h-394v0l-77 -373v0h-92h-93v0l77 373v0h-395l23 114h395v0l37 176v0h-395z" />
    <glyph glyph-name="brokenbar" unicode="&#xa6;" horiz-adv-x="532" 
d="M122 -342l140 683h151l-140 -683h-151zM333 682l141 683h151l-141 -683h-151z" />
    <glyph glyph-name="section" unicode="&#xa7;" 
d="M884 1510c112 0 193.003 -32.498 243.003 -97.498s65.333 -157.833 46 -278.5v0h-175v0c10.667 70 3.16699 124 -22.5 162s-67.834 57 -126.501 57c-56.667 0 -106.834 -17 -150.501 -51s-71.5 -77.667 -83.5 -131c-6.66699 -30.667 9.5 -67 48.5 -109
s101.833 -90 188.5 -144c124 -77.333 208.5 -147.333 253.5 -210s59.5 -129.667 43.5 -201c-26 -116.667 -92.667 -212.334 -200 -287.001c-28.667 -19.333 -58.334 -36.333 -89.001 -51c10.667 -10 19.667 -21 27 -33c42 -60.667 55.667 -124.334 41 -191.001
c-21.333 -96 -75.666 -174.667 -162.999 -236c-86 -61.333 -186.667 -92 -302 -92c-118 0 -203.5 33 -256.5 99s-69.833 159.667 -50.5 281v0h192v0c-11.333 -71.333 -4 -126.333 22 -165s68.667 -58 128 -58c62.667 0 117.167 15 163.5 45s74.833 68.667 85.5 116
c9.33301 40.667 0.166016 77.334 -27.501 110.001s-93.167 85.667 -196.5 159c-142 101.333 -233.667 180.333 -275 237s-54 121 -38 193c25.333 112.667 91.333 205 198 277c27.333 18.667 56.333 35 87 49l-7 11c-50 65.333 -68 128.666 -54 189.999
c22.667 102.667 76 186.667 160 252c84 64.667 180.667 97 290 97zM961.003 469.002c10.667 48 -1.16211 94.501 -35.4951 139.501s-98.5 96.833 -192.5 155.5c-62.667 39.333 -115.334 77.666 -158.001 114.999c-18.667 -8 -36.334 -18 -53.001 -30
c-66.667 -46 -108 -105 -124 -177c-12 -51.333 -2.83301 -96.5 27.5 -135.5s104.166 -99.833 221.499 -182.5c51.333 -36.667 95.666 -71.334 132.999 -104.001c19.333 8.66699 37.666 19.334 54.999 32.001c67.333 48.667 109.333 111 126 187z" />
    <glyph glyph-name="dieresis" unicode="&#xa8;" horiz-adv-x="682" 
d="M387 1447h186l-43 -209h-186zM719 1447h186l-43 -209h-186z" />
    <glyph glyph-name="copyright" unicode="&#xa9;" horiz-adv-x="1509" 
d="M1056 1506c224.667 0 396.5 -73.501 515.5 -220.501s155.5 -331.167 109.5 -552.5c-45.333 -221.333 -158 -405.666 -338 -552.999c-178.667 -146.667 -380.667 -220 -606 -220s-397.333 73.5 -516 220.5s-155.334 331.167 -110.001 552.5
c46 221.333 158.833 405.5 338.5 552.5s381.834 220.5 606.501 220.5v0zM1524 732.999c38.667 184.667 11.001 338.334 -82.999 461.001s-231 184 -411 184s-342.333 -61.333 -487 -184s-236.334 -276.334 -275.001 -461.001c-38 -184.667 -10 -338.334 84 -461.001
s231 -184 411 -184s342.333 61.333 487 184s236 276.334 274 461.001v0zM1270 593.999c-42 -106 -101.332 -187.834 -177.999 -245.501s-164.334 -86.5 -263.001 -86.5c-114 0 -203.833 32 -269.5 96s-98.5 151.667 -98.5 263c0 164 54.5 302.5 163.5 415.5
s242.167 169.5 399.5 169.5c98 0 173.667 -27.167 227 -81.5s80 -131.5 80 -231.5v0h-137v0c0 56.667 -17.167 100.5 -51.5 131.5s-83.166 46.5 -146.499 46.5c-102.667 0 -191 -41.833 -265 -125.5s-111 -183.5 -111 -299.5c0 -77.333 21.167 -138.166 63.5 -182.499
s100.166 -66.5 173.499 -66.5c63.333 0 118.833 17 166.5 51s84.167 82.667 109.5 146v0h137z" />
    <glyph glyph-name="ordfeminine" unicode="&#xaa;" horiz-adv-x="758" 
d="M452 831c-59.333 0 -105.832 12.332 -139.499 36.999s-50.834 58.667 -51.501 102c0.666992 71.333 25.167 129 73.5 173s117.5 70.667 207.5 80l100 11l58 7c26 2.66699 46.667 11.167 62 25.5s24.666 33.5 27.999 57.5c2.66699 24.667 -6.66602 44 -27.999 58
s-54.666 21 -99.999 21c-50 0 -90.5 -8.83301 -121.5 -26.5s-53.833 -45.167 -68.5 -82.5v0h-114v0c25.333 74.667 64.333 129.334 117 164.001s123.667 52 213 52c87.333 0 149.666 -16 186.999 -48c27.333 -24 41.333 -56.667 42 -98l-5 -45l-72 -345
c-3.33301 -16.667 -2.5 -29 2.5 -37s14.167 -12 27.5 -12c-8.66699 0 4 2.33301 38 7l-20 -90c-10.667 -2.66699 -22.5 -5 -35.5 -7s-24.167 -3 -33.5 -3c-46 0 -76 11.667 -90 35c-8 14 -11.667 35.333 -11 64v0l-31 -25c-70 -50 -148.333 -75 -235 -75zM748.001 1123
l7.99902 38.9971v0c-36.667 -11.333 -77.667 -19.666 -123 -24.999l-68 -8c-59.333 -7.33301 -102.166 -20.666 -128.499 -39.999s-39.5 -47.666 -39.5 -84.999c0.666992 -22 9.5 -38.833 26.5 -50.5s41.833 -17.5 74.5 -17.5c59.333 0 112.333 14.667 159 44
c23.333 16 42.333 33 57 51c6 8 12.333 20.333 19 37c6 16.667 11 35 15 55zM225 722.996h611l-20 -98h-611z" />
    <glyph glyph-name="guillemotleft" unicode="&#xab;" 
d="M674 734l-250 -167v0l180 -168l-36 -176l-269 250l20 94l19 94l372 249zM1096 734l-250 -167v0l180 -168l-36 -176l-269 250l20 94l19 94l372 249z" />
    <glyph glyph-name="logicalnot" unicode="&#xac;" horiz-adv-x="1196" 
d="M1102 652h-885l30 149h1036l-119 -576h-151z" />
    <glyph glyph-name="uni00AD" unicode="&#xad;" horiz-adv-x="682" 
d="M228 659h502l-38 -183h-502z" />
    <glyph glyph-name="registered" unicode="&#xae;" horiz-adv-x="1509" 
d="M1056 1506c224.667 0 396.5 -73.501 515.5 -220.501s155.5 -331.167 109.5 -552.5c-45.333 -221.333 -158 -405.666 -338 -552.999c-178.667 -146.667 -380.667 -220 -606 -220s-397.333 73.5 -516 220.5s-155.334 331.167 -110.001 552.5
c46 221.333 158.833 405.5 338.5 552.5s381.834 220.5 606.501 220.5v0zM1524 732.999c38.667 184.667 11.001 338.334 -82.999 461.001s-231 184 -411 184s-342.333 -61.333 -487 -184s-236.334 -276.334 -275.001 -461.001c-38 -184.667 -10 -338.334 84 -461.001
s231 -184 411 -184s342.333 61.333 487 184s236 276.334 274 461.001v0zM502.001 287.999l186.001 896.001v0h68v0h294c81.333 0 144.166 -16.833 188.499 -50.5s66.5 -80.834 66.5 -141.501v-3c0 -90.667 -34 -165 -102 -223c-52.667 -44 -118 -71.667 -196 -83v0l175 -395
v0h-76h-77v0l-155 391v0l-154 -1v0l-81 -390v0h-68h-69v0zM744.002 792h176c80 0 140.667 15.333 182 46s62 75.667 62 135c0 31.333 -15 55.5 -45 72.5s-72.333 25.5 -127 25.5h-191v0z" />
    <glyph glyph-name="macron" unicode="&#xaf;" horiz-adv-x="682" 
d="M293 1285l24 117h641l-24 -117h-641z" />
    <glyph glyph-name="degree" unicode="&#xb0;" horiz-adv-x="819" 
d="M704 1437c83.333 0 147.666 -28.833 192.999 -86.5s59.333 -128.5 42 -212.5s-60.666 -154.833 -129.999 -212.5s-145.666 -86.5 -228.999 -86.5c-82.667 0 -146.667 28.833 -192 86.5s-59.333 128.5 -42 212.5s60.666 154.833 129.999 212.5s145.333 86.5 228 86.5z
M843 1138c12 58.667 2.66699 108.167 -28 148.5s-74 60.5 -130 60.5s-107.5 -20.167 -154.5 -60.5s-76.5 -89.833 -88.5 -148.5s-2.83301 -108.167 27.5 -148.5s73.5 -60.5 129.5 -60.5s107.667 20.167 155 60.5s77 89.833 89 148.5z" />
    <glyph glyph-name="plusminus" unicode="&#xb1;" horiz-adv-x="1196" 
d="M638 557h-443l31 150h443l68 329h150l-68 -329h443l-31 -150h-443l-68 -329h-150zM110 147h1036l-30 -151h-1036z" />
    <glyph glyph-name="uni00B2" unicode="&#xb2;" horiz-adv-x="682" 
d="M915 1228l0.00195312 -5.99902c0 -72.667 -25.333 -134.5 -76 -185.5s-147.334 -109.5 -290.001 -175.5c-97.333 -44.667 -166.333 -87.334 -207 -128.001c-10 -10 -19.333 -21.333 -28 -34v0h496l-26 -126h-653v0c19.333 93.333 56.833 168 112.5 224
s150.834 115 285.501 177c95.333 44 160 83 194 117s50.667 76.667 50 128c0 34.667 -12.667 60.667 -38 78s-63.333 26 -114 26c-56.667 0 -103.834 -17 -141.501 -51s-62.834 -82.667 -75.501 -146v0h-126v0c20.667 100.667 64.5 178.167 131.5 232.5
s152.167 81.5 255.5 81.5c75.333 0 136 -19.333 182 -58c45.333 -38.667 68 -90 68 -154z" />
    <glyph glyph-name="uni00B3" unicode="&#xb3;" horiz-adv-x="682" 
d="M736 1221c0 31.333 -12.499 56.001 -37.499 74.001s-59.167 27 -102.5 27c-48 0 -89.5 -15 -124.5 -45s-58.167 -70.333 -69.5 -121v0h-126v0c20.667 92.667 61.167 163.167 121.5 211.5s138.5 72.5 234.5 72.5c78 0 140.167 -16.5 186.5 -49.5s69.5 -77.167 69.5 -132.5
c0 -78 -32 -140.667 -96 -188c-20 -15.333 -42.667 -28 -68 -38v0l47 -21c46.667 -28 70 -70.667 70 -128c0.666992 -92.667 -36.833 -170.834 -112.5 -234.501s-168.167 -95.5 -277.5 -95.5c-102.667 0 -176.334 23.667 -221.001 71s-60 118.333 -46 213v0h139v0
c-8.66699 -58 -1 -100.333 23 -127s66.333 -40 127 -40c66 0 119.333 17.667 160 53s61 82 61 140c0.666992 34 -12 58.667 -38 74s-67 23 -123 23h-70l23 108h52c60 0 108 14 144 42s54 65 54 111z" />
    <glyph glyph-name="acute" unicode="&#xb4;" horiz-adv-x="682" 
d="M508 1215l247 289h218l-328 -289h-137z" />
    <glyph glyph-name="uni00B5" unicode="&#xb5;" 
d="M538 1072l-142.999 -693c-16.667 -82 -12.334 -145.167 12.999 -189.5s70.333 -66.5 135 -66.5c96.667 0 178 32.833 244 98.5s111.667 159.5 137 281.5v0l117 569h181l-221 -1072h-172l34 165v0v0c-15.333 -22.667 -32.333 -43 -51 -61
c-86.667 -88.667 -198.667 -133 -336 -133c-64 0 -110.333 17.667 -139 53l-12 15v0l-95 -467h-181l153 750l155 750h181z" />
    <glyph glyph-name="paragraph" unicode="&#xb6;" horiz-adv-x="1100" 
d="M630 701c-114 0.666992 -204.5 27.833 -271.5 81.5s-100.5 127.167 -100.5 220.5c0.666992 136.667 50.5 248.667 149.5 336s226.167 131 381.5 131h542v0l-376 -1819h-148l350 1695v0h-248v0l-350 -1695h-146z" />
    <glyph glyph-name="periodcentered" unicode="&#xb7;" horiz-adv-x="569" 
d="M355 834h214l-45 -220h-214z" />
    <glyph glyph-name="cedilla" unicode="&#xb8;" horiz-adv-x="682" 
d="M390 2l-120 -128.001v0l63 8c53.333 0 92.333 -13.667 117 -41s32 -65 22 -113c-11.333 -55.333 -43.166 -100.666 -95.499 -135.999s-113.833 -53 -184.5 -53c-24 0 -53.667 4.33301 -89 13s-68.333 19.667 -99 33l51 83c20 -9.33301 41.833 -16.833 65.5 -22.5
s44.167 -8.5 61.5 -8.5c39.333 0 69.833 7 91.5 21s35.5 35.667 41.5 65c4 20 -2.33301 38.167 -19 54.5s-37.334 24.5 -62.001 24.5c-7.33301 0 -18.5 -1.5 -33.5 -4.5s-30.833 -6.83301 -47.5 -11.5l-25 38l167 178h95z" />
    <glyph glyph-name="uni00B9" unicode="&#xb9;" horiz-adv-x="682" 
d="M432 573l123.999 598v0l-216 6l21 98c52.667 -3.33301 106.334 10.667 161.001 42c55.333 31.333 98 72.333 128 123h107v0l-180 -867v0h-72h-73v0z" />
    <glyph glyph-name="ordmasculine" unicode="&#xba;" horiz-adv-x="748" 
d="M554 831c-84.667 0 -149.832 20.667 -195.499 62s-68.5 100.666 -68.5 177.999c0 129.333 37.667 235 113 317s172.333 123 291 123c85.333 0 150.833 -20.167 196.5 -60.5s68.5 -98.166 68.5 -173.499c-0.666992 -130.667 -39 -237.667 -115 -321
c-74.667 -83.333 -171.334 -125 -290.001 -125v0zM575.002 934c68.667 0 126.833 30.833 174.5 92.5s71.5 137.167 71.5 226.5c0 50.667 -12.667 89.167 -38 115.5s-62 39.5 -110 39.5c-68.667 0 -126.667 -30.5 -174 -91.5s-71 -135.833 -71 -224.5
c0 -51.333 12.5 -90.5 37.5 -117.5s61.5 -40.5 109.5 -40.5v0zM225.001 723h612l-20 -98h-612z" />
    <glyph glyph-name="guillemotright" unicode="&#xbb;" 
d="M282 399l250 167v0l-180 168l36 176l268 -250l-19 -94l-20 -94l-371 -249zM704 399l250 167v0l-180 168l36 176l268 -250l-19 -94l-20 -94l-371 -249z" />
    <glyph glyph-name="onequarter" unicode="&#xbc;" horiz-adv-x="1708" 
d="M1657 1441l-1233 -1485h-117l1233 1485h117zM494 573l123.999 598v0l-216 6l21 98c52.667 -3.33301 106.334 10.667 161.001 42c55.333 31.333 98 72.333 128 123h107v0l-180 -867v0h-72h-73v0zM1326 184h-420l13 63l13 63l561 528h61h62l-113 -545v0h101l-23 -109h-101
v0l-38 -184h-154l38 184v0zM1349 293l67 325v0v0l-327 -308l-18 -17v0h278z" />
    <glyph glyph-name="onehalf" unicode="&#xbd;" horiz-adv-x="1708" 
d="M1583 1441l-1233 -1485h-117l1233 1485h117zM433 573l123.999 598v0l-216 6l21 98c52.667 -3.33301 106.334 10.667 161.001 42c55.333 31.333 98 72.333 128 123h107v0l-180 -867v0h-72h-73v0zM1718 655l0.00195312 -5.99902c0 -72.667 -25.333 -134.5 -76 -185.5
s-147.334 -109.5 -290.001 -175.5c-97.333 -44.667 -166.333 -87.334 -207 -128.001c-10 -10 -19.333 -21.333 -28 -34v0h496l-26 -126h-653v-0c19.333 93.333 56.833 168 112.5 224s150.834 115 285.501 177c95.333 44 160 83 194 117s50.667 76.667 50 128
c0 34.667 -12.667 60.667 -38 78s-63.333 26 -114 26c-56.667 0 -103.834 -17 -141.501 -51s-62.834 -82.667 -75.501 -146v0h-126v0c20.667 100.667 64.5 178.167 131.5 232.5s152.167 81.5 255.5 81.5c75.333 0 136 -19.333 182 -58c45.333 -38.667 68 -90 68 -154z" />
    <glyph glyph-name="threequarters" unicode="&#xbe;" horiz-adv-x="1708" 
d="M1765 1441l-1233 -1485h-117l1233 1485h117zM818 1221c0 31.333 -12.499 56.001 -37.499 74.001s-59.167 27 -102.5 27c-48 0 -89.5 -15 -124.5 -45s-58.167 -70.333 -69.5 -121v0h-126v0c20.667 92.667 61.167 163.167 121.5 211.5s138.5 72.5 234.5 72.5
c78 0 140.167 -16.5 186.5 -49.5s69.5 -77.167 69.5 -132.5c0 -78 -32 -140.667 -96 -188c-20 -15.333 -42.667 -28 -68 -38v0l47 -21c46.667 -28 70 -70.667 70 -128c0.666992 -92.667 -36.833 -170.834 -112.5 -234.501s-168.167 -95.5 -277.5 -95.5
c-102.667 0 -176.334 23.667 -221.001 71s-60 118.333 -46 213v0h139v0c-8.66699 -58 -1 -100.333 23 -127s66.333 -40 127 -40c66 0 119.333 17.667 160 53s61 82 61 140c0.666992 34 -12 58.667 -38 74s-67 23 -123 23h-70l23 108h52c60 0 108 14 144 42s54 65 54 111z
M1421 184.001h-420l13 63l13 63l561 528h61h62l-113 -545v0h101l-23 -109h-101v0l-38 -184h-154l38 184v0zM1444 293.001l67 325v0v0l-327 -308l-18 -17v0h278z" />
    <glyph glyph-name="questiondown" unicode="&#xbf;" horiz-adv-x="1251" 
d="M554 -258c97.333 0 173.832 25.166 229.499 75.499s97.834 132.166 126.501 245.499v0h175v0c-39.333 -155.333 -106.833 -273.5 -202.5 -354.5s-215.834 -121.5 -360.501 -121.5c-126 0 -221.5 37 -286.5 111s-85.5 169 -61.5 285c12.667 64.667 43 127.334 91 188.001
s120 127.667 216 201c59.333 45.333 104.5 93.333 135.5 144s52.833 111.667 65.5 183h174c-16.667 -95.333 -47.834 -178 -93.501 -248s-112.167 -137.667 -199.5 -203c-60.667 -45.333 -106.667 -88.666 -138 -129.999s-51.666 -86.333 -60.999 -135
c-15.333 -74 -5.66602 -132.667 29.001 -176c34 -43.333 87.667 -65 161 -65zM905.999 872.999h-202l44 209h202z" />
    <glyph glyph-name="Agrave" unicode="&#xc0;" horiz-adv-x="1366" 
d="M29 0l873 1470h111h112l213 -1470v0h-106h-107v0l-57 426v0h-587v0l-243 -426v0h-104h-105v0zM957 1251l-374 -650v0h463v0l-89 650v0v0zM975 1613l-204 289h220l122 -289h-138z" />
    <glyph glyph-name="Aacute" unicode="&#xc1;" horiz-adv-x="1366" 
d="M29 0l873 1470h111h112l213 -1470v0h-106h-107v0l-57 426v0h-587v0l-243 -426v0h-104h-105v0zM957 1251l-374 -650v0h463v0l-89 650v0v0zM931 1613l246 289h218l-327 -289h-137z" />
    <glyph glyph-name="Acircumflex" unicode="&#xc2;" horiz-adv-x="1366" 
d="M29 0l873 1470h111h112l213 -1470v0h-106h-107v0l-57 426v0h-587v0l-243 -426v0h-104h-105v0zM957 1251l-374 -650v0h463v0l-89 650v0v0zM1174 1903l146 -290h-163l-97 190v0l-174 -190h-164l266 290h93h93z" />
    <glyph glyph-name="Atilde" unicode="&#xc3;" horiz-adv-x="1366" 
d="M29 0l873 1470h111h112l213 -1470v0h-106h-107v0l-57 426v0h-587v0l-243 -426v0h-104h-105v0zM957 1251l-374 -650v0h463v0l-89 650v0v0zM672 1635c17.333 64.667 49.6689 116.666 97.002 155.999s101 59 161 59c17.333 0 40.666 -3.83301 69.999 -11.5
s56.333 -17.167 81 -28.5c20 -9.33301 41.5 -17.166 64.5 -23.499s40.833 -9.5 53.5 -9.5c26.667 0 50.5 8 71.5 24s36.167 37.667 45.5 65h102c-16 -60 -48.167 -110.833 -96.5 -152.5s-99.5 -62.5 -153.5 -62.5c-16.667 0 -40.334 4 -71.001 12s-60 17.667 -88 29
c-21.333 8.66699 -43.833 16.167 -67.5 22.5s-41.5 9.5 -53.5 9.5c-26 0 -50.333 -8.66699 -73 -26s-37.667 -38.333 -45 -63h-98z" />
    <glyph glyph-name="Adieresis" unicode="&#xc4;" horiz-adv-x="1366" 
d="M29 0l873 1470h111h112l213 -1470v0h-106h-107v0l-57 426v0h-587v0l-243 -426v0h-104h-105v0zM957 1251l-374 -650v0h463v0l-89 650v0v0zM809 1845h186l-44 -209h-186zM1141 1845h186l-44 -209h-186z" />
    <glyph glyph-name="Aring" unicode="&#xc5;" horiz-adv-x="1366" 
d="M29 0l873 1470h111h112l213 -1470v0h-106h-107v0l-57 426v0h-587v0l-243 -426v0h-104h-105v0zM957 1251l-374 -650v0h463v0l-89 650v0v0zM1010 1531c-52.667 0 -93.6689 18.167 -123.002 54.5s-38.666 80.833 -27.999 133.5c11.333 52.667 38.833 97.167 82.5 133.5
s91.834 54.5 144.501 54.5s93.5 -18.167 122.5 -54.5s37.833 -80.833 26.5 -133.5c-10.667 -52.667 -37.667 -97.167 -81 -133.5s-91.333 -54.5 -144 -54.5v0zM1026 1613c30 0 57.166 10.167 81.499 30.5s39.5 45.5 45.5 75.5c6.66699 30 1.83398 55.167 -14.499 75.5
s-39.5 30.5 -69.5 30.5s-57.167 -10.167 -81.5 -30.5s-39.833 -45.5 -46.5 -75.5c-6 -30 -0.833008 -55.167 15.5 -75.5s39.5 -30.5 69.5 -30.5v0z" />
    <glyph glyph-name="AE" unicode="&#xc6;" horiz-adv-x="2048" 
d="M942 0l88 426v0h-533v0l-255 -426v0h-113h-113v0l926 1470v0h503v0h804v0l-17 -87l-16 -88v0h-807v0l-94 -451v0h733l-18 -87l-18 -88v0h-733v0l-102 -494v0h818v0l-19 -87l-20 -88v0h-815v0h-199zM1024 1295l-419 -694v0h461v0l144 694h-186v0z" />
    <glyph glyph-name="Ccedilla" unicode="&#xc7;" horiz-adv-x="1479" 
d="M1516 544c-68 -186.667 -166.835 -330.665 -296.502 -431.998s-280.167 -152 -451.5 -152c-173.333 0 -307.833 47 -403.5 141s-143.5 226.333 -143.5 397c0 283.333 83.833 522.833 251.5 718.5s372.834 293.5 615.501 293.5c172.667 0 303.667 -41.667 393 -125
c82.667 -76.667 124 -184 124 -322l-1 -34v0h-195v0c4.66699 98.667 -23.833 174.667 -85.5 228s-152.167 80 -271.5 80c-171.333 0 -318.666 -80 -441.999 -240s-185 -351.333 -185 -574c-0.666992 -126.667 31.333 -223.334 96 -290.001s158.667 -100 282 -100
c118 0 221.833 35.667 311.5 107s158.5 172.666 206.5 303.999v0h195zM792.998 2.00195l-121 -129.001v0l64 9c53.333 0 92.333 -13.667 117 -41s32 -65 22 -113c-11.333 -55.333 -43.166 -100.666 -95.499 -135.999s-113.833 -53 -184.5 -53
c-24.667 0 -54.5 4.33301 -89.5 13s-67.833 19.667 -98.5 33l51 83c20 -9.33301 41.833 -16.833 65.5 -22.5s44.167 -8.5 61.5 -8.5c39.333 0 69.833 7 91.5 21s35.5 35.667 41.5 65c4 20 -2.33301 38.167 -19 54.5s-37.334 24.5 -62.001 24.5
c-7.33301 0 -18.5 -1.5 -33.5 -4.5s-30.833 -6.83301 -47.5 -11.5l-25 38l167 178h95z" />
    <glyph glyph-name="Egrave" unicode="&#xc8;" horiz-adv-x="1366" 
d="M176 0l304 1470v0h1071v0l-17 -87l-16 -88v0h-875v0l-94 -451v0h807l-18 -87l-18 -88v0h-807v0l-102 -494v0h886v0l-19 -87l-20 -88v0h-1082zM963 1613l-204 289h220l122 -289h-138z" />
    <glyph glyph-name="Eacute" unicode="&#xc9;" horiz-adv-x="1366" 
d="M176 0l304 1470v0h1071v0l-17 -87l-16 -88v0h-875v0l-94 -451v0h807l-18 -87l-18 -88v0h-807v0l-102 -494v0h886v0l-19 -87l-20 -88v0h-1082zM919 1613l246 289h218l-327 -289h-137z" />
    <glyph glyph-name="Ecircumflex" unicode="&#xca;" horiz-adv-x="1366" 
d="M176 0l304 1470v0h1071v0l-17 -87l-16 -88v0h-875v0l-94 -451v0h807l-18 -87l-18 -88v0h-807v0l-102 -494v0h886v0l-19 -87l-20 -88v0h-1082zM1162 1903l146 -290h-163l-97 190v0l-174 -190h-164l266 290h93h93z" />
    <glyph glyph-name="Edieresis" unicode="&#xcb;" horiz-adv-x="1366" 
d="M176 0l304 1470v0h1071v0l-17 -87l-16 -88v0h-875v0l-94 -451v0h807l-18 -87l-18 -88v0h-807v0l-102 -494v0h886v0l-19 -87l-20 -88v0h-1082zM797 1845h186l-44 -209h-186zM1129 1845h186l-44 -209h-186z" />
    <glyph glyph-name="Igrave" unicode="&#xcc;" horiz-adv-x="569" 
d="M186 0l304 1470v0h99h100v0l-304 -1470v0h-99h-100v0zM590 1613l-204 289h220l122 -289h-138z" />
    <glyph glyph-name="Iacute" unicode="&#xcd;" horiz-adv-x="569" 
d="M186 0l304 1470v0h99h100v0l-304 -1470v0h-99h-100v0zM546 1613l246 289h218l-327 -289h-137z" />
    <glyph glyph-name="Icircumflex" unicode="&#xce;" horiz-adv-x="569" 
d="M186 0l304 1470v0h99h100v0l-304 -1470v0h-99h-100v0zM789 1903l146 -290h-163l-97 190v0l-174 -190h-164l266 290h93h93z" />
    <glyph glyph-name="Idieresis" unicode="&#xcf;" horiz-adv-x="569" 
d="M186 0l304 1470v0h99h100v0l-304 -1470v0h-99h-100v0zM424 1845h186l-44 -209h-186zM756 1845h186l-44 -209h-186z" />
    <glyph glyph-name="Eth" unicode="&#xd0;" horiz-adv-x="1479" 
d="M171 0l138 667v0h-168l36 178h168v0l130 625v0h99v0h471c166.667 0 294.667 -41.833 384 -125.5s134 -203.167 134 -358.5c0 -282.667 -77.333 -517.667 -232 -705s-348.667 -281 -582 -281h-479v0h-99zM638 1297l-94 -452v0h395l-36 -178h-395v0l-103 -494v0h379
c160 0 295.333 74.5 406 223.5s166 331.167 166 546.5c0 114 -30 201.5 -90 262.5s-145.667 91.5 -257 91.5h-371z" />
    <glyph glyph-name="Ntilde" unicode="&#xd1;" horiz-adv-x="1479" 
d="M347 0h-95h-96v0l304 1470v0h116h117v0l495 -1195v0v0l248 1195v0h95h96v0l-304 -1470h-113h-113l-502 1199v0v0zM741 1635c17.333 64.667 49.6689 116.666 97.002 155.999s101 59 161 59c17.333 0 40.666 -3.83301 69.999 -11.5s56.333 -17.167 81 -28.5
c20 -9.33301 41.5 -17.166 64.5 -23.499s40.833 -9.5 53.5 -9.5c26.667 0 50.5 8 71.5 24s36.167 37.667 45.5 65h102c-16 -60 -48.167 -110.833 -96.5 -152.5s-99.5 -62.5 -153.5 -62.5c-16.667 0 -40.334 4 -71.001 12s-60 17.667 -88 29
c-21.333 8.66699 -43.833 16.167 -67.5 22.5s-41.5 9.5 -53.5 9.5c-26 0 -50.333 -8.66699 -73 -26s-37.667 -38.333 -45 -63h-98z" />
    <glyph glyph-name="Ograve" unicode="&#xd2;" horiz-adv-x="1593" 
d="M790 -40c-178 0 -318.333 50.3311 -421 150.998s-154 238 -154 412c0 276.667 86.5 510.334 259.5 701.001s384.833 286 635.5 286c179.333 0 320.833 -48.667 424.5 -146s155.5 -229.666 155.5 -396.999v-4c0 -280.667 -87.333 -518 -262 -712
c-173.333 -194 -386 -291 -638 -291v0zM825 132.998c180 0 334.669 77.5 464.002 232.5s194 340.167 194 555.5c0 128.667 -36.5 230.167 -109.5 304.5s-172.833 111.5 -299.5 111.5c-178.667 0 -332.167 -76.333 -460.5 -229s-192.5 -335 -192.5 -547
c-0.666992 -132.667 35.166 -237.167 107.499 -313.5s171.166 -114.5 296.499 -114.5v0zM1089 1613l-204 289h220l122 -289h-138z" />
    <glyph glyph-name="Oacute" unicode="&#xd3;" horiz-adv-x="1593" 
d="M790 -40c-178 0 -318.333 50.3311 -421 150.998s-154 238 -154 412c0 276.667 86.5 510.334 259.5 701.001s384.833 286 635.5 286c179.333 0 320.833 -48.667 424.5 -146s155.5 -229.666 155.5 -396.999v-4c0 -280.667 -87.333 -518 -262 -712
c-173.333 -194 -386 -291 -638 -291v0zM825 132.998c180 0 334.669 77.5 464.002 232.5s194 340.167 194 555.5c0 128.667 -36.5 230.167 -109.5 304.5s-172.833 111.5 -299.5 111.5c-178.667 0 -332.167 -76.333 -460.5 -229s-192.5 -335 -192.5 -547
c-0.666992 -132.667 35.166 -237.167 107.499 -313.5s171.166 -114.5 296.499 -114.5v0zM1045 1613l246 289h218l-327 -289h-137z" />
    <glyph glyph-name="Ocircumflex" unicode="&#xd4;" horiz-adv-x="1593" 
d="M790 -40c-178 0 -318.333 50.3311 -421 150.998s-154 238 -154 412c0 276.667 86.5 510.334 259.5 701.001s384.833 286 635.5 286c179.333 0 320.833 -48.667 424.5 -146s155.5 -229.666 155.5 -396.999v-4c0 -280.667 -87.333 -518 -262 -712
c-173.333 -194 -386 -291 -638 -291v0zM825 132.998c180 0 334.669 77.5 464.002 232.5s194 340.167 194 555.5c0 128.667 -36.5 230.167 -109.5 304.5s-172.833 111.5 -299.5 111.5c-178.667 0 -332.167 -76.333 -460.5 -229s-192.5 -335 -192.5 -547
c-0.666992 -132.667 35.166 -237.167 107.499 -313.5s171.166 -114.5 296.499 -114.5v0zM1288 1903l146 -290h-163l-97 190v0l-174 -190h-164l266 290h93h93z" />
    <glyph glyph-name="Otilde" unicode="&#xd5;" horiz-adv-x="1593" 
d="M790 -40c-178 0 -318.333 50.3311 -421 150.998s-154 238 -154 412c0 276.667 86.5 510.334 259.5 701.001s384.833 286 635.5 286c179.333 0 320.833 -48.667 424.5 -146s155.5 -229.666 155.5 -396.999v-4c0 -280.667 -87.333 -518 -262 -712
c-173.333 -194 -386 -291 -638 -291v0zM825 132.998c180 0 334.669 77.5 464.002 232.5s194 340.167 194 555.5c0 128.667 -36.5 230.167 -109.5 304.5s-172.833 111.5 -299.5 111.5c-178.667 0 -332.167 -76.333 -460.5 -229s-192.5 -335 -192.5 -547
c-0.666992 -132.667 35.166 -237.167 107.499 -313.5s171.166 -114.5 296.499 -114.5v0zM786.002 1635c17.333 64.667 49.6689 116.666 97.002 155.999s101 59 161 59c17.333 0 40.666 -3.83301 69.999 -11.5s56.333 -17.167 81 -28.5
c20 -9.33301 41.5 -17.166 64.5 -23.499s40.833 -9.5 53.5 -9.5c26.667 0 50.5 8 71.5 24s36.167 37.667 45.5 65h102c-16 -60 -48.167 -110.833 -96.5 -152.5s-99.5 -62.5 -153.5 -62.5c-16.667 0 -40.334 4 -71.001 12s-60 17.667 -88 29
c-21.333 8.66699 -43.833 16.167 -67.5 22.5s-41.5 9.5 -53.5 9.5c-26 0 -50.333 -8.66699 -73 -26s-37.667 -38.333 -45 -63h-98z" />
    <glyph glyph-name="Odieresis" unicode="&#xd6;" horiz-adv-x="1593" 
d="M790 -40c-178 0 -318.333 50.3311 -421 150.998s-154 238 -154 412c0 276.667 86.5 510.334 259.5 701.001s384.833 286 635.5 286c179.333 0 320.833 -48.667 424.5 -146s155.5 -229.666 155.5 -396.999v-4c0 -280.667 -87.333 -518 -262 -712
c-173.333 -194 -386 -291 -638 -291v0zM825 132.998c180 0 334.669 77.5 464.002 232.5s194 340.167 194 555.5c0 128.667 -36.5 230.167 -109.5 304.5s-172.833 111.5 -299.5 111.5c-178.667 0 -332.167 -76.333 -460.5 -229s-192.5 -335 -192.5 -547
c-0.666992 -132.667 35.166 -237.167 107.499 -313.5s171.166 -114.5 296.499 -114.5v0zM923.002 1845h186l-44 -209h-186zM1255 1845h186l-44 -209h-186z" />
    <glyph glyph-name="multiply" unicode="&#xd7;" horiz-adv-x="1196" 
d="M682 412l-496 -411l-84 106l496 411l-326 411l128 106l326 -411l496 411l84 -106l-496 -411l326 -411l-128 -106z" />
    <glyph glyph-name="Oslash" unicode="&#xd8;" horiz-adv-x="1593" 
d="M939 671l-438 -388l31 -36c72 -76 170.667 -114 296 -114v0c180 0 334.667 77.5 464 232.5s194 340.167 194 555.5c0 76 -12.667 142.667 -38 200zM793 -40c-178 0 -318.666 50.332 -421.999 150.999l-29 31l-201 -179l-53 58l208 185
c-52 86.667 -78 192.334 -78 317.001c0 276.667 86.5 510.334 259.5 701.001s384.833 286 635.5 286c179.333 0 321 -49 425 -147l32 -30l196 174l52 -58l-204 -180c53.333 -82.667 79.666 -183.334 78.999 -302.001v-4c0 -280.667 -87.333 -518 -262 -712
c-173.333 -194 -386 -291 -638 -291v0zM1077 1337c-178.667 0 -332.167 -76.333 -460.5 -229s-192.5 -335 -192.5 -547c0 -79.333 12.333 -149 37 -209l505 447l441 390c-9.33301 14 -19.666 26.333 -30.999 37c-72.667 74 -172.334 111 -299.001 111z" />
    <glyph glyph-name="Ugrave" unicode="&#xd9;" horiz-adv-x="1479" 
d="M1424 514c-35.333 -170 -117.169 -304.834 -245.502 -404.501s-284.833 -149.5 -469.5 -149.5c-173.333 0 -299 49 -377 147c-53.333 67.333 -80 152 -80 254c0 47.333 5.66699 98.333 17 153l198 956v0h99h100v0l-190 -919c-11.333 -53.333 -17 -101.666 -17 -144.999
c0 -70.667 15 -127 45 -169c46.667 -68 134.334 -102 263.001 -102c120.667 0 221.334 36 302.001 108s135 174.667 163 308l190 919v0h100h100v0zM1044 1613l-204 289h220l122 -289h-138z" />
    <glyph glyph-name="Uacute" unicode="&#xda;" horiz-adv-x="1479" 
d="M1424 514c-35.333 -170 -117.169 -304.834 -245.502 -404.501s-284.833 -149.5 -469.5 -149.5c-173.333 0 -299 49 -377 147c-53.333 67.333 -80 152 -80 254c0 47.333 5.66699 98.333 17 153l198 956v0h99h100v0l-190 -919c-11.333 -53.333 -17 -101.666 -17 -144.999
c0 -70.667 15 -127 45 -169c46.667 -68 134.334 -102 263.001 -102c120.667 0 221.334 36 302.001 108s135 174.667 163 308l190 919v0h100h100v0zM999.997 1613l246 289h218l-327 -289h-137z" />
    <glyph glyph-name="Ucircumflex" unicode="&#xdb;" horiz-adv-x="1479" 
d="M1424 514c-35.333 -170 -117.169 -304.834 -245.502 -404.501s-284.833 -149.5 -469.5 -149.5c-173.333 0 -299 49 -377 147c-53.333 67.333 -80 152 -80 254c0 47.333 5.66699 98.333 17 153l198 956v0h99h100v0l-190 -919c-11.333 -53.333 -17 -101.666 -17 -144.999
c0 -70.667 15 -127 45 -169c46.667 -68 134.334 -102 263.001 -102c120.667 0 221.334 36 302.001 108s135 174.667 163 308l190 919v0h100h100v0zM1243 1903l146 -290h-163l-97 190v0l-174 -190h-164l266 290h93h93z" />
    <glyph glyph-name="Udieresis" unicode="&#xdc;" horiz-adv-x="1479" 
d="M1424 514c-35.333 -170 -117.169 -304.834 -245.502 -404.501s-284.833 -149.5 -469.5 -149.5c-173.333 0 -299 49 -377 147c-53.333 67.333 -80 152 -80 254c0 47.333 5.66699 98.333 17 153l198 956v0h99h100v0l-190 -919c-11.333 -53.333 -17 -101.666 -17 -144.999
c0 -70.667 15 -127 45 -169c46.667 -68 134.334 -102 263.001 -102c120.667 0 221.334 36 302.001 108s135 174.667 163 308l190 919v0h100h100v0zM877.997 1845h186l-44 -209h-186zM1210 1845h186l-44 -209h-186z" />
    <glyph glyph-name="Yacute" unicode="&#xdd;" horiz-adv-x="1366" 
d="M703 598l-361 872v0h116h117v0l271 -701v0l574 701v0h115h116v0l-752 -888v0l-120 -582h-99h-100zM953 1613l246 289h218l-327 -289h-137z" />
    <glyph glyph-name="Thorn" unicode="&#xde;" horiz-adv-x="1366" 
d="M176 0l304.001 1470v0h99h100v0l-51 -244v0l477 1c106 0 189.667 -27.167 251 -81.5s92 -128.5 92 -222.5c-0.666992 -153.333 -51.834 -283 -153.501 -389s-226.167 -159 -373.5 -159h-469v0l-77 -375v0h-99h-100v0zM1243 888
c0.666992 55.333 -18.833 97.833 -58.5 127.5s-96.5 44.5 -170.5 44.5h-420v0l-106 -514v0h414c100 0 181.667 32 245 96c64 64 96 146 96 246z" />
    <glyph glyph-name="germandbls" unicode="&#xdf;" horiz-adv-x="1251" 
d="M530 1028l-212 -1028v0h-90h-91v0l212 1028l14 64c26 125.333 89.167 223.5 189.5 294.5s226.166 106.5 377.499 106.5c146.667 0 257.667 -34 333 -102s101.666 -157.667 78.999 -269c-24 -115.333 -98 -212.666 -222 -291.999l-13 -9c27.333 -11.333 51.333 -25 72 -41
c88.667 -66.667 119.334 -166.667 92.001 -300c-33.333 -159.333 -105.166 -284 -215.499 -374s-246.833 -135 -409.5 -135c-15.333 0 -31.666 1.16699 -48.999 3.5s-35.666 5.5 -54.999 9.5v0l30 151v0c16.667 -2.66699 33 -4.66699 49 -6s31.667 -2 47 -2
c107.333 0 197 27.333 269 82s118 130.334 138 227.001c21.333 104.667 3.33301 180.334 -54 227.001c-34.667 28.667 -87.334 48 -158.001 58c-27.333 3.33301 -56.333 4.66602 -87 3.99902s-54.667 -3 -72 -7l34 163c18 -4.66699 41.5 -7 70.5 -7s55.833 2 80.5 6
c53.333 10 99.666 26 138.999 48c71.333 40 115 98.667 131 176c14 68.667 -2.5 123.834 -49.5 165.501s-116.167 62.5 -207.5 62.5c-109.333 0 -193.333 -24 -252 -72c-57.333 -47.333 -97.333 -124.666 -120 -231.999z" />
    <glyph glyph-name="agrave" unicode="&#xe0;" 
d="M410 -29c-88 0 -157.503 21.8291 -208.503 65.4961s-76.5 103.167 -76.5 178.5c0.666992 104.667 36.834 193.334 108.501 266.001s166.167 116.334 283.5 131.001l219 27l94 14c32 4.66699 58.333 17.834 79 39.501s34.667 51.167 42 88.5l1 3
c12 57.333 0.833008 99.666 -33.5 126.999s-93.166 41 -176.499 41c-74.667 0 -136.167 -16.5 -184.5 -49.5s-85.5 -83.833 -111.5 -152.5v0h-164v0c40.667 122.667 102.167 212.334 184.5 269.001s192.166 85 329.499 85c132.667 0 227 -26.667 283 -80
c40 -38.667 59.667 -90.334 59 -155.001c0.666992 -26.667 -2.33301 -55 -9 -85l-125 -601c-3.33301 -17.333 -0.5 -31.666 8.5 -42.999s22.5 -17 40.5 -17c5.33301 0 13.5 0.666992 24.5 2s22.5 3.33301 34.5 6l-27 -130c-17.333 -6 -36.666 -11.333 -57.999 -16
c-20 -4 -36.333 -6 -49 -6c-65.333 0 -110 19.333 -134 58c-14 24.667 -21.333 58.334 -22 101.001v0c-16.667 -16 -34.667 -31.333 -54 -46c-107.333 -80.667 -226.666 -121 -357.999 -121zM877.997 427.996l24 116.999v0c-55.333 -23.333 -114.333 -39.666 -177 -48.999
l-170 -24c-74.667 -10 -133 -35 -175 -75s-63 -90.667 -63 -152c0 -39.333 13.833 -69.833 41.5 -91.5s66.5 -32.5 116.5 -32.5c95.333 0 181 25.667 257 77c54 36 92.667 78.333 116 127c4.66699 10 9.66699 24.333 15 43c6 18.667 11 38.667 15 60zM769.997 1215l-204 289
h220l122 -289h-138z" />
    <glyph glyph-name="aacute" unicode="&#xe1;" 
d="M410 -29c-88 0 -157.503 21.8291 -208.503 65.4961s-76.5 103.167 -76.5 178.5c0.666992 104.667 36.834 193.334 108.501 266.001s166.167 116.334 283.5 131.001l219 27l94 14c32 4.66699 58.333 17.834 79 39.501s34.667 51.167 42 88.5l1 3
c12 57.333 0.833008 99.666 -33.5 126.999s-93.166 41 -176.499 41c-74.667 0 -136.167 -16.5 -184.5 -49.5s-85.5 -83.833 -111.5 -152.5v0h-164v0c40.667 122.667 102.167 212.334 184.5 269.001s192.166 85 329.499 85c132.667 0 227 -26.667 283 -80
c40 -38.667 59.667 -90.334 59 -155.001c0.666992 -26.667 -2.33301 -55 -9 -85l-125 -601c-3.33301 -17.333 -0.5 -31.666 8.5 -42.999s22.5 -17 40.5 -17c5.33301 0 13.5 0.666992 24.5 2s22.5 3.33301 34.5 6l-27 -130c-17.333 -6 -36.666 -11.333 -57.999 -16
c-20 -4 -36.333 -6 -49 -6c-65.333 0 -110 19.333 -134 58c-14 24.667 -21.333 58.334 -22 101.001v0c-16.667 -16 -34.667 -31.333 -54 -46c-107.333 -80.667 -226.666 -121 -357.999 -121zM877.997 427.996l24 116.999v0c-55.333 -23.333 -114.333 -39.666 -177 -48.999
l-170 -24c-74.667 -10 -133 -35 -175 -75s-63 -90.667 -63 -152c0 -39.333 13.833 -69.833 41.5 -91.5s66.5 -32.5 116.5 -32.5c95.333 0 181 25.667 257 77c54 36 92.667 78.333 116 127c4.66699 10 9.66699 24.333 15 43c6 18.667 11 38.667 15 60zM709.997 1215l246 289
h218l-327 -289h-137z" />
    <glyph glyph-name="acircumflex" unicode="&#xe2;" 
d="M410 -29c-88 0 -157.503 21.8291 -208.503 65.4961s-76.5 103.167 -76.5 178.5c0.666992 104.667 36.834 193.334 108.501 266.001s166.167 116.334 283.5 131.001l219 27l94 14c32 4.66699 58.333 17.834 79 39.501s34.667 51.167 42 88.5l1 3
c12 57.333 0.833008 99.666 -33.5 126.999s-93.166 41 -176.499 41c-74.667 0 -136.167 -16.5 -184.5 -49.5s-85.5 -83.833 -111.5 -152.5v0h-164v0c40.667 122.667 102.167 212.334 184.5 269.001s192.166 85 329.499 85c132.667 0 227 -26.667 283 -80
c40 -38.667 59.667 -90.334 59 -155.001c0.666992 -26.667 -2.33301 -55 -9 -85l-125 -601c-3.33301 -17.333 -0.5 -31.666 8.5 -42.999s22.5 -17 40.5 -17c5.33301 0 13.5 0.666992 24.5 2s22.5 3.33301 34.5 6l-27 -130c-17.333 -6 -36.666 -11.333 -57.999 -16
c-20 -4 -36.333 -6 -49 -6c-65.333 0 -110 19.333 -134 58c-14 24.667 -21.333 58.334 -22 101.001v0c-16.667 -16 -34.667 -31.333 -54 -46c-107.333 -80.667 -226.666 -121 -357.999 -121zM877.997 427.996l24 116.999v0c-55.333 -23.333 -114.333 -39.666 -177 -48.999
l-170 -24c-74.667 -10 -133 -35 -175 -75s-63 -90.667 -63 -152c0 -39.333 13.833 -69.833 41.5 -91.5s66.5 -32.5 116.5 -32.5c95.333 0 181 25.667 257 77c54 36 92.667 78.333 116 127c4.66699 10 9.66699 24.333 15 43c6 18.667 11 38.667 15 60zM951.997 1505l146 -290
h-163l-97 190v0l-174 -190h-164l266 290h93h93z" />
    <glyph glyph-name="atilde" unicode="&#xe3;" 
d="M410 -29c-88 0 -157.503 21.8291 -208.503 65.4961s-76.5 103.167 -76.5 178.5c0.666992 104.667 36.834 193.334 108.501 266.001s166.167 116.334 283.5 131.001l219 27l94 14c32 4.66699 58.333 17.834 79 39.501s34.667 51.167 42 88.5l1 3
c12 57.333 0.833008 99.666 -33.5 126.999s-93.166 41 -176.499 41c-74.667 0 -136.167 -16.5 -184.5 -49.5s-85.5 -83.833 -111.5 -152.5v0h-164v0c40.667 122.667 102.167 212.334 184.5 269.001s192.166 85 329.499 85c132.667 0 227 -26.667 283 -80
c40 -38.667 59.667 -90.334 59 -155.001c0.666992 -26.667 -2.33301 -55 -9 -85l-125 -601c-3.33301 -17.333 -0.5 -31.666 8.5 -42.999s22.5 -17 40.5 -17c5.33301 0 13.5 0.666992 24.5 2s22.5 3.33301 34.5 6l-27 -130c-17.333 -6 -36.666 -11.333 -57.999 -16
c-20 -4 -36.333 -6 -49 -6c-65.333 0 -110 19.333 -134 58c-14 24.667 -21.333 58.334 -22 101.001v0c-16.667 -16 -34.667 -31.333 -54 -46c-107.333 -80.667 -226.666 -121 -357.999 -121zM877.997 427.996l24 116.999v0c-55.333 -23.333 -114.333 -39.666 -177 -48.999
l-170 -24c-74.667 -10 -133 -35 -175 -75s-63 -90.667 -63 -152c0 -39.333 13.833 -69.833 41.5 -91.5s66.5 -32.5 116.5 -32.5c95.333 0 181 25.667 257 77c54 36 92.667 78.333 116 127c4.66699 10 9.66699 24.333 15 43c6 18.667 11 38.667 15 60zM453.997 1237
c17.333 64.667 49.666 116.666 96.999 155.999s101 59 161 59c18 0 41.667 -3.83301 71 -11.5s56 -17.167 80 -28.5c20.667 -9.33301 42.334 -17.166 65.001 -23.499s40.334 -9.5 53.001 -9.5c26.667 0 50.5 8 71.5 24s36.167 37.667 45.5 65h102
c-16 -60 -48.167 -110.833 -96.5 -152.5s-99.5 -62.5 -153.5 -62.5c-16.667 0 -40.334 4 -71.001 12s-60 17.667 -88 29c-21.333 8.66699 -43.833 16.167 -67.5 22.5s-41.5 9.5 -53.5 9.5c-26 0 -50.333 -8.66699 -73 -26s-37.667 -38.333 -45 -63h-98z" />
    <glyph glyph-name="adieresis" unicode="&#xe4;" 
d="M410 -29c-88 0 -157.503 21.8291 -208.503 65.4961s-76.5 103.167 -76.5 178.5c0.666992 104.667 36.834 193.334 108.501 266.001s166.167 116.334 283.5 131.001l219 27l94 14c32 4.66699 58.333 17.834 79 39.501s34.667 51.167 42 88.5l1 3
c12 57.333 0.833008 99.666 -33.5 126.999s-93.166 41 -176.499 41c-74.667 0 -136.167 -16.5 -184.5 -49.5s-85.5 -83.833 -111.5 -152.5v0h-164v0c40.667 122.667 102.167 212.334 184.5 269.001s192.166 85 329.499 85c132.667 0 227 -26.667 283 -80
c40 -38.667 59.667 -90.334 59 -155.001c0.666992 -26.667 -2.33301 -55 -9 -85l-125 -601c-3.33301 -17.333 -0.5 -31.666 8.5 -42.999s22.5 -17 40.5 -17c5.33301 0 13.5 0.666992 24.5 2s22.5 3.33301 34.5 6l-27 -130c-17.333 -6 -36.666 -11.333 -57.999 -16
c-20 -4 -36.333 -6 -49 -6c-65.333 0 -110 19.333 -134 58c-14 24.667 -21.333 58.334 -22 101.001v0c-16.667 -16 -34.667 -31.333 -54 -46c-107.333 -80.667 -226.666 -121 -357.999 -121zM877.997 427.996l24 116.999v0c-55.333 -23.333 -114.333 -39.666 -177 -48.999
l-170 -24c-74.667 -10 -133 -35 -175 -75s-63 -90.667 -63 -152c0 -39.333 13.833 -69.833 41.5 -91.5s66.5 -32.5 116.5 -32.5c95.333 0 181 25.667 257 77c54 36 92.667 78.333 116 127c4.66699 10 9.66699 24.333 15 43c6 18.667 11 38.667 15 60zM603.997 1447h186
l-44 -209h-186zM935.997 1447h186l-44 -209h-186z" />
    <glyph glyph-name="aring" unicode="&#xe5;" 
d="M410 -29c-88 0 -157.503 21.8291 -208.503 65.4961s-76.5 103.167 -76.5 178.5c0.666992 104.667 36.834 193.334 108.501 266.001s166.167 116.334 283.5 131.001l219 27l94 14c32 4.66699 58.333 17.834 79 39.501s34.667 51.167 42 88.5l1 3
c12 57.333 0.833008 99.666 -33.5 126.999s-93.166 41 -176.499 41c-74.667 0 -136.167 -16.5 -184.5 -49.5s-85.5 -83.833 -111.5 -152.5v0h-164v0c40.667 122.667 102.167 212.334 184.5 269.001s192.166 85 329.499 85c132.667 0 227 -26.667 283 -80
c40 -38.667 59.667 -90.334 59 -155.001c0.666992 -26.667 -2.33301 -55 -9 -85l-125 -601c-3.33301 -17.333 -0.5 -31.666 8.5 -42.999s22.5 -17 40.5 -17c5.33301 0 13.5 0.666992 24.5 2s22.5 3.33301 34.5 6l-27 -130c-17.333 -6 -36.666 -11.333 -57.999 -16
c-20 -4 -36.333 -6 -49 -6c-65.333 0 -110 19.333 -134 58c-14 24.667 -21.333 58.334 -22 101.001v0c-16.667 -16 -34.667 -31.333 -54 -46c-107.333 -80.667 -226.666 -121 -357.999 -121zM877.997 427.996l24 116.999v0c-55.333 -23.333 -114.333 -39.666 -177 -48.999
l-170 -24c-74.667 -10 -133 -35 -175 -75s-63 -90.667 -63 -152c0 -39.333 13.833 -69.833 41.5 -91.5s66.5 -32.5 116.5 -32.5c95.333 0 181 25.667 257 77c54 36 92.667 78.333 116 127c4.66699 10 9.66699 24.333 15 43c6 18.667 11 38.667 15 60zM822.997 1171
c-52.667 0 -93.499 18.167 -122.499 54.5s-38.167 80.833 -27.5 133.5c11.333 52.667 38.833 97.167 82.5 133.5s91.834 54.5 144.501 54.5s93.5 -18.167 122.5 -54.5s37.833 -80.833 26.5 -133.5c-10.667 -52.667 -37.834 -97.167 -81.501 -133.5
s-91.834 -54.5 -144.501 -54.5v0zM838.998 1253c30 0 57.332 10.167 81.999 30.5s40 45.5 46 75.5c6.66699 30 1.83398 55.167 -14.499 75.5s-39.5 30.5 -69.5 30.5s-57.167 -10.167 -81.5 -30.5s-39.833 -45.5 -46.5 -75.5c-6 -30 -1 -55.167 15 -75.5s39 -30.5 69 -30.5v0
z" />
    <glyph glyph-name="ae" unicode="&#xe6;" horiz-adv-x="1821" 
d="M787 1104c130.667 0 223.33 -26.6641 277.997 -79.9971c21.333 -20.667 36.333 -45.334 45 -74.001v0c111.333 102.667 246.666 154 405.999 154c114.667 0 203.5 -32.833 266.5 -98.5s94.5 -158.167 94.5 -277.5c0.666992 -89.333 -10 -174 -32 -254v0h-801v0l-3 -31
c-2.66699 -23.333 -4 -45.333 -4 -66c0 -80.667 21.167 -142.5 63.5 -185.5s103.166 -64.5 182.499 -64.5c80 0 151.667 19.833 215 59.5s107 91.834 131 156.501v0h175v0c-42.667 -116.667 -112.5 -207.834 -209.5 -273.501s-210.833 -98.5 -341.5 -98.5
c-122 0 -217.667 33.333 -287 100c-31.333 30.667 -55.666 66.334 -72.999 107.001v0c-29.333 -30.667 -62.666 -59.334 -99.999 -86.001c-114.667 -80.667 -242.667 -121 -384 -121c-88 0 -157.333 21.833 -208 65.5s-76 103.167 -76 178.5
c0 105.333 35.333 194.666 106 267.999s164 117 280 131l212 26c43.333 5.33301 82.333 11.333 117 18c28.667 5.33301 52.334 18.166 71.001 38.499s31.334 46.833 38.001 79.5l2 8c12 57.333 0.833008 99.666 -33.5 126.999s-93.166 41 -176.499 41
c-74.667 0 -136.167 -16.5 -184.5 -49.5s-85.5 -83.833 -111.5 -152.5v0h-164v0c40.667 122.667 101.5 212.334 182.5 269.001s188.833 85 323.5 85zM874.996 419.003l28 135.001v0c-59.333 -28.667 -123 -47.667 -191 -57l-161 -22
c-73.333 -10 -130.5 -35.167 -171.5 -75.5s-61.833 -91.5 -62.5 -153.5c0 -40 14 -70.833 42 -92.5s67.333 -32.5 118 -32.5c94.667 0 179.667 25.667 255 77c54 36.667 92.667 79 116 127c4 8.66699 8.66699 21.667 14 39c4.66699 17.333 9 35.666 13 54.999zM1693 618.004
c3.33301 28 5 55.667 5 83c0 78.667 -21.167 138.5 -63.5 179.5s-103.833 61.5 -184.5 61.5c-94.667 0 -178 -38.667 -250 -116c-50.667 -54.667 -91 -124 -121 -208v0h614z" />
    <glyph glyph-name="ccedilla" unicode="&#xe7;" horiz-adv-x="1024" 
d="M1057 375c-46 -126.667 -115.168 -225.666 -207.501 -296.999s-197.5 -107 -315.5 -107c-119.333 0 -212.833 33 -280.5 99s-101.5 156.333 -101.5 271v4c-0.666992 24 0.833008 50.667 4.5 80s8.16699 57.666 13.5 84.999c38.667 186 114 331.5 226 436.5
s248.667 157.5 410 157.5c117.333 0 203 -33.667 257 -101c44 -54.667 66.333 -129.667 67 -225l-4 -70v0h-174v0c4 77.333 -10.667 136 -44 176s-84 60 -152 60c-98.667 0 -181.167 -36.333 -247.5 -109s-114.166 -179 -143.499 -319
c-5.33301 -25.333 -9.33301 -50.333 -12 -75s-4 -47 -4 -67c0 -78.667 19.333 -139.5 58 -182.5s93 -64.5 163 -64.5c68 0 129.333 21.833 184 65.5s96 104.5 124 182.5v0h179zM565.999 2.00098l-120 -128.001v0l63 8c53.333 0 92.333 -13.667 117 -41s32 -65 22 -113
c-11.333 -55.333 -43.166 -100.666 -95.499 -135.999s-113.833 -53 -184.5 -53c-24 0 -53.667 4.33301 -89 13s-68.333 19.667 -99 33l51 83c20 -9.33301 41.833 -16.833 65.5 -22.5s44.167 -8.5 61.5 -8.5c39.333 0 69.833 7 91.5 21s35.5 35.667 41.5 65
c4 20 -2.33301 38.167 -19 54.5s-37.334 24.5 -62.001 24.5c-7.33301 0 -18.5 -1.5 -33.5 -4.5s-30.833 -6.83301 -47.5 -11.5l-25 38l167 178h95z" />
    <glyph glyph-name="egrave" unicode="&#xe8;" 
d="M563 -29c-122 0 -217.5 33.167 -286.5 99.5s-103.833 158.5 -104.5 276.5c0 22.667 1.66699 48.5 5 77.5s8 57.5 14 85.5c38.667 186 114 331.5 226 436.5s248.333 157.5 409 157.5c114.667 0 203.5 -32.833 266.5 -98.5s94.5 -158.167 94.5 -277.5
c0.666992 -89.333 -10 -174 -32 -254v0h-782v0l-5 -34c-3.33301 -26 -5 -50.333 -5 -73c0 -80 19.833 -140 59.5 -180s99.167 -60 178.5 -60c78 0 147.833 19.833 209.5 59.5s104.5 91.834 128.5 156.501v0h175v0c-42.667 -116.667 -112.5 -207.834 -209.5 -273.501
s-210.833 -98.5 -341.5 -98.5zM1004 618c2.66699 28.667 4.00098 57 4.00098 85c0 78 -20.333 137.333 -61 178s-100.334 61 -179.001 61c-90 0 -170.667 -38.333 -242 -115c-52 -56 -92.333 -125.667 -121 -209v0h599zM812.001 1215l-204 289h220l122 -289h-138z" />
    <glyph glyph-name="eacute" unicode="&#xe9;" 
d="M563 -29c-122 0 -217.5 33.167 -286.5 99.5s-103.833 158.5 -104.5 276.5c0 22.667 1.66699 48.5 5 77.5s8 57.5 14 85.5c38.667 186 114 331.5 226 436.5s248.333 157.5 409 157.5c114.667 0 203.5 -32.833 266.5 -98.5s94.5 -158.167 94.5 -277.5
c0.666992 -89.333 -10 -174 -32 -254v0h-782v0l-5 -34c-3.33301 -26 -5 -50.333 -5 -73c0 -80 19.833 -140 59.5 -180s99.167 -60 178.5 -60c78 0 147.833 19.833 209.5 59.5s104.5 91.834 128.5 156.501v0h175v0c-42.667 -116.667 -112.5 -207.834 -209.5 -273.501
s-210.833 -98.5 -341.5 -98.5zM1004 618c2.66699 28.667 4.00098 57 4.00098 85c0 78 -20.333 137.333 -61 178s-100.334 61 -179.001 61c-90 0 -170.667 -38.333 -242 -115c-52 -56 -92.333 -125.667 -121 -209v0h599zM752.001 1215l246 289h218l-327 -289h-137z" />
    <glyph glyph-name="ecircumflex" unicode="&#xea;" 
d="M563 -29c-122 0 -217.5 33.167 -286.5 99.5s-103.833 158.5 -104.5 276.5c0 22.667 1.66699 48.5 5 77.5s8 57.5 14 85.5c38.667 186 114 331.5 226 436.5s248.333 157.5 409 157.5c114.667 0 203.5 -32.833 266.5 -98.5s94.5 -158.167 94.5 -277.5
c0.666992 -89.333 -10 -174 -32 -254v0h-782v0l-5 -34c-3.33301 -26 -5 -50.333 -5 -73c0 -80 19.833 -140 59.5 -180s99.167 -60 178.5 -60c78 0 147.833 19.833 209.5 59.5s104.5 91.834 128.5 156.501v0h175v0c-42.667 -116.667 -112.5 -207.834 -209.5 -273.501
s-210.833 -98.5 -341.5 -98.5zM1004 618c2.66699 28.667 4.00098 57 4.00098 85c0 78 -20.333 137.333 -61 178s-100.334 61 -179.001 61c-90 0 -170.667 -38.333 -242 -115c-52 -56 -92.333 -125.667 -121 -209v0h599zM994.001 1505l146 -290h-163l-97 190v0l-174 -190
h-164l266 290h93h93z" />
    <glyph glyph-name="edieresis" unicode="&#xeb;" 
d="M563 -29c-122 0 -217.5 33.167 -286.5 99.5s-103.833 158.5 -104.5 276.5c0 22.667 1.66699 48.5 5 77.5s8 57.5 14 85.5c38.667 186 114 331.5 226 436.5s248.333 157.5 409 157.5c114.667 0 203.5 -32.833 266.5 -98.5s94.5 -158.167 94.5 -277.5
c0.666992 -89.333 -10 -174 -32 -254v0h-782v0l-5 -34c-3.33301 -26 -5 -50.333 -5 -73c0 -80 19.833 -140 59.5 -180s99.167 -60 178.5 -60c78 0 147.833 19.833 209.5 59.5s104.5 91.834 128.5 156.501v0h175v0c-42.667 -116.667 -112.5 -207.834 -209.5 -273.501
s-210.833 -98.5 -341.5 -98.5zM1004 618c2.66699 28.667 4.00098 57 4.00098 85c0 78 -20.333 137.333 -61 178s-100.334 61 -179.001 61c-90 0 -170.667 -38.333 -242 -115c-52 -56 -92.333 -125.667 -121 -209v0h599zM646.001 1447h186l-44 -209h-186zM978.001 1447h186
l-44 -209h-186z" />
    <glyph glyph-name="igrave" unicode="&#xec;" horiz-adv-x="569" 
d="M195 0l221 1072v0h90h91v0l-221 -1072v0h-90h-91v0zM508 1215l-204 289h220l122 -289h-138z" />
    <glyph glyph-name="iacute" unicode="&#xed;" horiz-adv-x="569" 
d="M195 0l221 1072v0h90h91v0l-221 -1072v0h-90h-91v0zM448 1215l246 289h218l-327 -289h-137z" />
    <glyph glyph-name="icircumflex" unicode="&#xee;" horiz-adv-x="569" 
d="M195 0l221 1072v0h90h91v0l-221 -1072v0h-90h-91v0zM690 1505l146 -290h-163l-97 190v0l-174 -190h-164l266 290h93h93z" />
    <glyph glyph-name="idieresis" unicode="&#xef;" horiz-adv-x="569" 
d="M195 0l221 1072v0h90h91v0l-221 -1072v0h-90h-91v0zM342 1447h186l-44 -209h-186zM674 1447h186l-44 -209h-186z" />
    <glyph glyph-name="eth" unicode="&#xf0;" 
d="M565 -29c-123.333 0 -220.666 36.166 -291.999 108.499s-107 170.833 -107 295.5c0 186.667 59.667 350.167 179 490.5s258.666 210.5 417.999 210.5c108.667 0 194 -41.667 256 -125v0c-9.33301 44 -23.333 85.333 -42 124c-30 63.333 -72.333 123.333 -127 180
l-284 -124l-69 84l270 118c-44 34.667 -92.667 69 -146 103l164 78c54 -32.667 102.667 -69 146 -109l250 110l76 -82l-245 -107c55.333 -62 99.666 -130.333 132.999 -205c45.333 -101.333 68 -208.666 68 -321.999c0 -62 -7 -126.333 -21 -193
c-42 -203.333 -117.167 -360 -225.5 -470s-242.166 -165 -401.499 -165zM358 400.999c0 -86.667 20.834 -154.001 62.501 -202.001s100.5 -72 176.5 -72c113.333 0 209.166 49.833 287.499 149.5s117.5 221.834 117.5 366.501c0 86 -21.5 153.667 -64.5 203
s-101.833 74 -176.5 74c-107.333 0 -201.333 -52 -282 -156c-80.667 -103.333 -121 -224.333 -121 -363z" />
    <glyph glyph-name="ntilde" unicode="&#xf1;" 
d="M133 0l220.997 1072v0h86h86v0l-34 -167v0v0l49 52c99.333 98 206 147 320 147c124 0 210.667 -31.167 260 -93.5s61.333 -155.5 36 -279.5l-151 -731v0h-90h-91v0l145 703c16.667 80.667 12.334 140.334 -12.999 179.001s-72.666 58 -141.999 58
c-104.667 0 -189.167 -34.5 -253.5 -103.5s-111.166 -175.167 -140.499 -318.5v0l-107 -518v0h-90h-91v0zM475.997 1237c17.333 64.667 49.666 116.666 96.999 155.999s101 59 161 59c18 0 41.667 -3.83301 71 -11.5s56 -17.167 80 -28.5
c20.667 -9.33301 42.334 -17.166 65.001 -23.499s40.334 -9.5 53.001 -9.5c26.667 0 50.5 8 71.5 24s36.167 37.667 45.5 65h102c-16 -60 -48.167 -110.833 -96.5 -152.5s-99.5 -62.5 -153.5 -62.5c-16.667 0 -40.334 4 -71.001 12s-60 17.667 -88 29
c-21.333 8.66699 -43.833 16.167 -67.5 22.5s-41.5 9.5 -53.5 9.5c-26 0 -50.333 -8.66699 -73 -26s-37.667 -38.333 -45 -63h-98z" />
    <glyph glyph-name="ograve" unicode="&#xf2;" 
d="M564 -29c-121.333 0 -217.334 36.666 -288.001 109.999s-106 173.333 -106 300c0 202.667 60.833 373.834 182.5 513.501s270.167 209.5 445.5 209.5c123.333 0 220.333 -35.5 291 -106.5s106 -167.167 106 -288.5v-4c0.666992 -205.333 -60.166 -379 -182.499 -521
s-271.833 -213 -448.5 -213v0zM595.999 126.999c114 0 210.332 52.999 288.999 158.999s118 235.667 118 389c0 86.667 -20.667 153.834 -62 201.501s-99.666 71.5 -174.999 71.5c-113.333 0 -209.333 -52.667 -288 -158c-77.333 -104.667 -116.333 -233 -117 -385
c0 -88 20.5 -156.333 61.5 -205s98.833 -73 173.5 -73v0zM782.998 1215l-204 289h220l122 -289h-138z" />
    <glyph glyph-name="oacute" unicode="&#xf3;" 
d="M564 -29c-121.333 0 -217.334 36.666 -288.001 109.999s-106 173.333 -106 300c0 202.667 60.833 373.834 182.5 513.501s270.167 209.5 445.5 209.5c123.333 0 220.333 -35.5 291 -106.5s106 -167.167 106 -288.5v-4c0.666992 -205.333 -60.166 -379 -182.499 -521
s-271.833 -213 -448.5 -213v0zM595.999 126.999c114 0 210.332 52.999 288.999 158.999s118 235.667 118 389c0 86.667 -20.667 153.834 -62 201.501s-99.666 71.5 -174.999 71.5c-113.333 0 -209.333 -52.667 -288 -158c-77.333 -104.667 -116.333 -233 -117 -385
c0 -88 20.5 -156.333 61.5 -205s98.833 -73 173.5 -73v0zM722.998 1215l246 289h218l-327 -289h-137z" />
    <glyph glyph-name="ocircumflex" unicode="&#xf4;" 
d="M564 -29c-121.333 0 -217.334 36.666 -288.001 109.999s-106 173.333 -106 300c0 202.667 60.833 373.834 182.5 513.501s270.167 209.5 445.5 209.5c123.333 0 220.333 -35.5 291 -106.5s106 -167.167 106 -288.5v-4c0.666992 -205.333 -60.166 -379 -182.499 -521
s-271.833 -213 -448.5 -213v0zM595.999 126.999c114 0 210.332 52.999 288.999 158.999s118 235.667 118 389c0 86.667 -20.667 153.834 -62 201.501s-99.666 71.5 -174.999 71.5c-113.333 0 -209.333 -52.667 -288 -158c-77.333 -104.667 -116.333 -233 -117 -385
c0 -88 20.5 -156.333 61.5 -205s98.833 -73 173.5 -73v0zM964.998 1505l146 -290h-163l-97 190v0l-174 -190h-164l266 290h93h93z" />
    <glyph glyph-name="otilde" unicode="&#xf5;" 
d="M564 -29c-121.333 0 -217.334 36.666 -288.001 109.999s-106 173.333 -106 300c0 202.667 60.833 373.834 182.5 513.501s270.167 209.5 445.5 209.5c123.333 0 220.333 -35.5 291 -106.5s106 -167.167 106 -288.5v-4c0.666992 -205.333 -60.166 -379 -182.499 -521
s-271.833 -213 -448.5 -213v0zM595.999 126.999c114 0 210.332 52.999 288.999 158.999s118 235.667 118 389c0 86.667 -20.667 153.834 -62 201.501s-99.666 71.5 -174.999 71.5c-113.333 0 -209.333 -52.667 -288 -158c-77.333 -104.667 -116.333 -233 -117 -385
c0 -88 20.5 -156.333 61.5 -205s98.833 -73 173.5 -73v0zM466.998 1237c17.333 64.667 49.666 116.666 96.999 155.999s101 59 161 59c18 0 41.667 -3.83301 71 -11.5s56 -17.167 80 -28.5c20.667 -9.33301 42.334 -17.166 65.001 -23.499s40.334 -9.5 53.001 -9.5
c26.667 0 50.5 8 71.5 24s36.167 37.667 45.5 65h102c-16 -60 -48.167 -110.833 -96.5 -152.5s-99.5 -62.5 -153.5 -62.5c-16.667 0 -40.334 4 -71.001 12s-60 17.667 -88 29c-21.333 8.66699 -43.833 16.167 -67.5 22.5s-41.5 9.5 -53.5 9.5
c-26 0 -50.333 -8.66699 -73 -26s-37.667 -38.333 -45 -63h-98z" />
    <glyph glyph-name="odieresis" unicode="&#xf6;" 
d="M564 -29c-121.333 0 -217.334 36.666 -288.001 109.999s-106 173.333 -106 300c0 202.667 60.833 373.834 182.5 513.501s270.167 209.5 445.5 209.5c123.333 0 220.333 -35.5 291 -106.5s106 -167.167 106 -288.5v-4c0.666992 -205.333 -60.166 -379 -182.499 -521
s-271.833 -213 -448.5 -213v0zM595.999 126.999c114 0 210.332 52.999 288.999 158.999s118 235.667 118 389c0 86.667 -20.667 153.834 -62 201.501s-99.666 71.5 -174.999 71.5c-113.333 0 -209.333 -52.667 -288 -158c-77.333 -104.667 -116.333 -233 -117 -385
c0 -88 20.5 -156.333 61.5 -205s98.833 -73 173.5 -73v0zM616.998 1447h186l-44 -209h-186zM948.998 1447h186l-44 -209h-186z" />
    <glyph glyph-name="divide" unicode="&#xf7;" horiz-adv-x="1196" 
d="M650 238c38.667 0 68.667 -13.5 90 -40.5s28 -60.167 20 -99.5c-8 -38.667 -28.167 -71.5 -60.5 -98.5s-67.833 -40.5 -106.5 -40.5s-68.834 13.5 -90.501 40.5s-28.5 59.833 -20.5 98.5c8 39.333 28.333 72.5 61 99.5s68.334 40.5 107.001 40.5zM206 594h1036l-32 -151
h-1036zM824 1078c38.667 0 68.666 -13.5 89.999 -40.5s28 -60.167 20 -99.5c-8 -38.667 -28.667 -71.667 -62 -99c-32 -26.667 -67.333 -40 -106 -40s-68.667 13.5 -90 40.5s-28 59.833 -20 98.5c8 39.333 28.333 72.5 61 99.5s68.334 40.5 107.001 40.5z" />
    <glyph glyph-name="oslash" unicode="&#xf8;" horiz-adv-x="1251" 
d="M719 477l-268.001 -246l23 -31c40.667 -48.667 98.334 -73 173.001 -73v0c114 0 210.333 53 289 159s118 235.667 118 389c0.666992 36.667 -3 69.667 -11 99zM614.999 -29c-121.333 0 -217.667 36.666 -289 109.999l-18 18l-153 -142l-50 53l164 151
c-31.333 60.667 -47.333 134 -48 220c0 202.667 60.833 373.834 182.5 513.501s270.167 209.5 445.5 209.5c123.333 0 220.666 -35.667 291.999 -107l19 -19l149 137l50 -52l-160 -146c31.333 -58.667 47 -128 47 -208v-4c0.666992 -205.333 -60.166 -379 -182.499 -521
s-271.833 -213 -448.5 -213v0zM816.998 947.999c-113.333 0 -209.336 -52.667 -288.003 -158c-77.333 -104.667 -116.333 -233 -117 -385c0.666992 -38 4.33398 -72.333 11.001 -103l321 293l270 249c-5.33301 12 -12.666 23 -21.999 33
c-41.333 47.333 -99.666 71 -174.999 71z" />
    <glyph glyph-name="ugrave" unicode="&#xf9;" 
d="M538 1072l-146.001 -708.001c-16 -77.333 -10.833 -136.166 15.5 -176.499s72.833 -60.5 139.5 -60.5c104.667 0 189.167 35 253.5 105s111.5 177.667 141.5 323v0l107 517v0h90h91v0l-221 -1072v0h-86h-86v0l34 168v0v0c-17.333 -22 -35 -42 -53 -60
c-92 -91.333 -198 -137 -318 -137c-123.333 0 -209.666 31 -258.999 93c-32.667 40 -48.667 93.667 -48 161c0 35.333 4.33301 74 13 116l151 731v0h90h91v0zM794.999 1215l-204 289h220l122 -289h-138z" />
    <glyph glyph-name="uacute" unicode="&#xfa;" 
d="M538 1072l-146.001 -708.001c-16 -77.333 -10.833 -136.166 15.5 -176.499s72.833 -60.5 139.5 -60.5c104.667 0 189.167 35 253.5 105s111.5 177.667 141.5 323v0l107 517v0h90h91v0l-221 -1072v0h-86h-86v0l34 168v0v0c-17.333 -22 -35 -42 -53 -60
c-92 -91.333 -198 -137 -318 -137c-123.333 0 -209.666 31 -258.999 93c-32.667 40 -48.667 93.667 -48 161c0 35.333 4.33301 74 13 116l151 731v0h90h91v0zM734.999 1215l246 289h218l-327 -289h-137z" />
    <glyph glyph-name="ucircumflex" unicode="&#xfb;" 
d="M538 1072l-146.001 -708.001c-16 -77.333 -10.833 -136.166 15.5 -176.499s72.833 -60.5 139.5 -60.5c104.667 0 189.167 35 253.5 105s111.5 177.667 141.5 323v0l107 517v0h90h91v0l-221 -1072v0h-86h-86v0l34 168v0v0c-17.333 -22 -35 -42 -53 -60
c-92 -91.333 -198 -137 -318 -137c-123.333 0 -209.666 31 -258.999 93c-32.667 40 -48.667 93.667 -48 161c0 35.333 4.33301 74 13 116l151 731v0h90h91v0zM976.999 1505l146 -290h-163l-97 190v0l-174 -190h-164l266 290h93h93z" />
    <glyph glyph-name="udieresis" unicode="&#xfc;" 
d="M538 1072l-146.001 -708.001c-16 -77.333 -10.833 -136.166 15.5 -176.499s72.833 -60.5 139.5 -60.5c104.667 0 189.167 35 253.5 105s111.5 177.667 141.5 323v0l107 517v0h90h91v0l-221 -1072v0h-86h-86v0l34 168v0v0c-17.333 -22 -35 -42 -53 -60
c-92 -91.333 -198 -137 -318 -137c-123.333 0 -209.666 31 -258.999 93c-32.667 40 -48.667 93.667 -48 161c0 35.333 4.33301 74 13 116l151 731v0h90h91v0zM628.999 1447h186l-44 -209h-186zM960.999 1447h186l-44 -209h-186z" />
    <glyph glyph-name="yacute" unicode="&#xfd;" horiz-adv-x="1024" 
d="M1230 1072l-619 -1073c-112.667 -192.667 -196.167 -313.834 -250.5 -363.501s-130.166 -74.5 -227.499 -74.5c-40.667 0 -74.667 5.66699 -102 17l34 164c26 -12 62.333 -18 109 -18c42 0 75.667 13.833 101 41.5s72.666 99.834 141.999 216.501v0l-169 1090v0h103h103
v0l102 -883v0v0l475 883v0h99h100v0zM681 1215l246 289h218l-327 -289h-137z" />
    <glyph glyph-name="thorn" unicode="&#xfe;" 
d="M420 1470h90h91v0l-115 -555v0l14 15c107.333 116 224.333 174 351 174c107.333 0 191.833 -34.5 253.5 -103.5s92.5 -163.5 92.5 -283.5c0 -208.667 -59.5 -385.167 -178.5 -529.5s-264.833 -216.5 -437.5 -216.5c-116.667 0 -203.667 48 -261 144v0l-110 -538v0h-90
h-91v0zM608 127c116 0 210.832 54.001 284.499 162.001s110.5 247 110.5 417c0 75.333 -19.667 133.666 -59 174.999s-95 62 -167 62c-87.333 0 -165 -40.333 -233 -121s-116.333 -190 -145 -328v0v0v0c-23.333 -112.667 -16.166 -202 21.501 -268s100.167 -99 187.5 -99z
" />
    <glyph glyph-name="ydieresis" unicode="&#xff;" horiz-adv-x="1024" 
d="M1230 1072l-619 -1073c-112.667 -192.667 -196.167 -313.834 -250.5 -363.501s-130.166 -74.5 -227.499 -74.5c-40.667 0 -74.667 5.66699 -102 17l34 164c26 -12 62.333 -18 109 -18c42 0 75.667 13.833 101 41.5s72.666 99.834 141.999 216.501v0l-169 1090v0h103h103
v0l102 -883v0v0l475 883v0h99h100v0zM575 1447h186l-44 -209h-186zM907 1447h186l-44 -209h-186z" />
    <glyph glyph-name="Amacron" unicode="&#x100;" horiz-adv-x="1366" 
d="M29 0l873 1470h111h112l213 -1470v0h-106h-107v0l-57 426v0h-587v0l-243 -426v0h-104h-105v0zM957 1251l-374 -650v0h463v0l-89 650v0v0zM718 1738h622l-25 -125h-622z" />
    <glyph glyph-name="amacron" unicode="&#x101;" 
d="M410 -29c-88 0 -157.503 21.8291 -208.503 65.4961s-76.5 103.167 -76.5 178.5c0.666992 104.667 36.834 193.334 108.501 266.001s166.167 116.334 283.5 131.001l219 27l94 14c32 4.66699 58.333 17.834 79 39.501s34.667 51.167 42 88.5l1 3
c12 57.333 0.833008 99.666 -33.5 126.999s-93.166 41 -176.499 41c-74.667 0 -136.167 -16.5 -184.5 -49.5s-85.5 -83.833 -111.5 -152.5v0h-164v0c40.667 122.667 102.167 212.334 184.5 269.001s192.166 85 329.499 85c132.667 0 227 -26.667 283 -80
c40 -38.667 59.667 -90.334 59 -155.001c0.666992 -26.667 -2.33301 -55 -9 -85l-125 -601c-3.33301 -17.333 -0.5 -31.666 8.5 -42.999s22.5 -17 40.5 -17c5.33301 0 13.5 0.666992 24.5 2s22.5 3.33301 34.5 6l-27 -130c-17.333 -6 -36.666 -11.333 -57.999 -16
c-20 -4 -36.333 -6 -49 -6c-65.333 0 -110 19.333 -134 58c-14 24.667 -21.333 58.334 -22 101.001v0c-16.667 -16 -34.667 -31.333 -54 -46c-107.333 -80.667 -226.666 -121 -357.999 -121zM877.997 427.996l24 116.999v0c-55.333 -23.333 -114.333 -39.666 -177 -48.999
l-170 -24c-74.667 -10 -133 -35 -175 -75s-63 -90.667 -63 -152c0 -39.333 13.833 -69.833 41.5 -91.5s66.5 -32.5 116.5 -32.5c95.333 0 181 25.667 257 77c54 36 92.667 78.333 116 127c4.66699 10 9.66699 24.333 15 43c6 18.667 11 38.667 15 60zM512.997 1340h622
l-25 -125h-622z" />
    <glyph glyph-name="Abreve" unicode="&#x102;" horiz-adv-x="1366" 
d="M29 0l873 1470h111h112l213 -1470v0h-106h-107v0l-57 426v0h-587v0l-243 -426v0h-104h-105v0zM957 1251l-374 -650v0h463v0l-89 650v0v0zM1004 1627c-90.667 0 -155.832 22.167 -195.499 66.5s-57.167 114.833 -52.5 211.5h101c6.66699 -58 24.5 -99.333 53.5 -124
s73.833 -37 134.5 -37c58.667 0 108.5 13.667 149.5 41s72.167 67.333 93.5 120h99c-24.667 -87.333 -70.834 -155.5 -138.501 -204.5s-149.167 -73.5 -244.5 -73.5z" />
    <glyph glyph-name="abreve" unicode="&#x103;" 
d="M410 -29c-88 0 -157.503 21.8291 -208.503 65.4961s-76.5 103.167 -76.5 178.5c0.666992 104.667 36.834 193.334 108.501 266.001s166.167 116.334 283.5 131.001l219 27l94 14c32 4.66699 58.333 17.834 79 39.501s34.667 51.167 42 88.5l1 3
c12 57.333 0.833008 99.666 -33.5 126.999s-93.166 41 -176.499 41c-74.667 0 -136.167 -16.5 -184.5 -49.5s-85.5 -83.833 -111.5 -152.5v0h-164v0c40.667 122.667 102.167 212.334 184.5 269.001s192.166 85 329.499 85c132.667 0 227 -26.667 283 -80
c40 -38.667 59.667 -90.334 59 -155.001c0.666992 -26.667 -2.33301 -55 -9 -85l-125 -601c-3.33301 -17.333 -0.5 -31.666 8.5 -42.999s22.5 -17 40.5 -17c5.33301 0 13.5 0.666992 24.5 2s22.5 3.33301 34.5 6l-27 -130c-17.333 -6 -36.666 -11.333 -57.999 -16
c-20 -4 -36.333 -6 -49 -6c-65.333 0 -110 19.333 -134 58c-14 24.667 -21.333 58.334 -22 101.001v0c-16.667 -16 -34.667 -31.333 -54 -46c-107.333 -80.667 -226.666 -121 -357.999 -121zM877.997 427.996l24 116.999v0c-55.333 -23.333 -114.333 -39.666 -177 -48.999
l-170 -24c-74.667 -10 -133 -35 -175 -75s-63 -90.667 -63 -152c0 -39.333 13.833 -69.833 41.5 -91.5s66.5 -32.5 116.5 -32.5c95.333 0 181 25.667 257 77c54 36 92.667 78.333 116 127c4.66699 10 9.66699 24.333 15 43c6 18.667 11 38.667 15 60zM797.997 1218
c-90.667 0 -155.835 22.167 -195.502 66.5s-57.167 114.833 -52.5 211.5h101c6.66699 -58 24.5 -99.333 53.5 -124s73.833 -37 134.5 -37c58.667 0 108.5 13.667 149.5 41s72.167 67.333 93.5 120h99c-25.333 -87.333 -71.666 -155.5 -138.999 -204.5
s-148.666 -73.5 -243.999 -73.5z" />
    <glyph glyph-name="Aogonek" unicode="&#x104;" horiz-adv-x="1366" 
d="M29 0l873 1470h111h112l213 -1470v0h-106h-107v0l-57 426v0h-587v0l-243 -426v0h-104h-105v0zM957 1251l-374 -650v0h463v0l-89 650v0v0zM845 -273c13.333 63.333 44.834 119.499 94.501 168.499s110.167 83.833 181.5 104.5h160
c-92.667 -41.333 -158.834 -80.5 -198.501 -117.5s-65.5 -83.5 -77.5 -139.5c-7.33301 -36 -4 -62.667 10 -80s39.667 -26 77 -26c19.333 0 41.5 2.5 66.5 7.5s49.833 12.167 74.5 21.5l18 -82c-36 -14 -73 -25.333 -111 -34c-36.667 -8 -68 -12 -94 -12
c-72 0 -126.333 17.333 -163 52c-37.333 34.667 -50 80.334 -38 137.001z" />
    <glyph glyph-name="aogonek" unicode="&#x105;" 
d="M410 -29c-88 0 -157.503 21.8291 -208.503 65.4961s-76.5 103.167 -76.5 178.5c0.666992 104.667 36.834 193.334 108.501 266.001s166.167 116.334 283.5 131.001l219 27l94 14c32 4.66699 58.333 17.834 79 39.501s34.667 51.167 42 88.5l1 3
c12 57.333 0.833008 99.666 -33.5 126.999s-93.166 41 -176.499 41c-74.667 0 -136.167 -16.5 -184.5 -49.5s-85.5 -83.833 -111.5 -152.5v0h-164v0c40.667 122.667 102.167 212.334 184.5 269.001s192.166 85 329.499 85c132.667 0 227 -26.667 283 -80
c40 -38.667 59.667 -90.334 59 -155.001c0.666992 -26.667 -2.33301 -55 -9 -85l-125 -601c-3.33301 -17.333 -0.5 -31.666 8.5 -42.999s22.5 -17 40.5 -17c5.33301 0 13.5 0.666992 24.5 2s22.5 3.33301 34.5 6l-27 -130c-17.333 -6 -36.666 -11.333 -57.999 -16
c-20 -4 -36.333 -6 -49 -6c-65.333 0 -110 19.333 -134 58c-14 24.667 -21.333 58.334 -22 101.001v0c-16.667 -16 -34.667 -31.333 -54 -46c-107.333 -80.667 -226.666 -121 -357.999 -121zM877.997 427.996l24 116.999v0c-55.333 -23.333 -114.333 -39.666 -177 -48.999
l-170 -24c-74.667 -10 -133 -35 -175 -75s-63 -90.667 -63 -152c0 -39.333 13.833 -69.833 41.5 -91.5s66.5 -32.5 116.5 -32.5c95.333 0 181 25.667 257 77c54 36 92.667 78.333 116 127c4.66699 10 9.66699 24.333 15 43c6 18.667 11 38.667 15 60zM580.997 -273.005
c13.333 63.333 44.834 119.499 94.501 168.499s110.167 83.833 181.5 104.5h160c-92.667 -41.333 -158.834 -80.5 -198.501 -117.5s-65.5 -83.5 -77.5 -139.5c-7.33301 -36 -4 -62.667 10 -80s39.667 -26 77 -26c19.333 0 41.5 2.5 66.5 7.5s49.833 12.167 74.5 21.5l18 -82
c-36 -14 -73 -25.333 -111 -34c-36.667 -8 -68 -12 -94 -12c-72 0 -126.333 17.333 -163 52c-37.333 34.667 -50 80.334 -38 137.001z" />
    <glyph glyph-name="Cacute" unicode="&#x106;" horiz-adv-x="1479" 
d="M1516 544c-68 -186.667 -166.835 -330.665 -296.502 -431.998s-280.167 -152 -451.5 -152c-173.333 0 -307.833 47 -403.5 141s-143.5 226.333 -143.5 397c0 283.333 83.833 522.833 251.5 718.5s372.834 293.5 615.501 293.5c172.667 0 303.667 -41.667 393 -125
c82.667 -76.667 124 -184 124 -322l-1 -34v0h-195v0c4.66699 98.667 -23.833 174.667 -85.5 228s-152.167 80 -271.5 80c-171.333 0 -318.666 -80 -441.999 -240s-185 -351.333 -185 -574c-0.666992 -126.667 31.333 -223.334 96 -290.001s158.667 -100 282 -100
c118 0 221.833 35.667 311.5 107s158.5 172.666 206.5 303.999v0h195zM1037 1613l246 289h218l-327 -289h-137z" />
    <glyph glyph-name="cacute" unicode="&#x107;" horiz-adv-x="1024" 
d="M1057 375c-46 -126.667 -115.168 -225.666 -207.501 -296.999s-197.5 -107 -315.5 -107c-119.333 0 -212.833 33 -280.5 99s-101.5 156.333 -101.5 271v4c-0.666992 24 0.833008 50.667 4.5 80s8.16699 57.666 13.5 84.999c38.667 186 114 331.5 226 436.5
s248.667 157.5 410 157.5c117.333 0 203 -33.667 257 -101c44 -54.667 66.333 -129.667 67 -225l-4 -70v0h-174v0c4 77.333 -10.667 136 -44 176s-84 60 -152 60c-98.667 0 -181.167 -36.333 -247.5 -109s-114.166 -179 -143.499 -319
c-5.33301 -25.333 -9.33301 -50.333 -12 -75s-4 -47 -4 -67c0 -78.667 19.333 -139.5 58 -182.5s93 -64.5 163 -64.5c68 0 129.333 21.833 184 65.5s96 104.5 124 182.5v0h179zM740.999 1215l246 289h218l-327 -289h-137z" />
    <glyph glyph-name="Ccaron" unicode="&#x10c;" horiz-adv-x="1479" 
d="M1516 544c-68 -186.667 -166.835 -330.665 -296.502 -431.998s-280.167 -152 -451.5 -152c-173.333 0 -307.833 47 -403.5 141s-143.5 226.333 -143.5 397c0 283.333 83.833 522.833 251.5 718.5s372.834 293.5 615.501 293.5c172.667 0 303.667 -41.667 393 -125
c82.667 -76.667 124 -184 124 -322l-1 -34v0h-195v0c4.66699 98.667 -23.833 174.667 -85.5 228s-152.167 80 -271.5 80c-171.333 0 -318.666 -80 -441.999 -240s-185 -351.333 -185 -574c-0.666992 -126.667 31.333 -223.334 96 -290.001s158.667 -100 282 -100
c118 0 221.833 35.667 311.5 107s158.5 172.666 206.5 303.999v0h195zM1028 1613l-146 290h163l96 -190v0l175 190h164l-266 -290h-93h-93z" />
    <glyph glyph-name="ccaron" unicode="&#x10d;" horiz-adv-x="1024" 
d="M1057 375c-46 -126.667 -115.168 -225.666 -207.501 -296.999s-197.5 -107 -315.5 -107c-119.333 0 -212.833 33 -280.5 99s-101.5 156.333 -101.5 271v4c-0.666992 24 0.833008 50.667 4.5 80s8.16699 57.666 13.5 84.999c38.667 186 114 331.5 226 436.5
s248.667 157.5 410 157.5c117.333 0 203 -33.667 257 -101c44 -54.667 66.333 -129.667 67 -225l-4 -70v0h-174v0c4 77.333 -10.667 136 -44 176s-84 60 -152 60c-98.667 0 -181.167 -36.333 -247.5 -109s-114.166 -179 -143.499 -319
c-5.33301 -25.333 -9.33301 -50.333 -12 -75s-4 -47 -4 -67c0 -78.667 19.333 -139.5 58 -182.5s93 -64.5 163 -64.5c68 0 129.333 21.833 184 65.5s96 104.5 124 182.5v0h179zM736.999 1215l-146 290h163l96 -190v0l175 190h164l-266 -290h-93h-93z" />
    <glyph glyph-name="Dcaron" unicode="&#x10e;" horiz-adv-x="1479" 
d="M166 0l304 1470v0h99v0h473c167.333 0 296 -41.833 386 -125.5s135 -203.167 135 -358.5c0 -282.667 -77.667 -517.667 -233 -705s-350 -281 -584 -281h-481v0h-99v0zM400 173h381c160.667 0 296.834 74.333 408.501 223s167.5 330.667 167.5 546
c0 114 -30.333 201.667 -91 263s-147.334 92 -260.001 92h-373v0zM903 1613l-146 290h163l96 -190v0l175 190h164l-266 -290h-93h-93z" />
    <glyph glyph-name="dcaron" unicode="&#x10f;" horiz-adv-x="1280" 
d="M477 -29c-112.667 0 -201.667 35.832 -267 107.499s-98 169.834 -98 294.501c0 209.333 54.5 383.5 163.5 522.5s245.5 208.5 409.5 208.5c128.667 0 222 -57 280 -171l10 -21v0l116 558v0h90h91v0l-304 -1470v0h-86h-86v0l29 144v0l-24 -24
c-98.667 -99.333 -206.667 -149 -324 -149zM687 940.999c-114.667 0 -208.336 -52.332 -281.003 -156.999s-109 -239.334 -109 -404.001c0 -80.667 19.333 -143.167 58 -187.5s93 -66.5 163 -66.5c84.667 0 160.834 34.167 228.501 102.5s112.834 156.5 135.501 264.5
c30.667 149.333 29.834 261.333 -2.49902 336s-96.5 112 -192.5 112zM1374 1371l19.999 99h95h95l-35 -170c-19.333 -94 -49.666 -166.333 -90.999 -217s-96.666 -84 -165.999 -100v0l15 75v0c41.333 4 73.666 25.667 96.999 65c20 32.667 37.667 82 53 148v0h-9h-95z" />
    <glyph glyph-name="Dcroat" unicode="&#x110;" horiz-adv-x="1479" 
d="M171 0l138 667v0h-168l36 178h168v0l130 625v0h99v0h471c166.667 0 294.667 -41.833 384 -125.5s134 -203.167 134 -358.5c0 -282.667 -77.333 -517.667 -232 -705s-348.667 -281 -582 -281h-479v0h-99zM638 1297l-94 -452v0h395l-36 -178h-395v0l-103 -494v0h379
c160 0 295.333 74.5 406 223.5s166 331.167 166 546.5c0 114 -30 201.5 -90 262.5s-145.667 91.5 -257 91.5h-371z" />
    <glyph glyph-name="dcroat" unicode="&#x111;" 
d="M530 -29c-110.667 0 -197.832 35.667 -261.499 107s-95.834 169 -96.501 293c0.666992 210 54.834 384.667 162.501 524s242.5 209 404.5 209c127.333 0 219.666 -57 276.999 -171l4 -9v0l62 302h-350l30 144h350l21 100v0h90h91v0l-21 -100h120l-30 -144h-120
l-253 -1226v0h-90h-91v0l25 122l-3 -2c-97.333 -99.333 -204.333 -149 -321 -149zM742.002 941c-112.667 0 -205.001 -52.5 -277.001 -157.5s-108 -239.833 -108 -404.5c0 -80 19 -142.167 57 -186.5s91.333 -66.5 160 -66.5c82.667 0 157.167 34.167 223.5 102.5
s110.833 156.5 133.5 264.5c30.667 149.333 30.334 261.333 -0.999023 336s-94 112 -188 112z" />
    <glyph glyph-name="Emacron" unicode="&#x112;" horiz-adv-x="1366" 
d="M176 0l304 1470v0h1071v0l-17 -87l-16 -88v0h-875v0l-94 -451v0h807l-18 -87l-18 -88v0h-807v0l-102 -494v0h886v0l-19 -87l-20 -88v0h-1082zM706 1738h622l-25 -125h-622z" />
    <glyph glyph-name="emacron" unicode="&#x113;" 
d="M563 -29c-122 0 -217.5 33.167 -286.5 99.5s-103.833 158.5 -104.5 276.5c0 22.667 1.66699 48.5 5 77.5s8 57.5 14 85.5c38.667 186 114 331.5 226 436.5s248.333 157.5 409 157.5c114.667 0 203.5 -32.833 266.5 -98.5s94.5 -158.167 94.5 -277.5
c0.666992 -89.333 -10 -174 -32 -254v0h-782v0l-5 -34c-3.33301 -26 -5 -50.333 -5 -73c0 -80 19.833 -140 59.5 -180s99.167 -60 178.5 -60c78 0 147.833 19.833 209.5 59.5s104.5 91.834 128.5 156.501v0h175v0c-42.667 -116.667 -112.5 -207.834 -209.5 -273.501
s-210.833 -98.5 -341.5 -98.5zM1004 618c2.66699 28.667 4.00098 57 4.00098 85c0 78 -20.333 137.333 -61 178s-100.334 61 -179.001 61c-90 0 -170.667 -38.333 -242 -115c-52 -56 -92.333 -125.667 -121 -209v0h599zM555.001 1340h622l-25 -125h-622z" />
    <glyph glyph-name="Edotaccent" unicode="&#x116;" horiz-adv-x="1366" 
d="M176 0l304 1470v0h1071v0l-17 -87l-16 -88v0h-875v0l-94 -451v0h807l-18 -87l-18 -88v0h-807v0l-102 -494v0h886v0l-19 -87l-20 -88v0h-1082zM946 1844h186l-43 -209h-186z" />
    <glyph glyph-name="edotaccent" unicode="&#x117;" 
d="M563 -29c-122 0 -217.5 33.167 -286.5 99.5s-103.833 158.5 -104.5 276.5c0 22.667 1.66699 48.5 5 77.5s8 57.5 14 85.5c38.667 186 114 331.5 226 436.5s248.333 157.5 409 157.5c114.667 0 203.5 -32.833 266.5 -98.5s94.5 -158.167 94.5 -277.5
c0.666992 -89.333 -10 -174 -32 -254v0h-782v0l-5 -34c-3.33301 -26 -5 -50.333 -5 -73c0 -80 19.833 -140 59.5 -180s99.167 -60 178.5 -60c78 0 147.833 19.833 209.5 59.5s104.5 91.834 128.5 156.501v0h175v0c-42.667 -116.667 -112.5 -207.834 -209.5 -273.501
s-210.833 -98.5 -341.5 -98.5zM1004 618c2.66699 28.667 4.00098 57 4.00098 85c0 78 -20.333 137.333 -61 178s-100.334 61 -179.001 61c-90 0 -170.667 -38.333 -242 -115c-52 -56 -92.333 -125.667 -121 -209v0h599zM795.001 1446h186l-43 -209h-186z" />
    <glyph glyph-name="Eogonek" unicode="&#x118;" horiz-adv-x="1366" 
d="M176 0l304 1470v0h1071v0l-17 -87l-16 -88v0h-875v0l-94 -451v0h807l-18 -87l-18 -88v0h-807v0l-102 -494v0h886v0l-19 -87l-20 -88v0h-1082zM762 -273c13.333 63.333 44.834 119.499 94.501 168.499s110.167 83.833 181.5 104.5h160
c-92.667 -41.333 -158.834 -80.5 -198.501 -117.5s-65.5 -83.5 -77.5 -139.5c-7.33301 -36 -4 -62.667 10 -80s39.667 -26 77 -26c19.333 0 41.5 2.5 66.5 7.5s49.833 12.167 74.5 21.5l18 -82c-36 -14 -73 -25.333 -111 -34c-36.667 -8 -68 -12 -94 -12
c-72 0 -126.333 17.333 -163 52c-37.333 34.667 -50 80.334 -38 137.001z" />
    <glyph glyph-name="eogonek" unicode="&#x119;" 
d="M563 -29c-122 0 -217.5 33.167 -286.5 99.5s-103.833 158.5 -104.5 276.5c0 22.667 1.66699 48.5 5 77.5s8 57.5 14 85.5c38.667 186 114 331.5 226 436.5s248.333 157.5 409 157.5c114.667 0 203.5 -32.833 266.5 -98.5s94.5 -158.167 94.5 -277.5
c0.666992 -89.333 -10 -174 -32 -254v0h-782v0l-5 -34c-3.33301 -26 -5 -50.333 -5 -73c0 -80 19.833 -140 59.5 -180s99.167 -60 178.5 -60c78 0 147.833 19.833 209.5 59.5s104.5 91.834 128.5 156.501v0h175v0c-42.667 -116.667 -112.5 -207.834 -209.5 -273.501
s-210.833 -98.5 -341.5 -98.5zM1004 618c2.66699 28.667 4.00098 57 4.00098 85c0 78 -20.333 137.333 -61 178s-100.334 61 -179.001 61c-90 0 -170.667 -38.333 -242 -115c-52 -56 -92.333 -125.667 -121 -209v0h599zM317.001 -273
c13.333 63.333 44.834 119.499 94.501 168.499s110.167 83.833 181.5 104.5h160c-92.667 -41.333 -158.834 -80.5 -198.501 -117.5s-65.5 -83.5 -77.5 -139.5c-7.33301 -36 -4 -62.667 10 -80s39.667 -26 77 -26c19.333 0 41.5 2.5 66.5 7.5s49.833 12.167 74.5 21.5l18 -82
c-36 -14 -73 -25.333 -111 -34c-36.667 -8 -68 -12 -94 -12c-72 0 -126.333 17.333 -163 52c-37.333 34.667 -50 80.334 -38 137.001z" />
    <glyph glyph-name="Ecaron" unicode="&#x11a;" horiz-adv-x="1366" 
d="M176 0l304 1470v0h1071v0l-17 -87l-16 -88v0h-875v0l-94 -451v0h807l-18 -87l-18 -88v0h-807v0l-102 -494v0h886v0l-19 -87l-20 -88v0h-1082zM910 1613l-146 290h163l96 -190v0l175 190h164l-266 -290h-93h-93z" />
    <glyph glyph-name="ecaron" unicode="&#x11b;" 
d="M563 -29c-122 0 -217.5 33.167 -286.5 99.5s-103.833 158.5 -104.5 276.5c0 22.667 1.66699 48.5 5 77.5s8 57.5 14 85.5c38.667 186 114 331.5 226 436.5s248.333 157.5 409 157.5c114.667 0 203.5 -32.833 266.5 -98.5s94.5 -158.167 94.5 -277.5
c0.666992 -89.333 -10 -174 -32 -254v0h-782v0l-5 -34c-3.33301 -26 -5 -50.333 -5 -73c0 -80 19.833 -140 59.5 -180s99.167 -60 178.5 -60c78 0 147.833 19.833 209.5 59.5s104.5 91.834 128.5 156.501v0h175v0c-42.667 -116.667 -112.5 -207.834 -209.5 -273.501
s-210.833 -98.5 -341.5 -98.5zM1004 618c2.66699 28.667 4.00098 57 4.00098 85c0 78 -20.333 137.333 -61 178s-100.334 61 -179.001 61c-90 0 -170.667 -38.333 -242 -115c-52 -56 -92.333 -125.667 -121 -209v0h599zM748.001 1215l-146 290h163l96 -190v0l175 190h164
l-266 -290h-93h-93z" />
    <glyph glyph-name="Gbreve" unicode="&#x11e;" horiz-adv-x="1593" 
d="M782 -40c-172 0 -307.501 49.833 -406.501 149.5s-148.5 234.5 -148.5 404.5v4c0 278 85.833 512.833 257.5 704.5s381.834 287.5 630.501 287.5c164 0 293.833 -44.167 389.5 -132.5s140.167 -204.5 133.5 -348.5v0h-195v0c4.66699 94.667 -26.333 169.667 -93 225
s-159.334 83 -278.001 83c-175.333 0 -326.166 -79 -452.499 -237s-189.5 -346.667 -189.5 -566c-0.666992 -130.667 34 -231.167 104 -301.5s169.667 -105.5 299 -105.5c174 0 324.333 75 451 225c21.333 25.333 42.333 61.5 63 108.5s35.667 91.833 45 134.5l3 16v0h-465
l35 168h648l-161 -778h-130l-10 186v0c-148 -151.333 -324.667 -227 -530 -227zM1137 1627c-90.667 0 -155.832 22.167 -195.499 66.5s-57.167 114.833 -52.5 211.5h101c6.66699 -58 24.5 -99.333 53.5 -124s73.833 -37 134.5 -37c58.667 0 108.5 13.667 149.5 41
s72.167 67.333 93.5 120h99c-24.667 -87.333 -70.834 -155.5 -138.501 -204.5s-149.167 -73.5 -244.5 -73.5z" />
    <glyph glyph-name="gbreve" unicode="&#x11f;" 
d="M477 -299c103.333 0 185.832 29.833 247.499 89.5s104.834 151.5 129.501 275.5l12 55l-3 -3c-97.333 -98 -204.333 -147 -321 -147c-114 0 -202.5 33.667 -265.5 101s-94.5 162.333 -94.5 285c0.666992 214 55 392 163 534s243.333 213 406 213
c127.333 0 219.333 -57.667 276 -173l11 -22v0l33 163v0h172l-208 -1006c-34.667 -172 -103 -301.333 -205 -388s-236.333 -130 -403 -130c-112 0 -198.167 29 -258.5 87s-87.833 138.667 -82.5 242v0h178v0c-2.66699 -55.333 14.833 -98.5 52.5 -129.5
s91.167 -46.5 160.5 -46.5zM751.999 943c-113.333 0 -206.168 -51.833 -278.501 -155.5s-108.166 -237.167 -107.499 -400.5c0 -82.667 19 -146.667 57 -192s91.333 -68 160 -68c83.333 0 158.333 33.5 225 100.5s111 153.167 133 258.5
c31.333 149.333 30.833 262.833 -1.5 340.5s-94.833 116.5 -187.5 116.5zM773.997 1218c-90.667 0 -155.835 22.167 -195.502 66.5s-57.167 114.833 -52.5 211.5h101c6.66699 -58 24.5 -99.333 53.5 -124s73.833 -37 134.5 -37c58.667 0 108.5 13.667 149.5 41
s72.167 67.333 93.5 120h99c-25.333 -87.333 -71.666 -155.5 -138.999 -204.5s-148.666 -73.5 -243.999 -73.5z" />
    <glyph glyph-name="Gcommaaccent" unicode="&#x122;" horiz-adv-x="1593" 
d="M782 -40c-172 0 -307.501 49.833 -406.501 149.5s-148.5 234.5 -148.5 404.5v4c0 278 85.833 512.833 257.5 704.5s381.834 287.5 630.501 287.5c164 0 293.833 -44.167 389.5 -132.5s140.167 -204.5 133.5 -348.5v0h-195v0c4.66699 94.667 -26.333 169.667 -93 225
s-159.334 83 -278.001 83c-175.333 0 -326.166 -79 -452.499 -237s-189.5 -346.667 -189.5 -566c-0.666992 -130.667 34 -231.167 104 -301.5s169.667 -105.5 299 -105.5c174 0 324.333 75 451 225c21.333 25.333 42.333 61.5 63 108.5s35.667 91.833 45 134.5l3 16v0h-465
l35 168h648l-161 -778h-130l-10 186v0c-148 -151.333 -324.667 -227 -530 -227zM654.999 -241l19.999 99h95h95l-35 -170c-19.333 -94 -49.666 -166.333 -90.999 -217s-96.666 -84 -165.999 -100v0l15 75v0c41.333 4 73.666 25.667 96.999 65c20 32.667 37.667 82 53 148v0
h-9h-95z" />
    <glyph glyph-name="gcommaaccent" unicode="&#x123;" 
d="M477 -299c103.333 0 185.832 29.833 247.499 89.5s104.834 151.5 129.501 275.5l12 55l-3 -3c-97.333 -98 -204.333 -147 -321 -147c-114 0 -202.5 33.667 -265.5 101s-94.5 162.333 -94.5 285c0.666992 214 55 392 163 534s243.333 213 406 213
c127.333 0 219.333 -57.667 276 -173l11 -22v0l33 163v0h172l-208 -1006c-34.667 -172 -103 -301.333 -205 -388s-236.333 -130 -403 -130c-112 0 -198.167 29 -258.5 87s-87.833 138.667 -82.5 242v0h178v0c-2.66699 -55.333 14.833 -98.5 52.5 -129.5
s91.167 -46.5 160.5 -46.5zM751.999 943c-113.333 0 -206.168 -51.833 -278.501 -155.5s-108.166 -237.167 -107.499 -400.5c0 -82.667 19 -146.667 57 -192s91.333 -68 160 -68c83.333 0 158.333 33.5 225 100.5s111 153.167 133 258.5
c31.333 149.333 30.833 262.833 -1.5 340.5s-94.833 116.5 -187.5 116.5zM888.997 1314l-20.001 -99h-95h-95l35 170c19.333 94 49.5 166.333 90.5 217s96.5 84 166.5 100v0l-15 -75v0c-41.333 -4 -74 -25.667 -98 -65c-19.333 -32.667 -36.666 -82 -51.999 -148v0h9h95z
" />
    <glyph glyph-name="Imacron" unicode="&#x12a;" horiz-adv-x="569" 
d="M186 0l304 1470v0h99h100v0l-304 -1470v0h-99h-100v0zM333 1738h622l-25 -125h-622z" />
    <glyph glyph-name="imacron" unicode="&#x12b;" horiz-adv-x="455" 
d="M137 0l221 1072v0h90h91v0l-221 -1072v0h-90h-91v0zM193 1340h622l-25 -125h-622z" />
    <glyph glyph-name="Iogonek" unicode="&#x12e;" horiz-adv-x="569" 
d="M193 0l304 1470v0h99h100v0l-304 -1470v0h-99h-100v0zM-47 -273c13.333 63.333 44.834 119.499 94.501 168.499s110.167 83.833 181.5 104.5h160c-92.667 -41.333 -158.834 -80.5 -198.501 -117.5s-65.5 -83.5 -77.5 -139.5c-7.33301 -36 -4 -62.667 10 -80
s39.667 -26 77 -26c19.333 0 41.5 2.5 66.5 7.5s49.833 12.167 74.5 21.5l18 -82c-36 -14 -73 -25.333 -111 -34c-36.667 -8 -68 -12 -94 -12c-72 0 -126.333 17.333 -163 52c-37.333 34.667 -50 80.334 -38 137.001z" />
    <glyph glyph-name="iogonek" unicode="&#x12f;" horiz-adv-x="569" 
d="M184 0l221 1072v0h90h91v0l-221 -1072v0h-90h-91v0zM491 1470h182l-42 -203h-182zM-65 -273c13.333 63.333 44.834 119.499 94.501 168.499s110.167 83.833 181.5 104.5h160c-92.667 -41.333 -158.834 -80.5 -198.501 -117.5s-65.5 -83.5 -77.5 -139.5
c-7.33301 -36 -4 -62.667 10 -80s39.667 -26 77 -26c19.333 0 41.5 2.5 66.5 7.5s49.833 12.167 74.5 21.5l18 -82c-36 -14 -73 -25.333 -111 -34c-36.667 -8 -68 -12 -94 -12c-72 0 -126.333 17.333 -163 52c-37.333 34.667 -50 80.334 -38 137.001z" />
    <glyph glyph-name="Idotaccent" unicode="&#x130;" horiz-adv-x="569" 
d="M186 0l304 1470v0h99h100v0l-304 -1470v0h-99h-100v0zM573 1844h186l-43 -209h-186z" />
    <glyph glyph-name="dotlessi" unicode="&#x131;" horiz-adv-x="569" 
d="M195 0l221 1072v0h90h91v0l-221 -1072v0h-90h-91v0z" />
    <glyph glyph-name="Kcommaaccent" unicode="&#x136;" horiz-adv-x="1366" 
d="M156 0l304 1470v0h99h100v0l-148 -713v0l859 713v0h139h140v0l-730 -587v0l438 -883v0h-128h-128v0l-361 740v0l-279 -225v0l-106 -515v0h-99h-100v0zM593 -241l19.999 99h95h95l-35 -170c-19.333 -94 -49.666 -166.333 -90.999 -217s-96.666 -84 -165.999 -100v0l15 75
v0c41.333 4 73.666 25.667 96.999 65c20 32.667 37.667 82 53 148v0h-9h-95z" />
    <glyph glyph-name="kcommaaccent" unicode="&#x137;" horiz-adv-x="1024" 
d="M137 0l304 1470v0h90h91v0l-175 -844v0l552 446v0h117h118v0l-502 -400v0l299 -672v0h-116h-117v0l-223 548v0l-173 -138v0l-84 -410v0h-90h-91v0zM423 -241l19.999 99h95h95l-35 -170c-19.333 -94 -49.666 -166.333 -90.999 -217s-96.666 -84 -165.999 -100v0l15 75v0
c41.333 4 73.666 25.667 96.999 65c20 32.667 37.667 82 53 148v0h-9h-95z" />
    <glyph glyph-name="Lacute" unicode="&#x139;" 
d="M156 0l304 1470v0h99h100v0l-268 -1295v0h743v0l-19 -87l-20 -88v0h-939zM516 1613l246 289h218l-327 -289h-137z" />
    <glyph glyph-name="lacute" unicode="&#x13a;" horiz-adv-x="455" 
d="M137 0l304 1470v0h90h91v0l-304 -1470v0h-90h-91v0zM488 1613l246 289h218l-327 -289h-137z" />
    <glyph glyph-name="Lcommaaccent" unicode="&#x13b;" 
d="M156 0l304 1470v0h99h100v0l-268 -1295v0h743v0l-19 -87l-20 -88v0h-939zM490 -241l19.999 99h95h95l-35 -170c-19.333 -94 -49.666 -166.333 -90.999 -217s-96.666 -84 -165.999 -100v0l15 75v0c41.333 4 73.666 25.667 96.999 65c20 32.667 37.667 82 53 148v0h-9h-95z
" />
    <glyph glyph-name="lcommaaccent" unicode="&#x13c;" horiz-adv-x="455" 
d="M147 0l304 1470v0h90h91v0l-304 -1470v0h-90h-91v0zM102 -241l19.999 99h95h95l-35 -170c-19.333 -94 -49.666 -166.333 -90.999 -217s-96.666 -84 -165.999 -100v0l15 75v0c41.333 4 73.666 25.667 96.999 65c20 32.667 37.667 82 53 148v0h-9h-95z" />
    <glyph glyph-name="Lcaron" unicode="&#x13d;" 
d="M156 0l304 1470v0h99h100v0l-268 -1295v0h743v0l-19 -87l-20 -88v0h-939zM908 1371l19.999 99h95h95l-35 -170c-19.333 -94 -49.666 -166.333 -90.999 -217s-96.666 -84 -165.999 -100v0l15 75v0c41.333 4 73.666 25.667 96.999 65c20 32.667 37.667 82 53 148v0h-9h-95z
" />
    <glyph glyph-name="lcaron" unicode="&#x13e;" horiz-adv-x="682" 
d="M205 0l304 1470v0h90h91v0l-304 -1470v0h-90h-91v0zM791 1371l19.999 99h95h95l-35 -170c-19.333 -94 -49.666 -166.333 -90.999 -217s-96.666 -84 -165.999 -100v0l15 75v0c41.333 4 73.666 25.667 96.999 65c20 32.667 37.667 82 53 148v0h-9h-95z" />
    <glyph glyph-name="Lslash" unicode="&#x141;" 
d="M134 0l144 698l-214 -106l25 122l214 106l135 650v0h99h100v0l-112 -540l271 134l-25 -122l-271 -134l-131 -633v0h743v0l-19 -87l-20 -88v0h-939z" />
    <glyph glyph-name="lslash" unicode="&#x142;" horiz-adv-x="455" 
d="M118 0l142 688l-200 -99l25 119l199 98l138 664v0h90h91v0l-117 -564l198 98l-24 -119l-199 -98l-162 -787v0h-90h-91v0z" />
    <glyph glyph-name="Nacute" unicode="&#x143;" horiz-adv-x="1479" 
d="M347 0h-95h-96v0l304 1470v0h116h117v0l495 -1195v0v0l248 1195v0h95h96v0l-304 -1470h-113h-113l-502 1199v0v0zM1000 1613l246 289h218l-327 -289h-137z" />
    <glyph glyph-name="nacute" unicode="&#x144;" 
d="M133 0l220.997 1072v0h86h86v0l-34 -167v0v0l49 52c99.333 98 206 147 320 147c124 0 210.667 -31.167 260 -93.5s61.333 -155.5 36 -279.5l-151 -731v0h-90h-91v0l145 703c16.667 80.667 12.334 140.334 -12.999 179.001s-72.666 58 -141.999 58
c-104.667 0 -189.167 -34.5 -253.5 -103.5s-111.166 -175.167 -140.499 -318.5v0l-107 -518v0h-90h-91v0zM731.997 1215l246 289h218l-327 -289h-137z" />
    <glyph glyph-name="Ncommaaccent" unicode="&#x145;" horiz-adv-x="1479" 
d="M347 0h-95h-96v0l304 1470v0h116h117v0l495 -1195v0v0l248 1195v0h95h96v0l-304 -1470h-113h-113l-502 1199v0v0zM604 -241l19.999 99h95h95l-35 -170c-19.333 -94 -49.666 -166.333 -90.999 -217s-96.666 -84 -165.999 -100v0l15 75v0c41.333 4 73.666 25.667 96.999 65
c20 32.667 37.667 82 53 148v0h-9h-95z" />
    <glyph glyph-name="ncommaaccent" unicode="&#x146;" 
d="M133 0l220.997 1072v0h86h86v0l-34 -167v0v0l49 52c99.333 98 206 147 320 147c124 0 210.667 -31.167 260 -93.5s61.333 -155.5 36 -279.5l-151 -731v0h-90h-91v0l145 703c16.667 80.667 12.334 140.334 -12.999 179.001s-72.666 58 -141.999 58
c-104.667 0 -189.167 -34.5 -253.5 -103.5s-111.166 -175.167 -140.499 -318.5v0l-107 -518v0h-90h-91v0zM433.997 -241.001l19.999 99h95h95l-35 -170c-19.333 -94 -49.666 -166.333 -90.999 -217s-96.666 -84 -165.999 -100v0l15 75v0c41.333 4 73.666 25.667 96.999 65
c20 32.667 37.667 82 53 148v0h-9h-95z" />
    <glyph glyph-name="Ncaron" unicode="&#x147;" horiz-adv-x="1479" 
d="M347 0h-95h-96v0l304 1470v0h116h117v0l495 -1195v0v0l248 1195v0h95h96v0l-304 -1470h-113h-113l-502 1199v0v0zM991 1613l-146 290h163l96 -190v0l175 190h164l-266 -290h-93h-93z" />
    <glyph glyph-name="ncaron" unicode="&#x148;" 
d="M133 0l220.997 1072v0h86h86v0l-34 -167v0v0l49 52c99.333 98 206 147 320 147c124 0 210.667 -31.167 260 -93.5s61.333 -155.5 36 -279.5l-151 -731v0h-90h-91v0l145 703c16.667 80.667 12.334 140.334 -12.999 179.001s-72.666 58 -141.999 58
c-104.667 0 -189.167 -34.5 -253.5 -103.5s-111.166 -175.167 -140.499 -318.5v0l-107 -518v0h-90h-91v0zM727.997 1215l-146 290h163l96 -190v0l175 190h164l-266 -290h-93h-93z" />
    <glyph glyph-name="Omacron" unicode="&#x14c;" horiz-adv-x="1593" 
d="M790 -40c-178 0 -318.333 50.3311 -421 150.998s-154 238 -154 412c0 276.667 86.5 510.334 259.5 701.001s384.833 286 635.5 286c179.333 0 320.833 -48.667 424.5 -146s155.5 -229.666 155.5 -396.999v-4c0 -280.667 -87.333 -518 -262 -712
c-173.333 -194 -386 -291 -638 -291v0zM825 132.998c180 0 334.669 77.5 464.002 232.5s194 340.167 194 555.5c0 128.667 -36.5 230.167 -109.5 304.5s-172.833 111.5 -299.5 111.5c-178.667 0 -332.167 -76.333 -460.5 -229s-192.5 -335 -192.5 -547
c-0.666992 -132.667 35.166 -237.167 107.499 -313.5s171.166 -114.5 296.499 -114.5v0zM832.002 1738h622l-25 -125h-622z" />
    <glyph glyph-name="omacron" unicode="&#x14d;" 
d="M564 -29c-121.333 0 -217.334 36.666 -288.001 109.999s-106 173.333 -106 300c0 202.667 60.833 373.834 182.5 513.501s270.167 209.5 445.5 209.5c123.333 0 220.333 -35.5 291 -106.5s106 -167.167 106 -288.5v-4c0.666992 -205.333 -60.166 -379 -182.499 -521
s-271.833 -213 -448.5 -213v0zM595.999 126.999c114 0 210.332 52.999 288.999 158.999s118 235.667 118 389c0 86.667 -20.667 153.834 -62 201.501s-99.666 71.5 -174.999 71.5c-113.333 0 -209.333 -52.667 -288 -158c-77.333 -104.667 -116.333 -233 -117 -385
c0 -88 20.5 -156.333 61.5 -205s98.833 -73 173.5 -73v0zM525.998 1340h622l-25 -125h-622z" />
    <glyph glyph-name="Ohungarumlaut" unicode="&#x150;" horiz-adv-x="1593" 
d="M790 -40c-178 0 -318.333 50.3311 -421 150.998s-154 238 -154 412c0 276.667 86.5 510.334 259.5 701.001s384.833 286 635.5 286c179.333 0 320.833 -48.667 424.5 -146s155.5 -229.666 155.5 -396.999v-4c0 -280.667 -87.333 -518 -262 -712
c-173.333 -194 -386 -291 -638 -291v0zM825 132.998c180 0 334.669 77.5 464.002 232.5s194 340.167 194 555.5c0 128.667 -36.5 230.167 -109.5 304.5s-172.833 111.5 -299.5 111.5c-178.667 0 -332.167 -76.333 -460.5 -229s-192.5 -335 -192.5 -547
c-0.666992 -132.667 35.166 -237.167 107.499 -313.5s171.166 -114.5 296.499 -114.5v0zM814.002 1613l246 289h218l-327 -289h-137zM1187 1613l246 289h218l-327 -289h-137z" />
    <glyph glyph-name="ohungarumlaut" unicode="&#x151;" 
d="M564 -29c-121.333 0 -217.334 36.666 -288.001 109.999s-106 173.333 -106 300c0 202.667 60.833 373.834 182.5 513.501s270.167 209.5 445.5 209.5c123.333 0 220.333 -35.5 291 -106.5s106 -167.167 106 -288.5v-4c0.666992 -205.333 -60.166 -379 -182.499 -521
s-271.833 -213 -448.5 -213v0zM595.999 126.999c114 0 210.332 52.999 288.999 158.999s118 235.667 118 389c0 86.667 -20.667 153.834 -62 201.501s-99.666 71.5 -174.999 71.5c-113.333 0 -209.333 -52.667 -288 -158c-77.333 -104.667 -116.333 -233 -117 -385
c0 -88 20.5 -156.333 61.5 -205s98.833 -73 173.5 -73v0zM519.998 1215l246 289h218l-327 -289h-137zM892.998 1215l246 289h218l-327 -289h-137z" />
    <glyph glyph-name="OE" unicode="&#x152;" horiz-adv-x="2048" 
d="M1020 1509c129.333 0 230.666 -42.001 303.999 -126.001l20 -27v0l24 114h199v0h721v0l-17 -87l-16 -88v0h-724v0l-94 -451v0h693l-18 -87l-18 -88v0h-693v0l-102 -494v0h734v0l-19 -87l-20 -88v0h-731v0h-199l28 140v0c-118 -118 -256 -176.667 -414 -176
c-151.333 0 -268.666 43.333 -351.999 130s-125 209 -125 367c0 36.667 2.66699 77.834 8 123.501s12.666 91.5 21.999 137.5c48.667 236 145.334 426.333 290.001 571c144.667 144 311 216 499 216zM1001 1343c-144 0 -264.833 -55.502 -362.5 -166.502
s-168.5 -272.833 -212.5 -485.5c-8.66699 -39.333 -15 -76.666 -19 -111.999s-6 -68 -6 -98c-0.666992 -115.333 28.5 -202.666 87.5 -261.999s145.833 -89 260.5 -89c107.333 0 211 47.333 311 142c20.667 20 40.667 47.333 60 82c18.667 34.667 31 67 37 97l126 607
c6 28.667 6.5 59.5 1.5 92.5s-14.167 58.833 -27.5 77.5l-8 11c-59.333 69.333 -142 104 -248 104z" />
    <glyph glyph-name="oe" unicode="&#x153;" horiz-adv-x="1933" 
d="M796 1104c122.667 0 219.334 -35.6641 290.001 -106.997c29.333 -29.333 52.666 -63.333 69.999 -102v0c14.667 18.667 31 36 49 52c111.333 104.667 247.333 157 408 157c114.667 0 203.5 -32.833 266.5 -98.5s94.5 -158.167 94.5 -277.5
c0.666992 -89.333 -10 -174 -32 -254v0h-782v0l-5 -34c-3.33301 -26 -5 -50.333 -5 -73c0 -80 19.833 -140 59.5 -180s99.167 -60 178.5 -60c76 0 145.5 20.167 208.5 60.5s106.167 92.166 129.5 155.499v0h175v0c-42.667 -116.667 -112.5 -207.834 -209.5 -273.501
s-210.833 -98.5 -341.5 -98.5c-122 0 -217.667 33.333 -287 100c-28.667 27.333 -51.334 59.666 -68.001 96.999v0c-119.333 -131.333 -263.666 -197 -432.999 -197c-121.333 0 -217 36.5 -287 109.5s-105 172.833 -105 299.5c0 202.667 60.667 374 182 514
c120.667 140 268.667 210 444 210zM764 948.003c-112.667 0 -207.83 -52.5 -285.497 -157.5s-116.834 -233.5 -117.501 -385.5c0 -88 20.333 -156.333 61 -205s98 -73 172 -73c113.333 0 209.166 53 287.499 159s117.5 236 117.5 390c0 86 -20.667 153 -62 201
c-40.667 47.333 -98.334 71 -173.001 71zM1791 618.003c5.33301 31.333 7.66602 62 6.99902 92c0 75.333 -20.667 132.833 -62 172.5s-101.666 59.5 -180.999 59.5c-90 0 -170.667 -38.333 -242 -115c-52 -56 -92.333 -125.667 -121 -209v0h599z" />
    <glyph glyph-name="Racute" unicode="&#x154;" horiz-adv-x="1479" 
d="M180 0l303.999 1470v0h99v0h623c120 0 212.833 -24.667 278.5 -74s98.834 -118.666 99.501 -207.999c0 -152.667 -52 -277.667 -156 -375c-39.333 -36.667 -82.333 -66.334 -129 -89.001v0c27.333 -12 49.666 -26 66.999 -42c51.333 -48.667 67 -128.334 47 -239.001
l-47 -265c-7.33301 -42.667 -8.33301 -73.667 -3 -93s19.666 -36.666 42.999 -51.999l-6 -32h-241c-1.33301 26.667 0.666992 65.667 6 117s12.333 101 21 149l19 109c16.667 90.667 8.83398 156 -23.499 196s-92.166 60 -179.499 60h-493v0l-130 -632v0h-99h-100v0z
M543.999 801l492 -0.000976562c107.333 0 190 29.5 248 88.5s87 143.167 87 252.5c0 50.667 -18.833 89.834 -56.5 117.501s-90.5 41.5 -158.5 41.5h-508v0zM961.999 1613l246 289h218l-327 -289h-137z" />
    <glyph glyph-name="racute" unicode="&#x155;" horiz-adv-x="682" 
d="M158 0l220.999 1072v0h86h86v0l-41 -198v0v0c30.667 42 61.334 78.333 92.001 109c82 80.667 170 121 264 121c18 0 35 -2.33301 51 -7l-42 -187h-65c-81.333 0 -154.5 -27.333 -219.5 -82s-106.167 -123.334 -123.5 -206.001v0l-128 -622v0h-90h-91v0zM586.999 1215
l246 289h218l-327 -289h-137z" />
    <glyph glyph-name="Rcommaaccent" unicode="&#x156;" horiz-adv-x="1479" 
d="M180 0l303.999 1470v0h99v0h623c120 0 212.833 -24.667 278.5 -74s98.834 -118.666 99.501 -207.999c0 -152.667 -52 -277.667 -156 -375c-39.333 -36.667 -82.333 -66.334 -129 -89.001v0c27.333 -12 49.666 -26 66.999 -42c51.333 -48.667 67 -128.334 47 -239.001
l-47 -265c-7.33301 -42.667 -8.33301 -73.667 -3 -93s19.666 -36.666 42.999 -51.999l-6 -32h-241c-1.33301 26.667 0.666992 65.667 6 117s12.333 101 21 149l19 109c16.667 90.667 8.83398 156 -23.499 196s-92.166 60 -179.499 60h-493v0l-130 -632v0h-99h-100v0z
M543.999 801l492 -0.000976562c107.333 0 190 29.5 248 88.5s87 143.167 87 252.5c0 50.667 -18.833 89.834 -56.5 117.501s-90.5 41.5 -158.5 41.5h-508v0zM623.999 -241.001l19.999 99h95h95l-35 -170c-19.333 -94 -49.666 -166.333 -90.999 -217
s-96.666 -84 -165.999 -100v0l15 75v0c41.333 4 73.666 25.667 96.999 65c20 32.667 37.667 82 53 148v0h-9h-95z" />
    <glyph glyph-name="rcommaaccent" unicode="&#x157;" horiz-adv-x="682" 
d="M167 0l220.999 1072v0h86h86v0l-41 -198v0v0c30.667 42 61.334 78.333 92.001 109c82 80.667 170 121 264 121c18 0 35 -2.33301 51 -7l-42 -187h-65c-81.333 0 -154.5 -27.333 -219.5 -82s-106.167 -123.334 -123.5 -206.001v0l-128 -622v0h-90h-91v0zM121.999 -240.999
l19.999 99h95h95l-35 -170c-19.333 -94 -49.666 -166.333 -90.999 -217s-96.666 -84 -165.999 -100v0l15 75v0c41.333 4 73.666 25.667 96.999 65c20 32.667 37.667 82 53 148v0h-9h-95z" />
    <glyph glyph-name="Rcaron" unicode="&#x158;" horiz-adv-x="1479" 
d="M180 0l303.999 1470v0h99v0h623c120 0 212.833 -24.667 278.5 -74s98.834 -118.666 99.501 -207.999c0 -152.667 -52 -277.667 -156 -375c-39.333 -36.667 -82.333 -66.334 -129 -89.001v0c27.333 -12 49.666 -26 66.999 -42c51.333 -48.667 67 -128.334 47 -239.001
l-47 -265c-7.33301 -42.667 -8.33301 -73.667 -3 -93s19.666 -36.666 42.999 -51.999l-6 -32h-241c-1.33301 26.667 0.666992 65.667 6 117s12.333 101 21 149l19 109c16.667 90.667 8.83398 156 -23.499 196s-92.166 60 -179.499 60h-493v0l-130 -632v0h-99h-100v0z
M543.999 801l492 -0.000976562c107.333 0 190 29.5 248 88.5s87 143.167 87 252.5c0 50.667 -18.833 89.834 -56.5 117.501s-90.5 41.5 -158.5 41.5h-508v0zM952.999 1613l-146 290h163l96 -190v0l175 190h164l-266 -290h-93h-93z" />
    <glyph glyph-name="rcaron" unicode="&#x159;" horiz-adv-x="682" 
d="M158 0l220.999 1072v0h86h86v0l-41 -198v0v0c30.667 42 61.334 78.333 92.001 109c82 80.667 170 121 264 121c18 0 35 -2.33301 51 -7l-42 -187h-65c-81.333 0 -154.5 -27.333 -219.5 -82s-106.167 -123.334 -123.5 -206.001v0l-128 -622v0h-90h-91v0zM582.999 1215
l-146 290h163l96 -190v0l175 190h164l-266 -290h-93h-93z" />
    <glyph glyph-name="Sacute" unicode="&#x15a;" horiz-adv-x="1366" 
d="M1263 1044c19.333 94 2.99805 166.334 -49.002 217.001s-135.667 76 -251 76c-109.333 0 -196.833 -22 -262.5 -66s-107.167 -108.333 -124.5 -193c-12.667 -60 -3.33398 -104.333 27.999 -133c31.333 -28 100 -54.333 206 -79l245 -57
c128.667 -30 216.334 -77.667 263.001 -143c30.667 -43.333 46 -97.333 46 -162c0 -34 -4 -70.667 -12 -110c-27.333 -133.333 -100 -239 -218 -317c-116 -78 -260.333 -117 -433 -117c-194.667 0 -335.667 44 -423 132c-63.333 63.333 -94.666 146.666 -93.999 249.999
c0 39.333 4.66699 82 14 128v0h189v0c-22.667 -108 -3.66699 -191.167 57 -249.5s158 -87.5 292 -87.5c120.667 0 216.834 21.5 288.501 64.5s115.834 105.5 132.501 187.5c15.333 74.667 6 129 -28 163c-33.333 34 -108.333 64.667 -225 92l-245 57
c-118.667 28 -200.334 70 -245.001 126c-30.667 38 -46 86.333 -46 145c0 26 3 54 9 84c29.333 140.667 100 252.167 212 334.5s248.667 123.5 410 123.5c176 0 303 -40.333 381 -121c56.667 -58.667 85 -134.334 85 -227.001c0 -37.333 -4.33301 -76.666 -13 -117.999v0
h-189zM947.998 1613l246 289h218l-327 -289h-137z" />
    <glyph glyph-name="sacute" unicode="&#x15b;" horiz-adv-x="1024" 
d="M906 772c6 57.333 -8.49707 100.996 -43.4971 130.996s-89.167 45 -162.5 45c-72.667 0 -130.834 -13.333 -174.501 -40s-70.834 -65.667 -81.501 -117c-7.33301 -35.333 0.666992 -62.333 24 -81c22 -18 71 -37.333 147 -58l176 -47
c97.333 -26 163.666 -62.667 198.999 -110c24 -31.333 36 -70.666 36 -117.999c0 -22 -2.66699 -46 -8 -72c-20.667 -98 -77 -178.167 -169 -240.5s-200.333 -93.5 -325 -93.5c-154 0 -263 31 -327 93c-45.333 44.667 -68 104.334 -68 179.001c0 30.667 3.66699 64 11 100v0
h174v0c-10 -76 4 -131 42 -165s104.667 -51 200 -51c80.667 0 145 14.333 193 43s77.667 70.334 89 125.001c8 40.667 -1.66699 71.667 -29 93c-28 21.333 -87.333 44.333 -178 69l-176 47c-83.333 22.667 -140 54.667 -170 96c-20 28 -30 62.667 -30 104
c0 20.667 2.33301 42.667 7 66c20 98 74 178.167 162 240.5s190.667 93.5 308 93.5c122.667 0 213.667 -28 273 -84c51.333 -49.333 77 -117.666 77 -204.999l-2 -43v0h-174zM667.003 1215l246 289h218l-327 -289h-137z" />
    <glyph glyph-name="Scedilla" unicode="&#x15e;" horiz-adv-x="1366" 
d="M1263 1044c19.333 94 2.99805 166.334 -49.002 217.001s-135.667 76 -251 76c-109.333 0 -196.833 -22 -262.5 -66s-107.167 -108.333 -124.5 -193c-12.667 -60 -3.33398 -104.333 27.999 -133c31.333 -28 100 -54.333 206 -79l245 -57
c128.667 -30 216.334 -77.667 263.001 -143c30.667 -43.333 46 -97.333 46 -162c0 -34 -4 -70.667 -12 -110c-27.333 -133.333 -100 -239 -218 -317c-116 -78 -260.333 -117 -433 -117c-194.667 0 -335.667 44 -423 132c-63.333 63.333 -94.666 146.666 -93.999 249.999
c0 39.333 4.66699 82 14 128v0h189v0c-22.667 -108 -3.66699 -191.167 57 -249.5s158 -87.5 292 -87.5c120.667 0 216.834 21.5 288.501 64.5s115.834 105.5 132.501 187.5c15.333 74.667 6 129 -28 163c-33.333 34 -108.333 64.667 -225 92l-245 57
c-118.667 28 -200.334 70 -245.001 126c-30.667 38 -46 86.333 -46 145c0 26 3 54 9 84c29.333 140.667 100 252.167 212 334.5s248.667 123.5 410 123.5c176 0 303 -40.333 381 -121c56.667 -58.667 85 -134.334 85 -227.001c0 -37.333 -4.33301 -76.666 -13 -117.999v0
h-189zM726.998 2.00098l-121 -129.001v0l64 9c53.333 0 92.333 -13.667 117 -41s32 -65 22 -113c-11.333 -55.333 -43.166 -100.666 -95.499 -135.999s-113.833 -53 -184.5 -53c-24.667 0 -54.5 4.33301 -89.5 13s-67.833 19.667 -98.5 33l51 83
c20 -9.33301 41.833 -16.833 65.5 -22.5s44.167 -8.5 61.5 -8.5c39.333 0 69.833 7 91.5 21s35.5 35.667 41.5 65c4 20 -2.33301 38.167 -19 54.5s-37.334 24.5 -62.001 24.5c-7.33301 0 -18.5 -1.5 -33.5 -4.5s-30.833 -6.83301 -47.5 -11.5l-25 38l167 178h95z" />
    <glyph glyph-name="scedilla" unicode="&#x15f;" horiz-adv-x="1024" 
d="M906 772c6 57.333 -8.49707 100.996 -43.4971 130.996s-89.167 45 -162.5 45c-72.667 0 -130.834 -13.333 -174.501 -40s-70.834 -65.667 -81.501 -117c-7.33301 -35.333 0.666992 -62.333 24 -81c22 -18 71 -37.333 147 -58l176 -47
c97.333 -26 163.666 -62.667 198.999 -110c24 -31.333 36 -70.666 36 -117.999c0 -22 -2.66699 -46 -8 -72c-20.667 -98 -77 -178.167 -169 -240.5s-200.333 -93.5 -325 -93.5c-154 0 -263 31 -327 93c-45.333 44.667 -68 104.334 -68 179.001c0 30.667 3.66699 64 11 100v0
h174v0c-10 -76 4 -131 42 -165s104.667 -51 200 -51c80.667 0 145 14.333 193 43s77.667 70.334 89 125.001c8 40.667 -1.66699 71.667 -29 93c-28 21.333 -87.333 44.333 -178 69l-176 47c-83.333 22.667 -140 54.667 -170 96c-20 28 -30 62.667 -30 104
c0 20.667 2.33301 42.667 7 66c20 98 74 178.167 162 240.5s190.667 93.5 308 93.5c122.667 0 213.667 -28 273 -84c51.333 -49.333 77 -117.666 77 -204.999l-2 -43v0h-174zM556.003 1.99609l-120 -128.001v0l63 8c53.333 0 92.333 -13.667 117 -41s32 -65 22 -113
c-11.333 -55.333 -43.166 -100.666 -95.499 -135.999s-113.833 -53 -184.5 -53c-24 0 -53.667 4.33301 -89 13s-68.333 19.667 -99 33l51 83c20 -9.33301 41.833 -16.833 65.5 -22.5s44.167 -8.5 61.5 -8.5c39.333 0 69.833 7 91.5 21s35.5 35.667 41.5 65
c4 20 -2.33301 38.167 -19 54.5s-37.334 24.5 -62.001 24.5c-7.33301 0 -18.5 -1.5 -33.5 -4.5s-30.833 -6.83301 -47.5 -11.5l-25 38l167 178h95z" />
    <glyph glyph-name="Scaron" unicode="&#x160;" horiz-adv-x="1366" 
d="M1263 1044c19.333 94 2.99805 166.334 -49.002 217.001s-135.667 76 -251 76c-109.333 0 -196.833 -22 -262.5 -66s-107.167 -108.333 -124.5 -193c-12.667 -60 -3.33398 -104.333 27.999 -133c31.333 -28 100 -54.333 206 -79l245 -57
c128.667 -30 216.334 -77.667 263.001 -143c30.667 -43.333 46 -97.333 46 -162c0 -34 -4 -70.667 -12 -110c-27.333 -133.333 -100 -239 -218 -317c-116 -78 -260.333 -117 -433 -117c-194.667 0 -335.667 44 -423 132c-63.333 63.333 -94.666 146.666 -93.999 249.999
c0 39.333 4.66699 82 14 128v0h189v0c-22.667 -108 -3.66699 -191.167 57 -249.5s158 -87.5 292 -87.5c120.667 0 216.834 21.5 288.501 64.5s115.834 105.5 132.501 187.5c15.333 74.667 6 129 -28 163c-33.333 34 -108.333 64.667 -225 92l-245 57
c-118.667 28 -200.334 70 -245.001 126c-30.667 38 -46 86.333 -46 145c0 26 3 54 9 84c29.333 140.667 100 252.167 212 334.5s248.667 123.5 410 123.5c176 0 303 -40.333 381 -121c56.667 -58.667 85 -134.334 85 -227.001c0 -37.333 -4.33301 -76.666 -13 -117.999v0
h-189zM938.998 1613l-146 290h163l96 -190v0l175 190h164l-266 -290h-93h-93z" />
    <glyph glyph-name="scaron" unicode="&#x161;" horiz-adv-x="1024" 
d="M906 772c6 57.333 -8.49707 100.996 -43.4971 130.996s-89.167 45 -162.5 45c-72.667 0 -130.834 -13.333 -174.501 -40s-70.834 -65.667 -81.501 -117c-7.33301 -35.333 0.666992 -62.333 24 -81c22 -18 71 -37.333 147 -58l176 -47
c97.333 -26 163.666 -62.667 198.999 -110c24 -31.333 36 -70.666 36 -117.999c0 -22 -2.66699 -46 -8 -72c-20.667 -98 -77 -178.167 -169 -240.5s-200.333 -93.5 -325 -93.5c-154 0 -263 31 -327 93c-45.333 44.667 -68 104.334 -68 179.001c0 30.667 3.66699 64 11 100v0
h174v0c-10 -76 4 -131 42 -165s104.667 -51 200 -51c80.667 0 145 14.333 193 43s77.667 70.334 89 125.001c8 40.667 -1.66699 71.667 -29 93c-28 21.333 -87.333 44.333 -178 69l-176 47c-83.333 22.667 -140 54.667 -170 96c-20 28 -30 62.667 -30 104
c0 20.667 2.33301 42.667 7 66c20 98 74 178.167 162 240.5s190.667 93.5 308 93.5c122.667 0 213.667 -28 273 -84c51.333 -49.333 77 -117.666 77 -204.999l-2 -43v0h-174zM663.003 1215l-146 290h163l96 -190v0l175 190h164l-266 -290h-93h-93z" />
    <glyph glyph-name="Tcommaaccent" unicode="&#x162;" horiz-adv-x="1251" 
d="M532 0l268 1295v0h-497v0l19 87l20 88v0h1186v0l-17 -87l-16 -88v0h-496v0l-268 -1295v0h-99h-100v0zM498 -216l19.999 99h95h95l-35 -170c-19.333 -94 -49.666 -166.333 -90.999 -217s-96.666 -84 -165.999 -100v0l15 75v0c41.333 4 73.666 25.667 96.999 65
c20 32.667 37.667 82 53 148v0h-9h-95z" />
    <glyph glyph-name="tcommaaccent" unicode="&#x163;" horiz-adv-x="569" 
d="M494 0c-60.667 -8.66699 -106.333 -12.999 -137 -12.999c-76.667 0 -128.167 19.167 -154.5 57.5s-30.833 100.5 -13.5 186.5l144 692v0h-141l30 149h141v0l63 300h181l-63 -300v0h171l-30 -149h-171v0l-144 -692c-6 -30.667 -1.5 -53.334 13.5 -68.001
s41.167 -22 78.5 -22h61zM157.001 -243.999l20.001 99h95h95l-35 -170c-19.333 -94 -49.5 -166.333 -90.5 -217s-96.5 -84 -166.5 -100v0l16 75v0c41.333 4 73.666 25.667 96.999 65c18.667 32.667 36 82 52 148v0h-9h-95z" />
    <glyph glyph-name="Tcaron" unicode="&#x164;" horiz-adv-x="1251" 
d="M532 0l268 1295v0h-497v0l19 87l20 88v0h1186v0l-17 -87l-16 -88v0h-496v0l-268 -1295v0h-99h-100v0zM883 1613l-146 290h163l96 -190v0l175 190h164l-266 -290h-93h-93z" />
    <glyph glyph-name="tcaron" unicode="&#x165;" horiz-adv-x="755" 
d="M520 0c-60.667 -8.66699 -106.333 -12.999 -137 -12.999c-76.667 0 -128.167 19.167 -154.5 57.5s-30.833 100.5 -13.5 186.5l144 692v0h-141l30 149h141v0l63 300h181l-63 -300v0h171l-30 -149h-171v0l-144 -692c-6 -30.667 -1.5 -53.334 13.5 -68.001
s41.167 -22 78.5 -22h61zM848.001 1367l19.999 99h95h95l-35 -170c-19.333 -94 -49.666 -166.333 -90.999 -217s-96.666 -84 -165.999 -100v0l15 75v0c41.333 4 73.666 25.667 96.999 65c20 32.667 37.667 82 53 148v0h-9h-95z" />
    <glyph glyph-name="Umacron" unicode="&#x16a;" horiz-adv-x="1479" 
d="M1424 514c-35.333 -170 -117.169 -304.834 -245.502 -404.501s-284.833 -149.5 -469.5 -149.5c-173.333 0 -299 49 -377 147c-53.333 67.333 -80 152 -80 254c0 47.333 5.66699 98.333 17 153l198 956v0h99h100v0l-190 -919c-11.333 -53.333 -17 -101.666 -17 -144.999
c0 -70.667 15 -127 45 -169c46.667 -68 134.334 -102 263.001 -102c120.667 0 221.334 36 302.001 108s135 174.667 163 308l190 919v0h100h100v0zM786.997 1738h622l-25 -125h-622z" />
    <glyph glyph-name="umacron" unicode="&#x16b;" 
d="M538 1072l-146.001 -708.001c-16 -77.333 -10.833 -136.166 15.5 -176.499s72.833 -60.5 139.5 -60.5c104.667 0 189.167 35 253.5 105s111.5 177.667 141.5 323v0l107 517v0h90h91v0l-221 -1072v0h-86h-86v0l34 168v0v0c-17.333 -22 -35 -42 -53 -60
c-92 -91.333 -198 -137 -318 -137c-123.333 0 -209.666 31 -258.999 93c-32.667 40 -48.667 93.667 -48 161c0 35.333 4.33301 74 13 116l151 731v0h90h91v0zM537.999 1340h622l-25 -125h-622z" />
    <glyph glyph-name="Uring" unicode="&#x16e;" horiz-adv-x="1479" 
d="M1424 514c-35.333 -170 -117.169 -304.834 -245.502 -404.501s-284.833 -149.5 -469.5 -149.5c-173.333 0 -299 49 -377 147c-53.333 67.333 -80 152 -80 254c0 47.333 5.66699 98.333 17 153l198 956v0h99h100v0l-190 -919c-11.333 -53.333 -17 -101.666 -17 -144.999
c0 -70.667 15 -127 45 -169c46.667 -68 134.334 -102 263.001 -102c120.667 0 221.334 36 302.001 108s135 174.667 163 308l190 919v0h100h100v0zM1079 1531c-52.667 0 -93.6689 18.167 -123.002 54.5s-38.666 80.833 -27.999 133.5
c11.333 52.667 38.833 97.167 82.5 133.5s91.834 54.5 144.501 54.5s93.5 -18.167 122.5 -54.5s37.833 -80.833 26.5 -133.5c-10.667 -52.667 -37.667 -97.167 -81 -133.5s-91.333 -54.5 -144 -54.5v0zM1095 1613c30 0 57.166 10.167 81.499 30.5s39.5 45.5 45.5 75.5
c6.66699 30 1.83398 55.167 -14.499 75.5s-39.5 30.5 -69.5 30.5s-57.167 -10.167 -81.5 -30.5s-39.833 -45.5 -46.5 -75.5c-6 -30 -0.833008 -55.167 15.5 -75.5s39.5 -30.5 69.5 -30.5v0z" />
    <glyph glyph-name="uring" unicode="&#x16f;" 
d="M538 1072l-146.001 -708.001c-16 -77.333 -10.833 -136.166 15.5 -176.499s72.833 -60.5 139.5 -60.5c104.667 0 189.167 35 253.5 105s111.5 177.667 141.5 323v0l107 517v0h90h91v0l-221 -1072v0h-86h-86v0l34 168v0v0c-17.333 -22 -35 -42 -53 -60
c-92 -91.333 -198 -137 -318 -137c-123.333 0 -209.666 31 -258.999 93c-32.667 40 -48.667 93.667 -48 161c0 35.333 4.33301 74 13 116l151 731v0h90h91v0zM803.999 1171c-52.667 0 -93.499 18.167 -122.499 54.5s-38.167 80.833 -27.5 133.5
c11.333 52.667 38.833 97.167 82.5 133.5s91.834 54.5 144.501 54.5s93.5 -18.167 122.5 -54.5s37.833 -80.833 26.5 -133.5c-10.667 -52.667 -37.834 -97.167 -81.501 -133.5s-91.834 -54.5 -144.501 -54.5v0zM820 1253c30 0 57.332 10.167 81.999 30.5s40 45.5 46 75.5
c6.66699 30 1.83398 55.167 -14.499 75.5s-39.5 30.5 -69.5 30.5s-57.167 -10.167 -81.5 -30.5s-39.833 -45.5 -46.5 -75.5c-6 -30 -1 -55.167 15 -75.5s39 -30.5 69 -30.5v0z" />
    <glyph glyph-name="Uhungarumlaut" unicode="&#x170;" horiz-adv-x="1479" 
d="M1424 514c-35.333 -170 -117.169 -304.834 -245.502 -404.501s-284.833 -149.5 -469.5 -149.5c-173.333 0 -299 49 -377 147c-53.333 67.333 -80 152 -80 254c0 47.333 5.66699 98.333 17 153l198 956v0h99h100v0l-190 -919c-11.333 -53.333 -17 -101.666 -17 -144.999
c0 -70.667 15 -127 45 -169c46.667 -68 134.334 -102 263.001 -102c120.667 0 221.334 36 302.001 108s135 174.667 163 308l190 919v0h100h100v0zM768.997 1613l246 289h218l-327 -289h-137zM1142 1613l246 289h218l-327 -289h-137z" />
    <glyph glyph-name="uhungarumlaut" unicode="&#x171;" 
d="M538 1072l-146.001 -708.001c-16 -77.333 -10.833 -136.166 15.5 -176.499s72.833 -60.5 139.5 -60.5c104.667 0 189.167 35 253.5 105s111.5 177.667 141.5 323v0l107 517v0h90h91v0l-221 -1072v0h-86h-86v0l34 168v0v0c-17.333 -22 -35 -42 -53 -60
c-92 -91.333 -198 -137 -318 -137c-123.333 0 -209.666 31 -258.999 93c-32.667 40 -48.667 93.667 -48 161c0 35.333 4.33301 74 13 116l151 731v0h90h91v0zM531.999 1215l246 289h218l-327 -289h-137zM904.999 1215l246 289h218l-327 -289h-137z" />
    <glyph glyph-name="Uogonek" unicode="&#x172;" horiz-adv-x="1479" 
d="M1424 514c-35.333 -170 -117.169 -304.834 -245.502 -404.501s-284.833 -149.5 -469.5 -149.5c-173.333 0 -299 49 -377 147c-53.333 67.333 -80 152 -80 254c0 47.333 5.66699 98.333 17 153l198 956v0h99h100v0l-190 -919c-11.333 -53.333 -17 -101.666 -17 -144.999
c0 -70.667 15 -127 45 -169c46.667 -68 134.334 -102 263.001 -102c120.667 0 221.334 36 302.001 108s135 174.667 163 308l190 919v0h100h100v0zM528.997 -273.001c13.333 63.333 44.834 119.499 94.501 168.499s110.167 83.833 181.5 104.5h160
c-92.667 -41.333 -158.834 -80.5 -198.501 -117.5s-65.5 -83.5 -77.5 -139.5c-7.33301 -36 -4 -62.667 10 -80s39.667 -26 77 -26c19.333 0 41.5 2.5 66.5 7.5s49.833 12.167 74.5 21.5l18 -82c-36 -14 -73 -25.333 -111 -34c-36.667 -8 -68 -12 -94 -12
c-72 0 -126.333 17.333 -163 52c-37.333 34.667 -50 80.334 -38 137.001z" />
    <glyph glyph-name="uogonek" unicode="&#x173;" 
d="M538 1072l-146.001 -708.001c-16 -77.333 -10.833 -136.166 15.5 -176.499s72.833 -60.5 139.5 -60.5c104.667 0 189.167 35 253.5 105s111.5 177.667 141.5 323v0l107 517v0h90h91v0l-221 -1072v0h-86h-86v0l34 168v0v0c-17.333 -22 -35 -42 -53 -60
c-92 -91.333 -198 -137 -318 -137c-123.333 0 -209.666 31 -258.999 93c-32.667 40 -48.667 93.667 -48 161c0 35.333 4.33301 74 13 116l151 731v0h90h91v0zM583.999 -273.001c13.333 63.333 44.834 119.499 94.501 168.499s110.167 83.833 181.5 104.5h160
c-92.667 -41.333 -158.834 -80.5 -198.501 -117.5s-65.5 -83.5 -77.5 -139.5c-7.33301 -36 -4 -62.667 10 -80s39.667 -26 77 -26c19.333 0 41.5 2.5 66.5 7.5s49.833 12.167 74.5 21.5l18 -82c-36 -14 -73 -25.333 -111 -34c-36.667 -8 -68 -12 -94 -12
c-72 0 -126.333 17.333 -163 52c-37.333 34.667 -50 80.334 -38 137.001z" />
    <glyph glyph-name="Ydieresis" unicode="&#x178;" horiz-adv-x="1366" 
d="M703 598l-361 872v0h116h117v0l271 -701v0l574 701v0h115h116v0l-752 -888v0l-120 -582h-99h-100zM831 1845h186l-44 -209h-186zM1163 1845h186l-44 -209h-186z" />
    <glyph glyph-name="Zacute" unicode="&#x179;" horiz-adv-x="1251" 
d="M81 165l1140 1130v0h-829v0l19 87l20 88v0h1082l-17 -82l-17 -83l-1141 -1130v0h900v0l-19 -87l-20 -88v0h-1152l16 82zM929 1613l246 289h218l-327 -289h-137z" />
    <glyph glyph-name="zacute" unicode="&#x17a;" horiz-adv-x="1024" 
d="M93 147l813 776v0h-589v0l15 74l15 75v0h818l-15 -73l-15 -74l-806 -776v0h663v0l-15 -74l-15 -75v0h-899l15 73zM698 1215l246 289h218l-327 -289h-137z" />
    <glyph glyph-name="Zdotaccent" unicode="&#x17b;" horiz-adv-x="1251" 
d="M81 165l1140 1130v0h-829v0l19 87l20 88v0h1082l-17 -82l-17 -83l-1141 -1130v0h900v0l-19 -87l-20 -88v0h-1152l16 82zM956 1844h186l-43 -209h-186z" />
    <glyph glyph-name="zdotaccent" unicode="&#x17c;" horiz-adv-x="1024" 
d="M93 147l813 776v0h-589v0l15 74l15 75v0h818l-15 -73l-15 -74l-806 -776v0h663v0l-15 -74l-15 -75v0h-899l15 73zM741 1446h186l-43 -209h-186z" />
    <glyph glyph-name="Zcaron" unicode="&#x17d;" horiz-adv-x="1251" 
d="M81 165l1140 1130v0h-829v0l19 87l20 88v0h1082l-17 -82l-17 -83l-1141 -1130v0h900v0l-19 -87l-20 -88v0h-1152l16 82zM920 1613l-146 290h163l96 -190v0l175 190h164l-266 -290h-93h-93z" />
    <glyph glyph-name="zcaron" unicode="&#x17e;" horiz-adv-x="1024" 
d="M93 147l813 776v0h-589v0l15 74l15 75v0h818l-15 -73l-15 -74l-806 -776v0h663v0l-15 -74l-15 -75v0h-899l15 73zM694 1215l-146 290h163l96 -190v0l175 190h164l-266 -290h-93h-93z" />
    <glyph glyph-name="florin" unicode="&#x192;" 
d="M820 804l-313.001 -791.001c-53.333 -135.333 -120.166 -241.333 -200.499 -318s-164.833 -115 -253.5 -115c-64.667 0 -117.334 9.66699 -158.001 29l66 155c20.667 -16 60.334 -23.667 119.001 -23c49.333 0 95.333 26.667 138 80s87.667 140 135 260l286 723v0h-221
l29 139h247v0l96 242c40 102 95.5 182 166.5 240s148.833 87 233.5 87c62 0 112.667 -9.33301 152 -28l-68 -159c0.666992 2.66699 -0.333008 4.33398 -3 5.00098c-18.667 14 -55 21 -109 21c-44.667 0 -84 -18.333 -118 -55s-67.667 -96.667 -101 -180l-68 -173v0h236
l-29 -139h-262z" />
    <glyph glyph-name="circumflex" unicode="&#x2c6;" horiz-adv-x="682" 
d="M753 1505l146 -290h-163l-97 190v0l-174 -190h-164l266 290h93h93z" />
    <glyph glyph-name="caron" unicode="&#x2c7;" horiz-adv-x="682" 
d="M508 1215l-146 290h163l97 -190v0l174 190h164l-266 -290h-93h-93z" />
    <glyph glyph-name="uni02C9" unicode="&#x2c9;" horiz-adv-x="682" 
d="M306 1340h622l-26 -125h-622z" />
    <glyph glyph-name="breve" unicode="&#x2d8;" horiz-adv-x="682" 
d="M557 1218c-90.667 0 -155.832 22.167 -195.499 66.5s-57.167 114.833 -52.5 211.5h101c6.66699 -58 24.5 -99.333 53.5 -124s73.833 -37 134.5 -37c58.667 0 108.5 13.667 149.5 41s72.167 67.333 93.5 120h99c-24.667 -87.333 -70.834 -155.5 -138.501 -204.5
s-149.167 -73.5 -244.5 -73.5z" />
    <glyph glyph-name="dotaccent" unicode="&#x2d9;" horiz-adv-x="682" 
d="M521 1446h186l-43 -209h-186z" />
    <glyph glyph-name="ring" unicode="&#x2da;" horiz-adv-x="682" 
d="M587 1171c-52.667 0 -93.333 18.168 -122 54.501s-37.667 80.833 -27 133.5s38 97.167 82 133.5s92.333 54.5 145 54.5s93.334 -18.167 122.001 -54.5s37.667 -80.833 27 -133.5s-38.334 -97.334 -83.001 -134.001c-43.333 -36 -91.333 -54 -144 -54v0zM604.001 1253
c30 0 57.333 10.167 82 30.5s40 45.5 46 75.5s1 55.167 -15 75.5s-39 30.5 -69 30.5s-57.667 -10.333 -83 -31c-24 -20 -39 -45 -45 -75s-1 -55.167 15 -75.5s39 -30.5 69 -30.5v0z" />
    <glyph glyph-name="ogonek" unicode="&#x2db;" horiz-adv-x="682" 
d="M100 -273c13.333 63.333 44.834 119.499 94.501 168.499s110.167 83.833 181.5 104.5h160c-92.667 -41.333 -158.834 -80.5 -198.501 -117.5s-65.5 -83.5 -77.5 -139.5c-7.33301 -36 -4 -62.667 10 -80s39.667 -26 77 -26c19.333 0 41.5 2.5 66.5 7.5
s49.833 12.167 74.5 21.5l18 -82c-36 -14 -73 -25.333 -111 -34c-36.667 -8 -68 -12 -94 -12c-72 0 -126.333 17.333 -163 52c-37.333 34.667 -50 80.334 -38 137.001z" />
    <glyph glyph-name="tilde" unicode="&#x2dc;" horiz-adv-x="682" 
d="M256 1237c17.333 64.667 49.499 116.666 96.499 155.999s100.5 59 160.5 59c18 0 41.667 -3.83301 71 -11.5s56.333 -17.167 81 -28.5c20.667 -9.33301 42.334 -17.166 65.001 -23.499s40.334 -9.5 53.001 -9.5c26.667 0 50.5 8 71.5 24s36.167 37.667 45.5 65h102
c-16 -60 -48.167 -110.833 -96.5 -152.5s-99.5 -62.5 -153.5 -62.5c-16.667 0 -40.334 4 -71.001 12s-60.334 17.667 -89.001 29c-21.333 8.66699 -43.666 16.167 -66.999 22.5s-41 9.5 -53 9.5c-26 0 -50.5 -8.66699 -73.5 -26s-37.833 -38.333 -44.5 -63h-98z" />
    <glyph glyph-name="hungarumlaut" unicode="&#x2dd;" horiz-adv-x="682" 
d="M276 1215l247 289h218l-328 -289h-137zM649 1215l247 289h218l-328 -289h-137z" />
    <glyph glyph-name="pi" unicode="&#x3c0;" horiz-adv-x="1246" 
d="M112 692c60.667 106.667 117.833 177.832 171.5 213.499s130.167 53.5 229.5 53.5l338 1c60 0 123.667 0.833008 191 2.5s116 3.83398 146 6.50098l-30 -164h-301c-21.333 -114 -31 -222.667 -29 -326s16.333 -214.666 43 -333.999c14.667 -66 17 -110.833 7 -134.5
s-36 -35.5 -78 -35.5c-42.667 0 -75.167 19.667 -97.5 59s-33.5 96.666 -33.5 171.999c0 63.333 7.66699 141 23 233s41.333 214 78 366h-148l-116 -652c-12 -70 -27 -117.167 -45 -141.5s-46.667 -36.5 -86 -36.5c-44 0 -69.5 15 -76.5 45s2.5 85 28.5 165l211 620h-94
c-50 0 -93.5 -10.5 -130.5 -31.5s-83.833 -61.5 -140.5 -121.5z" />
    <glyph glyph-name="endash" unicode="&#x2013;" 
d="M137 642h1138l-33 -148h-1138z" />
    <glyph glyph-name="emdash" unicode="&#x2014;" horiz-adv-x="2048" 
d="M137 642h2048l-33 -148h-2048z" />
    <glyph glyph-name="quoteleft" unicode="&#x2018;" horiz-adv-x="455" 
d="M571 1071l-21.999 -107h-106h-105l38 182c21.333 102.667 53.833 180 97.5 232s106.167 87.333 187.5 106v0l-20 -97v0c-44.667 -4.66699 -79.334 -26.667 -104.001 -66c-18 -30 -35.333 -77.333 -52 -142h3h106z" />
    <glyph glyph-name="quoteright" unicode="&#x2019;" horiz-adv-x="455" 
d="M399 1362l21.999 107h106h105l-38 -182c-21.333 -102.667 -53.833 -180 -97.5 -232s-106.167 -87.333 -187.5 -106v0l20 97v0c44.667 4.66699 79.334 26.667 104.001 66c18 30 35.333 77.333 52 142h-3h-106z" />
    <glyph glyph-name="quotesinglbase" unicode="&#x201a;" horiz-adv-x="455" 
d="M132 108l22 107.001h106h105l-38 -182c-20.667 -102.667 -52.834 -180 -96.501 -232s-106.167 -87.333 -187.5 -106v0l20 97v0c44.667 4.66699 79.334 26.667 104.001 66c18 29.333 35.333 76.666 52 141.999h-3h-106z" />
    <glyph glyph-name="quotedblleft" unicode="&#x201c;" horiz-adv-x="682" 
d="M516 1071l-21.999 -107h-106h-105l38 182c21.333 102.667 53.833 180 97.5 232s106.167 87.333 187.5 106v0l-20 -97v0c-44.667 -4.66699 -79.334 -26.667 -104.001 -66c-18 -30 -35.333 -77.333 -52 -142h3h106zM858.001 1071l-21.999 -107h-106h-105l38 182
c21.333 102.667 53.833 180 97.5 232s106.167 87.333 187.5 106v0l-20 -97v0c-44.667 -4.66699 -79.334 -26.667 -104.001 -66c-18 -30 -35.333 -77.333 -52 -142h3h106z" />
    <glyph glyph-name="quotedblright" unicode="&#x201d;" horiz-adv-x="682" 
d="M344 1362l21.999 107h106h105l-38 -182c-21.333 -102.667 -53.833 -180 -97.5 -232s-106.167 -87.333 -187.5 -106v0l20 97v0c44.667 4.66699 79.334 26.667 104.001 66c18 30 35.333 77.333 52 142h-3h-106zM685.999 1362l21.999 107h106h105l-38 -182
c-21.333 -102.667 -53.833 -180 -97.5 -232s-106.167 -87.333 -187.5 -106v0l20 97v0c44.667 4.66699 79.334 26.667 104.001 66c18 30 35.333 77.333 52 142h-3h-106z" />
    <glyph glyph-name="quotedblbase" unicode="&#x201e;" horiz-adv-x="682" 
d="M78 108l22 107.001h106h105l-38 -182c-20.667 -102.667 -52.834 -180 -96.501 -232s-106.167 -87.333 -187.5 -106v0l20 97v0c44.667 4.66699 79.334 26.667 104.001 66c18 29.333 35.333 76.666 52 141.999h-3h-106zM420 108.001l22 107.001h106h105l-38 -182
c-20.667 -102.667 -52.834 -180 -96.501 -232s-106.167 -87.333 -187.5 -106v0l20 97v0c44.667 4.66699 79.334 26.667 104.001 66c18 29.333 35.333 76.666 52 141.999h-3h-106z" />
    <glyph glyph-name="dagger" unicode="&#x2020;" 
d="M308 1040h390v0l89 430h193l-89 -430v0h392l-32 -156h-392v0l-249 -1204h-193l249 1204v0h-390z" />
    <glyph glyph-name="daggerdbl" unicode="&#x2021;" 
d="M305 1056h391v0l86 414h191l-86 -414v0h393l-33 -158h-393v0l-134 -648v0h393l-32 -156h-393v0l-85 -414h-191l85 414v0h-391l32 156h391v0l134 648v0h-391z" />
    <glyph glyph-name="bullet" unicode="&#x2022;" horiz-adv-x="717" 
d="M571 1059c90.667 0 161.167 -31.167 211.5 -93.5s66.833 -138.833 49.5 -229.5s-63.166 -167.167 -137.499 -229.5s-156.833 -93.5 -247.5 -93.5s-161.167 31.167 -211.5 93.5s-66.833 138.833 -49.5 229.5s63.166 167.167 137.499 229.5s156.833 93.5 247.5 93.5z" />
    <glyph glyph-name="ellipsis" unicode="&#x2026;" horiz-adv-x="2048" 
d="M281 218h214l-45 -218h-214zM961 218h214l-45 -218h-214zM1642 218h214l-45 -218h-214z" />
    <glyph glyph-name="perthousand" unicode="&#x2030;" horiz-adv-x="2048" 
d="M509 786c-76 0 -137.999 24.166 -185.999 72.499s-72 110.5 -72 186.5c0 101.333 39.167 190 117.5 266s169.5 114 273.5 114c76.667 0 139.167 -23.5 187.5 -70.5s72.5 -107.5 72.5 -181.5c0 -103.333 -39.333 -193.666 -118 -270.999s-170.334 -116 -275.001 -116v0z
M615.001 1297c-61.333 0 -115.166 -22.832 -161.499 -68.499s-69.5 -98.834 -69.5 -159.501c0 -45.333 14.167 -82.5 42.5 -111.5s64.833 -43.5 109.5 -43.5c62 0 116.167 23.333 162.5 70s69.5 101 69.5 163c0 44 -14.333 80 -43 108s-65.334 42 -110.001 42v0z
M180.001 -34l1140 1474h115l-1140 -1474h-115zM974.001 -6c-76 0 -138.167 24.166 -186.5 72.499s-72.5 110.5 -72.5 186.5c0 101.333 39.167 190 117.5 266s169.5 114 273.5 114c76.667 0 139.167 -23.5 187.5 -70.5s72.5 -107.5 72.5 -181.5
c0 -103.333 -39.167 -193.666 -117.5 -270.999s-169.833 -116 -274.5 -116v0zM1079 504.999c-61.333 0 -115.166 -22.832 -161.499 -68.499s-69.5 -98.834 -69.5 -159.501c0 -45.333 14.167 -82.5 42.5 -111.5s64.833 -43.5 109.5 -43.5c62 0 116.167 23.333 162.5 70
s69.5 101 69.5 163c0 44 -14.333 80 -43 108s-65.334 42 -110.001 42v0zM1719 -6c-76 0 -138.167 24.166 -186.5 72.499s-72.5 110.5 -72.5 186.5c0 101.333 39.167 190 117.5 266s169.5 114 273.5 114c76.667 0 139.167 -23.5 187.5 -70.5s72.5 -107.5 72.5 -181.5
c0 -103.333 -39.167 -193.666 -117.5 -270.999s-169.833 -116 -274.5 -116v0zM1824 504.999c-61.333 0 -115.166 -22.832 -161.499 -68.499s-69.5 -98.834 -69.5 -159.501c0 -45.333 14.167 -82.5 42.5 -111.5s64.833 -43.5 109.5 -43.5c62 0 116.167 23.333 162.5 70
s69.5 101 69.5 163c0 44 -14.333 80 -43 108s-65.334 42 -110.001 42v0z" />
    <glyph glyph-name="guilsinglleft" unicode="&#x2039;" horiz-adv-x="682" 
d="M656 734l-250 -167v0l180 -168l-36 -176l-269 250l20 94l19 94l372 249z" />
    <glyph glyph-name="guilsinglright" unicode="&#x203a;" horiz-adv-x="682" 
d="M263 399l250 167v0l-180 168l36 176l268 -250l-19 -94l-20 -94l-371 -249z" />
    <glyph glyph-name="fraction" unicode="&#x2044;" horiz-adv-x="342" 
d="M1003 1441l-1233 -1485h-117l1233 1485h117z" />
    <glyph glyph-name="uni2074" unicode="&#x2074;" horiz-adv-x="682" 
d="M582 757h-420l13 63l13 63l561 528h61h62l-113 -545v0h101l-23 -109h-101v0l-38 -184h-154l38 184v0zM605 866l67 325v0v0l-327 -308l-18 -17v0h278z" />
    <glyph glyph-name="Euro" unicode="&#x20ac;" 
d="M1198 437c-58.667 -161.333 -133.001 -280.999 -223.001 -358.999c-88.667 -77.333 -196.667 -116 -324 -116c-118 0 -209.667 40.833 -275 122.5s-98 196.5 -98 344.5v34h-158l73 175h99c4.66699 40 11 78 19 114h-131l72 175h110c30 80 67.667 153.333 113 220
c131.333 195.333 291.666 293 480.999 293c121.333 0 212.666 -39 273.999 -117c55.333 -69.333 83 -166.333 83 -291l-1 -44v0h-195v0c4.66699 89.333 -10.166 158.166 -44.499 206.499s-85.166 72.5 -152.499 72.5c-120 0 -223.333 -81 -310 -243
c-17.333 -30.667 -32.666 -63 -45.999 -97h427l-72 -175h-409c-7.33301 -36 -13.333 -74 -18 -114h381l-73 -175h-319v-18c0 -99.333 17.5 -175.833 52.5 -229.5s85.5 -80.5 151.5 -80.5c66.667 0 127.5 26.167 182.5 78.5s100.167 126.833 135.5 223.5v0h195z" />
    <glyph glyph-name="trademark" unicode="&#x2122;" horiz-adv-x="2048" 
d="M488 625l150 723v0h-257v0l12 61l13 61v0h664v0l-13 -61l-12 -61v0h-256v0l-150 -723v0h-75h-76v0zM1194 625h-74h-74v0l175 845v0h117h117v0l106 -629v0v0l362 629v0h113h114v0l-175 -845v0h-73h-73v0l150 710v0l-413 -710h-54h-54l-116 713v0z" />
    <glyph glyph-name="uni2126" unicode="&#x2126;" horiz-adv-x="1246" 
d="M599 0l-413.002 -0.00195312l-74 410l74 12c22 -92 42.5 -149 61.5 -171s57.167 -34 114.5 -36h79c-21.333 40.667 -51.166 94.334 -89.499 161.001l-109.5 184c-43.333 70.667 -77.666 141.167 -102.999 211.5s-38 130.5 -38 180.5
c0 139.333 49.833 250.833 149.5 334.5s234.167 126.834 403.5 129.501c160.667 0 293.167 -43 397.5 -129s156.5 -195.333 156.5 -328c0 -52.667 -12.5 -114.334 -37.5 -185.001s-59.5 -142 -103.5 -214l-95.5 -162l-103.5 -183h79c50 -0.666992 87.333 13.5 112 42.5
s46 83.833 64 164.5l73 -12l-74 -410h-412c81.333 225.333 124.5 345.666 129.5 360.999l30.5 97c30.667 98.667 54.167 190.834 70.5 276.501s24.5 158.167 24.5 217.5c0 108 -28.833 196.833 -86.5 266.5s-132.5 105.834 -224.5 108.501
c-92 -2.66699 -166.667 -38.334 -224 -107.001s-86 -157 -86 -265c0 -52 9.16699 -126 27.5 -222s40.833 -187.667 67.5 -275c16 -51.333 39.333 -121.166 70 -209.499z" />
    <glyph glyph-name="partialdiff" unicode="&#x2202;" horiz-adv-x="1020" 
d="M81 385c0 156 46.5078 294.833 139.508 416.5s198.833 182.5 317.5 182.5c32 0 64.167 -5.33301 96.5 -16s67.166 -27.334 104.499 -50.001c14 126.667 8.5 227.334 -16.5 302.001s-65.833 112 -122.5 112c-18.667 0 -38.834 -9.5 -60.501 -28.5
s-38.834 -42.5 -51.501 -70.5c-19.333 -42 -35.833 -69.5 -49.5 -82.5s-33.834 -19.5 -60.501 -19.5c-40 0 -68.833 16.333 -86.5 49s-16.834 68 2.49902 106c21.333 41.333 56.166 76.333 104.499 105s97.166 43 146.499 43c130.667 0 228.667 -51.667 294 -155
s97.666 -258.333 96.999 -465c0 -248 -48.5 -451 -145.5 -609s-221.167 -237 -372.5 -237c-98.667 0 -179.5 39 -242.5 117s-94.5 178 -94.5 300zM271.008 324c0 -76 14.667 -140.334 44 -193.001s65.333 -79 108 -79c72 0 133.333 59.333 184 178s76 262.334 76 431.001
c0 80 -13 140 -39 180s-65 60 -117 60c-71.333 0 -131.833 -55.833 -181.5 -167.5s-74.5 -248.167 -74.5 -409.5z" />
    <glyph glyph-name="uni2206" unicode="&#x2206;" horiz-adv-x="1360" 
d="M740 1391l582 -1391h-1285zM667 1077l-446 -883h799z" />
    <glyph glyph-name="product" unicode="&#x220f;" horiz-adv-x="2039" 
d="M197 -315v65c100.667 11.333 166.5 40.833 197.5 88.5s46.5 144.167 46.5 289.5v901c2 144.667 -12.5 240.834 -43.5 288.501s-97.833 77.167 -200.5 88.5v65h1645v-65c-100.667 -11.333 -166.5 -40.833 -197.5 -88.5s-46.5 -143.834 -46.5 -288.501v-901
c0 -145.333 15.5 -241.833 46.5 -289.5s96.833 -77.167 197.5 -88.5v-65h-704v65c104.667 11.333 172 40.333 202 87s44 143.667 42 291v1262h-725v-1262c0 -145.333 15.5 -241.833 46.5 -289.5s96.833 -77.167 197.5 -88.5v-65h-704z" />
    <glyph glyph-name="summation" unicode="&#x2211;" horiz-adv-x="2039" 
d="M416 -315l491 838l-482 948h1119l46 -366l-70 -14l-17 39c-36 94.667 -83.5 161.5 -142.5 200.5s-142.5 58.5 -250.5 58.5h-403l370 -740l-451 -756h524c92 0 165 17 219 51s103.667 94 149 180l22 41l70 -21l-117 -459h-1077z" />
    <glyph glyph-name="minus" unicode="&#x2212;" horiz-adv-x="1196" 
d="M215 593h1036l-31 -150h-1036z" />
    <glyph glyph-name="uni2215" unicode="&#x2215;" horiz-adv-x="342" 
d="M1003 1441l-1233 -1485h-117l1233 1485h117z" />
    <glyph glyph-name="uni2219" unicode="&#x2219;" horiz-adv-x="569" 
d="M355 834h214l-45 -220h-214z" />
    <glyph glyph-name="radical" unicode="&#x221a;" horiz-adv-x="1473" 
d="M56 438l298 194l506 -750l480 1647h382v-86h-281l-553 -1817h-74l-570 821l-145 -105z" />
    <glyph glyph-name="infinity" unicode="&#x221e;" horiz-adv-x="2039" 
d="M283 569c0 119.333 38.832 220.001 116.499 302.001s172.834 123 285.501 123c81.333 0 151.5 -20.167 210.5 -60.5s117.5 -107.833 175.5 -202.5c49.333 72.667 101.833 127 157.5 163s114.834 54 177.501 54c102 0 185.5 -35.167 250.5 -105.5
s97.5 -160.833 97.5 -271.5c0 -108 -32.333 -197.667 -97 -269s-145.667 -107 -243 -107c-70 0 -133 18.833 -189 56.5s-101 91.5 -135 161.5c-70.667 -104 -132.834 -174 -186.501 -210s-122.5 -54 -206.5 -54c-116 0 -214 40.667 -294 122s-120 180.666 -120 297.999z
M393.999 567.001c0 -71.333 23.002 -131.667 69.002 -181s102.333 -74 169 -74c72.667 0 137.167 24.333 193.5 73s109.5 126 159.5 232c-42 75.333 -87.833 129.833 -137.5 163.5s-109.834 50.5 -180.501 50.5c-76.667 0 -141.334 -25.5 -194.001 -76.5
s-79 -113.5 -79 -187.5zM1643 569c0 64.667 -19.833 116.834 -59.5 156.501s-92.167 59.5 -157.5 59.5c-56 0 -104.667 -16.833 -146 -50.5s-82 -89.834 -122 -168.501c27.333 -66.667 64.5 -118 111.5 -154s100.167 -54 159.5 -54c65.333 0 117.333 19 156 57
s58 89.333 58 154z" />
    <glyph glyph-name="integral" unicode="&#x222b;" horiz-adv-x="2039" 
d="M752 -319c0 28 9.16504 52.166 27.498 72.499s40.166 30.5 65.499 30.5c23.333 0 43.333 -8.5 60 -25.5s25 -37.5 25 -61.5l-9 -60c-0.666992 -6 1.33301 -11.167 6 -15.5s11 -6.5 19 -6.5c34.667 -0.666992 57.834 28.333 69.501 87s9.16699 132.667 -7.5 222
c-24 127.333 -47 269 -69 425s-37 283.667 -45 383c-22 284.667 -14.333 495.334 23 632.001s106 205 206 205c44 0 81.333 -14 112 -42s46 -62 46 -102c0 -34.667 -7.83301 -60.667 -23.5 -78s-39.167 -26 -70.5 -26c-28 0 -49 6.33301 -63 19s-21 32 -21 58
c0 6.66699 5.33301 30.667 16 72c1.33301 5.33301 -0.5 10 -5.5 14s-11.833 6 -20.5 6c-51.333 0 -78 -43.5 -80 -130.5s19.667 -250.833 65 -491.5c36 -189.333 58.667 -389.5 68 -600.5s3 -374.833 -19 -491.5c-15.333 -80 -40.166 -140 -74.499 -180
s-78.166 -60 -131.499 -60c-47.333 0 -87.333 14 -120 42s-49 62.333 -49 103z" />
    <glyph glyph-name="approxequal" unicode="&#x2248;" horiz-adv-x="2039" 
d="M414 275c38 66.667 90.333 123.167 157 169.5s129.334 69.5 188.001 69.5c36.667 0 86.667 -7.16699 150 -21.5s135.333 -34.5 216 -60.5c45.333 -14.667 94.166 -27 146.499 -37s93.5 -15 123.5 -15c40 0 84 11.833 132 35.5s86.667 52.5 116 86.5l37 -22
c-32 -76.667 -77.333 -137.5 -136 -182.5s-122 -67.5 -190 -67.5c-20.667 0 -55.667 4.66699 -105 14s-99.333 21 -150 35c-108 29.333 -192.833 50.833 -254.5 64.5s-105.167 20.5 -130.5 20.5c-42.667 0 -90 -11.667 -142 -35s-94.333 -52 -127 -86zM414 626
c38 66.667 90.333 123.167 157 169.5s129.334 69.5 188.001 69.5c36.667 0 86.667 -7.16699 150 -21.5s135.333 -34.5 216 -60.5c45.333 -14.667 94.166 -27 146.499 -37s93.5 -15 123.5 -15c40 0 84 11.833 132 35.5s86.667 52.5 116 86.5l37 -22
c-32 -76.667 -77.333 -137.5 -136 -182.5s-122 -67.5 -190 -67.5c-20.667 0 -55.667 4.66699 -105 14s-99.333 21 -150 35c-108 29.333 -192.833 50.833 -254.5 64.5s-105.167 20.5 -130.5 20.5c-42.667 0 -90 -11.667 -142 -35s-94.333 -52 -127 -86z" />
    <glyph glyph-name="notequal" unicode="&#x2260;" horiz-adv-x="2039" 
d="M410 -93l318 372h-321v135h437l236 276h-673v135h788l317 367h164l-315 -367h312v-135h-427l-236 -276h663v-135h-779l-318 -372h-166z" />
    <glyph glyph-name="lessequal" unicode="&#x2264;" horiz-adv-x="2039" 
d="M1683 1235v-135l-1063 -410l1063 -309v-135l-1266 377v135zM417 135h1266v-135h-1266v135z" />
    <glyph glyph-name="greaterequal" unicode="&#x2265;" horiz-adv-x="2039" 
d="M417 1235l1266 -477v-135l-1266 -377v135l1063 309l-1063 410v135zM417 135h1266v-135h-1266v135z" />
    <glyph glyph-name="lozenge" unicode="&#x25ca;" horiz-adv-x="1171" 
d="M530 1423h110l404 -712l-404 -711h-110l-404 711zM585 1324l-349 -613l349 -615l349 615z" />
    <glyph glyph-name="uniEFED" unicode="&#xefed;" horiz-adv-x="682" 
d="M593 1844h186l-43 -209h-186z" />
    <glyph glyph-name="uniEFEE" unicode="&#xefee;" horiz-adv-x="682" 
d="M637 1627c-90.667 0 -155.832 22.167 -195.499 66.5s-57.167 114.833 -52.5 211.5h101c6.66699 -58 24.5 -99.333 53.5 -124s73.833 -37 134.5 -37c58.667 0 108.5 13.667 149.5 41s72.167 67.333 93.5 120h99c-24.667 -87.333 -70.834 -155.5 -138.501 -204.5
s-149.167 -73.5 -244.5 -73.5z" />
    <glyph glyph-name="uniEFEF" unicode="&#xefef;" horiz-adv-x="682" 
d="M336 1738h622l-25 -125h-622z" />
    <glyph glyph-name="uniEFF0" unicode="&#xeff0;" horiz-adv-x="682" 
d="M286 1613l246 289h218l-327 -289h-137zM659 1613l246 289h218l-327 -289h-137z" />
    <glyph glyph-name="uniEFF1" unicode="&#xeff1;" horiz-adv-x="682" 
d="M100 -273c13.333 63.333 44.834 119.499 94.501 168.499s110.167 83.833 181.5 104.5h160c-92.667 -41.333 -158.834 -80.5 -198.501 -117.5s-65.5 -83.5 -77.5 -139.5c-7.33301 -36 -4 -62.667 10 -80s39.667 -26 77 -26c19.333 0 41.5 2.5 66.5 7.5
s49.833 12.167 74.5 21.5l18 -82c-36 -14 -73 -25.333 -111 -34c-36.667 -8 -68 -12 -94 -12c-72 0 -126.333 17.333 -163 52c-37.333 34.667 -50 80.334 -38 137.001z" />
    <glyph glyph-name="uniEFF2" unicode="&#xeff2;" horiz-adv-x="682" 
d="M390 2l-121 -129.001v0l64 9c53.333 0 92.333 -13.667 117 -41s32 -65 22 -113c-11.333 -55.333 -43.166 -100.666 -95.499 -135.999s-113.833 -53 -184.5 -53c-24.667 0 -54.5 4.33301 -89.5 13s-67.833 19.667 -98.5 33l51 83c20 -9.33301 41.833 -16.833 65.5 -22.5
s44.167 -8.5 61.5 -8.5c39.333 0 69.833 7 91.5 21s35.5 35.667 41.5 65c4 20 -2.33301 38.167 -19 54.5s-37.334 24.5 -62.001 24.5c-7.33301 0 -18.5 -1.5 -33.5 -4.5s-30.833 -6.83301 -47.5 -11.5l-25 38l167 178h95z" />
    <glyph glyph-name="uniEFF3" unicode="&#xeff3;" horiz-adv-x="682" 
d="M588 1531c-52.667 0 -93.499 18.167 -122.499 54.5s-38.167 80.833 -27.5 133.5c11.333 52.667 38.833 97.167 82.5 133.5s91.834 54.5 144.501 54.5s93.5 -18.167 122.5 -54.5s37.833 -80.833 26.5 -133.5c-10.667 -52.667 -37.834 -97.167 -81.501 -133.5
s-91.834 -54.5 -144.501 -54.5v0zM605.001 1613c30 0 57.166 10.167 81.499 30.5s39.5 45.5 45.5 75.5c6.66699 30 1.83398 55.167 -14.499 75.5s-39.5 30.5 -69.5 30.5s-57.167 -10.167 -81.5 -30.5s-39.833 -45.5 -46.5 -75.5c-6 -30 -0.833008 -55.167 15.5 -75.5
s39.5 -30.5 69.5 -30.5v0z" />
    <glyph glyph-name="uniEFF4" unicode="&#xeff4;" horiz-adv-x="682" 
d="M508 1613l-146 290h163l96 -190v0l175 190h164l-266 -290h-93h-93z" />
    <glyph glyph-name="uniEFF5" unicode="&#xeff5;" horiz-adv-x="682" 
d="M256 1635c17.333 64.667 49.668 116.666 97.001 155.999s101 59 161 59c17.333 0 40.666 -3.83301 69.999 -11.5s56.333 -17.167 81 -28.5c20 -9.33301 41.5 -17.166 64.5 -23.499s40.833 -9.5 53.5 -9.5c26.667 0 50.5 8 71.5 24s36.167 37.667 45.5 65h102
c-16 -60 -48.167 -110.833 -96.5 -152.5s-99.5 -62.5 -153.5 -62.5c-16.667 0 -40.334 4 -71.001 12s-60 17.667 -88 29c-21.333 8.66699 -43.666 16.167 -66.999 22.5s-41 9.5 -53 9.5c-26 0 -50.5 -8.66699 -73.5 -26s-38.167 -38.333 -45.5 -63h-98z" />
    <glyph glyph-name="uniEFF6" unicode="&#xeff6;" horiz-adv-x="682" 
d="M388 1845h186l-44 -209h-186zM720 1845h186l-44 -209h-186z" />
    <glyph glyph-name="uniEFF7" unicode="&#xeff7;" horiz-adv-x="682" 
d="M753 1903l146 -290h-163l-97 190v0l-174 -190h-164l266 290h93h93z" />
    <glyph glyph-name="uniEFF8" unicode="&#xeff8;" horiz-adv-x="682" 
d="M552 1613l-204 289h220l122 -289h-138z" />
    <glyph glyph-name="uniEFF9" unicode="&#xeff9;" horiz-adv-x="682" 
d="M508 1613l246 289h218l-327 -289h-137z" />
    <glyph glyph-name="uniF001" unicode="&#xf001;" horiz-adv-x="1024" 
d="M548 923l-191 -923v0h-90h-91v0l191 923v0h-141l30 149h141v0l35 168c18 87.333 54.667 151.333 110 192s133.666 61 234.999 61c30.667 0 57.334 -2 80.001 -6l-40 -159c0 2.66699 -24 4 -72 4c-40 0 -71.167 -11.333 -93.5 -34s-38.833 -59.667 -49.5 -111l-24 -115v0
h193l-30 -149h-193zM714 0l221 1072v0h90h91v0l-221 -1072v0h-90h-91v0zM1021 1470h182l-42 -203h-182z" />
    <glyph glyph-name="uniF002" unicode="&#xf002;" horiz-adv-x="1024" 
d="M548 923l-190.999 -923v0h-90h-91v0l191 923v0h-141l30 149h141v0l35 168c18 87.333 54.667 151.333 110 192s133.666 61 234.999 61c30 0 56.667 -2 80 -6l-40 -159c0 2.66699 -24 4 -72 4c-40 0 -71.167 -11.333 -93.5 -34s-38.833 -59.667 -49.5 -111l-24 -115v0h193
l-30 -149h-193zM711.001 0l304 1470v0h90h91v0l-304 -1470v0h-90h-91v0z" />
    <glyph glyph-name="uniFB01" unicode="&#xfb01;" horiz-adv-x="1024" 
d="M548 923l-191 -923v0h-90h-91v0l191 923v0h-141l30 149h141v0l35 168c18 87.333 54.667 151.333 110 192s133.666 61 234.999 61c30.667 0 57.334 -2 80.001 -6l-40 -159c0 2.66699 -24 4 -72 4c-40 0 -71.167 -11.333 -93.5 -34s-38.833 -59.667 -49.5 -111l-24 -115v0
h193l-30 -149h-193zM714 0l221 1072v0h90h91v0l-221 -1072v0h-90h-91v0zM1021 1470h182l-42 -203h-182z" />
    <glyph glyph-name="glyph1" horiz-adv-x="0" 
 />
    <glyph glyph-name="glyph106" horiz-adv-x="0" 
d="M311 1506c224.667 0 396.5 -73.501 515.5 -220.501s155.5 -331.167 109.5 -552.5c-45.333 -221.333 -158 -405.666 -338 -552.999c-178.667 -146.667 -380.667 -220 -606 -220s-397.333 73.5 -516 220.5s-155.334 331.167 -110.001 552.5
c46 221.333 158.833 405.5 338.5 552.5s381.834 220.5 606.501 220.5v0zM779 732.999c38.667 184.667 11.001 338.334 -82.999 461.001s-231 184 -411 184s-342.333 -61.333 -487 -184s-236.334 -276.334 -275.001 -461.001c-38 -184.667 -10 -338.334 84 -461.001
s231 -184 411 -184s342.333 61.333 487 184s236 276.334 274 461.001v0z" />
    <glyph glyph-name="glyph107" horiz-adv-x="0" 
d="M520 594c-42 -106 -101.332 -187.834 -177.999 -245.501s-164.334 -86.5 -263.001 -86.5c-114 0 -203.833 32 -269.5 96s-98.5 151.667 -98.5 263c0 164 54.5 302.5 163.5 415.5s242.167 169.5 399.5 169.5c98 0 173.667 -27.167 227 -81.5s80 -131.5 80 -231.5v0h-137v0
c0 56.667 -17.167 100.5 -51.5 131.5s-83.166 46.5 -146.499 46.5c-102.667 0 -191 -41.833 -265 -125.5s-111 -183.5 -111 -299.5c0 -77.333 21.167 -138.166 63.5 -182.499s100.166 -66.5 173.499 -66.5c63.333 0 118.833 17 166.5 51s84.167 82.667 109.5 146v0h137z" />
    <glyph glyph-name="glyph113" horiz-adv-x="0" 
d="M311 1506c224.667 0 396.5 -73.501 515.5 -220.501s155.5 -331.167 109.5 -552.5c-45.333 -221.333 -158 -405.666 -338 -552.999c-178.667 -146.667 -380.667 -220 -606 -220s-397.333 73.5 -516 220.5s-155.334 331.167 -110.001 552.5
c46 221.333 158.833 405.5 338.5 552.5s381.834 220.5 606.501 220.5v0zM779 732.999c38.667 184.667 11.001 338.334 -82.999 461.001s-231 184 -411 184s-342.333 -61.333 -487 -184s-236.334 -276.334 -275.001 -461.001c-38 -184.667 -10 -338.334 84 -461.001
s231 -184 411 -184s342.333 61.333 487 184s236 276.334 274 461.001v0z" />
    <glyph glyph-name="glyph114" horiz-adv-x="0" 
d="M-268 288l186.001 896.001v0h68v0h294c81.333 0 144.166 -16.833 188.499 -50.5s66.5 -80.834 66.5 -141.501v-3c0 -90.667 -34 -165 -102 -223c-52.667 -44 -118 -71.667 -196 -83v0l175 -395v0h-76h-77v0l-155 391v0l-154 -1v0l-81 -390v0h-68h-69v0zM-25.999 792.001
h176c80 0 140.667 15.333 182 46s62 75.667 62 135c0 31.333 -15 55.5 -45 72.5s-72.333 25.5 -127 25.5h-191v0z" />
    <glyph glyph-name="glyph130" horiz-adv-x="682" 
d="M432 573l123.999 598v0l-216 6l21 98c52.667 -3.33301 106.334 10.667 161.001 42c55.333 31.333 98 72.333 128 123h107v0l-180 -867v0h-72h-73v0z" />
    <glyph glyph-name="glyph131" horiz-adv-x="682" 
d="M582 757h-420l13 63l13 63l561 528h61h62l-113 -545v0h101l-23 -109h-101v0l-38 -184h-154l38 184v0zM605 866l67 325v0v0l-327 -308l-18 -17v0h278z" />
    <glyph glyph-name="glyph133" horiz-adv-x="682" 
d="M432 573l123.999 598v0l-216 6l21 98c52.667 -3.33301 106.334 10.667 161.001 42c55.333 31.333 98 72.333 128 123h107v0l-180 -867v0h-72h-73v0z" />
    <glyph glyph-name="glyph134" horiz-adv-x="682" 
d="M915 1228l0.00195312 -5.99902c0 -72.667 -25.333 -134.5 -76 -185.5s-147.334 -109.5 -290.001 -175.5c-97.333 -44.667 -166.333 -87.334 -207 -128.001c-10 -10 -19.333 -21.333 -28 -34v0h496l-26 -126h-653v0c19.333 93.333 56.833 168 112.5 224
s150.834 115 285.501 177c95.333 44 160 83 194 117s50.667 76.667 50 128c0 34.667 -12.667 60.667 -38 78s-63.333 26 -114 26c-56.667 0 -103.834 -17 -141.501 -51s-62.834 -82.667 -75.501 -146v0h-126v0c20.667 100.667 64.5 178.167 131.5 232.5
s152.167 81.5 255.5 81.5c75.333 0 136 -19.333 182 -58c45.333 -38.667 68 -90 68 -154z" />
    <glyph glyph-name="glyph136" horiz-adv-x="682" 
d="M736 1221c0 31.333 -12.499 56.001 -37.499 74.001s-59.167 27 -102.5 27c-48 0 -89.5 -15 -124.5 -45s-58.167 -70.333 -69.5 -121v0h-126v0c20.667 92.667 61.167 163.167 121.5 211.5s138.5 72.5 234.5 72.5c78 0 140.167 -16.5 186.5 -49.5s69.5 -77.167 69.5 -132.5
c0 -78 -32 -140.667 -96 -188c-20 -15.333 -42.667 -28 -68 -38v0l47 -21c46.667 -28 70 -70.667 70 -128c0.666992 -92.667 -36.833 -170.834 -112.5 -234.501s-168.167 -95.5 -277.5 -95.5c-102.667 0 -176.334 23.667 -221.001 71s-60 118.333 -46 213v0h139v0
c-8.66699 -58 -1 -100.333 23 -127s66.333 -40 127 -40c66 0 119.333 17.667 160 53s61 82 61 140c0.666992 34 -12 58.667 -38 74s-67 23 -123 23h-70l23 108h52c60 0 108 14 144 42s54 65 54 111z" />
    <glyph glyph-name="glyph137" horiz-adv-x="682" 
d="M582 757h-420l13 63l13 63l561 528h61h62l-113 -545v0h101l-23 -109h-101v0l-38 -184h-154l38 184v0zM605 866l67 325v0v0l-327 -308l-18 -17v0h278z" />
    <glyph glyph-name="glyph140" horiz-adv-x="0" 
d="M-29 0l-204 289h220l122 -289h-138z" />
    <glyph glyph-name="glyph142" horiz-adv-x="0" 
d="M-73 0l246 289h218l-327 -289h-137z" />
    <glyph glyph-name="glyph144" horiz-adv-x="0" 
d="M170 290l146 -290h-163l-97 190v0l-174 -190h-164l266 290h93h93z" />
    <glyph glyph-name="glyph146" horiz-adv-x="0" 
d="M-332 22c17.333 64.667 49.6689 116.666 97.002 155.999s101 59 161 59c17.333 0 40.666 -3.83301 69.999 -11.5s56.333 -17.167 81 -28.5c20 -9.33301 41.5 -17.166 64.5 -23.499s40.833 -9.5 53.5 -9.5c26.667 0 50.5 8 71.5 24s36.167 37.667 45.5 65h102
c-16 -60 -48.167 -110.833 -96.5 -152.5s-99.5 -62.5 -153.5 -62.5c-16.667 0 -40.334 4 -71.001 12s-60 17.667 -88 29c-21.333 8.66699 -43.833 16.167 -67.5 22.5s-41.5 9.5 -53.5 9.5c-26 0 -50.333 -8.66699 -73 -26s-37.667 -38.333 -45 -63h-98z" />
    <glyph glyph-name="glyph148" horiz-adv-x="0" 
d="M-195 232h186l-44 -209h-186zM137 232h186l-44 -209h-186z" />
    <glyph glyph-name="glyph150" horiz-adv-x="0" 
d="M6 -82c-52.667 0 -93.6689 18.167 -123.002 54.5s-38.666 80.833 -27.999 133.5c11.333 52.667 38.833 97.167 82.5 133.5s91.834 54.5 144.501 54.5s93.5 -18.167 122.5 -54.5s37.833 -80.833 26.5 -133.5c-10.667 -52.667 -37.667 -97.167 -81 -133.5
s-91.333 -54.5 -144 -54.5v0zM21.998 0c30 0 57.166 10.167 81.499 30.5s39.5 45.5 45.5 75.5c6.66699 30 1.83398 55.167 -14.499 75.5s-39.5 30.5 -69.5 30.5s-57.167 -10.167 -81.5 -30.5s-39.833 -45.5 -46.5 -75.5c-6 -30 -0.833008 -55.167 15.5 -75.5
s39.5 -30.5 69.5 -30.5v0z" />
    <glyph glyph-name="glyph153" horiz-adv-x="0" 
d="M17 2l-121 -129.001v0l64 9c53.333 0 92.333 -13.667 117 -41s32 -65 22 -113c-11.333 -55.333 -43.166 -100.666 -95.499 -135.999s-113.833 -53 -184.5 -53c-24.667 0 -54.5 4.33301 -89.5 13s-67.833 19.667 -98.5 33l51 83c20 -9.33301 41.833 -16.833 65.5 -22.5
s44.167 -8.5 61.5 -8.5c39.333 0 69.833 7 91.5 21s35.5 35.667 41.5 65c4 20 -2.33301 38.167 -19 54.5s-37.334 24.5 -62.001 24.5c-7.33301 0 -18.5 -1.5 -33.5 -4.5s-30.833 -6.83301 -47.5 -11.5l-25 38l167 178h95z" />
    <glyph glyph-name="glyph179" horiz-adv-x="0" 
d="M-29 0l-204 289h220l122 -289h-138z" />
    <glyph glyph-name="glyph181" horiz-adv-x="0" 
d="M-89 0l246 289h218l-327 -289h-137z" />
    <glyph glyph-name="glyph183" horiz-adv-x="0" 
d="M153 290l146 -290h-163l-97 190v0l-174 -190h-164l266 290h93h93z" />
    <glyph glyph-name="glyph185" horiz-adv-x="0" 
d="M-345 22c17.333 64.667 49.666 116.666 96.999 155.999s101 59 161 59c18 0 41.667 -3.83301 71 -11.5s56 -17.167 80 -28.5c20.667 -9.33301 42.334 -17.166 65.001 -23.499s40.334 -9.5 53.001 -9.5c26.667 0 50.5 8 71.5 24s36.167 37.667 45.5 65h102
c-16 -60 -48.167 -110.833 -96.5 -152.5s-99.5 -62.5 -153.5 -62.5c-16.667 0 -40.334 4 -71.001 12s-60 17.667 -88 29c-21.333 8.66699 -43.833 16.167 -67.5 22.5s-41.5 9.5 -53.5 9.5c-26 0 -50.333 -8.66699 -73 -26s-37.667 -38.333 -45 -63h-98z" />
    <glyph glyph-name="glyph187" horiz-adv-x="0" 
d="M-195 232h186l-44 -209h-186zM137 232h186l-44 -209h-186z" />
    <glyph glyph-name="glyph189" horiz-adv-x="0" 
d="M24 -44c-52.667 0 -93.499 18.167 -122.499 54.5s-38.167 80.833 -27.5 133.5c11.333 52.667 38.833 97.167 82.5 133.5s91.834 54.5 144.501 54.5s93.5 -18.167 122.5 -54.5s37.833 -80.833 26.5 -133.5c-10.667 -52.667 -37.834 -97.167 -81.501 -133.5
s-91.834 -54.5 -144.501 -54.5v0zM40.001 38c30 0 57.332 10.167 81.999 30.5s40 45.5 46 75.5c6.66699 30 1.83398 55.167 -14.499 75.5s-39.5 30.5 -69.5 30.5s-57.167 -10.167 -81.5 -30.5s-39.833 -45.5 -46.5 -75.5c-6 -30 -1 -55.167 15 -75.5s39 -30.5 69 -30.5v0z
" />
    <glyph glyph-name="glyph192" horiz-adv-x="0" 
d="M26 2l-120 -128.001v0l63 8c53.333 0 92.333 -13.667 117 -41s32 -65 22 -113c-11.333 -55.333 -43.166 -100.666 -95.499 -135.999s-113.833 -53 -184.5 -53c-24 0 -53.667 4.33301 -89 13s-68.333 19.667 -99 33l51 83c20 -9.33301 41.833 -16.833 65.5 -22.5
s44.167 -8.5 61.5 -8.5c39.333 0 69.833 7 91.5 21s35.5 35.667 41.5 65c4 20 -2.33301 38.167 -19 54.5s-37.334 24.5 -62.001 24.5c-7.33301 0 -18.5 -1.5 -33.5 -4.5s-30.833 -6.83301 -47.5 -11.5l-25 38l167 178h95z" />
    <glyph glyph-name="glyph219" horiz-adv-x="0" 
d="M-286 125h622l-25 -125h-622z" />
    <glyph glyph-name="glyph221" horiz-adv-x="0" 
d="M-286 125h622l-25 -125h-622z" />
    <glyph glyph-name="glyph223" horiz-adv-x="0" 
d="M0 14c-90.667 0 -155.832 22.167 -195.499 66.5s-57.167 114.833 -52.5 211.5h101c6.66699 -58 24.5 -99.333 53.5 -124s73.833 -37 134.5 -37c58.667 0 108.5 13.667 149.5 41s72.167 67.333 93.5 120h99c-24.667 -87.333 -70.834 -155.5 -138.501 -204.5
s-149.167 -73.5 -244.5 -73.5z" />
    <glyph glyph-name="glyph225" horiz-adv-x="0" 
d="M-1 3c-90.667 0 -155.835 22.167 -195.502 66.5s-57.167 114.833 -52.5 211.5h101c6.66699 -58 24.5 -99.333 53.5 -124s73.833 -37 134.5 -37c58.667 0 108.5 13.667 149.5 41s72.167 67.333 93.5 120h99c-25.333 -87.333 -71.666 -155.5 -138.999 -204.5
s-148.666 -73.5 -243.999 -73.5z" />
    <glyph glyph-name="glyph227" horiz-adv-x="0" 
d="M-280 -273c13.333 63.333 44.834 119.499 94.501 168.499s110.167 83.833 181.5 104.5h160c-92.667 -41.333 -158.834 -80.5 -198.501 -117.5s-65.5 -83.5 -77.5 -139.5c-7.33301 -36 -4 -62.667 10 -80s39.667 -26 77 -26c19.333 0 41.5 2.5 66.5 7.5
s49.833 12.167 74.5 21.5l18 -82c-36 -14 -73 -25.333 -111 -34c-36.667 -8 -68 -12 -94 -12c-72 0 -126.333 17.333 -163 52c-37.333 34.667 -50 80.334 -38 137.001z" />
    <glyph glyph-name="glyph229" horiz-adv-x="0" 
d="M-280 -273c13.333 63.333 44.834 119.499 94.501 168.499s110.167 83.833 181.5 104.5h160c-92.667 -41.333 -158.834 -80.5 -198.501 -117.5s-65.5 -83.5 -77.5 -139.5c-7.33301 -36 -4 -62.667 10 -80s39.667 -26 77 -26c19.333 0 41.5 2.5 66.5 7.5
s49.833 12.167 74.5 21.5l18 -82c-36 -14 -73 -25.333 -111 -34c-36.667 -8 -68 -12 -94 -12c-72 0 -126.333 17.333 -163 52c-37.333 34.667 -50 80.334 -38 137.001z" />
    <glyph glyph-name="glyph233" horiz-adv-x="0" 
d="M-82 0l-146 290h163l96 -190v0l175 190h164l-266 -290h-93h-93z" />
    <glyph glyph-name="glyph235" horiz-adv-x="0" 
d="M-93 0l-146 290h163l96 -190v0l175 190h164l-266 -290h-93h-93z" />
    <glyph glyph-name="glyph238" horiz-adv-x="0" 
d="M-310 -29c-112.667 0 -201.667 35.832 -267 107.499s-98 169.834 -98 294.501c0 209.333 54.5 383.5 163.5 522.5s245.5 208.5 409.5 208.5c128.667 0 222 -57 280 -171l10 -21v0l116 558v0h90h91v0l-304 -1470v0h-86h-86v0l29 144v0l-24 -24
c-98.667 -99.333 -206.667 -149 -324 -149zM-100 940.999c-114.667 0 -208.336 -52.332 -281.003 -156.999s-109 -239.334 -109 -404.001c0 -80.667 19.333 -143.167 58 -187.5s93 -66.5 163 -66.5c84.667 0 160.834 34.167 228.501 102.5s112.834 156.5 135.501 264.5
c30.667 149.333 29.834 261.333 -2.49902 336s-96.5 112 -192.5 112z" />
    <glyph glyph-name="glyph239" horiz-adv-x="0" 
d="M112 388l19.999 99h95h95l-35 -170c-19.333 -94 -49.666 -166.333 -90.999 -217s-96.666 -84 -165.999 -100v0l15 75v0c41.333 4 73.666 25.667 96.999 65c20 32.667 37.667 82 53 148v0h-9h-95z" />
    <glyph glyph-name="glyph245" horiz-adv-x="0" 
d="M-46 231h186l-43 -209h-186z" />
    <glyph glyph-name="glyph247" horiz-adv-x="0" 
d="M-46 231h186l-43 -209h-186z" />
    <glyph glyph-name="glyph255" horiz-adv-x="0" 
d="M92 388l19.999 99h95h95l-35 -170c-19.333 -94 -49.666 -166.333 -90.999 -217s-96.666 -84 -165.999 -100v0l15 75v0c41.333 4 73.666 25.667 96.999 65c20 32.667 37.667 82 53 148v0h-9h-95z" />
    <glyph glyph-name="glyph257" horiz-adv-x="0" 
d="M114 99l-20.001 -99h-95h-95l35 170c19.333 94 49.5 166.333 90.5 217s96.5 84 166.5 100v0l-15 -75v0c-41.333 -4 -74 -25.667 -98 -65c-19.333 -32.667 -36.666 -82 -51.999 -148v0h9h95z" />
    <glyph glyph-name="glyph282" horiz-adv-x="0" 
d="M-304 0l246 289h218l-327 -289h-137zM69 0l246 289h218l-327 -289h-137z" />
    <glyph glyph-name="glyph284" horiz-adv-x="0" 
d="M-292 0l246 289h218l-327 -289h-137zM81 0l246 289h218l-327 -289h-137z" />
    <glyph glyph-name="glyph300" horiz-adv-x="0" 
d="M112 388l19.999 99h95h95l-35 -170c-19.333 -94 -49.666 -166.333 -90.999 -217s-96.666 -84 -165.999 -100v0l15 75v0c41.333 4 73.666 25.667 96.999 65c20 32.667 37.667 82 53 148v0h-9h-95z" />
    <glyph glyph-name="glyph302" horiz-adv-x="0" 
d="M82 242l20.001 99h95h95l-35 -170c-19.333 -94 -49.5 -166.333 -90.5 -217s-96.5 -84 -166.5 -100v0l16 75v0c41.333 4 73.666 25.667 96.999 65c18.667 32.667 36 82 52 148v0h-9h-95z" />
    <glyph glyph-name="glyph350" horiz-adv-x="0" 
d="M54 625l150 723v0h-257v0l12 61l13 61v0h664v0l-13 -61l-12 -61v0h-256v0l-150 -723v0h-75h-76v0z" />
    <glyph glyph-name="glyph351" horiz-adv-x="0" 
d="M-189 625h-74h-74v0l175 845v0h117h117v0l106 -629v0v0l362 629v0h113h114v0l-175 -845v0h-73h-73v0l150 710v0l-413 -710h-54h-54l-116 713v0z" />
  </font>
</defs>
</svg>
